<svg xmlns="http://www.w3.org/2000/svg" width="50.168" height="30" preserveAspectRatio="xMidYMid"><path d="M14.138 10.895c0 .618.067 1.118.183 1.486a8.931 8.931 0 00.534 1.2.725.725 0 01.117.385c0 .166-.1.333-.317.5l-1.051.701a.8.8 0 01-.434.15c-.167 0-.334-.083-.5-.234a5.162 5.162 0 01-.601-.784c-.167-.283-.334-.6-.517-.984-1.302 1.535-2.937 2.303-4.906 2.303-1.401 0-2.52-.401-3.337-1.202-.818-.8-1.235-1.869-1.235-3.203 0-1.419.5-2.57 1.519-3.438C4.61 6.908 5.962 6.474 7.68 6.474c.567 0 1.15.05 1.768.133.618.084 1.252.217 1.92.367V5.756c0-1.268-.268-2.152-.785-2.67-.534-.517-1.435-.767-2.72-.767-.584 0-1.185.067-1.802.217s-1.218.334-1.802.568a4.805 4.805 0 01-.584.216.997.997 0 01-.267.05c-.234 0-.35-.166-.35-.517v-.818c0-.266.033-.467.116-.583.084-.117.234-.234.468-.35C4.227.8 4.927.55 5.745.35A10.12 10.12 0 018.348.033c1.986 0 3.437.45 4.372 1.352.917.9 1.385 2.27 1.385 4.105v5.405h.033zm-6.775 2.537c.551 0 1.119-.1 1.72-.3.6-.2 1.134-.568 1.584-1.069.267-.316.467-.667.567-1.067.1-.4.167-.885.167-1.452v-.7a13.934 13.934 0 00-1.535-.284 12.573 12.573 0 00-1.568-.1c-1.118 0-1.936.216-2.486.667-.55.45-.818 1.084-.818 1.919 0 .784.2 1.368.617 1.768.401.417.985.618 1.752.618zm13.399 1.802c-.3 0-.5-.05-.634-.167-.134-.1-.25-.334-.35-.65l-3.921-12.9c-.1-.333-.15-.55-.15-.667 0-.267.133-.417.4-.417h1.635c.317 0 .534.05.65.167.134.1.234.333.334.65l2.803 11.046L24.132 1.25c.084-.333.184-.55.317-.65.134-.1.367-.167.668-.167h1.335c.316 0 .534.05.667.167.134.1.25.333.317.65l2.636 11.18L32.96 1.25c.1-.333.217-.55.333-.65.134-.1.35-.167.651-.167h1.552c.267 0 .417.133.417.417 0 .083-.017.167-.033.267-.017.1-.05.233-.117.417L31.74 14.433c-.1.334-.217.55-.35.65-.134.1-.351.167-.635.167H29.32c-.317 0-.534-.05-.667-.167-.134-.116-.25-.333-.317-.667L25.75 3.654 23.18 14.4c-.082.334-.183.551-.316.668-.133.117-.367.167-.667.167h-1.435zm21.44.45c-.867 0-1.735-.1-2.569-.3-.834-.2-1.485-.417-1.919-.667-.267-.15-.45-.318-.517-.468a1.178 1.178 0 01-.1-.467v-.85c0-.351.133-.518.384-.518a.945.945 0 01.3.05c.1.033.25.1.417.167a9.076 9.076 0 001.835.584 10.02 10.02 0 001.986.2c1.051 0 1.869-.184 2.436-.55.567-.368.868-.902.868-1.586 0-.467-.15-.85-.45-1.168-.301-.317-.868-.6-1.686-.867l-2.42-.751c-1.217-.384-2.118-.951-2.67-1.702-.55-.734-.833-1.552-.833-2.42 0-.7.15-1.318.45-1.852.3-.534.701-1 1.202-1.368A5.293 5.293 0 0140.65.284 7.272 7.272 0 0142.753 0c.367 0 .751.017 1.118.067.384.05.734.116 1.085.183.333.084.65.167.95.267.301.1.535.2.702.3.233.134.4.268.5.418.1.133.15.317.15.55v.784c0 .35-.133.535-.384.535-.133 0-.35-.067-.633-.2-.952-.435-2.02-.652-3.204-.652-.951 0-1.702.15-2.22.468-.516.317-.784.8-.784 1.485 0 .467.167.867.501 1.184.334.317.951.634 1.835.918l2.37.75c1.201.385 2.069.919 2.586 1.603.517.684.768 1.468.768 2.336a4.29 4.29 0 01-.434 1.935 4.484 4.484 0 01-1.218 1.468c-.518.418-1.135.718-1.852.935a7.927 7.927 0 01-2.386.35z" fill="#252f3e"/><path d="M45.356 23.793C39.866 27.848 31.891 30 25.033 30c-9.61 0-18.27-3.554-24.81-9.46-.518-.468-.05-1.102.566-.735 7.075 4.105 15.802 6.591 24.828 6.591 6.09 0 12.781-1.268 18.938-3.87.918-.418 1.702.6.801 1.267zm2.286-2.603c-.7-.9-4.639-.434-6.424-.217-.534.067-.617-.4-.133-.75 3.136-2.203 8.292-1.569 8.893-.835.6.751-.167 5.907-3.104 8.376-.45.384-.884.184-.684-.316.668-1.653 2.153-5.373 1.452-6.258z" fill="#f90"/></svg>