<svg xmlns="http://www.w3.org/2000/svg" width="30" height="30" preserveAspectRatio="xMidYMid"><path d="M29.999 8.82c0-.504-.122-.95-.367-1.333-.241-.376-.602-.691-1.086-.94-3.993-2.05-7.991-4.092-11.984-6.143-1.076-.553-2.12-.533-3.188.028-1.59.834-9.549 4.89-11.92 6.113C.477 7.048.002 7.818.002 8.819 0 12.939.002 17.059 0 21.18c0 .493.116.93.35 1.307.241.388.607.712 1.102.966 2.372 1.223 10.332 5.28 11.921 6.114 1.069.56 2.112.58 3.19.028 3.992-2.051 7.99-4.094 11.984-6.143.495-.255.86-.58 1.102-.966.234-.377.35-.814.35-1.307l-.001-12.36" fill="#5c8dbc"/><path d="M15.046 14.96L.351 22.488c.24.388.606.712 1.101.966 2.372 1.223 10.332 5.28 11.921 6.114 1.07.56 2.113.58 3.19.028 3.992-2.051 7.99-4.094 11.985-6.143.495-.255.86-.58 1.101-.966L15.046 14.96" fill="#1a4674"/><path d="M10.693 17.19c.855 1.328 2.463 2.224 4.307 2.224 1.855 0 3.472-.907 4.323-2.25l-4.277-2.204-4.353 2.23" fill="#1a4674"/><path d="M29.999 8.82c0-.504-.122-.95-.367-1.333L15.046 14.96l14.603 7.527c.234-.377.35-.814.351-1.307 0 0 0-8.24-.002-12.36" fill="#1b598e"/><path d="M29.195 15.498h-1.14v1.015h-1.142v-1.015h-1.141v-1.015h1.14v-1.016h1.142v1.016h1.141v1.015m-4.164 0h-1.14v1.015h-1.142v-1.015h-1.14v-1.015h1.14v-1.016h1.141v1.016h1.141v1.015" fill="#fff"/><path d="M19.323 17.164c-.85 1.343-2.468 2.25-4.323 2.25-1.844 0-3.452-.896-4.307-2.224a4.937 4.393 0 01-.654-2.19c0-2.438 2.221-4.414 4.961-4.414 1.832 0 3.431.885 4.29 2.2l4.337-2.222C21.903 7.917 18.685 6.136 15 6.136c-5.502 0-9.963 3.968-9.963 8.864 0 1.606.48 3.112 1.32 4.41 1.719 2.662 4.946 4.454 8.643 4.454 3.704 0 6.936-1.8 8.652-4.468l-4.33-2.232" fill="#fff"/></svg>