<svg xmlns="http://www.w3.org/2000/svg" width="41.958" height="30" version="1.0"><path d="M35.088.212c-.919.617-1.401 1.615-1.491 3.081-.067 1.093.043 1.916.515 3.864.421 1.74.478 2.089.504 3.12l.024.896-.13.239c-.073.131-.144.237-.159.235-.047-.005-.622-.684-.971-1.147-.762-1.01-1.194-2.006-1.272-2.933l-.03-.359-.246-.05c-.496-.103-.507-.1-.577.163-.093.352-.05 1.23.081 1.615.177.523.573 1.256 1.14 2.107.63.945 1.04 1.69 1.19 2.165.124.388.139.397.725.439l.407.029.146-.37c.347-.878.474-1.497.516-2.498.047-1.144-.074-2.165-.553-4.657-.415-2.159-.41-2.11-.286-2.781.213-1.16.505-1.832 1.055-2.421.133-.142.137-.16.104-.445a2.406 2.406 0 00-.075-.402c-.063-.165-.258-.13-.617.11zm-4.214 4.64l-.205.018.025.188c.039.288.225.527.522.672.23.112.337.13 1 .166.41.023.823.042.92.043l.177.002v-.444c0-.525.135-.452-1.084-.585-.858-.093-.941-.097-1.355-.06zm4.244.6c-.04.154.01.46.104.64.111.214.426.535.817.832.403.306.752.663.869.888.251.484.422 2.084.31 2.916-.152 1.132-.74 2.394-1.508 3.23-.13.14-.235.277-.235.302 0 .026.225.254.501.509.354.325.508.441.524.391.062-.194.846-1.651 1.023-1.9.381-.536.887-.918 1.384-1.046a4.302 4.302 0 00.388-.121c.257-.098.609-.084 1.2.049.885.199 1.167.142 1.37-.275.168-.346.134-.407-.306-.554-.773-.258-1.79-.27-2.81-.03-.314.073-.43.083-.47.042-.062-.06-.065-.464-.009-1.125.031-.371.02-.533-.065-.975-.259-1.344-.765-2.328-1.594-3.102-.328-.305-.447-.385-.662-.447a3.762 3.762 0 01-.532-.21l-.269-.134zm-2.663 8.258c-.07.02-.202.084-.293.14-.136.083-.165.13-.165.258v.156l.317.03a3.722 3.722 0 012.063.84c.672.536 1.255 1.309 2.203 2.921.304.519.497.8.548.801.095.002.31-.244.35-.399.062-.25-.299-1.45-.644-2.139-.665-1.33-1.783-2.234-3.169-2.565-.385-.092-.977-.113-1.21-.044zm-23.42.654l-7.614.024-.153.109c-.193.136-.487.731-.618 1.248-.226.893-.356 1.87-.429 3.207-.027.502-.093 1.586-.147 2.41-.107 1.635-.1 2.659.031 4.189.197 2.308.555 3.693 1.036 4.007.133.087 1.52.17 6.024.365 4.236.183 8.813.033 11.386-.374.58-.092.687-.173.966-.735.281-.569.443-1.215.485-1.942.045-.79.026-.978-.102-1.012-.163-.044-.687-.033-.78.017-.134.071-.23.374-.308.971-.165 1.267-.39 1.565-1.352 1.79-1.074.254-2.707.348-5.957.345-3.159-.003-5.598-.1-8.046-.319-.605-.055-.778-.087-.966-.182-.486-.245-.85-.818-1.072-1.692-.17-.669-.205-1.108-.255-3.256-.073-3.088.045-4.584.488-6.183.267-.967.49-1.295 1.067-1.575.642-.312.39-.301 6.763-.3 5.523.003 7.346.037 8.063.153.667.108 1.05.797 1.269 2.286.102.694.114.736.25.858.276.245.638.215.792-.065.138-.252.109-1.067-.068-1.91-.228-1.085-.438-1.82-.56-1.964-.237-.28-.937-.449-1.99-.477-.324-.01-4.015-.005-8.203.008zm21.434.769c-.306.075-.49.174-.712.382l-.18.17.11.088c.17.137.538.23 1.205.301.336.036.706.097.823.134 1.278.414 2.075.923 3.109 1.985.506.52 1.546 1.805 1.623 2.005.016.04.1.064.233.064.242 0 .242.027.01-.677-.525-1.592-1.607-2.91-3.153-3.838-.348-.21-.414-.23-1.476-.45-1.195-.248-1.237-.252-1.592-.164zm-22.71.986c.046.117 1.77 2.501 2.154 2.977.79.978 1.944 2.183 2.38 2.485.325.225.9.41 1.46.47.669.071 6.163.069 10.418-.005 3.61-.063 3.51-.055 4.54-.38.319-.1.589-.174.6-.163.01.01-.038.095-.108.187-.166.216-.535.457-.92.601-.643.24-.862.255-4.535.31-3.313.048-4.803.083-8.767.205l-1.856.057-.276.137c-.485.241-.873.666-2.788 3.054a152.239 152.239 0 00-1.848 2.33c0 .048 1.057-.038 1.124-.09.037-.03.531-.67 1.098-1.426 1.22-1.626 1.585-2.066 2.147-2.593.556-.52.75-.649 1.098-.722.67-.14 2.49-.173 6.558-.118 4.717.064 6.298.03 7.035-.15a10.336 10.336 0 001.762-.61c.191-.09.355-.157.365-.147.044.044-.14.305-.357.507-.682.635-1.698 1.03-2.969 1.157-.509.05-3.43.073-5.335.042-.594-.01-1.779-.017-2.632-.017-1.393.002-1.61.012-2.13.105-.69.124-1.46.37-1.913.612-.272.144-.346.21-.432.384-.247.498-.273 1.853-.056 2.935l.049.246h.373c.205 0 .376-.005.38-.012.004-.006.02-.528.037-1.158.033-1.255.048-1.333.332-1.656.208-.235.338-.294.778-.353.93-.125 1.643-.145 5.034-.144 2.092 0 3.82-.02 4.16-.048 1.59-.134 2.864-.45 3.973-.988.537-.26.597-.303.98-.709.722-.762 1.42-1.782 1.82-2.654l.181-.398-.017.285c-.038.636-.978 2.186-2.45 4.04-.275.345-.5.644-.5.664 0 .067.208.182.33.182.215 0 .769-.372 1.02-.685 1.284-1.6 2.086-2.902 2.46-3.995.084-.244.202-.497.263-.56l.111-.117.142.142.142.142-.121.419c-.272.935-.568 1.514-1.71 3.34-.871 1.392-.877 1.408-.496 1.408.165 0 .265-.043.547-.234.19-.128.378-.26.419-.292.12-.095 1.061-1.685 1.388-2.344.165-.333.376-.85.469-1.15.246-.792.246-.793.514-.56.17.15.174.158.146.413-.063.592-.406 1.657-.811 2.524-.114.242-.206.468-.206.502 0 .035.061.131.136.214.131.146.141.15.27.083.219-.112.594-.52.754-.82.081-.153.27-.684.417-1.18.149-.495.287-.9.307-.9.02 0 .108.087.193.194.395.493.538.562.735.352.128-.135.13-.311.008-.663-.126-.364-.12-.465.026-.531a.608.608 0 01.188-.054c.092 0 .086-.122-.023-.438-.324-.934-1.02-1.758-2.118-2.507-1.044-.712-2.398-1.156-3.682-1.21-.637-.026-1.008.048-1.324.264-.243.165-.252.31-.028.461.245.164.569.241 1.244.295 2.099.168 3.687.927 4.84 2.314.18.218.185.228.054.143-1.431-.935-2.99-1.618-4.173-1.827-.354-.062-.617-.075-1.151-.057-.733.025-1.171.113-1.678.336-.28.123-.316.187-.295.528l.012.198-3.855.024c-2.12.013-4.35.023-4.957.023a28.1 28.1 0 01-3.926-.258c-.548-.08-.644-.15-.827-.612-.123-.312-.147-.914-.072-1.782.048-.541-.01-.86-.176-.975-.06-.042-.21-.068-.394-.068-.352 0-.352 0-.43.634-.115.93-.044 1.94.183 2.618.091.272.13.325.363.49.49.35 1.31.585 2.457.702.28.028 1.454.049 2.726.047 1.228 0 3.428.012 4.889.029 1.7.02 3.128.011 3.968-.022.721-.03 1.32-.044 1.332-.033.047.047-.503.31-.832.398-.647.174-.943.192-3.787.236a1500 1500 0 00-5.593.098c-4.213.083-4.598.082-4.959-.017a4.866 4.866 0 01-1.668-.8c-.478-.36-1.029-.976-2.339-2.614L8.715 16.05h-.491c-.415 0-.487.01-.465.069z"/></svg>