<svg xmlns="http://www.w3.org/2000/svg" width="200" height="143" version="1.0"><path d="M167.253 1.012c-4.38 2.941-6.68 7.696-7.108 14.685-.319 5.208.204 9.133 2.454 18.42 2.01 8.295 2.278 9.955 2.406 14.87l.111 4.272-.622 1.137c-.342.626-.681 1.131-.754 1.123-.226-.024-2.965-3.26-4.63-5.468-3.629-4.815-5.689-9.564-6.064-13.982l-.145-1.71-1.171-.242c-2.36-.488-2.416-.472-2.749.782-.444 1.674-.234 5.857.387 7.696.842 2.494 2.732 5.988 5.434 10.044 2.999 4.503 4.954 8.059 5.674 10.32.59 1.85.66 1.893 3.456 2.091l1.94.137.694-1.759c1.653-4.19 2.26-7.136 2.459-11.91.226-5.453-.352-10.321-2.634-22.197-1.979-10.292-1.954-10.057-1.366-13.258 1.015-5.528 2.411-8.73 5.031-11.54.632-.677.651-.76.494-2.12-.09-.777-.25-1.64-.355-1.915-.3-.79-1.233-.624-2.942.524zm-20.085 22.116l-.98.087.12.894c.186 1.372 1.071 2.512 2.486 3.202 1.098.535 1.609.62 4.773.794 1.949.108 3.921.2 4.383.204l.84.008v-2.115c0-2.5.643-2.154-5.167-2.786-4.086-.445-4.484-.463-6.455-.288zm20.226 2.857c-.185.735.052 2.196.496 3.05.531 1.023 2.032 2.552 3.895 3.968 1.92 1.46 3.587 3.162 4.143 4.233 1.198 2.307 2.01 9.934 1.478 13.899-.723 5.4-3.53 11.412-7.19 15.4-.615.67-1.12 1.319-1.12 1.44 0 .12 1.076 1.21 2.39 2.422 1.685 1.553 2.421 2.104 2.497 1.868.296-.928 4.035-7.873 4.875-9.056 1.818-2.558 4.23-4.38 6.598-4.987a20.506 20.506 0 001.85-.58c1.223-.468 2.902-.4 5.72.234 4.219.948 5.561.679 6.528-1.31.801-1.648.64-1.939-1.458-2.64-3.681-1.23-8.532-1.283-13.393-.147-1.497.35-2.045.4-2.24.206-.294-.292-.31-2.215-.045-5.367.15-1.768.098-2.538-.308-4.646-1.234-6.408-3.646-11.098-7.602-14.784-1.56-1.453-2.127-1.837-3.153-2.131-.687-.197-1.828-.647-2.534-1l-1.283-.642zm-12.69 39.364c-.336.1-.967.402-1.4.668-.646.398-.787.618-.787 1.23v.744l1.512.148c3.778.368 6.829 1.61 9.834 4.004 3.205 2.553 5.981 6.234 10.5 13.92 1.453 2.473 2.37 3.813 2.612 3.818.453.01 1.481-1.164 1.667-1.902.3-1.189-1.421-6.916-3.065-10.196-3.173-6.336-8.501-10.647-15.106-12.225-1.838-.44-4.658-.541-5.766-.21zM43.069 68.47l-36.297.113-.73.519c-.917.651-2.318 3.486-2.942 5.95-1.077 4.258-1.7 8.915-2.046 15.284-.13 2.393-.446 7.563-.702 11.49-.509 7.794-.472 12.672.15 19.965.939 11.006 2.645 17.607 4.939 19.104.63.411 7.245.812 28.712 1.739 20.193.872 42.01.155 54.274-1.784 2.766-.437 3.274-.824 4.602-3.505 1.342-2.71 2.112-5.789 2.312-9.254.217-3.77.128-4.663-.482-4.826-.78-.209-3.278-.154-3.72.081-.638.34-1.096 1.785-1.468 4.63-.789 6.039-1.86 7.458-6.444 8.536-5.119 1.205-12.904 1.654-28.396 1.64-15.056-.013-26.685-.474-38.353-1.52-2.883-.26-3.707-.414-4.602-.866-2.318-1.17-4.05-3.902-5.11-8.065-.814-3.19-.978-5.283-1.22-15.522-.346-14.72.217-21.849 2.328-29.473 1.275-4.608 2.335-6.172 5.087-7.509 3.061-1.486 1.862-1.433 32.235-1.424 26.326.008 35.018.172 38.435.726 3.18.515 5.001 3.798 6.048 10.896.488 3.31.546 3.51 1.194 4.088 1.315 1.17 3.039 1.029 3.772-.308.659-1.202.521-5.087-.323-9.1-1.088-5.175-2.085-8.679-2.665-9.365-1.133-1.34-4.472-2.141-9.492-2.276-1.54-.042-19.134-.024-39.097.038zm102.167 3.662c-1.46.359-2.337.83-3.393 1.821l-.86.808.525.423c.812.654 2.565 1.093 5.745 1.436 1.602.173 3.366.461 3.92.64 6.095 1.97 9.895 4.396 14.82 9.458 2.411 2.478 7.373 8.605 7.74 9.558.075.194.478.305 1.106.305 1.156 0 1.154.132.047-3.228-2.5-7.587-7.658-13.866-15.029-18.293-1.657-.996-1.97-1.091-7.034-2.142-5.696-1.182-5.894-1.203-7.587-.786zm-108.25 4.701c.217.56 8.438 11.924 10.267 14.19 3.765 4.665 9.266 10.408 11.347 11.847 1.548 1.07 4.285 1.95 6.96 2.237 3.185.342 29.373.33 49.653-.023 17.206-.3 16.734-.26 21.643-1.809 1.52-.48 2.807-.83 2.859-.777.052.051-.18.453-.516.891-.79 1.032-2.547 2.18-4.383 2.865-3.067 1.145-4.107 1.215-21.619 1.473-15.791.233-22.894.4-41.786.982l-8.85.272-1.313.653c-2.315 1.149-4.164 3.175-13.289 14.557-4.846 6.045-8.811 11.045-8.811 11.11 0 .225 5.04-.184 5.36-.435.175-.137 2.53-3.194 5.231-6.793 5.82-7.752 7.557-9.85 10.234-12.36 2.65-2.484 3.58-3.095 5.236-3.442 3.19-.669 11.865-.825 31.259-.563 22.484.303 30.02.142 33.533-.718 2.805-.687 6.249-1.878 8.401-2.905.909-.434 1.691-.75 1.739-.701.21.208-.668 1.452-1.705 2.417-3.25 3.028-8.09 4.913-14.148 5.513-2.427.24-16.353.35-25.43.202-2.835-.047-8.48-.082-12.547-.08-6.642.006-7.675.056-10.154.5-3.285.589-6.957 1.763-9.118 2.914-1.295.69-1.65 1.006-2.06 1.831-1.179 2.373-1.303 8.835-.268 13.991l.235 1.172h1.776c.977 0 1.793-.025 1.812-.056.02-.03.1-2.515.177-5.521.156-5.983.23-6.355 1.585-7.892.988-1.12 1.61-1.403 3.705-1.683 4.436-.594 7.834-.691 23.995-.687 9.973.002 18.211-.093 19.828-.23 7.585-.637 13.654-2.146 18.939-4.706 2.562-1.241 2.847-1.448 4.675-3.38 3.438-3.635 6.767-8.494 8.67-12.654l.868-1.897-.08 1.36c-.182 3.031-4.666 10.422-11.684 19.257-1.308 1.646-2.378 3.071-2.378 3.166 0 .321.991.868 1.573.868 1.023 0 3.663-1.774 4.862-3.268 6.12-7.623 9.943-13.831 11.725-19.04.4-1.166.963-2.368 1.254-2.673l.528-.553.678.675.677.675-.58 1.998c-1.294 4.46-2.706 7.219-8.149 15.92-4.153 6.639-4.179 6.712-2.365 6.712.786 0 1.264-.204 2.606-1.113.903-.612 1.803-1.24 1.998-1.394.573-.453 5.06-8.03 6.617-11.172.787-1.588 1.792-4.054 2.234-5.48 1.172-3.778 1.175-3.782 2.45-2.668.816.713.83.752.7 1.964-.304 2.826-1.936 7.898-3.87 12.032-.54 1.153-.98 2.23-.98 2.395 0 .164.291.624.648 1.021.625.696.673.711 1.289.394 1.041-.536 2.828-2.48 3.59-3.907.39-.731 1.286-3.262 1.992-5.624.706-2.362 1.364-4.294 1.462-4.294.099 0 .513.416.92.926 1.88 2.35 2.562 2.677 3.503 1.68.608-.644.618-1.487.039-3.164-.6-1.733-.576-2.213.122-2.53.314-.142.717-.259.896-.259.44 0 .41-.58-.11-2.085-1.54-4.453-4.858-8.383-10.095-11.953-4.974-3.39-11.429-5.51-17.55-5.763-3.036-.125-4.803.225-6.311 1.254-1.159.79-1.2 1.483-.132 2.2 1.167.783 2.71 1.149 5.931 1.406 10.003.8 17.573 4.419 23.068 11.03.862 1.037.882 1.088.26.681-6.824-4.458-14.258-7.712-19.891-8.707-1.69-.299-2.945-.361-5.49-.274-3.494.12-5.581.539-7.996 1.602-1.336.588-1.506.893-1.408 2.519l.057.944-18.373.112c-10.104.062-20.737.112-23.628.112-6.685 0-13.186-.43-18.717-1.233-2.61-.379-3.068-.717-3.94-2.918-.589-1.483-.704-4.355-.342-8.494.226-2.577-.049-4.094-.841-4.647-.289-.201-1.004-.325-1.878-.325-1.678 0-1.678-.001-2.05 3.023-.546 4.43-.21 9.244.872 12.48.434 1.297.62 1.549 1.73 2.34 2.34 1.668 6.247 2.783 11.711 3.34 1.34.136 6.93.235 12.995.228 5.855-.006 16.342.055 23.304.135 8.106.094 14.909.056 18.913-.104 3.44-.138 6.297-.208 6.35-.155.223.222-2.396 1.475-3.963 1.896-3.084.828-4.498.916-18.051 1.124-7.394.113-19.392.323-26.662.467-20.084.397-21.916.391-23.638-.08-3.04-.831-5.7-2.106-7.953-3.81-2.277-1.723-4.902-4.658-11.146-12.463l-6.737-8.421H39.2c-1.976 0-2.322.051-2.214.33z"/></svg>