<svg xmlns="http://www.w3.org/2000/svg" viewBox="0 0 50 50"><path d="M33.586 4l-3 3h-14l-2 2 1 1-1 1 1.129 1.125L14.465 14h-2.05L12 13.586V8H7v10.617l2 1v9.969l-1 1v8L6.586 40H2v5h17v-3h2v2h15.414l4-4h5L47 38.414v-9.828L43.414 25h2L47 23.414V6.766L45.617 4zm.828 2h9.969L45 7.234v15.352l-.414.414H36v-4h3v-3h-6v7h-5v-4h3v-3h-6v7h-5v-4h3v-3h-6v7h-1.586l-2-2H11v-2.617l-2-1V10h1v4.414L11.586 16h3.95l2.75-4.125-.872-.875 1-1-1-1h14zM11 23h1.586l2 2H17v11h6v-3h-3v-8h5v11h6v-3h-3v-8h5v11h6v-3h-3v-8h4.586L45 29.414v8.172l-.414.414h-5l-4 4H23v-2h-6v3H4v-1h3.414L10 39.414v-8l1-1z"/></svg>