<?xml version="1.0" encoding="UTF-8" standalone="no"?>
<!-- Created with Inkscape (http://www.inkscape.org/) -->

<svg
   xmlns:dc="http://purl.org/dc/elements/1.1/"
   xmlns:cc="http://creativecommons.org/ns#"
   xmlns:rdf="http://www.w3.org/1999/02/22-rdf-syntax-ns#"
   xmlns:svg="http://www.w3.org/2000/svg"
   xmlns="http://www.w3.org/2000/svg"
   xmlns:sodipodi="http://sodipodi.sourceforge.net/DTD/sodipodi-0.dtd"
   xmlns:inkscape="http://www.inkscape.org/namespaces/inkscape"
   id="svg2"
   sodipodi:version="0.32"
   inkscape:version="0.92.3 (2405546, 2018-03-11)"
   width="200"
   height="143"
   version="1.0"
   sodipodi:docname="ccc.svg"
   inkscape:output_extension="org.inkscape.output.svg.inkscape">
  <metadata
     id="metadata7">
    <rdf:RDF>
      <cc:Work
         rdf:about="">
        <dc:format>image/svg+xml</dc:format>
        <dc:type
           rdf:resource="http://purl.org/dc/dcmitype/StillImage" />
        <dc:title></dc:title>
      </cc:Work>
    </rdf:RDF>
  </metadata>
  <defs
     id="defs5" />
  <sodipodi:namedview
     inkscape:window-height="1072"
     inkscape:window-width="2556"
     inkscape:pageshadow="2"
     inkscape:pageopacity="0.0"
     guidetolerance="10.0"
     gridtolerance="10.0"
     objecttolerance="10.0"
     borderopacity="1.0"
     bordercolor="#666666"
     pagecolor="#ffffff"
     id="base"
     width="930px"
     height="676.29px"
     inkscape:zoom="0.73353293"
     inkscape:cx="178.8551"
     inkscape:cy="-227.62158"
     inkscape:window-x="0"
     inkscape:window-y="366"
     inkscape:current-layer="svg2"
     showgrid="false"
     inkscape:window-maximized="0" />
  <path
     style="fill:#000000;stroke-width:0.22174262"
     d="m 167.25302,1.012033 c -4.37916,2.94106 -6.68084,7.69612 -7.10832,14.68512 -0.31855,5.20821 0.20436,9.13306 2.45419,18.42056 2.0093,8.29457 2.27791,9.95456 2.40593,14.86879 l 0.1113,4.27224 -0.62184,1.13759 c -0.34201,0.62567 -0.68143,1.13107 -0.75427,1.12311 -0.22569,-0.0247 -2.96519,-3.26071 -4.62961,-5.46874 -3.62941,-4.81479 -5.68925,-9.56401 -6.06433,-13.98207 l -0.14513,-1.70947 -1.17115,-0.24208 c -2.35928,-0.48768 -2.41569,-0.47164 -2.74835,0.78143 -0.44457,1.67458 -0.23461,5.85732 0.38633,7.69645 0.84213,2.49428 2.73226,5.98799 5.43397,10.04415 2.99922,4.50284 4.95454,8.05886 5.67451,10.31989 0.58928,1.85061 0.66014,1.89348 3.45604,2.09109 l 1.94045,0.13714 0.69375,-1.75923 c 1.65224,-4.18978 2.2604,-7.13614 2.45825,-11.90962 0.22604,-5.45343 -0.3517,-10.32178 -2.63417,-22.19701 -1.97828,-10.29256 -1.95404,-10.05726 -1.36601,-13.2583 1.01553,-5.52829 2.41192,-8.73067 5.03192,-11.53982 0.63138,-0.67697 0.65092,-0.76091 0.49333,-2.11932 -0.0902,-0.77793 -0.24995,-1.64029003 -0.35488,-1.91636003 -0.3002,-0.78981 -1.23245,-0.62362 -2.94191,0.52446003 z m -20.08481,22.11609 -0.97981,0.0867 0.12045,0.89412 c 0.1848,1.37188 1.07011,2.51231 2.48557,3.20184 1.09793,0.53486 1.6082,0.61978 4.77252,0.79429 1.94873,0.10747 3.92123,0.19922 4.38334,0.20389 l 0.84019,0.008 v -2.11506 c 0,-2.5 0.64282,-2.15343 -5.16759,-2.7861 -4.08583,-0.44488 -4.48395,-0.46266 -6.45467,-0.2882 z m 20.22581,2.85655 c -0.1853,0.73512 0.0523,2.19676 0.49596,3.051 0.53112,1.02266 2.03241,2.5518 3.89549,3.96776 1.92011,1.45932 3.58632,3.16186 4.14258,4.23292 1.19774,2.30618 2.00908,9.93388 1.47835,13.8985 -0.72292,5.40042 -3.52981,11.41253 -7.1897,15.39977 -0.61592,0.67101 -1.11985,1.31904 -1.11985,1.44008 0,0.12103 1.07529,1.21123 2.38954,2.42266 1.68463,1.55284 2.42105,2.10389 2.49638,1.86797 0.29653,-0.92867 4.03559,-7.8738 4.87549,-9.05599 1.81726,-2.55785 4.22925,-4.38094 6.59811,-4.98714 0.55246,-0.14138 1.3846,-0.40253 1.8492,-0.58032 1.22296,-0.46802 2.90214,-0.39922 5.72135,0.23444 4.21762,0.94796 5.56026,0.67857 6.52688,-1.30959 0.80155,-1.64864 0.6409,-1.93957 -1.45825,-2.64077 -3.68095,-1.2296 -8.53119,-1.28269 -13.39228,-0.14661 -1.49749,0.34998 -2.04487,0.40023 -2.24051,0.20569 -0.2939,-0.29225 -0.30978,-2.21497 -0.0443,-5.36677 0.14891,-1.7681 0.0978,-2.5381 -0.30819,-4.64632 -1.23421,-6.40839 -3.64584,-11.09841 -7.60188,-14.78375 -1.56045,-1.45368 -2.12779,-1.83716 -3.15306,-2.13122 -0.68762,-0.19723 -1.82793,-0.64725 -2.53401,-1.00005 l -1.28379,-0.64145 z m -12.68934,39.36405 c -0.33715,0.10108 -0.96729,0.40181 -1.40032,0.66828 -0.64604,0.39755 -0.78733,0.61817 -0.78733,1.22935 v 0.74485 l 1.51235,0.14742 c 3.77798,0.36826 6.82855,1.61047 9.8332,4.00412 3.2054,2.55358 5.98172,6.23425 10.49948,13.91956 1.45398,2.47342 2.37117,3.81412 2.61269,3.8191 0.45289,0.009 1.48165,-1.16392 1.66769,-1.90195 0.29979,-1.18933 -1.42179,-6.91686 -3.06496,-10.19681 -3.17387,-6.33537 -8.50168,-10.64679 -15.10662,-12.22471 -1.83769,-0.43903 -4.65828,-0.54136 -5.76618,-0.20921 z m -111.63685,3.12229 -36.2963601,0.11341 -0.72966,0.5182 c -0.91778,0.65178 -2.31924,3.48625 -2.94254,5.95128 -1.07582,4.25463 -1.69901,8.91187 -2.04485,15.28136 -0.12990004,2.39259 -0.44594004,7.5626 -0.70230004,11.488897 -0.50892,7.7945 -0.47232,12.67292 0.14983,19.96616 0.93886004,11.00596 2.64548004,17.60703 4.93889004,19.10324 0.63083,0.41156 7.2450701,0.81227 28.7120601,1.73947 20.19345,0.87219 42.01025,0.1551 54.27419,-1.78391 2.76577,-0.43729 3.27403,-0.82438 4.60195,-3.50494 1.34223,-2.70945 2.11148,-5.78911 2.31163,-9.25454 0.21777,-3.77046 0.1287,-4.66257 -0.48183,-4.82565 -0.7806,-0.20851 -3.27825,-0.15384 -3.71973,0.0814 -0.63817,0.34006 -1.09606,1.78448 -1.46789,4.63044 -0.78884,6.03776 -1.86047,7.45727 -6.44373,8.53556 -5.1194,1.20441 -12.90482,1.65409 -28.39695,1.64017 -15.05582,-0.0135 -26.68445,-0.47483 -38.3523,-1.52145 -2.88337,-0.25864 -3.70742,-0.41351 -4.60206,-0.8649 -2.3182701,-1.1697 -4.0500301,-3.90231 -5.1111001,-8.06505 -0.81303,-3.18963 -0.97737,-5.28365 -1.21827,-15.52237 -0.34633,-14.720447 0.2164,-21.848637 2.32676,-29.473097 1.27532,-4.60754 2.3351301,-6.17163 5.0876801,-7.50847 3.06077,-1.48653 1.8621,-1.43357 32.23507,-1.42431 26.32521,0.008 35.01813,0.17219 38.43458,0.72584 3.17933,0.51521 5.00153,3.79829 6.04769,10.89613 0.48801,3.31098 0.54648,3.51103 1.19486,4.08785 1.31494,1.16984 3.0383,1.02906 3.77152,-0.3081 0.65888,-1.20157 0.52109,-5.08667 -0.32274,-9.10032 -1.08796,-5.1748 -2.08499,-8.67783 -2.66535,-9.36458 -1.13266,-1.34029 -4.47213,-2.14098 -9.49205,-2.27588 -1.54036,-0.0414 -19.13401,-0.0242 -39.097,0.0381 z m 102.16752,3.66175 c -1.45981,0.35921 -2.33759,0.83044 -3.39299,1.82152 l -0.86002,0.80761 0.5244,0.42281 c 0.81185,0.65456 2.56557,1.09298 5.74508,1.43622 1.60197,0.17295 3.36637,0.46115 3.9209,0.64044 6.09412,1.97044 9.89419,4.39556 14.8201,9.45788 2.41059,2.47735 7.37241,8.6049 7.73982,9.55822 0.0745,0.19327 0.4777,0.30419 1.10576,0.30419 1.15584,0 1.15392,0.13266 0.0467,-3.22746 -2.5,-7.58701 -7.65856,-13.86621 -15.02866,-18.29347 -1.65726,-0.99552 -1.97113,-1.09109 -7.034,-2.14179 -5.69685,-1.18226 -5.89426,-1.20272 -7.58711,-0.78617 z m -108.2495,4.70172 c 0.21588,0.56017 8.43694,11.92304 10.2658,14.18905 3.76525,4.66528 9.2663,10.408877 11.34688,11.847197 1.54834,1.07038 4.28561,1.95027 6.96022,2.23734 3.18527,0.34188 29.37301,0.32947 49.65369,-0.0235 17.20559,-0.29948 16.73394,-0.26008 21.64284,-1.80831 1.52026,-0.47948 2.80667,-0.8294 2.8587,-0.7776 0.052,0.0518 -0.18032,0.45308 -0.51634,0.89172 -0.79048,1.0319 -2.54661,2.17979 -4.38297,2.86493 -3.06716,1.14434 -4.10684,1.21517 -21.6187,1.47287 -15.7911,0.23238 -22.89441,0.39922 -41.78562,0.98147 l -8.85004,0.27276 -1.31375,0.65236 c -2.31407,1.14907 -4.16359,3.1752 -13.28858,14.55751 -4.84608,6.04489 -8.81106,11.04461 -8.81106,11.11048 0,0.2246 5.03999,-0.18476 5.35983,-0.43534 0.17527,-0.13731 2.5294,-3.19447 5.23141,-6.79368 5.81921,-7.75149 7.55682,-9.84997 10.23358,-12.35889 2.65081,-2.4846 3.58101,-3.09622 5.23658,-3.44314 3.1903,-0.66853 11.86467,-0.82474 31.25869,-0.56295 22.48408,0.30351 30.02043,0.14213 33.53283,-0.71807 2.80476,-0.6869 6.24886,-1.87771 8.40127,-2.90478 0.90845,-0.43349 1.69096,-0.74908 1.73892,-0.70133 0.20907,0.20817 -0.66825,1.45256 -1.70453,2.4177 -3.25041,3.02727 -8.09125,4.9132 -14.14897,5.51227 -2.42695,0.24002 -16.35242,0.35073 -25.42986,0.20219 -2.83425,-0.0464 -8.48035,-0.082 -12.54689,-0.0792 -6.64192,0.005 -7.67436,0.0555 -10.15399,0.49984 -3.28437,0.58858 -6.95666,1.76222 -9.11749,2.91388 -1.29569,0.69057 -1.65059,1.00593 -2.06037,1.83088 -1.17883,2.37313 -1.30271,8.83443 -0.26824,13.99135 l 0.23494,1.1712 h 1.77652 c 0.97709,0 1.79254,-0.0251 1.81211,-0.0558 0.0196,-0.0307 0.0993,-2.51529 0.17722,-5.52136 0.15505,-5.98292 0.2297,-6.35462 1.58485,-7.89139 0.98799,-1.12041 1.60991,-1.40301 3.7044,-1.6833 4.43613,-0.59365 7.83414,-0.69095 23.99488,-0.68713 9.97326,0.002 18.21148,-0.0927 19.82857,-0.22879 7.58467,-0.63835 13.65423,-2.14685 18.93846,-4.70687 2.56222,-1.2413 2.84771,-1.4477 4.67503,-3.37998 3.4379,-3.63538 6.76691,-8.49379 8.67096,-12.654507 l 0.86775,-1.89623 -0.0811,1.35935 c -0.18093,3.031667 -4.6648,10.422397 -11.68322,19.257407 -1.30769,1.64615 -2.37761,3.071 -2.37761,3.16632 0,0.32089 0.99102,0.86787 1.57242,0.86787 1.02343,0 3.66268,-1.77386 4.86212,-3.26787 6.12001,-7.62302 9.94331,-13.8316 11.72544,-19.040677 0.39878,-1.16563 0.96273,-2.36818 1.25323,-2.67235 l 0.52816,-0.55303 0.67775,0.67482 0.67775,0.67483 -0.57963,1.99752 c -1.29442,4.460797 -2.70639,7.219147 -8.14942,15.920307 -4.15305,6.63902 -4.17898,6.71262 -2.36481,6.71262 0.78531,0 1.26387,-0.20451 2.60517,-1.11326 0.90373,-0.6123 1.80311,-1.23973 1.99863,-1.39429 0.57274,-0.45277 5.06028,-8.02931 6.61701,-11.17185 0.7867,-1.58809 1.79193,-4.05384 2.23385,-5.47944 1.17139,-3.778827 1.17527,-3.783057 2.45029,-2.66842 0.81588,0.71326 0.82964,0.75191 0.69927,1.9636 -0.30409,2.82621 -1.93524,7.89847 -3.86945,12.03248 -0.5394,1.15287 -0.98073,2.23046 -0.98073,2.39465 0,0.16419 0.29194,0.62385 0.64875,1.02147 0.62459,0.69602 0.67257,0.71069 1.2883,0.39392 1.04167,-0.53591 2.82818,-2.48044 3.58975,-3.90728 0.39033,-0.7313 1.2871,-3.26211 1.99282,-5.62403 0.70572,-2.36191 1.3637,-4.29439 1.46216,-4.29439 0.0985,0 0.51241,0.41672 0.91986,0.92604 1.88023,2.35033 2.56201,2.67752 3.50241,1.68083 0.60814,-0.64455 0.61854,-1.48752 0.039,-3.16459 -0.59878,-1.73288 -0.57552,-2.21297 0.12257,-2.52967 0.31387,-0.14239 0.71716,-0.2589 0.8962,-0.2589 0.44022,0 0.40943,-0.57972 -0.11078,-2.085197 -1.53886,-4.4535 -4.85716,-8.38278 -10.09411,-11.95265 -4.97475,-3.39116 -11.42924,-5.51082 -17.55044,-5.76359 -3.03635,-0.12538 -4.80292,0.22554 -6.31105,1.25365 -1.15877,0.78995 -1.2003,1.48302 -0.13183,2.19996 1.16728,0.78323 2.71009,1.14912 5.9311,1.40657 10.00299,0.79954 17.5727,4.41879 23.06749,11.02911 0.86238,1.03744 0.88182,1.08847 0.25995,0.68218 -6.8234,-4.45788 -14.25796,-7.71254 -19.89067,-8.70761 -1.68986,-0.29853 -2.94462,-0.36101 -5.48926,-0.27334 -3.49519,0.12042 -5.58174,0.53838 -7.99691,1.60189 -1.33558,0.5881 -1.50595,0.89282 -1.40804,2.51829 l 0.0569,0.94421 -18.37223,0.11249 c -10.10473,0.0619 -20.73735,0.11215 -23.62806,0.11174 -6.68525,-8.9e-4 -13.18672,-0.42911 -18.71769,-1.23264 -2.61062,-0.37926 -3.06764,-0.71778 -3.94052,-2.91875 -0.58809,-1.48286 -0.7034,-4.35512 -0.34102,-8.49375 0.22564,-2.57695 -0.0491,-4.09438 -0.84127,-4.64686 -0.28858,-0.20126 -1.00406,-0.3251 -1.87819,-0.3251 -1.67816,0 -1.67752,-8.9e-4 -2.04999,3.02311 -0.54555,4.42923 -0.20892,9.24388 0.87258,12.47975 0.43366,1.29754 0.61932,1.54878 1.72926,2.34017 2.33953,1.66807 6.24795,2.78257 11.71181,3.33965 1.3389,0.13651 6.93004,0.23498 12.995,0.22885 5.85474,-0.006 16.3415,0.0548 23.30391,0.13493 8.10565,0.0933 14.90835,0.0556 18.91275,-0.10477 3.43961,-0.13774 6.29727,-0.20719 6.35034,-0.15435 0.223,0.22205 -2.39646,1.47509 -3.96312,1.8958 -3.08468,0.828347 -4.49855,0.916357 -18.05122,1.123547 -7.39371,0.11304 -19.39167,0.32329 -26.66214,0.46722 -20.08436,0.39761 -21.91631,0.39147 -23.63744,-0.0793 -3.04099,-0.8318 -5.70068,-2.106157 -7.95384,-3.810967 -2.27644,-1.72243 -4.90126,-4.65734 -11.14547,-12.46214 l -6.73758,-8.42148 H 39.1995 c -1.97595,0 -2.32117,0.0515 -2.21365,0.33052 z"
     id="path2161"
     inkscape:connector-curvature="0" />
</svg>
