<svg xmlns="http://www.w3.org/2000/svg" width="30" height="30" preserveAspectRatio="xMidYMid"><defs><linearGradient x1="137.545" y1="125.772" x2="137.545" y2="265.171" id="a" gradientTransform="translate(0 -.041) scale(.10906)" gradientUnits="userSpaceOnUse"><stop stop-color="#F7F6F3" offset="0%"/><stop stop-color="#FEF6D5" offset="100%"/></linearGradient></defs><path d="M1.297 21.851L15 28.703l13.703-6.852V8.15L15 1.298 1.297 8.148zM15 30L0 22.5v-15L15 0l15 7.5v15z" fill="#a1070c"/><path d="M1.123 8.061L15 1.122l13.877 6.94v13.877L15 28.878 1.123 21.939V8.061" fill="url(#a)"/><path d="M21.367 9.923c0 .545-.124 1.086-.373 1.624a6.929 6 0 01-1 1.496 7.317 6.337 0 01-1.447 1.205 5.96 5.96 0 01-1.702.742l-.261-.376a3.99 3.456 0 00.957-.581 4.353 3.77 0 00.745-.802 4.59 3.975 0 00.478-.947 4.19 3.63 0 00.168-1.016 3.14 3.14 0 00-.199-1.12 2.614 2.614 0 00-.584-.92 2.729 2.729 0 00-.95-.618 3.477 3.477 0 00-1.298-.226c-.597 0-1.143.1-1.64.301a4.83 4.83 0 00-1.342.813c-.398.34-.743.731-1.037 1.172a9.343 8.091 0 00-.733 1.388 10.756 9.315 0 00-.441 1.469c-.1.495-.15.961-.15 1.399 0 .444.054.903.162 1.377a9.452 8.186 0 00.472 1.399 8.299 7.187 0 00.77 1.301c.307.41.661.768 1.063 1.076a4.948 4.285 0 001.341.737 4.588 4.588 0 001.61.275c.397 0 .784-.047 1.16-.14a5.728 4.96 0 001.088-.377 6.135 5.313 0 00.988-.56 7.604 6.585 0 00.863-.698l.41.344a8.946 8.946 0 01-1.298 1.2 10.607 9.186 0 01-1.622 1.022 8.855 7.669 0 01-1.82.71 7.016 7.016 0 01-1.882.263 5.234 5.234 0 01-1.708-.274 5.637 4.882 0 01-1.472-.742 6.155 6.155 0 01-1.199-1.098 8.584 7.434 0 01-.895-1.34 8.785 7.608 0 01-.559-1.463 5.94 5.94 0 01-.192-1.474 6.2 6.2 0 01.404-2.146 9.74 9.74 0 011.112-2.141 12.466 12.466 0 011.67-1.964A12.444 12.444 0 0113.1 8.6a11.017 11.017 0 012.323-1.092 7.607 7.607 0 012.417-.403c.497 0 .96.062 1.391.188.43.125.804.307 1.118.543.315.237.564.531.746.883.182.351.273.753.273 1.205z" fill="#a1070c"/></svg>