<svg xmlns="http://www.w3.org/2000/svg" width="30" height="30"><defs><clipPath clipPathUnits="userSpaceOnUse" id="a"><path d="M288.198 287.805h852v851.997h-852z" clip-rule="evenodd"/></clipPath><clipPath clipPathUnits="userSpaceOnUse" id="b"><path d="M0 0h1428v1431H0z"/></clipPath><clipPath clipPathUnits="userSpaceOnUse" id="c"><path d="M889.22 565.619l100.962 33.786-278.985 113.649 113.649-278.985 33.789 100.962 94.392-94.395 30.585 30.576z" clip-rule="evenodd"/></clipPath><clipPath clipPathUnits="userSpaceOnUse" id="d"><path d="M0 0h1428v1431H0z"/></clipPath><clipPath clipPathUnits="userSpaceOnUse" id="e"><path d="M711.191 541.51c.855 0 1.68.117 2.532.126l46.002-112.923c-15.795-2.682-31.989-4.152-48.534-4.152-159.438 0-289.155 129.717-289.155 289.164 0 159.444 129.717 289.158 289.155 289.158 159.45 0 289.167-129.714 289.167-289.158 0-16.76-1.515-33.165-4.266-49.152l-112.845 45.97c.018 1.07.16 2.108.16 3.182 0 94.956-77.26 172.21-172.216 172.21-94.953 0-172.203-77.254-172.203-172.21 0-94.962 77.25-172.215 172.203-172.215z" clip-rule="evenodd"/></clipPath><clipPath clipPathUnits="userSpaceOnUse" id="f"><path d="M0 0h1428v1431H0z"/></clipPath></defs><g clip-path="url(#a)" transform="matrix(.03521 0 0 -.03521 -10.148 40.134)"><g clip-path="url(#b)"><path d="M273.198 1154.802h882V272.805h-882z" fill="#00aef0"/></g></g><g clip-path="url(#c)" transform="matrix(.03506 0 0 -.03484 -10.038 39.968)"><g clip-path="url(#d)"><path d="M696.197 728.053h308.985V419.068H696.197z" fill="#fff"/></g></g><g clip-path="url(#e)" transform="matrix(.03506 0 0 -.03484 -10.038 39.968)"><g clip-path="url(#f)"><path d="M407.036 1017.883h608.322V409.561H407.036z" fill="#fff"/></g></g></svg>