<svg width="256" height="228" xmlns="http://www.w3.org/2000/svg" preserveAspectRatio="xMidYMid"><defs><linearGradient x1="50%" y1="0%" x2="50%" y2="100%" id="b"><stop stop-color="#F2B968" offset="0%"/><stop stop-color="#BF7A1D" offset="100%"/></linearGradient><linearGradient x1="54.577%" y1="100%" x2="52.494%" y2="39.432%" id="f"><stop stop-color="#F7DB48" offset="0%"/><stop stop-color="#FACE40" offset="100%"/></linearGradient><linearGradient x1="45.546%" y1="100%" x2="50%" y2="44.506%" id="g"><stop stop-color="#F7DB48" offset="0%"/><stop stop-color="#FACE40" offset="100%"/></linearGradient><linearGradient x1="50%" y1="0%" x2="50%" y2="100%" id="h"><stop stop-color="#EDA23B" offset="0%"/><stop stop-color="#D89334" offset="100%"/></linearGradient><linearGradient x1="50%" y1="0%" x2="50%" y2="100%" id="i"><stop stop-color="#F6CF9A" offset="0%"/><stop stop-color="#E39B38" offset="100%"/></linearGradient><radialGradient cx="50%" cy="68.089%" fx="50%" fy="68.089%" r="61.683%" id="a"><stop stop-color="#BF7715" offset="0%"/><stop stop-color="#DC9636" offset="100%"/></radialGradient><radialGradient cx="50%" cy="11.982%" fx="50%" fy="11.982%" r="47.209%" id="c"><stop stop-color="#E85C66" offset="0%"/><stop stop-color="#C92935" offset="100%"/></radialGradient><radialGradient cx="50%" cy="11.982%" fx="50%" fy="11.982%" r="47.209%" id="d"><stop stop-color="#75ED9F" offset="0%"/><stop stop-color="#39BD67" offset="100%"/></radialGradient><radialGradient cx="50%" cy="11.982%" fx="50%" fy="11.982%" r="47.209%" id="e"><stop stop-color="#F7DE4A" offset="0%"/><stop stop-color="#FACF40" offset="100%"/></radialGradient></defs><path d="M.046 28.947V72.5s-.297 28.996 127.276 28.996S254.895 72.5 254.895 72.5V28.947s0 36.274-127.573 36.274S.046 28.947.046 28.947z" fill="url(#a)" transform="translate(.468 126.045)"/><path d="M127.147 65.843c78.502 0 127.748-17.182 127.748-34.42 0-17.239-58.24-31.02-127.748-31.02C57.639.403.047 14.184.047 31.423c0 17.238 48.598 34.42 127.1 34.42z" fill="url(#b)" transform="translate(.468 126.045)"/><path d="M127.615 191.45c37.296 0 69.767-3.9 93.19-10.729 21.818-6.361 34.12-14.856 34.12-23.254 0-16.71-57.588-30.581-127.31-30.581-69.599 0-126.662 13.842-126.662 30.581 0 8.412 12.167 16.901 33.797 23.254 23.26 6.832 55.58 10.728 92.865 10.728zm0 .438c-78.502 0-127.1-17.182-127.1-34.42 0-17.24 57.592-31.02 127.1-31.02s127.748 13.78 127.748 31.02c0 17.238-49.246 34.42-127.748 34.42z" fill="#BB791D"/><path d="M.514 152.212v7.438s0 31.684 127.425 31.684c127.424 0 127.424-31.684 127.424-31.684v-7.438s0 33.66-127.424 33.66C.514 185.872.514 152.212.514 152.212z" fill="#C92935"/><path d="M127.147 65.798c97.038 0 127.748-17.217 127.748-34.456 0-17.238-58.24-31.02-127.748-31.02C57.639.322.047 14.104.047 31.342c0 17.239 30.062 34.456 127.1 34.456z" fill="url(#c)" transform="translate(.468 120.428)"/><path d="M127.615 185.788c45.563 0 78.806-3.79 100.127-10.742 18.331-5.978 27.182-14.11 27.182-23.275 0-16.71-57.587-30.582-127.31-30.582C58.017 121.19.954 135.031.954 151.771c0 9.193 8.71 17.308 26.86 23.275 21.154 6.955 54.25 10.742 99.802 10.742zm0 .438c-97.038 0-127.1-17.217-127.1-34.455 0-17.239 57.592-31.02 127.1-31.02s127.748 13.781 127.748 31.02c0 17.238-30.71 34.455-127.748 34.455z" fill="#AD222C"/><path d="M.514 113.127v43.552s-.297 28.996 127.276 28.996 127.573-28.996 127.573-28.996v-43.552s0 36.274-127.573 36.274S.514 113.127.514 113.127z" fill="#340405"/><path d="M127.615 150.035c78.502 0 127.748-17.182 127.748-34.42 0-17.24-58.24-31.02-127.748-31.02-69.508 0-127.1 13.78-127.1 31.02 0 17.238 48.598 34.42 127.1 34.42z" fill="#340405"/><path d="M127.615 149.597c37.296 0 69.767-3.9 93.19-10.729 21.818-6.361 34.12-14.856 34.12-23.254 0-16.71-57.588-30.581-127.31-30.581C58.016 85.033.953 98.875.953 115.614c0 8.412 12.167 16.902 33.797 23.254 23.26 6.832 55.58 10.729 92.865 10.729zm0 .438c-78.502 0-127.1-17.182-127.1-34.42 0-17.24 57.592-31.02 127.1-31.02s127.748 13.78 127.748 31.02c0 17.238-49.246 34.42-127.748 34.42z" fill="#150101"/><path d="M.514 111.615v7.438s0 32.342 127.425 32.342c127.424 0 127.424-32.342 127.424-32.342v-7.438s0 34.359-127.424 34.359C.514 145.974.514 111.614.514 111.614z" fill="#39BD67"/><path d="M127.147 65.798c97.038 0 127.748-17.217 127.748-34.456 0-17.238-58.24-31.02-127.748-31.02C57.639.322.047 14.104.047 31.342c0 17.239 30.062 34.456 127.1 34.456z" fill="url(#d)" transform="translate(.468 80.466)"/><path d="M127.615 145.825c45.563 0 78.806-3.789 100.127-10.742 18.331-5.977 27.182-14.11 27.182-23.275 0-16.71-57.587-30.581-127.31-30.581-69.597 0-126.66 13.842-126.66 30.581 0 9.194 8.71 17.309 26.86 23.276 21.154 6.955 54.25 10.741 99.802 10.741zm0 .439c-97.038 0-127.1-17.217-127.1-34.456 0-17.238 57.592-31.02 127.1-31.02s127.748 13.782 127.748 31.02c0 17.239-30.71 34.456-127.748 34.456z" fill="#33A65B"/><path d="M.514 73.164v43.552s-.297 28.996 127.276 28.996 127.573-28.996 127.573-28.996V73.164s0 36.274-127.573 36.274S.514 73.164.514 73.164z" fill="#340405"/><path d="M127.615 110.073c78.502 0 127.748-17.183 127.748-34.421 0-17.239-58.24-31.02-127.748-31.02-69.508 0-127.1 13.781-127.1 31.02 0 17.238 48.598 34.42 127.1 34.42z" fill="#340405"/><path d="M127.615 109.634c37.296 0 69.767-3.9 93.19-10.728 21.818-6.362 34.12-14.856 34.12-23.254 0-16.71-57.588-30.582-127.31-30.582C58.016 45.07.953 58.912.953 75.652c0 8.411 12.167 16.901 33.797 23.254 23.26 6.832 55.58 10.728 92.865 10.728zm0 .439c-78.502 0-127.1-17.183-127.1-34.421 0-17.239 57.592-31.02 127.1-31.02s127.748 13.781 127.748 31.02c0 17.238-49.246 34.42-127.748 34.42z" fill="#150101"/><path d="M127.147 65.763c78.502 0 127.748-17.182 127.748-34.42 0-17.239-58.24-31.02-127.748-31.02C57.639.322.047 14.103.047 31.342c0 17.238 48.598 34.42 127.1 34.42z" fill="url(#e)" transform="translate(.468 43.04)"/><path d="M213.831 52.869c15.47-3.852 24.782-6.6 33.16-9.495-13.763 7.665-13.707 30.199-18.552 30.199-4.846 0-16.496-12.839-51.82-10.33 0 0 21.743-6.523 37.212-10.374z" fill="url(#f)" transform="translate(.468 43.04)"/><path d="M29.163 50.763c8.995 3.211 18.61 7.447 27.181 9.368-25.011-1.921-34.05 12.74-35.743 4.951-1.693-7.788 1.074-12.528-14.518-23.176 0 0 10.58 4.395 23.08 8.857z" fill="url(#g)" transform="translate(.468 43.04)"/><path d="M.904 28.995v43.552s-.297 28.996 127.276 28.996c127.572 0 127.572-28.996 127.572-28.996V28.995s0 36.274-127.572 36.274C.607 65.27.904 28.995.904 28.995z" fill="url(#h)" transform="translate(-.39 .4)"/><path d="M128.005 65.891c78.501 0 127.747-17.182 127.747-34.42 0-17.239-58.24-31.02-127.747-31.02C58.497.45.904 14.231.904 31.47c0 17.238 48.599 34.42 127.1 34.42z" fill="url(#i)" transform="translate(-.39 .4)"/><path d="M127.615 66.511c37.354 0 69.885-3.907 93.373-10.755 22.082-6.438 34.594-15.077 34.594-23.885 0-17.317-57.796-31.24-127.967-31.24C57.569.632.295 14.526.295 31.872c0 8.819 12.378 17.455 34.27 23.885 23.326 6.851 55.707 10.755 93.05 10.755zm0-.439c-37.304 0-69.644-3.899-92.927-10.737C12.971 48.957.734 40.418.734 31.871c0-16.942 57.133-30.8 126.88-30.8 69.872 0 127.53 13.888 127.53 30.8 0 8.535-12.372 17.077-34.278 23.464-23.445 6.835-55.936 10.737-93.251 10.737z" fill="#C58020"/><path d="M78.128 13.519c1.305 0 3.253-.96 3.253-1.778 0-.816-1.966-1.814-3.253-1.814-1.287 0-2.78-.353-2.78 1.814 0 2.168 1.475 1.778 2.78 1.778zm19.13 6.294c1.305 0 3.252-.96 3.252-1.777s-1.965-1.815-3.252-1.815c-1.287 0-2.78-.353-2.78 1.815 0 2.167 1.475 1.777 2.78 1.777zM80.76 24.349c-1.312-.342-3.497-.026-3.69.677-.194.703 1.545 2.077 2.839 2.414 1.294.338 2.712 1.033 3.225-.832.514-1.866-1.062-1.917-2.374-2.26zM47.956 31.01c1.306-.377 2.995-1.74 2.776-2.42-.22-.68-2.455-.942-3.742-.57-1.288.373-2.877.511-2.294 2.315.583 1.805 1.955 1.053 3.26.675zM35.391 19.979c-1.311-.342-3.497-.026-3.69.677-.194.703 1.545 2.077 2.84 2.414 1.293.337 2.71 1.033 3.225-.833.513-1.865-1.063-1.916-2.375-2.258zm39.871 30.939c1.337 0 3.331-.96 3.331-1.777s-2.012-1.814-3.33-1.814c-1.319 0-2.849-.353-2.849 1.814s1.512 1.777 2.848 1.777zM65.43 38.146c-1.189.633-2.34 2.083-1.81 2.513.53.43 2.968.003 4.14-.621 1.172-.624 2.762-1.162 1.355-2.304-1.406-1.141-2.497-.22-3.686.412zm-19.556 9.592c.925.739 3.388 1.575 4.308 1.35.919-.225.648-1.612-.265-2.34-.912-.729-1.574-1.671-4.014-1.073-2.44.598-.954 1.325-.029 2.063zM26.301 66.383c1.305-.378 2.995-1.74 2.776-2.42-.22-.68-2.455-.943-3.742-.57-1.288.372-2.877.51-2.294 2.314.583 1.805 1.955 1.053 3.26.676zm11.323 17.722c1.336 0 3.33-.96 3.33-1.777s-2.012-1.814-3.33-1.814c-1.319 0-2.848-.354-2.848 1.814 0 2.167 1.511 1.777 2.848 1.777zm14.042-15.982c-.943.735-1.293 2.107-.393 2.34.9.234 3.42-.588 4.35-1.313.93-.725 2.4-1.465.012-2.085-2.388-.62-3.025.323-3.969 1.058zm24.133 17.349c1.305-.377 2.995-1.74 2.775-2.42-.22-.68-2.454-.942-3.742-.57-1.288.373-2.877.51-2.294 2.315.584 1.804 1.955 1.052 3.26.675zM109.148 74.2c1.337 0 3.331-.961 3.331-1.778 0-.816-2.012-1.814-3.33-1.814-1.32 0-2.849-.353-2.849 1.814 0 2.168 1.512 1.778 2.848 1.778zM73.33 66.613c-.944.735-1.294 2.107-.394 2.34.9.235 3.42-.587 4.35-1.312.93-.725 2.4-1.465.012-2.086-2.388-.62-3.025.323-3.969 1.058zM61.858 22.094c.925.738 3.388 1.575 4.307 1.35.92-.226.649-1.613-.264-2.341-.913-.729-1.575-1.671-4.015-1.073-2.44.598-.954 1.325-.028 2.064zm37.637 67.003c1.337 0 3.331-.96 3.331-1.777s-2.012-1.815-3.33-1.815c-1.319 0-2.849-.353-2.849 1.815 0 2.167 1.512 1.777 2.848 1.777zm76.317-30.114c1.336 0 3.331-.96 3.331-1.777s-2.013-1.814-3.331-1.814-2.848-.353-2.848 1.814c0 2.168 1.512 1.777 2.848 1.777zm-73.227-.937c1.336 0 3.331-.96 3.331-1.777s-2.013-1.815-3.331-1.815-2.848-.353-2.848 1.815c0 2.167 1.512 1.777 2.848 1.777zm34.197-22.942c1.337 0 3.331-.96 3.331-1.777s-2.012-1.814-3.33-1.814c-1.32 0-2.849-.353-2.849 1.814s1.512 1.777 2.848 1.777zm-15.092 9.9c1.306-.377 2.996-1.74 2.776-2.42-.22-.68-2.454-.942-3.742-.57-1.287.373-2.877.511-2.293 2.315.583 1.804 1.955 1.053 3.26.675zM100.032 32.83c1.305-.377 2.995-1.74 2.775-2.42-.22-.68-2.454-.941-3.742-.57-1.287.373-2.877.511-2.293 2.316.583 1.804 1.954 1.052 3.26.675zm28.159-20.966c-1.312-.342-3.497-.025-3.69.678-.194.702 1.545 2.076 2.839 2.414 1.294.337 2.712 1.033 3.225-.833.514-1.865-1.062-1.917-2.374-2.259zm-18.388-1.986c1.337 0 3.331-.96 3.331-1.777s-2.012-1.814-3.33-1.814c-1.319 0-2.849-.353-2.849 1.814 0 2.168 1.512 1.777 2.848 1.777zm44.858-1.359c.926.738 3.389 1.575 4.308 1.35.92-.226.649-1.613-.264-2.341-.913-.729-1.575-1.671-4.015-1.073-2.44.598-.954 1.326-.029 2.064zm-9.281 13.114c1.336 0 3.33-.96 3.33-1.777s-2.012-1.815-3.33-1.815c-1.319 0-2.848-.353-2.848 1.815 0 2.167 1.511 1.777 2.848 1.777zm45.372-9.101c1.337 0 3.331-.96 3.331-1.777s-2.012-1.815-3.33-1.815c-1.319 0-2.849-.353-2.849 1.815 0 2.167 1.512 1.777 2.848 1.777zm27.153 1.986c-1.311-.342-3.497-.026-3.69.677-.194.703 1.545 2.077 2.839 2.414 1.294.338 2.712 1.033 3.225-.832.514-1.866-1.062-1.917-2.374-2.259zm16.287 10.952c-.943.735-1.293 2.107-.393 2.34.9.234 3.42-.588 4.35-1.313.93-.725 2.4-1.465.012-2.085-2.388-.62-3.026.323-3.969 1.058zm-20.234 2.354c1.337 0 3.331-.961 3.331-1.778 0-.816-2.012-1.814-3.33-1.814-1.32 0-2.849-.353-2.849 1.814 0 2.168 1.512 1.778 2.848 1.778zm-31.431-3.004c1.306-.377 2.996-1.74 2.776-2.42-.22-.68-2.454-.942-3.742-.57-1.288.373-2.877.51-2.294 2.315.584 1.804 1.955 1.052 3.26.675zm-23.23 8.464c1.336 0 3.33-.96 3.33-1.777s-2.012-1.815-3.33-1.815c-1.319 0-2.848-.353-2.848 1.815 0 2.167 1.511 1.777 2.848 1.777zm28.873 8.533c1.337 0 3.331-.96 3.331-1.777s-2.012-1.814-3.33-1.814c-1.319 0-2.849-.353-2.849 1.814s1.512 1.777 2.848 1.777zm32.504 3.187c1.305-.377 2.995-1.74 2.775-2.42-.22-.68-2.454-.942-3.742-.57-1.287.373-2.877.511-2.293 2.315.583 1.804 1.954 1.053 3.26.675zm25.586 9.567c-1.313-.342-3.498-.025-3.692.677-.193.703 1.546 2.077 2.84 2.415 1.294.337 2.712 1.032 3.225-.833.514-1.866-1.062-1.917-2.374-2.259zm-10.964 15.905c1.336 0 3.33-.96 3.33-1.777s-2.012-1.814-3.33-1.814c-1.319 0-2.848-.353-2.848 1.814 0 2.168 1.511 1.777 2.848 1.777zm-16.704-6.82c.925.738 3.388 1.575 4.307 1.35.92-.226.649-1.613-.264-2.34-.913-.73-1.575-1.672-4.015-1.074-2.44.598-.954 1.326-.028 2.064zm-7.915 19.264c1.336 0 3.33-.961 3.33-1.778 0-.817-2.012-1.814-3.33-1.814-1.319 0-2.848-.353-2.848 1.814 0 2.168 1.511 1.777 2.848 1.777zm-18.26-17.004c-.944.735-1.293 2.107-.394 2.341.9.234 3.42-.588 4.35-1.313.931-.725 2.4-1.465.012-2.085-2.388-.62-3.025.322-3.968 1.057zm-33.12-13.177c1.336 0 3.33-.961 3.33-1.778 0-.816-2.012-1.814-3.33-1.814-1.319 0-2.848-.353-2.848 1.814 0 2.168 1.511 1.778 2.848 1.778zm-33.154 10.925c1.336 0 3.331-.96 3.331-1.777s-2.013-1.814-3.33-1.814c-1.32 0-2.849-.353-2.849 1.814s1.512 1.777 2.848 1.777zm20.103-6.444c0-.787-1.63-1.962-3.017-1.962-1.386 0-3.08 1.186-3.08 1.963 0 .776-.599 1.678 3.08 1.678 3.68 0 3.017-.891 3.017-1.678zm-14.725 17.757c-.444-.78-2.585-1.844-3.842-1.76-1.257.082-2.125 1.358-1.687 2.126.438.769.402 1.697 3.739 1.476 3.337-.222 2.234-1.063 1.79-1.842zm30.865 3.668c1.337 0 3.331-.961 3.331-1.778 0-.816-2.012-1.814-3.33-1.814-1.319 0-2.849-.353-2.849 1.814 0 2.168 1.512 1.778 2.848 1.778zM120.1 91.777c-1.311-.342-3.497-.026-3.69.677-.194.703 1.545 2.077 2.84 2.414 1.293.337 2.711 1.033 3.225-.833.513-1.865-1.063-1.916-2.374-2.258zm13.413-4.031c1.336 0 3.331-.961 3.331-1.778 0-.816-2.013-1.814-3.331-1.814s-2.848-.353-2.848 1.814c0 2.168 1.512 1.778 2.848 1.778zM9.587 50.147c-1.31-.342-3.49-.026-3.683.677-.194.703 1.542 2.077 2.833 2.414 1.291.337 2.706 1.033 3.219-.833.512-1.865-1.06-1.916-2.37-2.258zm19.733-2.869c1.334 0 3.325-.96 3.325-1.777s-2.009-1.815-3.325-1.815c-1.315 0-2.842-.353-2.842 1.815 0 2.167 1.509 1.777 2.842 1.777zM10.777 73.013c.921.738 3.374 1.575 4.29 1.35.915-.226.646-1.613-.263-2.34-.91-.73-1.569-1.672-3.999-1.074-2.43.598-.95 1.326-.028 2.064zM185.18 84.59c1.3-.378 2.982-1.741 2.763-2.42-.218-.68-2.444-.943-3.726-.57-1.282.372-2.865.51-2.284 2.314.58 1.804 1.947 1.053 3.246.675zm-22.412 10.436c1.33 0 3.317-.96 3.317-1.777 0-.816-2.004-1.814-3.317-1.814-1.313 0-2.837-.353-2.837 1.814 0 2.168 1.506 1.777 2.837 1.777zm80.556-59.383c.917.738 3.36 1.575 4.272 1.35.911-.226.643-1.613-.262-2.341-.906-.728-1.562-1.67-3.982-1.073-2.42.598-.946 1.326-.028 2.064zM20.495 33.284c1.325 0 3.303-.96 3.303-1.777s-1.996-1.815-3.303-1.815c-1.308 0-2.825-.353-2.825 1.815 0 2.167 1.5 1.777 2.825 1.777zM48.1 16.172c1.325 0 3.303-.96 3.303-1.777s-1.996-1.814-3.303-1.814c-1.308 0-2.825-.353-2.825 1.814 0 2.168 1.5 1.777 2.825 1.777z" fill="#FCF1DE"/></svg>