<svg xmlns="http://www.w3.org/2000/svg" width="24" height="24"><path d="M24 11.642s-2.791-.571-3.972-2.55c0 0-.56.929-1.145.992 0 0 .155-1.08.87-1.558l-.87-.808h-2.016s.525-1.5 1.24-1.621c0 0-1.21-.542-2.015.12 0 0-2.606.359-.405-1.62 0 0-3.162-1.2-3.692-2.521-.525 1.32-3.692 2.52-3.692 2.52 2.201 1.98-.405 1.622-.405 1.622-.805-.658-2.016-.121-2.016-.121.716.12 1.241 1.62 1.241 1.62H5.107l-.86.804c.715.508.87 1.558.87 1.558-.59-.092-1.145-.992-1.145-.992C2.826 11.067 0 11.637 0 11.637s2.791.571 3.972 2.55c0 0 .56-.929 1.145-.992 0 0-.155 1.08-.87 1.558l.87.808h2.016s-.525 1.5-1.24 1.621c0 0 1.21.542 2.015-.12 0 0 2.606-.359.405 1.62 0 0 3.162 1.2 3.692 2.521.525-1.32 3.692-2.52 3.692-2.52-2.201-1.98.405-1.622.405-1.622.805.658 2.016.121 2.016.121-.716-.12-1.241-1.62-1.241-1.62h2.016l.86-.804c-.715-.508-.87-1.558-.87-1.558.59.092 1.145.992 1.145.992 1.15-1.95 3.972-2.521 3.972-2.55z" fill="#490005"/><path d="M12.06.121c.31 1.979.495 3.929.62 5.908.125 1.98.155 3.93.155 5.908 0 1.98-.06 3.93-.155 5.908-.125 1.98-.28 3.93-.62 5.908-.31-1.979-.495-3.929-.62-5.908-.125-1.979-.155-3.929-.155-5.908 0-1.979.06-3.929.155-5.908.155-1.979.31-3.958.62-5.908z" fill="#d80000"/><path d="M12.06 0c.31 2.008.495 3.992.62 6s.155 3.992.155 6-.06 3.992-.155 6c-.125 2.008-.28 3.992-.62 6-.31-2.008-.495-3.992-.62-6s-.155-3.992-.155-6 .06-3.992.155-6c.155-2.008.31-3.992.62-6zM7.813 2.429c.31 1.592.495 3.18.62 4.742.126 1.592.156 3.179.156 4.742 0 1.592-.06 3.179-.155 4.742-.126 1.592-.28 3.179-.62 4.742-.31-1.592-.496-3.18-.621-4.742a77.92 77.92 0 01-.155-4.708c0-1.592.06-3.18.155-4.742.125-1.626.31-3.184.62-4.776zm8.279 0c.31 1.592.495 3.18.62 4.742.125 1.592.155 3.179.155 4.742 0 1.592-.06 3.179-.155 4.742-.125 1.592-.28 3.179-.62 4.742-.31-1.592-.496-3.18-.62-4.742-.126-1.592-.156-3.18-.156-4.742 0-1.592.06-3.18.155-4.742.125-1.592.31-3.15.62-4.742z" fill="#f23f00"/><path d="M19.103 9.208c-.62-.42-1.3-.842-2.11-1.05.774 1.05 1.675 2.221 1.55 4.171-.095 1.5-.836 2.55-1.646 3.392a6.928 6.928 0 01-3.196 1.829 7.76 7.76 0 01-2.171.392c-2.451 0-4.992-.15-7.348.12-.03-.207-.06-.42-.125-.628.96-.242 2.266-.542 2.386-1.621.06-.6.06-7.471-.06-7.98-.155-.691-1.551-.9-2.296-1.05 0-.241.06-.391.06-.628 1.61-.208 3.226-.208 4.962-.3 4.472-.184 8.318.687 9.994 3.353zM9.734 7.5c-.215.029-.155.721-.155.929.03 1.742-.03 3.78-.03 5.521 0 .542-.155 1.708.185 1.979.34.271 1.646.18 2.171.121 2.731-.179 3.937-3.092 3.006-5.642-.59-1.65-1.92-2.792-4.127-2.942-.275-.024-.985.034-1.05.034z" fill="#e8dcc1"/></svg>