<svg xmlns="http://www.w3.org/2000/svg" viewBox="0 0 512 512"><path d="M214 170.1c-3.5 2.1-5.5 5.5-5.5 13.2v142.2c0 5.5 1.4 10.4 4.2 13.9 2.1 2.8 5.5 4.9 11.1 4.9H262c18 0 34.7-8.3 48.6-25 14.6-18 18-48.6 18-68 0-22.9-2.8-43-18.7-61-13.9-16-29.8-21.5-52.7-22.2h-27.7c-7.1-.1-12-.1-15.5 2zM134.9 134h130.4c46.5 0 76.3 17.3 95 40.9 18 22.9 25 51.3 25 74.2 0 39.5-13.2 72.1-34.7 94.3-22.2 22.2-53.4 34-89.5 34h-72.8c-10.4 0-19.4-.7-36.1-.7-8.3.7-11.8.7-16.6 3.5 0 0-15.3 10.4-15.3 9 2.1-6.9 6.2-16 11.1-20.8 6.9-6.9 9-8.3 13.9-12.5 8.3-7.6 9-13.9 9-31.2v-156c0-5.5-.7-9-1.4-11.1-2.8-7.6-2.8-13.9-21.5-22.2-2.1-.7-5.5-2.1-5.5-2.1 4.2 0 7 .7 9 .7z" fill="#fff7de"/><path d="M241.1 428.2c-8.3-1.4-47.9-4.9-58.3-36.1h-31.2c-6.9 0-7.6.7-9 1.4-1.4.7-4.2 2.8-6.9 4.9-2.1 1.4-4.2 2.8-5.5 3.5-1.4.7-5.5 3.5-10.4 3.5-2.8 0-5.5-.7-8.3-2.8-4.9-3.5-6.9-9.7-5.5-15.3 2.8-9.7 8.3-20.1 14.6-27.1l10.4-10.4c.7-.7 2.1-2.1 3.5-2.8 3.5-2.8 4.2-3.5 4.2-20.8V168.7c0-3.5 0-5.5-.7-6.9 0-.7-.7-2.1-.7-2.8-.7-2.8-1.4-3.5-2.1-4.9-.7-1.4-3.5-3.5-11.1-6.2-.7 0-2.1-.7-3.5-1.4-6.9-2.1-11.1-8.3-10.4-16 .7-6.9 6.9-12.5 13.9-12.5h58.3c3.5-10.4 9-22.2 19.4-28.4 21.5-11.8 20.8-18 20.8-18S80.1 102.1 8 20.3C32.3 57.7 82.2 104.9 82.2 141v234.5s2.1 48.6-60.4 52c-4.2 2.8-2.1 6.9-.7 6.9h219.2s4.9-2.1.8-6.2zm248.3-.7c-62.4-3.5-60.4-52-60.4-52V141c0-36.8 50-83.3 75-121.4-72.8 82.6-216.4 54.1-216.4 54.1s-.7 6.2 20.8 18c15.3 8.3 20.1 28.4 22.2 40.2 20.8 9 35.4 22.2 44.4 34 18 22.9 28.4 53.4 28.4 83.2 0 42.3-13.2 78.4-38.8 104.7-9.7 9.7-20.8 17.3-33.3 23.6-1.4 45.1-51.3 49.3-61 50.6-4.2 4.2 0 5.5 0 5.5h219.2c2 .2 4.1-3.2-.1-6z" fill="#dd7928"/></svg>