<svg width="512" height="83" xmlns="http://www.w3.org/2000/svg" preserveAspectRatio="xMidYMid"><path d="M45.804 66.727c-9.4 0-18.797 0-28.196-.002-.44 0-.884.015-1.318-.039-.76-.096-1.041-.394-1.145-1.155-.038-.275-.028-.558-.028-.838a23992 23992 0 010-11.998c0-.28-.01-.564.033-.839.115-.739.43-1.016 1.2-1.063.359-.022.72-.008 1.08-.008h23.996c.32 0 .64 0 .96-.01.53-.018.802-.314.835-.828.024-.359.027-.72.027-1.079.002-3.24.003-6.479 0-9.719 0-1.942-.002-1.946-1.9-1.946-7.878 0-15.757 0-23.636-.002-.44 0-.883.017-1.32-.024-.884-.085-1.174-.392-1.258-1.294-.03-.318-.018-.64-.018-.96-.001-3.759-.002-7.519 0-11.278.002-2.157.163-2.32 2.316-2.32 9.079-.002 18.157 0 27.236-.002.4 0 .8-.004 1.199-.024.419-.02.669-.253.706-.67.03-.359.035-.72.035-1.079.003-3.4.003-6.799 0-10.199 0-1.91-.002-1.912-1.924-1.912H12.768c-.44 0-.88.012-1.32.021-4.654.09-9.694 3.461-11.068 9.063-.3 1.225-.357 2.532-.361 3.802-.03 9.52-.016 19.038-.016 28.556v29.756c0 .44.004.88.03 1.32.03.512.299.81.834.823.24.006.48.01.72.01 11.519 0 23.037.016 34.555-.024a18.971 18.971 0 004.27-.515c3.66-.867 6.197-3.038 7.24-6.749.439-1.562.426-3.162.309-4.763-.138-1.882-.281-2.012-2.157-2.012zm64.98-40.945c-.312-.053-.638-.03-.958-.03l-9.477-.001c-.96 0-1.92.02-2.88-.003-.606-.015-.986.237-1.174.805-.088.265-.187.527-.28.79L83.326 63.78c-.131.376-.24.768-.426 1.117-.12.223-.421.567-.533.53-.255-.084-.51-.334-.642-.582-.206-.383-.315-.818-.46-1.233-3.502-10.072-7.006-20.144-10.506-30.217-.581-1.672-1.356-3.24-2.384-4.684-4.023-5.662-10.561-4.82-14.728-2.176-.563.358-.692.844-.473 1.448.095.263.202.52.302.782 2.112 5.522 4.223 11.045 6.337 16.566 4.37 11.415 8.742 22.83 13.115 34.243.457 1.192.49 1.214 1.734 1.217 2.48.006 4.959.002 7.438.002 2.44 0 4.879.002 7.318-.001 1.36-.002 1.415-.038 1.907-1.328 6.586-17.24 13.17-34.48 19.753-51.72.128-.336.276-.67.357-1.017.123-.526-.136-.857-.65-.944zm17.54 31.471c.319-.015.64-.005.96-.005h14.396c4.999 0 9.997-.028 14.996.01 2.92.021 4.975-1.95 4.786-4.752-.13-1.912-.132-3.835-.3-5.743-.324-3.683-1.127-7.262-2.691-10.632-2.521-5.435-6.66-9.013-12.447-10.596-4.58-1.25-9.236-1.415-13.893-.52-8.528 1.636-14.727 6.411-18.353 14.283-3.544 7.698-3.991 15.753-1.77 23.881 2.02 7.392 6.612 12.752 13.588 16.01 3.594 1.68 7.409 2.537 11.34 2.777 4.403.27 8.787-.003 13.114-.936 2.478-.534 4.86-1.297 6.962-2.779 4.13-2.912 4.436-7.749 2.316-11.625-.47-.86-.731-.94-1.652-.526-4.494 2.025-9.202 3.148-14.117 3.46-4.244.266-8.29-.378-12.015-2.527-2.415-1.393-4.323-3.29-5.495-5.848a13.386 13.386 0 01-.857-2.484c-.247-1.044.076-1.399 1.132-1.448zm-1.018-9.725c.866-3.813 2.474-7.209 5.91-9.365 3.214-2.017 6.699-2.248 10.242-.99 2.926 1.038 4.68 3.26 5.607 6.141.364 1.132.567 2.325.747 3.505.21 1.382-.13 1.742-1.511 1.746-3.276.01-6.553.003-9.83.003H129c-.32 0-.644.02-.957-.032-.585-.094-.871-.424-.738-1.008zm94.885-9.426c-1.53-5.787-5.027-9.802-10.69-11.863-2.92-1.062-5.953-1.537-9.038-1.674-7.363-.33-14.596.608-21.722 2.41-2.088.528-4.142 1.198-6.195 1.854-1.065.34-1.154.532-1.185 1.655-.01.36-.004.72-.004 1.08v47.275c.001 1.95.003 1.95 2.002 1.95h10.56c1.964 0 1.965-.001 1.965-2.011 0-12.6 0-25.197.002-37.796 0-1.556.22-1.928 1.732-2.246 2.067-.435 4.15-.894 6.247-1.06 1.856-.148 3.772-.096 5.608.2 3.538.57 5.822 2.692 6.617 6.233.243 1.08.337 2.217.342 3.328.03 7.399-.013 14.798.038 22.197.01 1.506.175 3.04.51 4.508.638 2.794 2.091 5.1 4.671 6.53 2.72 1.507 5.63 1.645 8.615 1.068.538-.104.826-.461.862-1.007.018-.28.014-.56.014-.84.001-11.358.021-22.717-.015-34.076-.008-2.597-.267-5.187-.936-7.715zm47.533 28.631c-.705.282-1.393.61-2.11.858-2.64.912-5.33 1.408-8.126.883-2.447-.46-4.114-1.82-4.901-4.226-.454-1.387-.604-2.814-.608-4.253-.018-6.68-.01-13.36-.006-20.04 0-.36-.006-.724.05-1.077.115-.706.402-.965 1.108-1.034.317-.031.639-.014.959-.014h11.76c.32 0 .64-.002.96-.006.573-.008.92-.282.92-.87.008-3.48.007-6.96-.002-10.44-.001-.476-.283-.729-.757-.75-.32-.015-.64-.015-.96-.015l-11.76-.001c-2.142-.001-2.277-.137-2.28-2.336-.003-3.48.005-6.96-.004-10.441-.003-1.393-.088-1.476-1.515-1.478-3.84-.008-7.68-.009-11.521.001-1.401.003-1.5.111-1.501 1.5-.004 3.44-.001 6.88-.002 10.32 0 2.433 0 2.433-2.375 2.434-1.52.001-3.04-.008-4.56.004-1.185.009-1.292.111-1.304 1.317-.017 1.8-.005 3.601-.006 5.401 0 1.24-.004 2.48.002 3.72.007 1.601.042 1.634 1.588 1.639.6.003 1.203.037 1.8-.005 2.814-.198 4.968 2.137 4.884 4.856-.115 3.676-.03 7.359-.03 11.039 0 3.36-.051 6.721.023 10.08.039 1.791.143 3.607.486 5.36 1.137 5.804 4.438 9.828 10.137 11.694 4.44 1.454 8.958 1.451 13.497.511 2.182-.452 4.2-1.285 5.955-2.688 3.99-3.191 3.784-8.144 1.977-11.382-.486-.871-.807-.949-1.778-.561zm52.553-39.914c-3.98-1.742-8.178-2.401-12.51-2.31-3.588.077-7.076.635-10.408 2.009-1.428.589-1.543.52-1.545-1.05-.004-3.92.044-7.838-.024-11.756-.026-1.468-.175-2.963-.508-4.39-.872-3.738-3.06-6.368-6.835-7.486-1.672-.496-3.392-.493-5.115-.353-1.964.16-2.061.262-2.061 2.235V64.42c0 3.679-.004 7.358 0 11.036.005 2.724.098 2.847 2.745 3.688 6.844 2.173 13.858 3.088 21.03 2.869 4.18-.128 8.27-.762 12.216-2.174 8.505-3.046 14.272-8.797 16.898-17.49 1.839-6.087 2.062-12.293.479-18.464-2.041-7.952-6.78-13.746-14.362-17.066zm-.386 31.666c-1.702 5.954-5.75 9.42-11.74 10.698-3.421.729-6.831.542-10.22-.236-1.72-.394-2.111-.88-2.115-2.647-.01-4.08-.002-8.157-.002-12.236-.001-4.038.029-8.077-.022-12.115-.013-1.017.317-1.653 1.219-2.094 5.568-2.722 11.186-3.247 16.756-.138 3.876 2.165 5.99 5.635 6.712 9.989.493 2.975.23 5.915-.588 8.779zm54.468-32.712c-1.777-.773-3.665-1.124-5.592-1.213a48.489 48.489 0 00-9.207.445 53.955 53.955 0 00-13.016 3.58c-1.252.52-1.731 1.25-1.721 2.624.058 7.918.028 15.837.028 23.756v.84c0 7.76-.002 15.518.002 23.277 0 1.666.045 1.705 1.657 1.706 3.48.002 6.959.011 10.439-.003 2.2-.009 2.468.482 2.463-2.515-.024-12.198-.01-24.397-.01-36.595 0-.36-.008-.72.003-1.08.032-.967.172-1.22 1.09-1.455 1.237-.314 2.485-.646 3.748-.784 4.42-.482 8.772-.08 13.034 1.216 1.036.314 1.247.22 1.613-.78.625-1.714.828-3.49.77-5.305-.115-3.71-1.94-6.252-5.301-7.714zm28.735.845c-.027-.513-.302-.813-.822-.851-.318-.022-.639-.018-.959-.018-3.677-.001-7.355-.002-11.033 0-1.707.001-1.714.004-1.714 1.753-.002 14.112-.009 28.224.013 42.336.002 1.231.094 2.483.327 3.69.621 3.21 2.151 5.832 5.185 7.362 2.375 1.198 4.905 1.365 7.48.982 1.468-.219 1.535-.377 1.535-1.885l.001-26.265V27.697c0-.36.006-.72-.013-1.079zM397.751.004c-4.45-.138-8.78 3.445-8.768 8.848.013 5.33 4.49 8.634 8.739 8.647 4.137.013 8.77-3.233 8.794-8.617.026-5.48-4.432-9.01-8.765-8.878zm54.664 66.789c-.924.378-1.842.783-2.795 1.07-2.395.724-4.832 1.099-7.331.606-2.388-.472-4.13-1.772-4.81-4.152-.37-1.29-.612-2.663-.624-4.001-.061-6.84-.03-13.68-.027-20.52 0-.318-.012-.643.037-.956.09-.575.42-.944 1.027-.991.319-.025.64-.018.959-.018l11.76-.001c2.022-.001 2.023-.001 2.023-2.081v-8.04c0-.24.006-.48-.002-.72-.032-1.006-.212-1.196-1.18-1.237-.278-.012-.56-.004-.84-.004-3.958 0-7.918.003-11.878-.001-1.645-.002-1.898-.248-1.905-1.854-.01-1.84-.002-3.68-.003-5.52-.001-1.92.012-3.84-.01-5.76-.01-.91-.162-1.044-1.034-1.112-.238-.018-.48-.011-.72-.011h-11.04c-.28 0-.56.006-.838.019-.578.028-.88.317-.863.914.008.319-.004.639-.004.959-.001 3.52.005 7.04-.004 10.56-.003 1.529-.284 1.797-1.836 1.804-1.64.008-3.28-.001-4.92.004-1.517.004-1.601.09-1.604 1.656-.004 2.48-.002 4.96-.001 7.44.002 3.403-.261 2.955 2.923 2.984.24.002.48-.002.72 0 2.774.03 4.682 1.876 4.71 4.664.038 3.88.009 7.76.009 11.64h.003c0 2.08-.03 4.16.007 6.239.044 2.476.013 4.962.247 7.422.653 6.886 5.058 11.856 11.772 13.49 3.428.836 6.888.9 10.36.41 2.39-.338 4.69-1 6.739-2.346 4.472-2.94 5.049-7.654 3.06-11.788-.555-1.157-.915-1.247-2.087-.768zm55.549-.594c-2.68 1.177-5.44 2.114-8.318 2.643-3.905.718-7.831 1.161-11.784.354-3.57-.729-6.75-2.206-9.255-4.935a11.973 11.973 0 01-2.884-5.45c-.273-1.168.043-1.526 1.248-1.56.32-.01.64-.004.96-.004h14.276c4.959 0 9.918-.042 14.876.017 2.672.032 5.129-1.57 4.903-5.009-.118-1.794-.138-3.595-.295-5.384-.326-3.724-1.125-7.34-2.71-10.748-2.547-5.476-6.726-9.042-12.565-10.623-3.987-1.08-8.045-1.286-12.122-.738-9.477 1.272-16.312 6.257-20.201 14.98-3.358 7.531-3.73 15.402-1.611 23.331 1.63 6.102 5.117 10.963 10.479 14.4 4.453 2.852 9.402 4.168 14.618 4.497 3.917.247 7.828.04 11.7-.689 2.683-.504 5.302-1.172 7.659-2.628 4.612-2.848 5.05-7.724 3.078-11.723-.591-1.2-.824-1.27-2.052-.73zm-32.137-18.718c.154-.74.359-1.475.61-2.189.905-2.57 2.218-4.893 4.45-6.539 3.58-2.64 7.505-3.019 11.57-1.37 3.014 1.22 4.58 3.743 5.387 6.777.245.922.385 1.877.5 2.826.152 1.231-.177 1.573-1.457 1.578-3.317.01-6.634.003-9.951.003h-9.351c-.32 0-.643.02-.958-.024-.655-.09-.933-.424-.8-1.062z" fill="#F7682F"/></svg>