<svg width="512" height="118" xmlns="http://www.w3.org/2000/svg" preserveAspectRatio="xMidYMid"><defs><linearGradient x1="63.81%" y1="70.337%" x2="32.33%" y2="22.268%" id="a"><stop stop-color="#FCD08F" offset="0%"/><stop stop-color="#F79673" offset="100%"/></linearGradient><linearGradient x1="87.256%" y1="28.454%" x2="13.551%" y2="89.154%" id="b"><stop stop-color="#E74047" offset="0%"/><stop stop-color="#7F50A0" offset="100%"/></linearGradient><linearGradient x1="87.675%" y1="70.708%" x2="12.824%" y2="11.498%" id="c"><stop stop-color="#E6FFAB" offset="0%"/><stop stop-color="#47BEBC" offset="100%"/></linearGradient><linearGradient x1="50.001%" y1="100%" x2="50.001%" y2="0%" id="d"><stop stop-color="#84E9DB" offset="0%"/><stop stop-color="#197491" offset="100%"/></linearGradient></defs><path d="M427.167 30.801h4.328v52.726h-4.328V30.801zm42.591 46.463c0 3.018 1.48 6.263 1.48 6.263h-5.01s-1.367-2.847-1.367-5.466c0 0-5.068 6.377-14.12 6.377-9.054 0-12.755-4.726-12.755-11.387 0-6.662 6.092-11.388 18.448-11.388l8.655-.015v-5.11s.114-8.54-10.477-8.54c-10.59 0-10.363 7.387-10.363 7.387l-4.669.014s.417-10.822 15.146-10.822c14.729 0 15.032 11.506 15.032 11.506v21.181zm-4.669-7.572v-4.784h-8.996c-7.402 0-13.495 3.36-13.495 8.484 0 5.125 3.871 7.346 8.54 7.346 4.67 0 13.951-3.36 13.951-11.046zm9.149-24.2h4.555l14.12 32.418 13.743-32.418h5.162s-17.992 42.325-19.663 46.31c-1.67 3.986-5.657 7.668-10.552 7.668-2.203 0-4.404-1.29-4.404-1.29l1.215-3.417s1.101.608 3.264.608 5.922-5.01 5.922-5.01l2.733-6.53-16.095-38.34zm-69.8-.915c8.2 0 17.082 5.541 17.082 19.626 0 14.086-7.402 20.235-16.968 20.235-9.394 0-13.616-6.903-13.765-7.151v20.817h-4.327V45.492h4.327v5.903c.15-.186 5.567-6.818 13.651-6.818zm-.683 36.331c7.971 0 13.324-7.179 13.324-16.401 0-9.223-5.808-16.283-12.755-16.283-7.64 0-13.386 7.747-13.537 7.952v16.442c.15.247 5.118 8.29 12.968 8.29zM183.25 34.524l-6.321 5.959-2.925.783 1.819-2.98s-5.61-7.37-15.568-7.37c-9.956 0-21.414 6.783-21.414 22.815 0 13.133 10.627 27.519 27.026 27.519 5.668 0 9.403-2.117 9.403-2.117v-11.76s-8.436-.098-11.617.706l5.927-3.293h16.832s-3.162 1.609-3.162 6.272v9.488s-12.207 3.998-23.073 3.998c-21.02 0-29.476-15.446-29.476-27.677 0-13.994 11.182-28.772 30.424-28.772 15.805 0 22.125 6.429 22.125 6.429zm26.751 10.204c11.28 0 19.636 7.854 19.636 19.385 0 11.531-8.607 19.718-20.89 19.718-12.28 0-19.215-10.36-19.215-18.966 0-11.95 9.19-20.137 20.469-20.137zm.835 36.596c9.31 0 10.612-9.525 10.611-13.368 0-11.158-5.598-20.721-13.703-20.721-5.68 0-10.61 5.18-10.61 12.449 0 7.27 4.394 21.64 13.702 21.64zm43.055-36.576c11.275 0 19.625 7.85 19.625 19.376 0 11.526-8.6 19.708-20.878 19.708-12.276 0-19.207-10.356-19.207-18.957 0-11.943 9.186-20.127 20.46-20.127zm.834 36.577c9.306 0 10.608-9.52 10.608-13.362 0-11.15-5.595-20.71-13.697-20.71-5.677 0-10.606 5.178-10.606 12.443s4.393 21.63 13.695 21.63zm51.18-.266c4.027 2.782 6.805 6.745 6.807 11.951 0 10.916-13.57 15.189-21.496 15.189-7.926 0-17.595-3.218-17.595-11.785 0-14.171 22.118-14.191 22.118-14.191s-2.364-2.448-2.364-5.188c0-1.68.58-2.947.58-2.947s-.664.208-1.66.208c-9.586 0-14.441-6.847-14.441-12.572 0-8.134 7.386-15.687 17.18-15.687h19.087l-4.896 2.905-4.896.165s5.146 3.402 5.146 11.039c0 5.146-2.617 7.989-5.48 10.707-2.862 2.718-2.904 3.693-2.904 4.895 0 1.204.788 2.533 4.813 5.311zm-10.5-9.253c5.791 0 6.909-4.543 6.909-7.905 0-9.648-5.475-14.94-10.083-14.94-4.606 0-7.22 3.736-7.22 8.965 0 5.229 4.606 13.88 10.395 13.88zm-.434 32.866c2.675 0 11.95-.746 11.95-8.777 0-5.6-4.48-7.375-8.528-10.954 0 0-1.306-.218-2.832-.218-1.526 0-14.657.841-14.657 9.866s11.39 10.083 14.067 10.083zm18.172-76.426l5.46-2.98h11.979c-2.792 1.49-3.838 2.67-3.91 9.62l-.435 42.347c0 2.65 2.304 3.367 4.38 3.367 1.89 0 2.756.367 2.756.367l-2.543 1.769h-14.523s2.085-1.864 2.11-3.724l.746-50.751-6.02-.015zm52.97 26.647l-19.04 7.633-6.458.336s16.147-6.584 16.776-7.717c.627-1.131-.671-7.549-7.8-7.549-3.555 0-9.229 3.27-9.229 11.408 0 12.077 9.06 20.298 16.859 20.298 5.201 0 9.898-2.769 9.898-2.769s-4.445 7.298-14.26 7.298c-14.006 0-19.626-10.654-19.626-20.13 0-9.478 6.376-19.124 18.621-19.124 12.245 0 14.26 10.316 14.26 10.316z" fill="#808285"/><path d="M81.244 77.003c13.927-7.623 24.563-13.445 25.53-13.976 2.887-1.58 5.91-5.61 0-8.833-1.899-1.038-12.249-6.682-25.546-13.936l-18.29 18.43 18.306 18.315z" fill="url(#a)"/><path d="M62.938 58.687L4.442 117.63c1.321.168 2.91-.182 4.738-1.182L81.244 77 62.938 58.687z" fill="url(#b)"/><path d="M62.938 58.687l18.289-18.43L9.18.952C7.615.097 5.91-.201 4.4.135l58.538 58.552z" fill="url(#c)"/><path d="M62.938 58.687L4.399.137C1.981.674 0 2.767 0 6.973v103.63c0 3.961 1.559 6.747 4.441 7.025l58.497-58.942z" fill="url(#d)"/></svg>