<svg width="256" height="273" xmlns="http://www.w3.org/2000/svg" preserveAspectRatio="xMidYMid"><defs><linearGradient x1="63.81%" y1="70.337%" x2="32.33%" y2="22.268%" id="a"><stop stop-color="#FCD08F" offset="0%"/><stop stop-color="#F79673" offset="100%"/></linearGradient><linearGradient x1="87.256%" y1="28.454%" x2="13.551%" y2="89.154%" id="b"><stop stop-color="#E74047" offset="0%"/><stop stop-color="#7F50A0" offset="100%"/></linearGradient><linearGradient x1="87.675%" y1="70.708%" x2="12.824%" y2="11.498%" id="c"><stop stop-color="#E6FFAB" offset="0%"/><stop stop-color="#47BEBC" offset="100%"/></linearGradient><linearGradient x1="50.001%" y1="100%" x2="50.001%" y2="0%" id="d"><stop stop-color="#84E9DB" offset="0%"/><stop stop-color="#197491" offset="100%"/></linearGradient></defs><path d="M188.329 178.497c32.283-17.67 56.939-31.166 59.182-32.396 6.69-3.661 13.7-13.006 0-20.476-4.403-2.405-28.396-15.488-59.22-32.305l-42.395 42.72 42.433 42.457z" fill="url(#a)"/><path d="M145.894 136.04L10.297 272.673c3.062.388 6.745-.422 10.982-2.741l167.05-91.438-42.435-42.452z" fill="url(#b)"/><path d="M145.894 136.04l42.395-42.72L21.279 2.203C17.653.225 13.699-.466 10.2.313l135.694 135.728z" fill="url(#c)"/><path d="M145.894 136.04L10.198.316C4.593 1.565 0 6.417 0 16.167v240.22c0 9.183 3.613 15.64 10.295 16.285L145.894 136.04z" fill="url(#d)"/></svg>