<svg xmlns="http://www.w3.org/2000/svg" width="26.453" height="30.001" preserveAspectRatio="xMidYMid"><path d="M26.453 0l-2.41 26.997-10.833 3.004-10.803-3L0 0z" fill="#e44d26"/><path d="M13.226 27.705l8.754-2.427 2.06-23.07H13.226z" fill="#f16529"/><path d="M8.542 8.831h4.684V5.52H4.922l.08.889.814 9.126h7.41v-3.312H8.844zm.746 8.359H5.964l.464 5.2 6.783 1.883.015-.004v-3.446l-.014.004-3.688-.996z" fill="#ebebeb"/><path d="M13.215 15.534h4.078l-.384 4.295-3.694.997v3.445l6.79-1.882.049-.559.778-8.718.081-.89h-7.698zm0-6.711v.008h8l.066-.744.15-1.68.08-.888h-8.296v3.304z" fill="#fff"/></svg>