<svg xmlns="http://www.w3.org/2000/svg" width="32.755" height="30" preserveAspectRatio="xMidYMid"><g transform="translate(-.19 15.026) scale(.2429)"><circle cx="31.609" cy="30.823" r="28.254" fill="#d66661"/><path d="M31.609 61.645c-17.023 0-30.823-13.8-30.823-30.822C.786 13.8 14.586 0 31.609 0S62.43 13.8 62.43 30.823s-13.8 30.822-30.822 30.822zm0-5.137c14.185 0 25.685-11.5 25.685-25.685 0-14.186-11.5-25.686-25.685-25.686-14.186 0-25.686 11.5-25.686 25.686s11.5 25.685 25.686 25.685z" fill="#c93d39"/></g><g transform="translate(8.884 -.12) scale(.2429)"><circle cx="30.85" cy="31.319" r="28.254" fill="#6bab5b"/><path d="M30.85 62.142C13.827 62.142.027 48.342.027 31.32S13.827.497 30.85.497c17.022 0 30.822 13.8 30.822 30.822 0 17.023-13.8 30.823-30.822 30.823zm0-5.137c14.185 0 25.685-11.5 25.685-25.686 0-14.185-11.5-25.685-25.685-25.685-14.186 0-25.686 11.5-25.686 25.685 0 14.186 11.5 25.686 25.686 25.686z" fill="#3b972e"/></g><g transform="translate(17.694 15.026) scale(.2429)"><circle cx="31.181" cy="30.823" r="28.254" fill="#aa7dc0"/><path d="M31.18 61.645c-17.022 0-30.822-13.8-30.822-30.822C.358 13.8 14.158 0 31.18 0s30.822 13.8 30.822 30.823-13.8 30.822-30.822 30.822zm0-5.137c14.186 0 25.686-11.5 25.686-25.685 0-14.186-11.5-25.686-25.685-25.686-14.186 0-25.686 11.5-25.686 25.686s11.5 25.685 25.686 25.685z" fill="#945bb0"/></g></svg>