<svg width="512" height="344" xmlns="http://www.w3.org/2000/svg" preserveAspectRatio="xMidYMid"><path d="M55.21 227.607c0-27.144.01-54.29-.03-81.433-.003-1.417.289-2.114 1.787-2.519 13.497-3.645 26.972-7.383 40.454-11.088 2.28-.627 2.285-.617 2.285 1.747 0 44.142.025 88.287-.02 132.428-.011 9.45.419 18.906-.467 28.35-1.076 11.465-3.685 22.436-11.033 31.715-6.48 8.176-15.249 12.424-25.307 14.289-11.309 2.094-22.709 2.66-34.162 1.607-7.91-.725-15.5-2.546-22.011-7.477-4.907-3.715-7.633-8.457-6.418-14.743 1.261-6.523 5.738-10.245 11.758-12.214 3.876-1.268 7.931-1.494 11.986-.908 3.124.452 5.86 1.753 8.19 3.92a55.498 55.498 0 016.474 7.16c1.495 1.97 3.073 3.865 5.126 5.288 3.522 2.444 6.855 1.654 8.934-2.084 1.403-2.525 1.709-5.323 2.01-8.108.437-4.024.437-8.066.439-12.102.008-24.613.005-49.22.005-73.828zm151.358 41.219c-4.984 4.087-9.91 7.39-15.218 10.117-17.734 9.123-35.156 7.748-51.968-2.147-11.499-6.77-18.871-16.879-21.456-30.172a32.971 32.971 0 01-.622-6.32c.017-33.927.03-67.853-.034-101.78-.004-1.888.488-2.325 2.336-2.315 13.363.084 26.729.075 40.094.005 1.629-.008 2.018.429 2.014 2.028-.046 33.17-.043 66.344-.03 99.517.003 10.865 6.167 18.738 16.575 21.284 3.65.893 7.18.68 10.579-1.028 7.3-3.665 12.779-9.3 17.336-15.95.57-.834.384-1.713.384-2.587.012-33.65.027-67.3-.035-100.947-.003-1.856.437-2.346 2.32-2.332 13.431.089 26.865.077 40.298.007 1.57-.009 1.89.418 1.888 1.926-.042 47.431-.044 94.86.004 142.282.002 1.607-.477 1.883-1.952 1.876-13.57-.048-27.14-.048-40.712-.001-1.397.005-1.885-.285-1.839-1.777.115-3.738.038-7.49.038-11.686zm106.059-94.94c0 35.366-.02 70.731.044 106.098.005 1.917-.53 2.332-2.367 2.322-13.365-.09-26.73-.08-40.094-.014-1.54.014-1.915-.38-1.911-1.91.036-66.964.036-133.925 0-200.896 0-1.39.324-2.004 1.724-2.386a4817.522 4817.522 0 0040.417-11.216c1.79-.506 2.241-.292 2.238 1.688-.07 35.445-.051 70.879-.051 106.314zm61.758 33.241c0 24.258-.02 48.52.036 72.778.003 1.76-.281 2.43-2.283 2.413-13.432-.105-26.865-.08-40.3-.017-1.51.007-1.922-.324-1.918-1.892a68950 68950 0 000-134.457c0-1.33.348-1.887 1.613-2.232 13.682-3.722 27.371-7.454 41.023-11.303 1.798-.508 1.851.053 1.848 1.518-.03 24.397-.02 48.792-.02 73.192zm92.945 63.62c-1.347 1.107-2.406 1.928-3.428 2.802-7.497 6.42-16.143 10.107-25.98 11.002-9.926.903-19.672.418-29.02-3.508-20.703-8.69-26.656-29.456-20.46-47.04 3.084-8.758 9.378-15.197 16.848-20.461 9.736-6.86 20.58-11.537 31.712-15.55 9.555-3.452 19.17-6.751 29.056-9.164.763-.178 1.325-.417 1.297-1.464-.233-7.521.448-15.063-.82-22.561-2.1-12.354-11.34-17.16-22.1-16.02-.884.094-1.763.22-2.632.413-8.357 1.852-12.53 7.563-12.637 17.355-.034 2.963-.392 5.858-1.187 8.713-1.553 5.533-5.088 9.175-10.57 10.738-5.865 1.678-11.814 1.71-17.532-.523-11.19-4.358-15.213-17.418-8.775-28.297 3.855-6.51 9.608-10.968 16.214-14.404 10.69-5.563 22.131-8.524 34.097-9.49 12.964-1.045 25.87-.626 38.542 2.583 7.343 1.86 14.244 4.758 20.126 9.695 7.666 6.425 11.612 14.819 11.674 24.633.238 36.807.165 73.608.245 110.414.004 1.369-.425 1.684-1.75 1.68-13.77-.044-27.546-.04-41.323-.003-1.227.004-1.668-.25-1.613-1.568.086-3.186.016-6.38.016-9.975zm0-63.764c-8.214 3.606-15.852 7.495-22.77 12.696-3.687 2.773-6.912 5.969-9.824 9.564-7.247 8.956-3.407 22.867 2.901 28.447 2.729 2.41 5.757 3.266 9.287 2.606 2.778-.526 5.397-1.468 7.796-2.971 2.607-1.63 5.054-3.551 7.779-4.948 3.958-2.022 5.09-4.903 4.96-9.331-.359-11.914-.13-23.837-.13-36.063z" fill="#252525"/><g transform="translate(46.234 62.358)"><circle fill="#6B85DD" cx="31.679" cy="30.823" r="28.254"/><path d="M31.679 61.645c-17.023 0-30.823-13.8-30.823-30.822C.856 13.8 14.656 0 31.68 0s30.823 13.8 30.823 30.823-13.8 30.822-30.823 30.822zm0-5.137c14.186 0 25.686-11.5 25.686-25.685 0-14.186-11.5-25.686-25.686-25.686S5.993 16.637 5.993 30.823s11.5 25.685 25.686 25.685z" fill="#4266D5"/></g><g transform="translate(323.639 62.358)"><circle fill="#D66661" cx="31.609" cy="30.823" r="28.254"/><path d="M31.609 61.645c-17.023 0-30.823-13.8-30.823-30.822C.786 13.8 14.586 0 31.609 0S62.43 13.8 62.43 30.823s-13.8 30.822-30.822 30.822zm0-5.137c14.185 0 25.685-11.5 25.685-25.685 0-14.186-11.5-25.686-25.685-25.686-14.186 0-25.686 11.5-25.686 25.686s11.5 25.685 25.686 25.685z" fill="#C93D39"/></g><g transform="translate(361)"><circle fill="#6BAB5B" cx="30.85" cy="31.319" r="28.254"/><path d="M30.85 62.142C13.827 62.142.027 48.342.027 31.32S13.827.497 30.85.497c17.022 0 30.822 13.8 30.822 30.822 0 17.023-13.8 30.823-30.822 30.823zm0-5.137c14.185 0 25.685-11.5 25.685-25.686 0-14.185-11.5-25.685-25.685-25.685-14.186 0-25.686 11.5-25.686 25.685 0 14.186 11.5 25.686 25.686 25.686z" fill="#3B972E"/></g><g transform="translate(397.27 62.358)"><circle fill="#AA7DC0" cx="31.181" cy="30.823" r="28.254"/><path d="M31.18 61.645c-17.022 0-30.822-13.8-30.822-30.822C.358 13.8 14.158 0 31.18 0s30.822 13.8 30.822 30.823-13.8 30.822-30.822 30.822zm0-5.137c14.186 0 25.686-11.5 25.686-25.685 0-14.186-11.5-25.686-25.685-25.686-14.186 0-25.686 11.5-25.686 25.686s11.5 25.685 25.686 25.685z" fill="#945BB0"/></g></svg>