<svg xmlns="http://www.w3.org/2000/svg" width="30" height="30"><path d="M15 30c8.262 0 15-6.738 15-15S23.262 0 15 0 0 6.738 0 15s6.738 15 15 15z" fill="#1a91a1"/><path d="M27.554 3.004L6.736 10.167l6.341 1.265 14.477-8.428z" fill="#ffba1b"/><path d="M6.736 10.167l6.341 1.265 4.209-2.45z" fill="#20d0c2"/><path d="M13.077 11.432l.983 7.476L27.554 3.004z" fill="#f5a209"/><path d="M13.077 11.432l.983 7.476 6.031-7.109-1.041-1.696-2.063 1.722.299-2.843-4.209 2.45z" fill="#15bdb1"/><path d="M27.554 3.004l-12.2 10.184-1.294 5.72z" fill="#fecd0d"/><path d="M16.987 11.825l-1.632 1.363-1.295 5.72 6.031-7.109-1.041-1.696-2.063 1.722z" fill="#20d0c2"/><path d="M23.404 17.199l4.15-14.195-12.2 10.184 8.05 4.01z" fill="#ffba1b"/><path d="M16.978 11.825l-1.633 1.363 8.05 4.01-4.354-7.095-2.063 1.722z" fill="#20d0c2"/><path d="M2.701 21.013l8.43-8.213.373.49zm9.887 5.748l7.636-8.777.538.245zm-6.37-.861l7.134-6.39-.39-.333z" fill="#fff"/></svg>