<svg xmlns="http://www.w3.org/2000/svg" width="45.277" height="30" preserveAspectRatio="xMidYMid"><defs><linearGradient x1="289.775" y1="138.693" x2="291.192" y2="96.789" id="b" gradientTransform="scale(.61577 1.62398)" gradientUnits="userSpaceOnUse"><stop stop-color="#FFEED7" offset="0%"/><stop stop-color="#BDBFC2" offset="100%"/></linearGradient><linearGradient x1="104.51" y1="5.663" x2="100.19" y2="51.919" id="c" gradientTransform="scale(1.14652 .8722)" gradientUnits="userSpaceOnUse"><stop stop-color="#FFF" stop-opacity=".8" offset="0%"/><stop stop-color="#FFF" stop-opacity="0" offset="100%"/></linearGradient><linearGradient x1="121.745" y1="53.925" x2="120.811" y2="35.184" id="d" gradientTransform="scale(.80698 1.2392)" gradientUnits="userSpaceOnUse"><stop stop-color="#FFEED7" offset="0%"/><stop stop-color="#BDBFC2" offset="100%"/></linearGradient><linearGradient x1="148.081" y1="59.382" x2="148.081" y2="37.696" id="e" gradientTransform="scale(.88072 1.13544)" gradientUnits="userSpaceOnUse"><stop stop-color="#FFEED7" offset="0%"/><stop stop-color="#BDBFC2" offset="100%"/></linearGradient><linearGradient x1="155.599" y1="41.359" x2="154.911" y2="49.217" id="f" gradientTransform="scale(.82506 1.21204)" gradientUnits="userSpaceOnUse"><stop stop-color="#FFF" stop-opacity=".65" offset="0%"/><stop stop-color="#FFF" stop-opacity="0" offset="100%"/></linearGradient><linearGradient x1="123.981" y1="40.586" x2="124.619" y2="46.679" id="g" gradientTransform="scale(.78279 1.27748)" gradientUnits="userSpaceOnUse"><stop stop-color="#FFF" stop-opacity=".65" offset="0%"/><stop stop-color="#FFF" stop-opacity="0" offset="100%"/></linearGradient><linearGradient x1="148.015" y1="182.554" x2="148.015" y2="114.048" id="h" gradientTransform="scale(.81292 1.23013)" gradientUnits="userSpaceOnUse"><stop stop-color="#FFEED7" offset="0%"/><stop stop-color="#BDBFC2" offset="100%"/></linearGradient><linearGradient x1="108.991" y1="156.392" x2="101.376" y2="102.296" id="i" gradientTransform="scale(.69274 1.44354)" gradientUnits="userSpaceOnUse"><stop stop-color="#FFEED7" offset="0%"/><stop stop-color="#BDBFC2" offset="100%"/></linearGradient><linearGradient x1="104.401" y1="144.858" x2="104.694" y2="204.6" id="j" gradientTransform="scale(1.1079 .90262)" gradientUnits="userSpaceOnUse"><stop stop-color="#FFF" stop-opacity=".8" offset="0%"/><stop stop-color="#FFF" stop-opacity="0" offset="100%"/></linearGradient><linearGradient x1="102.844" y1="110.19" x2="103.195" y2="134.561" id="k" gradientTransform="scale(1.13673 .87972)" gradientUnits="userSpaceOnUse"><stop stop-color="#FFF" stop-opacity=".65" offset="0%"/><stop stop-color="#FFF" stop-opacity="0" offset="100%"/></linearGradient><linearGradient x1="103.163" y1="63.007" x2="103.163" y2="108.009" id="l" gradientTransform="scale(.57191 1.74852)" gradientUnits="userSpaceOnUse"><stop stop-color="#FFF" stop-opacity=".65" offset="0%"/><stop stop-color="#FFF" stop-opacity="0" offset="100%"/></linearGradient><linearGradient x1="330.86" y1="58.718" x2="330.855" y2="99.452" id="m" gradientTransform="scale(.57295 1.74537)" gradientUnits="userSpaceOnUse"><stop stop-color="#FFF" stop-opacity=".65" offset="0%"/><stop stop-color="#FFF" stop-opacity="0" offset="100%"/></linearGradient><linearGradient x1="54.492" y1="225.125" x2="41.523" y2="269.054" id="n" gradientTransform="scale(1.01163 .9885)" gradientUnits="userSpaceOnUse"><stop stop-color="#FFA63F" offset="0%"/><stop stop-color="#FF0" offset="100%"/></linearGradient><linearGradient x1="181.205" y1="222.524" x2="179.432" y2="145.707" id="o" gradientTransform="scale(1.0209 .97952)" gradientUnits="userSpaceOnUse"><stop stop-color="#FFEED7" offset="0%"/><stop stop-color="#BDBFC2" offset="100%"/></linearGradient><linearGradient x1="180.039" y1="200.218" x2="211.416" y2="249.231" id="p" gradientTransform="scale(.95627 1.04573)" gradientUnits="userSpaceOnUse"><stop stop-color="#FFA63F" offset="0%"/><stop stop-color="#FF0" offset="100%"/></linearGradient><linearGradient x1="224.737" y1="142.266" x2="218.799" y2="186.405" id="q" gradientTransform="scale(.81152 1.23226)" gradientUnits="userSpaceOnUse"><stop stop-color="#FFF" stop-opacity=".65" offset="0%"/><stop stop-color="#FFF" stop-opacity="0" offset="100%"/></linearGradient><linearGradient x1="53.036" y1="186.021" x2="55.101" y2="244.908" id="r" gradientTransform="scale(.98731 1.01285)" gradientUnits="userSpaceOnUse"><stop stop-color="#FFF" stop-opacity=".65" offset="0%"/><stop stop-color="#FFF" stop-opacity="0" offset="100%"/></linearGradient><linearGradient x1="172.709" y1="182.055" x2="175.561" y2="200.622" id="s" gradientTransform="scale(1.04423 .95764)" gradientUnits="userSpaceOnUse"><stop stop-color="#FFF" stop-opacity=".65" offset="0%"/><stop stop-color="#FFF" stop-opacity="0" offset="100%"/></linearGradient><linearGradient x1="95.571" y1="77.674" x2="95.991" y2="119.353" id="t" gradientTransform="scale(1.2107 .82596)" gradientUnits="userSpaceOnUse"><stop stop-color="#FFA63F" offset="0%"/><stop stop-color="#FF0" offset="100%"/></linearGradient><linearGradient x1="89.543" y1="78.129" x2="89.431" y2="98.91" id="u" gradientTransform="scale(1.2524 .79847)" gradientUnits="userSpaceOnUse"><stop stop-color="#FFF" stop-opacity=".65" offset="0%"/><stop stop-color="#FFF" stop-opacity="0" offset="100%"/></linearGradient><filter x="-.5" y="-.5" width="2" height="2" filterUnits="objectBoundingBox" id="a"><feOffset in="SourceAlpha" result="shadowOffsetOuter1"/><feGaussianBlur stdDeviation="6.5" in="shadowOffsetOuter1" result="shadowBlurOuter1"/></filter></defs><g fill="none"><path d="M235.125 249.359c0 17.355-52.617 31.497-117.54 31.497S.044 266.806.044 249.359c0-17.356 52.618-31.498 117.54-31.498 64.924 0 117.45 14.142 117.541 31.498z" transform="translate(11.315 -.08) scale(.0963)" fill="#000" fill-opacity=".2" filter="url(#a)"/><path d="M16.44 20.67c-1.097-1.574-1.31-6.703 1.246-9.86 1.265-1.512 1.592-2.564 1.69-3.988.07-1.619-1.141-6.438 3.422-6.8 4.625-.372 4.368 4.191 4.342 6.605-.018 2.034 1.494 3.193 2.538 4.784 1.919 2.919 1.76 7.942-.363 10.665-2.688 3.405-4.987 1.928-6.517 2.052-2.866.168-2.963 1.689-6.359-3.458z" fill="#000"/><path d="M169.1 122.451c8.265 7.622 29.661 41.69-4.224 62.995-11.937 7.438 10.653 35.721 21.488 22.039 19.193-24.61 6.98-63.913-4.591-77.963-7.714-9.917-19.651-13.774-12.672-7.07z" transform="translate(11.315 -.08) scale(.0963)" fill="url(#b)"/><path d="M27.378 11.27c1.31 1.061 3.688 4.775.213 7.198-1.141.752 1.008 3.13 2.22 1.92 4.2-4.228-.107-9.083-1.592-10.754-1.327-1.46-2.503.336-.84 1.636z" fill="#000" stroke="#000" stroke-width=".094"/><path d="M147.245 25.02c-.459 12.581-14.325 23.51-30.946 24.52-16.621 1.01-29.66-8.54-29.202-21.121.46-12.581 14.326-23.509 30.947-24.519 16.62-.918 29.66 8.54 29.201 21.12z" transform="translate(11.315 -.08) scale(.0963)" fill="url(#c)"/><path d="M107.483 54.957c.46 8.173-3.397 15.06-8.723 15.335-5.326.276-10.01-6.06-10.469-14.233-.459-8.173 3.398-15.06 8.724-15.335 5.326-.276 10.01 6.06 10.468 14.233z" transform="translate(11.315 -.08) scale(.0963)" fill="url(#d)"/><path d="M117.125 55.6c.184 9.458 6.337 16.988 13.683 16.805 7.346-.184 13.131-7.99 12.948-17.54-.184-9.458-6.336-16.988-13.683-16.804-7.346.183-13.223 8.08-12.948 17.539z" transform="translate(11.315 -.08) scale(.0963)" fill="url(#e)"/><path d="M23.178 5.478c-.009.504.239.91.566.91.318 0 .592-.406.601-.902.01-.504-.239-.91-.566-.91-.327 0-.592.406-.601.902zm-2.043.008c.044.416-.115.77-.345.805-.23.027-.45-.283-.495-.698-.044-.416.115-.77.345-.805.23-.027.451.283.495.698z" fill="#000"/><path d="M124.564 54.773c-.276 2.939 1.102 5.326 3.03 5.51 1.928.184 3.765-2.112 4.04-4.959.276-2.938-1.102-5.326-3.03-5.51-1.928-.183-3.765 2.113-4.04 4.96z" transform="translate(11.315 -.08) scale(.0963)" fill="url(#f)"/><path d="M99.953 55.508c.276 2.388-.734 4.5-2.203 4.683-1.47.184-2.847-1.653-3.123-4.132-.275-2.388.735-4.5 2.204-4.683 1.47-.184 2.847 1.744 3.122 4.132z" transform="translate(11.315 -.08) scale(.0963)" fill="url(#g)"/><path d="M71.027 145.684c6.52-14.785 20.386-40.772 20.662-60.883 0-15.978 47.843-19.835 51.7-3.856 3.856 15.978 13.59 39.853 19.834 51.424 6.245 11.478 24.335 48.118 5.051 80.074-17.356 28.284-69.973 50.69-98.073-3.856-9.55-18.917-7.806-42.333.826-62.903z" transform="translate(11.315 -.08) scale(.0963)" fill="url(#h)"/><path d="M65.15 134.664c-5.601 10.56-17.172 38.293 11.112 53.445 30.395 16.162 30.303 49.312-6.245 33.517-33.425-14.233-18.641-71.902-9.274-85.676 6.06-9.642 15.243-21.488 4.407-1.286z" transform="translate(11.315 -.08) scale(.0963)" fill="url(#i)"/><path d="M18.049 11.739c-.858 1.397-2.91 4.686-.16 6.402 3.697 2.273 2.654 4.537-.724 2.494-4.758-2.848-.575-8.596 1.326-10.789 2.175-2.458.416.451-.442 1.892h0z" fill="#000" stroke="#000" stroke-width=".12"/><path d="M156.428 151.285c0 16.162-15.519 37.1-42.15 36.916-27.456.183-39.118-20.754-39.118-36.916 0-16.161 18.182-29.293 40.588-29.293 22.498.092 40.68 13.132 40.68 29.293z" transform="translate(11.315 -.08) scale(.0963)" fill="url(#j)"/><path d="M141.92 100.504c-.276 16.713-11.204 20.662-24.978 20.662-13.775 0-23.784-2.48-24.978-20.662 0-11.387 11.203-17.998 24.978-17.998 13.774-.092 24.977 6.52 24.977 17.998z" transform="translate(11.315 -.08) scale(.0963)" fill="url(#k)"/><path d="M58.63 126.216c9-13.682 28.008-34.711 3.582 2.939-19.835 31.038-7.346 50.965-.918 56.474 18.549 16.53 17.814 27.64 3.214 18.917-31.314-18.641-24.794-50.047-5.878-78.33z" transform="translate(11.315 -.08) scale(.0963)" fill="url(#l)"/><path d="M188.936 131.818c-7.806-16.07-32.6-56.842 1.193-9.459 30.763 42.884 9.183 72.729 5.326 75.667-3.856 2.939-16.804 8.908-13.04-1.469 3.858-10.377 22.958-30.028 6.52-64.74z" transform="translate(11.315 -.08) scale(.0963)" fill="url(#m)"/><path d="M51.835 258.542c-20.57-10.928-50.414 2.112-39.578-27.457 2.204-6.704-3.214-16.805.275-23.325 4.133-7.989 13.04-6.244 18.366-11.57 5.234-5.51 8.54-15.06 18.366-13.59 9.734 1.468 16.254 13.406 23.049 28.099 5.05 10.468 22.865 25.253 21.672 37.007-1.47 17.998-21.948 21.396-42.15 10.836z" transform="translate(11.315 -.08) scale(.0963)" fill="url(#n)" stroke="#e68c3f" stroke-width="6.25"/><path d="M201.608 189.119c-3.122 5.877-16.162 15.335-24.886 12.856-8.815-2.388-12.856-15.795-11.111-25.988 1.653-11.386 11.111-12.03 23.05-6.336 12.855 6.336 16.712 11.662 12.947 19.468z" transform="translate(11.315 -.08) scale(.0963)" fill="url(#o)"/><path d="M194.445 253.49c15.06-18.273 48.578-14.508 25.988-39.577-4.775-5.418-3.306-16.989-9.183-21.947-6.887-6.061-14.509-1.102-21.488-4.224-6.979-3.398-14.325-9.918-22.865-5.327-8.54 4.684-9.459 16.805-10.285 32.783-.735 11.479-11.203 30.671-5.602 41.231 8.081 16.346 29.11 14.142 43.435-2.938v0z" transform="translate(11.315 -.08) scale(.0963)" fill="url(#p)" stroke="#e68c3f" stroke-width="6.251"/><path d="M187.925 229.064c23.325-34.435 5.97-34.16.092-36.823-5.877-2.755-12.03-8.173-18.916-4.408-6.888 3.857-7.255 13.775-7.439 26.814-.275 9.367-8.08 25.07-3.397 33.793 5.693 10.193 19.467-4.591 29.66-19.376z" transform="translate(11.315 -.08) scale(.0963)" fill="url(#q)"/><path d="M47.06 234.023c-34.895-22.59-18.55-30.303-13.315-33.885 6.336-4.591 6.428-13.407 14.233-12.58 7.806.826 12.397 10.468 17.631 22.406 3.857 8.54 17.264 19.927 16.254 29.753-1.285 11.57-19.743 3.948-34.803-5.694z" transform="translate(11.315 -.08) scale(.0963)" fill="url(#r)"/><path d="M30.536 18.106c-.266.46-1.345 1.185-2.06.99-.735-.186-1.071-1.22-.92-1.998.132-.885.92-.929 1.91-.487 1.052.478 1.379.884 1.07 1.495z" fill="#000"/><path d="M192.058 186.18c-1.745 3.306-9.091 8.54-14.234 7.163-5.142-1.377-7.713-8.815-6.887-14.417.735-6.336 6.244-6.704 13.223-3.581 7.53 3.49 9.918 6.428 7.898 10.835z" transform="translate(11.315 -.08) scale(.0963)" fill="url(#s)"/><path d="M97.107 66.344c3.673-3.398 12.58-13.774 29.477-2.939 3.122 2.02 5.693 2.204 11.662 4.775 12.03 4.96 6.336 16.897-6.52 20.937-5.51 1.745-10.468 8.449-20.386 7.806-8.54-.46-10.744-6.06-15.978-9.091-9.275-5.234-10.652-12.305-5.602-16.07 5.051-3.765 6.98-5.143 7.347-5.418z" transform="translate(11.315 -.08) scale(.0963)" fill="url(#t)" stroke="#e68c3f" stroke-width="3.75"/><path d="M24.646 7.237c-.486.027-1.539 1.08-2.644 1.08-1.106 0-1.769-1.027-1.937-1.027" stroke="#e68c3f" stroke-width=".241"/><path d="M102.8 65.426c1.837-1.653 7.622-6.153 15.244-1.562 1.653.919 3.306 1.929 5.693 3.306 4.867 2.847 2.48 6.98-3.398 9.55-2.663 1.102-7.07 3.49-10.376 3.306-3.673-.367-6.153-2.755-8.54-4.316-4.5-2.938-4.224-5.418-2.112-7.346 1.56-1.47 3.305-2.847 3.49-2.938z" transform="translate(11.315 -.08) scale(.0963)" fill="url(#u)"/></g></svg>