<svg width="512" height="76" xmlns="http://www.w3.org/2000/svg" preserveAspectRatio="xMidYMid"><path fill="#E2231A" d="M468.251 0h8.271v8.271h-8.271z"/><path d="M484.862 0h26.796v8.271h-26.796V0zm18.457 16.61H468.25v47.716h32.538l10.8 10.8V16.611h-8.27zm0 39.443h-26.797v-31.17h26.797v31.17zM72.8 64.461V16.543h31.581v8.34H82.166v11.21h18.935v8.34H82.166v11.62h22.216v8.34h-31.58v.068zm205.825 0l-2.802-8.476h-17.021l-2.871 8.476h-9.776l17.432-47.918h7.314l17.5 47.918h-9.776zm-11.142-33.837L261.4 48.056h11.895l-5.81-17.432zM34.042 64.461V36.503l-9.16 18.183h-6.357l-9.16-18.183v27.89H0v-47.85h9.228l12.51 25.907 12.44-25.907h9.23V64.46h-9.366zm112.79.342c-7.245 0-12.782-1.572-17.499-6.357l6.084-6.084c3.008 3.008 7.109 4.033 11.552 4.033 5.537 0 8.477-2.119 8.477-5.947 0-1.709-.479-3.076-1.504-4.033-.957-.889-2.05-1.367-4.238-1.709l-5.81-.82c-4.102-.616-7.11-1.914-9.297-3.965-2.256-2.256-3.418-5.4-3.418-9.433 0-8.545 6.357-14.56 16.679-14.56 6.562 0 11.347 1.64 15.449 5.605l-5.947 5.878c-3.008-2.87-6.631-3.28-9.844-3.28-4.99 0-7.382 2.734-7.382 6.083 0 1.23.41 2.461 1.435 3.418.957.889 2.46 1.64 4.443 1.914l5.674.82c4.375.616 7.11 1.846 9.16 3.692 2.53 2.392 3.691 5.947 3.691 10.185.069 9.365-7.656 14.56-17.704 14.56zm59.13 0c-7.246 0-12.783-1.572-17.5-6.357l6.084-6.084c3.008 3.008 7.11 4.033 11.553 4.033 5.537 0 8.476-2.119 8.476-5.947 0-1.709-.478-3.076-1.504-4.033-.957-.889-2.05-1.367-4.238-1.709l-5.81-.82c-4.102-.616-7.11-1.914-9.297-3.965-2.256-2.256-3.418-5.4-3.418-9.433 0-8.545 6.357-14.56 16.68-14.56 6.562 0 11.347 1.64 15.448 5.605l-5.947 5.878c-3.008-2.87-6.63-3.28-9.843-3.28-4.99 0-7.383 2.734-7.383 6.083 0 1.23.41 2.461 1.436 3.418.957.889 2.46 1.64 4.443 1.914l5.673.82c4.375.616 7.11 1.846 9.16 3.692 2.53 2.392 3.692 5.947 3.692 10.185.068 9.365-7.656 14.56-17.705 14.56zm227.221-.342v-8.408h8.408v8.408h-8.408zm-58.787-8.34h31.581v8.272h-31.581v-8.271zm0-39.578h31.581v8.27h-31.581v-8.27zm0 19.618h17.773v8.272h-17.773V36.16zm-37.597-5.537c-1.23-3.964-3.896-6.152-8.408-6.152-2.53 0-4.648 1.025-6.016 2.53-1.845 2.05-2.255 4.238-2.255 13.466 0 9.228.478 11.484 2.255 13.535 1.368 1.572 3.418 2.46 6.016 2.46 2.803 0 5.127-1.025 6.63-2.665 1.573-1.778 2.188-3.897 2.188-6.358v-2.87h9.297v.273c0 6.904-1.23 11.074-4.58 14.628-3.828 3.965-8.408 5.469-13.535 5.469-5.264 0-9.57-1.914-12.92-5.264-4.853-4.853-4.716-10.8-4.716-19.14s-.137-14.287 4.716-19.14c3.35-3.35 7.52-5.264 12.92-5.264 10.732 0 16.337 6.768 17.91 14.492h-9.502zm-8.066 13.877v-8.34h8.408v8.408h-8.408v-.068z" fill="#5E0D8B"/></svg>