<svg xmlns="http://www.w3.org/2000/svg" width="30.157" height="30" preserveAspectRatio="xMidYMid"><defs><linearGradient x1="24.715" y1="22.897" x2="151.136" y2="148.336" id="a" gradientTransform="matrix(.11795 0 0 .11822 -.018 -.009)" gradientUnits="userSpaceOnUse"><stop stop-color="#387EB8" offset="0%"/><stop stop-color="#366994" offset="100%"/></linearGradient><linearGradient x1="102.483" y1="103.266" x2="238.259" y2="231.905" id="b" gradientTransform="matrix(.11795 0 0 .11822 -.018 -.009)" gradientUnits="userSpaceOnUse"><stop stop-color="#FFE052" offset="0%"/><stop stop-color="#FFC331" offset="100%"/></linearGradient></defs><path d="M14.97 0C7.313 0 7.791 3.32 7.791 3.32L7.8 6.76h7.305v1.032H4.9S0 7.237 0 14.962c0 7.724 4.276 7.45 4.276 7.45h2.552v-3.585s-.138-4.275 4.207-4.275h7.246s4.071.065 4.071-3.935V4.003S22.971 0 14.97 0zm-4.03 2.313a1.313 1.313 0 011.314 1.314 1.313 1.313 0 01-1.314 1.315 1.313 1.313 0 01-1.314-1.315 1.313 1.313 0 011.314-1.314z" fill="url(#a)"/><path d="M15.187 30c7.655 0 7.177-3.32 7.177-3.32l-.008-3.44h-7.305v-1.032h10.207s4.899.556 4.899-7.17c0-7.724-4.276-7.45-4.276-7.45H23.33v3.585s.138 4.275-4.207 4.275h-7.246s-4.071-.065-4.071 3.935v6.614S7.186 30 15.187 30zm4.028-2.313a1.313 1.313 0 01-1.314-1.314 1.313 1.313 0 011.314-1.314 1.313 1.313 0 011.314 1.314 1.313 1.313 0 01-1.314 1.314z" fill="url(#b)"/></svg>