<svg xmlns="http://www.w3.org/2000/svg" width="24.501" height="29.999" preserveAspectRatio="xMidYMid"><path d="M7.368 0c-.151.005-.315.061-.5.207-.454-.175-.894-.235-1.288.12-.607-.078-.805.085-.954.275-.134-.003-.999-.138-1.395.454-.997-.118-1.312.586-.955 1.243-.204.315-.415.627.061 1.228-.168.334-.064.697.333 1.136-.105.47.101.803.47 1.061-.069.644.59 1.018.787 1.152.076.375.234.729.987.924.124.56.576.656 1.015.773-1.449.842-2.691 1.95-2.683 4.669l-.212.378c-1.661 1.01-3.156 4.257-.818 6.896.152.826.408 1.42.636 2.076.341 2.646 2.566 3.885 3.153 4.032.86.655 1.776 1.277 3.015 1.712 1.169 1.205 2.434 1.664 3.707 1.663.019 0 2.595-.458 3.763-1.663 1.24-.435 2.156-1.057 3.016-1.712.586-.147 2.811-1.386 3.152-4.032.228-.656.484-1.25.637-2.076 2.337-2.639.842-5.886-.819-6.896l-.212-.379c.008-2.718-1.234-3.826-2.683-4.668.438-.117.891-.214 1.015-.773.753-.196.911-.55.987-.925.197-.133.856-.507.787-1.151.369-.259.575-.59.47-1.06.397-.44.501-.803.333-1.138.476-.6.265-.912.061-1.227.357-.657.042-1.36-.955-1.243C21.883.464 21.018.6 20.884.601c-.15-.19-.347-.352-.955-.273-.393-.357-.833-.296-1.287-.12-.54-.426-.896-.085-1.303.044-.653-.213-.802.079-1.123.198-.712-.15-.928.177-1.269.522L14.55.964c-1.073.633-1.607 1.921-1.796 2.583-.189-.662-.72-1.95-1.794-2.583l-.397.008C10.22.627 10.005.3 9.293.45 8.973.33 8.824.039 8.171.252 7.903.167 7.658-.008 7.368 0L0 12.94"/><path d="M5.231 2.784C8.08 4.252 9.735 5.44 10.642 6.45c-.464 1.862-2.888 1.947-3.774 1.895.182-.085.333-.186.387-.341-.223-.158-1.011-.017-1.561-.326.211-.044.31-.087.409-.243-.52-.165-1.08-.308-1.41-.583.178.002.344.04.576-.121-.466-.251-.963-.45-1.349-.834.241-.006.5-.002.576-.09a5.193 5.193 0 01-1.083-.88c.337.04.479.006.56-.053-.322-.33-.73-.609-.924-1.015.25.086.479.119.644-.008-.11-.247-.579-.393-.849-.97.264.025.543.057.599 0-.122-.498-.332-.778-.538-1.069.564-.008 1.418.002 1.38-.045l-.35-.356c.551-.148 1.115.024 1.524.151.184-.145-.003-.328-.227-.515.468.063.89.17 1.273.318.204-.184-.133-.368-.296-.553.723.137 1.03.33 1.334.523.22-.212.012-.392-.137-.576.546.202.826.463 1.122.72.1-.135.255-.234.068-.56.387.222.679.485.894.78.24-.153.143-.361.144-.553.403.327.658.675.97 1.015.063-.046.118-.201.167-.447.96.93 2.316 3.276.349 4.206-1.674-1.38-3.674-2.384-5.89-3.136h.001m15.112 0c-2.848 1.468-4.504 2.655-5.41 3.667.464 1.862 2.887 1.947 3.773 1.894-.181-.084-.333-.185-.386-.34.222-.159 1.01-.017 1.56-.326-.21-.044-.31-.087-.408-.243.52-.166 1.08-.309 1.41-.583-.179.002-.345.04-.577-.122.466-.25.963-.45 1.35-.833-.242-.006-.501-.002-.577-.091a5.193 5.193 0 001.084-.88c-.337.041-.48.007-.56-.052.321-.33.73-.609.924-1.016-.25.087-.48.12-.645-.008.11-.247.58-.392.85-.97-.264.026-.544.058-.6 0 .123-.498.333-.778.539-1.068-.564-.008-1.418.002-1.38-.046l.349-.356c-.55-.148-1.114.024-1.523.152-.184-.145.003-.328.227-.515a5.53 5.53 0 00-1.273.318c-.204-.185.133-.369.296-.553-.723.137-1.03.33-1.334.522-.221-.211-.013-.391.136-.575-.545.201-.826.462-1.121.72-.1-.136-.255-.235-.069-.561a2.844 2.844 0 00-.894.78c-.24-.152-.142-.36-.144-.553-.402.327-.657.675-.97 1.015-.063-.045-.118-.2-.166-.447-.96.931-2.316 3.276-.349 4.206 1.673-1.38 3.672-2.384 5.888-3.137" fill="#75a928"/><path d="M16.236 21.742c.01 1.737-1.51 3.153-3.393 3.162-1.884.01-3.42-1.392-3.43-3.129a1.993 1.993 0 010-.033c-.01-1.737 1.51-3.153 3.394-3.162 1.884-.01 3.419 1.391 3.429 3.129v.033m-5.385-8.986c1.413.926 1.668 3.025.569 4.688-1.1 1.664-3.136 2.261-4.55 1.335-1.413-.926-1.668-3.025-.57-4.688 1.1-1.664 3.137-2.262 4.55-1.335m3.816-.168c-1.414.926-1.668 3.025-.57 4.689 1.1 1.663 3.137 2.26 4.55 1.335 1.414-.927 1.669-3.026.57-4.69-1.1-1.662-3.137-2.26-4.55-1.334M3.786 14.27c1.526-.41.515 6.313-.727 5.762-1.365-1.099-1.805-4.316.727-5.762m17.637-.084c-1.527-.41-.516 6.314.726 5.762 1.366-1.098 1.806-4.316-.726-5.762m-5.186-5.007c2.634-.444 4.825 1.12 4.737 3.976-.087 1.095-5.707-3.812-4.737-3.976M8.96 9.096c-2.634-.445-4.825 1.12-4.736 3.976.086 1.095 5.707-3.813 4.736-3.976m3.784-.666c-1.572-.041-3.08 1.166-3.085 1.867-.004.85 1.243 1.722 3.095 1.744 1.892.014 3.098-.697 3.105-1.576.007-.995-1.72-2.05-3.115-2.035m.096 17.451c1.37-.06 3.21.442 3.213 1.107.023.645-1.668 2.104-3.304 2.076-1.695.073-3.356-1.388-3.335-1.894-.025-.743 2.064-1.323 3.426-1.289m-5.062-3.94c.975 1.175 1.42 3.24.606 3.85-.77.464-2.641.272-3.971-1.638-.897-1.603-.781-3.234-.152-3.713.942-.574 2.397.201 3.517 1.5m9.928-.372c-1.055 1.236-1.643 3.492-.873 4.218.736.565 2.713.486 4.173-1.54 1.06-1.361.705-3.634.1-4.237-.9-.696-2.192.195-3.4 1.559" fill="#bc1142"/></svg>