<svg width="256" height="271" xmlns="http://www.w3.org/2000/svg" preserveAspectRatio="xMidYMid"><path d="M116.553 0L0 67.953v30.143l49.665 29.786 41.701-22.719V78.74l88.299-50.706 62.046 35.736-.074 71.452-85.07 49.009-28.485-10.537-37.917 24.188.963 57.903 26.105 15.073 117.51-66.961V163.65l-13.212 7.111v25.586l-104.264 59.114-12.915-7.456-.708-42.525 24.47-16.352 29.493 10.53L256 142.912l-.935-87.256-75.387-43.023L78.016 71.009v26.41L49.824 112.41 13.35 90.536V75.622l102.893-59.986 21.598 13.763 13.049-7.513L116.553 0zm69.517 71.092l-21.882 13.276.556 25.588 22.438 12.312 21.882-13.276-.556-25.587-22.438-12.313zm.25 11.559l12.303 6.75.305 14.03-11.997 7.278-12.302-6.75-.305-14.03 11.997-7.278zM73.702 141.024l-2.963-5.614a2.527 2.527 0 00-3.414-1.055l-19.393 10.23A2.527 2.527 0 0046.876 148l2.964 5.618a2.526 2.526 0 003.414 1.055l19.391-10.234a2.528 2.528 0 001.056-3.415m11.216 17.046l-2.962-5.616a2.527 2.527 0 00-3.511-1.003L45.74 170.572a2.528 2.528 0 00-.96 3.361l2.962 5.616a2.528 2.528 0 003.51 1.003l32.706-19.12a2.528 2.528 0 00.959-3.362m3.053 11.536l-38.447 22.1a2.525 2.525 0 00-.976 3.37l2.964 5.615a2.527 2.527 0 003.493 1.012l38.449-22.1a2.527 2.527 0 00.975-3.371l-2.963-5.615a2.528 2.528 0 00-3.495-1.011"/></svg>