<svg xmlns="http://www.w3.org/2000/svg" version="1.1" id="Layer_1" x="0" y="0" xml:space="preserve" enable-background="new 0 0 246.96 242.808" width="79.027" height="77.699"><style id="style2">.st3{fill:#999}</style><linearGradient id="SVGID_1_" gradientUnits="userSpaceOnUse" x1="199.533" y1="201.907" x2="39.679" y2="42.053" gradientTransform="scale(.32)"><stop offset="0" stop-color="#130036" id="stop4"/><stop offset=".23" stop-color="#18023b" id="stop6"/><stop offset=".512" stop-color="#26094a" id="stop8"/><stop offset=".821" stop-color="#3d1563" id="stop10"/><stop offset="1" stop-color="#4e1d75" id="stop12"/></linearGradient><path d="M60.444 11.358c-4.64-3.032-10.575-4.013-13.85-4.355-3.505-.367-6.55-.302-9.228.09-.226-.002-.452-.011-.68-.011-.174 0-.346.007-.52.01.071-.089.121-.143.121-.143s-.14.022-.417.147c-.87.014-1.735.044-2.587.103 1.187-1.302 2.16-1.984 2.16-1.984s-1.155.168-3.262 2.078a47.07 47.07 0 00-2.962.367c2.214-2.996 4.53-4.258 4.53-4.258s-2.808-.571-7.203 3.845a19.367 19.367 0 00-1.038 1.144C12.698 11.49 3.53 19.763 3.53 29.485c0 1.906-.586 4.003.045 6.097-.252 3.345.285 12.472.285 12.472s3.468 18.768 16.803 22.03c.212.051-2.786-4.678-4.112-10.38 2.582 2.626 5.66 4.703 9.113 5.063.424.044-1.973-2.765-4.072-6.155l30.303 10.21c15.85-6.808 14.005-6.194 17.407-9.88 7.497-8.115 8.547-12.72 6.658-26.315-1.277-9.178-8.05-18.267-15.516-21.27z" id="path15" fill="url(#SVGID_1_)" stroke-width=".32"/><path d="M7.26 19.928l-4.525 25.73 2.509 7.774 50.088 16.653 9.288-39.496z" id="path17" fill="#fbfbfb" stroke-width=".32"/><path class="st3" d="M7.401 20.803c.251.54.177.669.02.669a.881.881 0 01-.238-.052c-.082-.026-.158-.051-.208-.051-.138 0-.06.204.725 1.19 1.11 1.41 17.407 26.014 18.298 26.014a.04.04 0 00.013-.002c7.587-2.703 39.853-13.779 39.853-13.779l-3.3-4.809L7.4 20.803" id="path19" fill="#999" stroke-width=".32"/><path d="M7.874 20.199s.243 1.258 1.37 2.65c1.12 1.406 16.163 24.183 16.918 23.983 9.855-2.617 45.608-16.536 45.608-16.536z" id="path21" fill="#f8f8f8" stroke-width=".32"/><path class="st3" d="M53.543 69.492L5.942 53.665l.168 1.112 47.962 15.947z" id="path23" fill="#999" stroke-width=".32"/><linearGradient id="SVGID_2_" gradientUnits="userSpaceOnUse" x1="10.243" y1="95.311" x2="57.704" y2="95.311" gradientTransform="scale(.32)"><stop offset="0" stop-color="#3156a8" id="stop25"/><stop offset=".247" stop-color="#3351a4" id="stop27"/><stop offset=".536" stop-color="#3b4397" id="stop29"/><stop offset=".845" stop-color="#472c82" id="stop31"/><stop offset="1" stop-color="#4e1d75" id="stop33"/></linearGradient><path d="M18.465 19.134S1.146 24.206 9.093 41.865c0 0-3.644-3.336-5.813-7.602-.098-.191 3.616-13.385 3.616-13.385z" id="path36" fill="url(#SVGID_2_)" stroke-width=".32"/><radialGradient id="SVGID_3_" cx="59.073" cy="113.923" r="85.247" gradientTransform="matrix(.32 0 0 .464 0 -16.405)" gradientUnits="userSpaceOnUse"><stop offset=".165" stop-color="#14cdda" id="stop38"/><stop offset=".548" stop-color="#2061bd" id="stop40"/><stop offset=".655" stop-color="#2658ac" id="stop42"/><stop offset=".864" stop-color="#373f81" id="stop44"/><stop offset="1" stop-color="#432d62" id="stop46"/></radialGradient><path d="M9.093 41.865c-1.506-.026-3.926-1.268-4.71-2.773-.982 16.352 5.69 25.9 16.28 30.993C17.204 69.688 0 60.61 0 38.765 0 20.19 14.74 3.587 37.805 2.826 37.947 3.867 26.37 6.478 26 7.706c-.575 1.911-1.896 3.992-3.01 5.66-1.51 2.259 2.098 4.19-.554 4.8-3.99.915-9.31.408-13.235 5.51-5.899 7.668-1.963 16.44-.108 18.189z" id="path49" fill="url(#SVGID_3_)" stroke-width=".32"/><linearGradient id="SVGID_4_" gradientUnits="userSpaceOnUse" x1="44.539" y1="57.898" x2="191.515" y2="57.898" gradientTransform="scale(.32)"><stop offset="0" stop-color="#2061bd" id="stop51"/><stop offset=".185" stop-color="#2b51ac" id="stop53"/><stop offset=".683" stop-color="#442c84" id="stop55"/><stop offset=".941" stop-color="#4e1d75" id="stop57"/></linearGradient><path d="M43.855 3.424C28.917 2.278 21.23 8.254 16.294 15.205c-1.798 2.53-1.6 4.853-.982 7.66.266 1.198.535 1.772.21 2.994-.178.674-.148 1.303-.37 1.7-.307.55-.697 1.15-.828 2.137-.327 2.463.545 3.248 1.09 4.077.776-.771 2.293-2.585 5.027-3.67 2.734-1.083 4.533-2.712 7.96-4.46 4.683-2.389 10.17 1.235 20.576-2.175 3.202-1.05 10.56-11.95 12.308-12.369-4.865-5.38-13.142-7.347-17.43-7.675z" id="path60" fill="url(#SVGID_4_)" stroke-width=".32"/><path d="M33.986.01S31.32 1.3 30.157 3.627c2.682-1.352 4.24-2.09 4.975-2.179 0 0-.705.342-1.579 2.198 1.546-.495 2.078-.807 2.502-.811 0 0-.123.195-.236 2.048-2.373-.769-6.942.127-9.372 1.65-.824-4.396 7.54-6.523 7.54-6.523z" id="path62" fill="#3f6499" stroke-width=".32"/><linearGradient id="SVGID_5_" gradientUnits="userSpaceOnUse" x1="66.174" y1="23.206" x2="167.264" y2="111.082" gradientTransform="scale(.32)"><stop offset=".02" stop-color="#48a8e0" id="stop64"/><stop offset=".388" stop-color="#2061bd" id="stop66"/><stop offset=".497" stop-color="#2b51ac" id="stop68"/><stop offset=".789" stop-color="#442c84" id="stop70"/><stop offset=".941" stop-color="#4e1d75" id="stop72"/></linearGradient><path d="M44.601 2.762c-4.579-.594-8.406-.477-11.66.15 1.023-.98 2.207-1.464 2.207-1.464-1.534.136-3.45 1.137-5.093 2.198a22.956 22.956 0 00-2.365.896c.458-.604.99-1.248 1.51-1.743C31.133.961 34.002.01 34.002.01c-2.449-.18-10.646 1.92-15.578 11.908a53.975 53.975 0 00-2.281 3.008c-1.855 2.612-1.652 5.01-1.012 7.909.273 1.237.323 3.212.054 4.489-.054.256-.756.916-.936 2.697-.193 1.89.481 2.817 1.146 3.585 2.361-3.454 4.691-4.138 4.691-4.138 3.306-1.354 4.682-2.8 8.22-4.606 4.835-2.467 21.741 5.584 32.484 2.064 3.307-1.083-1.272-15.155.533-15.587C56.299 5.783 49.004 3.332 44.6 2.762z" id="path75" fill="url(#SVGID_5_)" stroke-width=".32"/><linearGradient id="SVGID_6_" gradientUnits="userSpaceOnUse" x1="19.676" y1="337.414" x2="217.835" y2="43.631" gradientTransform="scale(.32)"><stop offset=".379" stop-color="#3156a8" id="stop77"/><stop offset="1" stop-color="#4e1d75" id="stop79"/></linearGradient><path d="M78.136 33.052C75.488 19.216 62.746 6.63 52.5 5.932c-4.548-.31-3.151 2.022-5.997 2.91-12.262 3.827-12.45 6.06-12.45 6.06 26 1.224 26.394 26.902 19.431 33.398 1.96-.457 4.084-2.853 6.035-6.613-.234 1.578-.435 3.513-.728 5.673-.892 6.59.264 20.357-18.674 29.57 0 0 10.36-.847 15.496-6.63-2.089 4.804-7.82 7.399-7.82 7.399 4.218-.617 15.299-3.887 22.357-12.714 7.99-9.992 10.392-19.366 7.986-31.933z" id="path82" fill="url(#SVGID_6_)" stroke-width=".32"/><linearGradient id="SVGID_7_" gradientUnits="userSpaceOnUse" x1="96.745" y1="278.646" x2="206.317" y2="32.542" gradientTransform="scale(.32)"><stop offset="0" stop-color="#29abe2" id="stop84"/><stop offset=".773" stop-color="#385aa6" id="stop86"/><stop offset=".858" stop-color="#414293" id="stop88"/><stop offset="1" stop-color="#4e1d75" id="stop90"/></linearGradient><path d="M52.798 58.31s8.446-2.36 11.169-6.922c-.33 5.318-5.155 10.772-5.155 10.772s7.053-1.427 10.06-6.39c-.392 4.478-5.821 10.53-5.821 10.53 5.55-.996 19.497-9.806 15.086-33.248C75.53 19.208 62.746 6.63 52.499 5.932c-4.547-.31-3.15 2.022-5.996 2.91-12.263 3.827-12.45 6.06-12.45 6.06 26 1.223 32.91 14.83 19.431 33.035 1.96-.458 2.745-1.534 4.217-3.297 0 0 .667 6.97-4.903 13.67z" id="path93" fill="url(#SVGID_7_)" stroke-width=".32"/><linearGradient id="SVGID_8_" gradientUnits="userSpaceOnUse" x1="48.269" y1="92.034" x2="54.241" y2="95.468" gradientTransform="scale(.32)"><stop offset="0" stop-color="#b0dcd6" id="stop95"/><stop offset="1" stop-color="#53ace0" id="stop97"/></linearGradient><path d="M19.395 27.382s-1.51 1.056-2.604.787c-1.294-.318-1.513-1.572-1.513-1.572a7.474 7.474 0 01-.11.727c-.053.256-.756.916-.936 2.697-.192 1.89.517 2.984 1.182 3.752 2.362-3.454 4.656-4.305 4.656-4.305-.898-.314-.675-2.086-.675-2.086z" id="path100" fill="url(#SVGID_8_)" stroke-width=".32"/><defs id="defs105"><filter id="Adobe_OpacityMaskFilter" filterUnits="userSpaceOnUse" x="162.68" y="18.355" width="14.927" height="6.629"><feColorMatrix values="1 0 0 0 0 0 1 0 0 0 0 0 1 0 0 0 0 0 1 0" id="feColorMatrix102"/></filter></defs><mask maskUnits="userSpaceOnUse" x="162.68" y="18.355" width="14.927" height="6.629" id="SVGID_9_"><g id="g114" filter="url(#Adobe_OpacityMaskFilter)"><radialGradient id="SVGID_10_" cx="154.384" cy="67.999" r="51.968" gradientUnits="userSpaceOnUse"><stop offset=".868" stop-color="#fff" id="stop107"/><stop offset="1" id="stop109"/></radialGradient><path d="M91.295-7.218H191.31v93.339H91.295z" id="path112" fill="url(#SVGID_10_)"/></g></mask><g id="g130" transform="scale(.32)" opacity=".6"><g mask="url(#SVGID_9_)" id="g128" opacity=".2"><linearGradient id="SVGID_11_" gradientUnits="userSpaceOnUse" x1="176.214" y1="23.085" x2="164.24" y2="20.555"><stop offset="0" stop-color="#3092b9" id="stop117"/><stop offset=".22" stop-color="#258db6" id="stop119"/><stop offset=".656" stop-color="#1685b1" id="stop121"/><stop offset="1" stop-color="#1082af" id="stop123"/></linearGradient><path d="M163.513 18.434c1.106-.287 5.621.204 8.584 1.533 2.964 1.329 8.073 3.679 3.986 4.701-4.088 1.022-6.438-.613-8.482-2.351-2.044-1.738-6.847-3.168-4.088-3.883z" id="path126" fill="url(#SVGID_11_)"/></g></g><linearGradient id="SVGID_12_" gradientUnits="userSpaceOnUse" x1="80.784" y1="38.025" x2="90.637" y2="77.544" gradientTransform="scale(.32)"><stop offset=".007" stop-color="#1398d1" stop-opacity="0" id="stop132"/><stop offset=".248" stop-color="#1187c2" stop-opacity=".62" id="stop134"/><stop offset=".642" stop-color="#3f6499" stop-opacity=".71" id="stop136"/><stop offset="1" stop-color="#2f4282" stop-opacity=".5" id="stop138"/></linearGradient><path d="M19.536 27.175S27.82 13.523 35.31 9.839c.695-.35-10.37 2.94-14.823 7.856-2.646 2.921-1.245 8.64-.95 9.48z" id="path141" fill="url(#SVGID_12_)" stroke-width=".32"/><path d="M19.536 27.175l.024-.015c2.142-1.323 5.813-2.085 6.997-4.484 4.556-9.238 8.753-12.837 8.753-12.837-7.49 3.684-15.774 17.336-15.774 17.336z" id="path143" opacity=".1" fill="#f2f2f2" stroke-width=".32"/><path d="M20.324 24.678s-1.493-2.291.657-4.38c1.135-1.1 2.854-.49 3.053-.291.846.839.314 2.61-.448 3.612-.43.564-1.683 1.443-3.262 1.059z" id="path145" fill="#2f4282" stroke-width=".32"/><linearGradient id="SVGID_13_" gradientUnits="userSpaceOnUse" x1="48.738" y1="14.373" x2="43.199" y2="11.303" gradientTransform="rotate(1.985 -519.711 234.407) scale(.32)"><stop offset="0" stop-color="#f9c21b" id="stop147"/><stop offset=".148" stop-color="#f3ba1b" id="stop149"/><stop offset=".379" stop-color="#e3a41b" id="stop151"/><stop offset=".663" stop-color="#c9801c" id="stop153"/><stop offset=".988" stop-color="#a44e1c" id="stop155"/><stop offset="1" stop-color="#a34c1c" id="stop157"/></linearGradient><path d="M21.18 24.536s-1.032-1.584.455-3.027c.783-.76 1.971-.338 2.11-.202.584.58.216 1.804-.31 2.496-.298.392-1.164.998-2.255.733z" id="path160" fill="url(#SVGID_13_)" stroke-width=".32"/><path d="M23.24 22.846a1.153 1.153 0 01-1.197 1.105 1.15 1.15 0 01-1.116-1.185 1.153 1.153 0 011.197-1.105 1.15 1.15 0 011.115 1.185z" id="path162" stroke-width=".32"/><circle cx="21.352" cy="22.492" r=".364" id="circle164" fill="#fff" stroke-width=".32"/><linearGradient id="SVGID_14_" gradientUnits="userSpaceOnUse" x1="206.211" y1="130.139" x2="169.43" y2="47.526" gradientTransform="scale(.32)"><stop offset="0" stop-color="#409ec3" id="stop166"/><stop offset=".62" stop-color="#2061bd" id="stop168"/></linearGradient><path d="M73.122 20.803C67.45 12.171 62.958 9.977 62.958 9.977s.206 6.288 3.355 9.321c.36.347-3.768-2.698-3.768-2.698s-.882 2.904 1.14 6.243c-.587-.78-.976-1.076-.976-1.076s-3.81 1.757-4.936 4.195c-.58-1.096-1.016-1.742-1.016-1.742s-2.635 5.26-2.304 11.358c.539 9.916-1.857 13.57-1.857 13.57s6.418-2.463 9.496-10.39c1.272 3.37-.039 6.918-.039 6.918s5.186-3.875 6.302-10.938c1.236 1.994.872 5.973.872 5.973s3.31-4.609 3.39-9.628c1.535 1.07 1.676 5.248 1.676 5.248s4.908-6.274-1.171-15.528z" id="path171" fill="url(#SVGID_14_)" stroke-width=".32"/><linearGradient id="SVGID_15_" gradientUnits="userSpaceOnUse" x1="176.76" y1="103.061" x2="150.407" y2="21.954" gradientTransform="scale(.32)"><stop offset="0" stop-color="#14b2da" id="stop173"/><stop offset=".403" stop-color="#297ccc" id="stop175"/><stop offset=".508" stop-color="#256fc5" id="stop177"/><stop offset=".649" stop-color="#2164bf" id="stop179"/><stop offset=".816" stop-color="#2061bd" id="stop181"/><stop offset=".984" stop-color="#2061bd" id="stop183"/></linearGradient><path d="M67.61 14.77c-1.482-2.761-4.097-4.521-6.395-5.946-5.731-3.553-9.417-4.052-9.417-4.052s-5.289.983-4.38 2.455c.046.075.155.17.31.28-4.64-2.137-7.272 2.777-7.272 2.777-2.65-.161-5.878 1.144-6.82 4.64-.097.362 1.188.158 1.85.302 3.864.84 7.503 2.662 9.175 3.563 3.89 2.095 6.197 5.584 7.53 8.201 1.61 3.166 2.27 8.737 2.27 8.737s4.24-5.825 3.227-8.816c1.68 1.043 2.01 4.765 2.01 4.765s2.828-4.428 1.992-8.285c2.181 1.329 2.254 4.032 2.254 4.032s2.22-3.082 1.217-8.137c2.194 1.745 2.653 4.006 2.653 4.006s1.794-4.798-.204-8.521z" id="path186" fill="url(#SVGID_15_)" stroke-width=".32"/></svg>