<svg xmlns="http://www.w3.org/2000/svg" width="30" height="30" preserveAspectRatio="xMidYMid"><path d="M0 15v15h30V0H0z" fill="#007acc"/><path d="M6.634 15.1l-.009 1.228h3.905v11.095h2.762V16.328h3.905v-1.205c0-.666-.015-1.224-.034-1.238-.014-.019-2.39-.028-5.271-.024l-5.243.015-.014 1.223zm17.573-1.26a3.74 3.74 0 011.876 1.082c.276.295.686.833.72.962.008.038-1.296.914-2.086 1.404-.029.02-.143-.104-.272-.295-.386-.562-.79-.805-1.41-.847-.909-.062-1.495.414-1.49 1.209 0 .233.033.371.129.562.2.414.571.662 1.738 1.167 2.147.924 3.066 1.533 3.638 2.4.638.966.78 2.51.347 3.657-.476 1.247-1.657 2.095-3.319 2.376-.514.09-1.733.076-2.285-.024-1.205-.214-2.348-.81-3.053-1.59-.276-.305-.814-1.1-.78-1.157a2.25 2.25 0 01.276-.177c.133-.076.638-.366 1.114-.642l.862-.5.18.266c.253.386.805.914 1.139 1.09.957.505 2.271.434 2.919-.147.276-.252.39-.514.39-.9 0-.348-.043-.5-.223-.762-.234-.333-.71-.614-2.062-1.2-1.548-.667-2.215-1.08-2.824-1.738a3.955 3.955 0 01-.824-1.5c-.114-.424-.143-1.486-.052-1.914.319-1.496 1.447-2.538 3.076-2.848.528-.1 1.757-.062 2.276.067z" fill="#fff"/></svg>