<svg xmlns="http://www.w3.org/2000/svg" width="33.848" height="30" preserveAspectRatio="xMidYMid"><defs><radialGradient cx="3.08" cy="27.425" fx="3.08" fy="27.425" r="253.939" gradientTransform="scale(.14044 .12448)" id="a" gradientUnits="userSpaceOnUse"><stop stop-color="#FFF" stop-opacity=".1" offset="0%"/><stop stop-color="#FFF" stop-opacity="0" offset="100%"/></radialGradient></defs><path d="M28.36 8.264l-.819 1.732h2.34l.12-.199.859-1.533h-2.526zm-22.913 0H2.975l.992 1.732H6.28z" fill="#9e9e9e"/><path d="M33.848 3.08l-3.08 5.382h-2.156l-3.45 6.545L16.923 30l-8.25-14.993-3.438-6.545H3.08L0 3.081h8.845l1.442 2.856 4.693 8.554 1.918 3.517 1.85-3.517 4.615-8.554 1.626-2.87" fill="#424242"/><path d="M8.951 3.266H.106L0 3.08h8.845zm16.052-.185l-.106.198h8.845l.106-.198z" fill="#fff" fill-opacity=".2"/><path d="M30.014 9.81l-.106.199h-2.09l-2.644 5.011L16.924 30l-8.25-14.993-2.632-5.011H3.953l-.105-.199h2.194l.106.199 2.526 4.812 8.25 15.007 8.25-14.993 2.54-4.813.105-.198" fill="#263238" fill-opacity=".2"/><path d="M20.19 16.924a3.264 3.264 0 01-3.266 3.266 3.273 3.273 0 01-3.266-3.266 3.273 3.273 0 013.266-3.266 3.256 3.256 0 013.266 3.266zm-.384-9.996a2.89 2.89 0 01-2.882 2.883 2.89 2.89 0 01-2.882-2.883c0-1.586 1.295-2.895 2.882-2.895a2.892 2.892 0 012.882 2.895z" fill="#fff"/><path d="M25.174 15.007a8.49 8.49 0 00-2.922-4.667 6.503 6.503 0 001.217-3.808A6.542 6.542 0 0016.924 0c-3.411 0-6.214 2.605-6.505 5.937-.013.198-.027.396-.027.608 0 1.415.45 2.737 1.217 3.808a8.372 8.372 0 00-2.922 4.667 8.16 8.16 0 00-.225 1.904 8.466 8.466 0 008.462 8.462 8.466 8.466 0 008.462-8.462c0-.661-.08-1.296-.211-1.917zM16.924 4.23a2.7 2.7 0 012.697 2.697 2.692 2.692 0 01-2.697 2.698 2.7 2.7 0 01-2.697-2.698 2.7 2.7 0 012.697-2.697zm0 15.774a3.084 3.084 0 01-3.08-3.081 3.07 3.07 0 011.19-2.433 3.03 3.03 0 011.89-.648 3.03 3.03 0 011.89.648 3.07 3.07 0 011.19 2.433 3.075 3.075 0 01-3.08 3.08z" fill="#4285f4"/><path d="M23.469 6.545v.092c-.066-3.57-2.962-6.439-6.545-6.439a6.538 6.538 0 00-6.545 6.44v-.093A6.543 6.543 0 0116.924 0a6.543 6.543 0 016.545 6.545zm-11.953 3.874a8.434 8.434 0 00-3.054 6.505v.093a8.42 8.42 0 013.147-6.48l.092-.065-.092-.12zm10.816 0l-.08-.066-.092.119.092.079c1.891 1.534 3.12 3.86 3.147 6.479v-.106a8.488 8.488 0 00-3.067-6.505z" fill="#fff" fill-opacity=".2"/><path d="M25.386 16.831v.093c0 4.667-3.795 8.462-8.462 8.462s-8.462-3.795-8.462-8.462v-.093c.053 4.628 3.821 8.37 8.462 8.37 4.64 0 8.41-3.742 8.462-8.37zM10.379 6.44v.093c0 1.467.49 2.83 1.31 3.927a.405.405 0 00.092-.067 6.53 6.53 0 01-1.402-3.953zm13.09 0a6.56 6.56 0 01-1.402 3.953c.04.027.066.053.093.066a6.462 6.462 0 001.309-3.926z" fill="#263238" fill-opacity=".2"/><path d="M33.848 3.08l-3.08 5.382-.873 1.534h-2.09l-2.644 5.01c.146.622.212 1.257.212 1.918A8.466 8.466 0 0119.7 24.91L16.924 30l-2.803-5.09a2.577 2.577 0 01-.29-.106c-3.134-1.243-5.369-4.297-5.369-7.88 0-.661.08-1.296.212-1.917L6.042 9.996H3.967L3.08 8.462 0 3.081h8.845l1.442 2.856.079.053c0-.014.026-.027.026-.053A6.542 6.542 0 0116.911 0a6.542 6.542 0 016.518 5.937c0 .013-.04.026-.04.04l-.013-.04 1.626-2.87h8.846z" fill="url(#a)"/></svg>