<svg xmlns="http://www.w3.org/2000/svg" width="47" height="73" version="1.0"><g font-weight="400"><g font-size="73.724" font-family="Bitstream Vera Sans"><path d="M24.125 20.305L37.843.072h7.98L28.171 26.21l-4.597 5.14L8.017 54.5H0l19.602-29.055" fill="#aeaeae"/><path d="M2.5.072h7.981L47 54.5h-7.98L23.574 31.35 8.017 54.5H0l19.602-29.055L2.5.072"/></g><path style="text-align:start;line-height:125%" d="M0 69.577l11.318-5.652L0 58.325v-3.171l14.291 7.265v2.977L0 72.749m0 0v-3.172m29.412-4.181L15.12 72.749v-3.172l11.318-5.652-11.318-5.6v-3.171l14.292 7.265v2.977zM47 61.479H32.753v-2.976H47v2.976zm0 7.886H32.753v-2.977H47v2.977z" font-size="28.207" fill="#ee0a00" font-family="Bitstream Vera Sans Mono"/></g></svg>