<svg height="460.8" viewBox="0 0 460.8 345.6" width="614.4" xmlns="http://www.w3.org/2000/svg" xmlns:xlink="http://www.w3.org/1999/xlink"><defs><style>*{stroke-linecap:butt;stroke-linejoin:round}</style></defs><g id="figure_1"><path d="M0 345.6h460.8V0H0z" fill="#fff" id="patch_1"/><g id="axes_1"><path d="M63.86 298.52h359.197V44.64H63.86z" fill="#fff" id="patch_2"/><path clip-path="url(#p7388479497)" d="M80.187 298.52h54.424V155.024H80.187z" fill="#1f77b4" id="patch_3"/><path clip-path="url(#p7388479497)" d="M170.894 298.52h54.423V56.73h-54.423z" fill="#1f77b4" id="patch_4"/><path clip-path="url(#p7388479497)" d="M261.6 298.52h54.424v-50.224H261.6z" fill="#1f77b4" id="patch_5"/><path clip-path="url(#p7388479497)" d="M352.306 298.52h54.424v-35.874h-54.424z" fill="#1f77b4" id="patch_6"/><g id="matplotlib.axis_1"><g id="xtick_1"><g id="line2d_1"><defs><path d="M0 0v3.5" id="m66dece97fc" stroke="#000" stroke-width=".8"/></defs><use x="107.399" xlink:href="#m66dece97fc" y="298.52" stroke="#000" stroke-width=".8"/></g><g id="text_1"><defs><path d="M9.813 72.906h9.859v-29.89h35.844v29.89h9.859V0h-9.86v34.719H19.673V0h-9.86z" id="DejaVuSans-72"/><path d="M-.297 72.906h61.672v-8.312H35.5V0h-9.906v64.594H-.296z" id="DejaVuSans-84"/><path d="M19.672 64.797v-27.39h12.406q6.89 0 10.64 3.562 3.766 3.562 3.766 10.156 0 6.547-3.765 10.11-3.75 3.562-10.64 3.562zm-9.86 8.11h22.266q12.266 0 18.531-5.548 6.282-5.546 6.282-16.234 0-10.797-6.282-16.313-6.265-5.515-18.53-5.515H19.671V0h-9.86z" id="DejaVuSans-80"/><path d="M53.516 70.516V60.89q-5.61 2.687-10.594 4-4.984 1.328-9.625 1.328-8.047 0-12.422-3.125t-4.375-8.89q0-4.845 2.906-7.313 2.907-2.453 11.016-3.97l5.953-1.218q11.031-2.11 16.281-7.406 5.25-5.297 5.25-14.172 0-10.61-7.11-16.078-7.093-5.469-20.812-5.469-5.172 0-11.015 1.172Q13.14.922 6.89 3.219v10.156q6-3.36 11.765-5.078 5.766-1.703 11.328-1.703 8.438 0 13.032 3.312 4.593 3.328 4.593 9.485 0 5.359-3.297 8.39-3.296 3.032-10.812 4.547L27.484 33.5q-11.03 2.188-15.968 6.875-4.922 4.688-4.922 13.047 0 9.672 6.812 15.234 6.813 5.563 18.766 5.563 5.14 0 10.453-.938 5.328-.922 10.89-2.765z" id="DejaVuSans-83"/><path d="M9.813 72.906h46.093v-8.312H19.672V43.016H54.39v-8.297H19.67V8.297h37.11V0H9.813z" id="DejaVuSans-69"/><path d="M10.688 12.406H21V0H10.687z" id="DejaVuSans-46"/><path d="M31 75.875q-6.531-11.219-9.719-22.219-3.172-10.984-3.172-22.265 0-11.266 3.203-22.328Q24.517-2 31-13.188h-7.813Q15.875-1.704 12.235 9.375q-3.64 11.078-3.64 22.016 0 10.89 3.61 21.922 3.624 11.046 10.983 22.562z" id="DejaVuSans-40"/><path d="M3.328 72.906h9.953L28.61 11.281l15.282 61.625h11.093l15.328-61.625 15.282 61.625H95.61L77.297 0H64.89L49.516 63.281 33.984 0H21.578z" id="DejaVuSans-87"/><path d="M34.188 63.188L20.797 26.906h26.812zm-5.579 9.718h11.188L67.578 0h-10.25l-6.64 18.703h-32.86L11.188 0H.78z" id="DejaVuSans-65"/><path d="M9.813 72.906h14.703l18.593-49.61 18.703 49.61h14.704V0H66.89v64.016l-18.797-50h-9.907l-18.796 50V0H9.813z" id="DejaVuSans-77"/><path d="M8.016 75.875h7.812q7.313-11.516 10.953-22.563 3.64-11.03 3.64-21.921 0-10.938-3.64-22.016-3.64-11.078-10.953-22.563H8.016Q14.5-2 17.703 9.063q3.203 11.063 3.203 22.329 0 11.28-3.203 22.265-3.203 11-9.687 22.219z" id="DejaVuSans-41"/></defs><g transform="matrix(.1 0 0 -.1 63.666 313.118)"><use xlink:href="#DejaVuSans-72"/><use x="75.195" xlink:href="#DejaVuSans-84"/><use x="136.264" xlink:href="#DejaVuSans-84"/><use x="197.348" xlink:href="#DejaVuSans-80"/><use x="257.65" xlink:href="#DejaVuSans-83"/><use x="321.127" xlink:href="#DejaVuSans-32"/><use x="352.914" xlink:href="#DejaVuSans-69"/><use x="416.098" xlink:href="#DejaVuSans-46"/><use x="447.885" xlink:href="#DejaVuSans-32"/><use x="479.672" xlink:href="#DejaVuSans-40"/><use x="518.686" xlink:href="#DejaVuSans-87"/><use x="617.484" xlink:href="#DejaVuSans-65"/><use x="685.893" xlink:href="#DejaVuSans-83"/><use x="749.369" xlink:href="#DejaVuSans-77"/><use x="835.648" xlink:href="#DejaVuSans-41"/></g></g></g><g id="xtick_2"><use x="198.105" xlink:href="#m66dece97fc" y="298.52" stroke="#000" stroke-width=".8" id="line2d_2"/><g id="text_2"><defs><path d="M9.813 72.906h9.859V5.078q0-13.187-5-19.14-5-5.954-16.094-5.954h-3.75v8.297h3.078q6.531 0 9.219 3.672Q9.813-4.39 9.813 5.078z" id="DejaVuSans-74"/></defs><g transform="matrix(.1 0 0 -.1 165.572 313.118)"><use xlink:href="#DejaVuSans-72"/><use x="75.195" xlink:href="#DejaVuSans-84"/><use x="136.264" xlink:href="#DejaVuSans-84"/><use x="197.348" xlink:href="#DejaVuSans-80"/><use x="257.65" xlink:href="#DejaVuSans-83"/><use x="321.127" xlink:href="#DejaVuSans-32"/><use x="352.914" xlink:href="#DejaVuSans-69"/><use x="416.098" xlink:href="#DejaVuSans-46"/><use x="447.885" xlink:href="#DejaVuSans-32"/><use x="479.672" xlink:href="#DejaVuSans-40"/><use x="518.686" xlink:href="#DejaVuSans-74"/><use x="548.178" xlink:href="#DejaVuSans-83"/><use x="611.654" xlink:href="#DejaVuSans-41"/></g></g></g><g id="xtick_3"><use x="288.812" xlink:href="#m66dece97fc" y="298.52" stroke="#000" stroke-width=".8" id="line2d_3"/><g id="text_3"><defs><path d="M9.813 72.906h9.859V0h-9.86z" id="DejaVuSans-73"/><path d="M54.89 33.016V0h-8.984v32.719q0 7.765-3.031 11.61-3.031 3.858-9.078 3.858-7.281 0-11.484-4.64-4.204-4.625-4.204-12.64V0H9.08v54.688h9.03v-8.5q3.235 4.937 7.594 7.374Q30.078 56 35.797 56q9.422 0 14.25-5.828 4.844-5.828 4.844-17.156z" id="DejaVuSans-110"/><path d="M45.406 46.39v29.594h8.985V0h-8.985v8.203Q42.578 3.328 38.25.953q-4.313-2.375-10.375-2.375-9.906 0-16.14 7.906-6.22 7.922-6.22 20.813 0 12.89 6.22 20.797Q17.968 56 27.874 56q6.063 0 10.375-2.375 4.328-2.36 7.156-7.234zm-30.61-19.093q0-9.906 4.079-15.547 4.078-5.64 11.203-5.64 7.125 0 11.219 5.64 4.11 5.64 4.11 15.547 0 9.906-4.11 15.547-4.094 5.64-11.219 5.64-7.125 0-11.203-5.64-4.078-5.64-4.078-15.547z" id="DejaVuSans-100"/><path d="M56.203 29.594v-4.39H14.891q.593-9.282 5.593-14.142 5-4.859 13.938-4.859 5.172 0 10.031 1.266 4.86 1.265 9.656 3.812v-8.5Q49.266.734 44.187-.344 39.11-1.422 33.892-1.422q-13.094 0-20.735 7.61-7.64 7.625-7.64 20.625 0 13.421 7.25 21.296Q20.016 56 32.328 56q11.031 0 17.453-7.11 6.422-7.093 6.422-19.296zm-8.984 2.64q-.094 7.36-4.125 11.75-4.032 4.407-10.672 4.407-7.516 0-12.031-4.25-4.516-4.25-5.203-11.97z" id="DejaVuSans-101"/><path d="M54.89 54.688l-19.78-26.61L55.905 0H45.313L29.39 21.484 13.484 0H2.875l21.25 28.61L4.687 54.687h10.594l14.5-19.485 14.5 19.484z" id="DejaVuSans-120"/></defs><g transform="matrix(.1 0 0 -.1 274.959 313.118)"><use xlink:href="#DejaVuSans-73"/><use x="29.492" xlink:href="#DejaVuSans-110"/><use x="92.871" xlink:href="#DejaVuSans-100"/><use x="156.348" xlink:href="#DejaVuSans-101"/><use x="217.855" xlink:href="#DejaVuSans-120"/></g></g></g><g id="xtick_4"><use x="379.518" xlink:href="#m66dece97fc" y="298.52" stroke="#000" stroke-width=".8" id="line2d_4"/><g id="text_4"><defs><path d="M48.781 52.594v-8.407q-3.812 2.11-7.64 3.157-3.828 1.047-7.735 1.047-8.75 0-13.593-5.547-4.829-5.532-4.829-15.547 0-10.016 4.829-15.563 4.843-5.53 13.593-5.53 3.907 0 7.735 1.046 3.828 1.047 7.64 3.156V2.094Q45.016.344 40.984-.531q-4.015-.89-8.562-.89-12.36 0-19.64 7.765-7.266 7.765-7.266 20.953 0 13.375 7.343 21.031Q20.22 56 33.016 56q4.14 0 8.093-.86 3.953-.843 7.672-2.546z" id="DejaVuSans-99"/><path d="M30.61 48.39q-7.22 0-11.422-5.64-4.204-5.64-4.204-15.453 0-9.813 4.172-15.453 4.188-5.64 11.453-5.64 7.188 0 11.375 5.655 4.203 5.672 4.203 15.438 0 9.719-4.203 15.406-4.187 5.688-11.375 5.688zm0 7.61q11.718 0 18.406-7.625 6.703-7.61 6.703-21.078 0-13.422-6.703-21.078-6.688-7.64-18.407-7.64-11.765 0-18.437 7.64-6.656 7.656-6.656 21.078 0 13.469 6.656 21.078Q18.844 56 30.609 56z" id="DejaVuSans-111"/><path d="M52 44.188q3.375 6.062 8.063 8.937Q64.75 56 71.093 56q8.548 0 13.188-5.984 4.64-5.97 4.64-17V0h-9.03v32.719q0 7.86-2.797 11.656-2.781 3.813-8.485 3.813-6.984 0-11.046-4.641-4.047-4.625-4.047-12.64V0h-9.032v32.719q0 7.906-2.78 11.687-2.782 3.782-8.595 3.782-6.89 0-10.953-4.657-4.047-4.656-4.047-12.625V0H9.08v54.688h9.03v-8.5q3.078 5.03 7.375 7.421Q29.781 56 35.687 56q5.97 0 10.141-3.031Q50 49.953 52 44.187z" id="DejaVuSans-109"/><path d="M18.11 8.203v-29H9.077v75.484h9.031v-8.296q2.844 4.875 7.157 7.234Q29.594 56 35.594 56q9.968 0 16.187-7.906 6.235-7.907 6.235-20.797T51.78 6.484q-6.218-7.906-16.187-7.906-6 0-10.328 2.375-4.313 2.375-7.157 7.25zm30.578 19.094q0 9.906-4.079 15.547-4.078 5.64-11.203 5.64-7.14 0-11.218-5.64-4.079-5.64-4.079-15.547 0-9.906 4.078-15.547 4.079-5.64 11.22-5.64 7.124 0 11.202 5.64t4.078 15.547z" id="DejaVuSans-112"/><path d="M41.11 46.297q-1.516.875-3.297 1.281Q36.03 48 33.89 48q-7.625 0-11.703-4.953-4.079-4.953-4.079-14.234V0H9.08v54.688h9.03v-8.5q2.844 4.984 7.375 7.39Q30.031 56 36.531 56q.922 0 2.047-.125 1.125-.11 2.484-.36z" id="DejaVuSans-114"/><path d="M44.281 53.078v-8.5q-3.797 1.953-7.906 2.922-4.094.984-8.5.984-6.688 0-10.031-2.047-3.344-2.046-3.344-6.156 0-3.125 2.39-4.906 2.391-1.781 9.626-3.39l3.078-.688q9.562-2.047 13.593-5.781 4.032-3.735 4.032-10.422 0-7.625-6.032-12.078-6.03-4.438-16.578-4.438-4.39 0-9.156.86Q10.688.296 5.422 2v9.281q4.984-2.594 9.812-3.89 4.829-1.282 9.579-1.282 6.343 0 9.75 2.172 3.421 2.172 3.421 6.125 0 3.656-2.468 5.61-2.453 1.953-10.813 3.765l-3.125.735q-8.344 1.75-12.062 5.39-3.704 3.64-3.704 9.985 0 7.718 5.47 11.906Q16.75 56 26.811 56q4.97 0 9.36-.734 4.406-.72 8.11-2.188z" id="DejaVuSans-115"/><path d="M9.422 54.688h8.984V0H9.422zm0 21.296h8.984v-11.39H9.422z" id="DejaVuSans-105"/></defs><g transform="matrix(.1 0 0 -.1 328.364 313.118)"><use xlink:href="#DejaVuSans-73"/><use x="29.492" xlink:href="#DejaVuSans-110"/><use x="92.871" xlink:href="#DejaVuSans-100"/><use x="156.348" xlink:href="#DejaVuSans-101"/><use x="217.855" xlink:href="#DejaVuSans-120"/><use x="277.035" xlink:href="#DejaVuSans-32"/><use x="308.822" xlink:href="#DejaVuSans-40"/><use x="347.836" xlink:href="#DejaVuSans-99"/><use x="402.816" xlink:href="#DejaVuSans-111"/><use x="463.998" xlink:href="#DejaVuSans-109"/><use x="561.41" xlink:href="#DejaVuSans-112"/><use x="624.887" xlink:href="#DejaVuSans-114"/><use x="665.969" xlink:href="#DejaVuSans-101"/><use x="727.492" xlink:href="#DejaVuSans-115"/><use x="779.592" xlink:href="#DejaVuSans-115"/><use x="831.691" xlink:href="#DejaVuSans-105"/><use x="859.475" xlink:href="#DejaVuSans-111"/><use x="920.656" xlink:href="#DejaVuSans-110"/><use x="984.035" xlink:href="#DejaVuSans-41"/></g></g></g></g><g id="matplotlib.axis_2"><g id="ytick_1"><g id="line2d_5"><defs><path d="M0 0h-3.5" id="mca00e0c6cb" stroke="#000" stroke-width=".8"/></defs><use x="63.86" xlink:href="#mca00e0c6cb" y="298.52" stroke="#000" stroke-width=".8"/></g><g id="text_5"><defs><path d="M31.781 66.406q-7.61 0-11.453-7.5Q16.5 51.422 16.5 36.375q0-14.984 3.828-22.484 3.844-7.5 11.453-7.5 7.672 0 11.5 7.5 3.844 7.5 3.844 22.484 0 15.047-3.844 22.531-3.828 7.5-11.5 7.5zm0 7.813q12.266 0 18.735-9.703 6.468-9.688 6.468-28.141 0-18.406-6.468-28.11-6.47-9.687-18.735-9.687-12.25 0-18.718 9.688-6.47 9.703-6.47 28.109 0 18.453 6.47 28.14Q19.53 74.22 31.78 74.22z" id="DejaVuSans-48"/></defs><use xlink:href="#DejaVuSans-48" transform="matrix(.1 0 0 -.1 50.498 302.32)"/></g></g><g id="ytick_2"><use x="63.86" xlink:href="#mca00e0c6cb" y="262.646" stroke="#000" stroke-width=".8" id="line2d_6"/><g id="text_6"><defs><path d="M10.797 72.906h38.719v-8.312H19.828v-17.86q2.14.735 4.281 1.094 2.157.36 4.313.36 12.203 0 19.328-6.688 7.14-6.688 7.14-18.11 0-11.765-7.328-18.296-7.328-6.516-20.656-6.516-4.593 0-9.36.781-4.75.782-9.827 2.344v9.922q4.39-2.39 9.078-3.563 4.687-1.171 9.906-1.171 8.453 0 13.375 4.437 4.938 4.438 4.938 12.063 0 7.609-4.938 12.047-4.922 4.453-13.375 4.453-3.953 0-7.89-.875-3.922-.875-8.016-2.735z" id="DejaVuSans-53"/></defs><use xlink:href="#DejaVuSans-53" transform="matrix(.1 0 0 -.1 50.498 266.445)"/></g></g><g id="ytick_3"><use x="63.86" xlink:href="#mca00e0c6cb" y="226.772" stroke="#000" stroke-width=".8" id="line2d_7"/><g id="text_7"><defs><path d="M12.406 8.297h16.11v55.625l-17.532-3.516v8.985l17.438 3.515h9.86V8.296H54.39V0H12.406z" id="DejaVuSans-49"/></defs><g transform="matrix(.1 0 0 -.1 44.135 230.571)"><use xlink:href="#DejaVuSans-49"/><use x="63.623" xlink:href="#DejaVuSans-48"/></g></g></g><g id="ytick_4"><use x="63.86" xlink:href="#mca00e0c6cb" y="190.898" stroke="#000" stroke-width=".8" id="line2d_8"/><g transform="matrix(.1 0 0 -.1 44.135 194.697)" id="text_8"><use xlink:href="#DejaVuSans-49"/><use x="63.623" xlink:href="#DejaVuSans-53"/></g></g><g id="ytick_5"><use x="63.86" xlink:href="#mca00e0c6cb" y="155.024" stroke="#000" stroke-width=".8" id="line2d_9"/><g id="text_9"><defs><path d="M19.188 8.297h34.421V0H7.33v8.297q5.609 5.812 15.296 15.594 9.703 9.797 12.188 12.64 4.734 5.313 6.609 9 1.89 3.688 1.89 7.25 0 5.813-4.078 9.469-4.078 3.672-10.625 3.672-4.64 0-9.797-1.61-5.14-1.609-11-4.89v9.969Q13.767 71.78 18.938 73q5.188 1.219 9.485 1.219 11.328 0 18.062-5.672 6.735-5.656 6.735-15.125 0-4.5-1.688-8.531-1.672-4.016-6.125-9.485-1.218-1.422-7.765-8.187-6.532-6.766-18.453-18.922z" id="DejaVuSans-50"/></defs><g transform="matrix(.1 0 0 -.1 44.135 158.823)"><use xlink:href="#DejaVuSans-50"/><use x="63.623" xlink:href="#DejaVuSans-48"/></g></g></g><g id="ytick_6"><use x="63.86" xlink:href="#mca00e0c6cb" y="119.15" stroke="#000" stroke-width=".8" id="line2d_10"/><g transform="matrix(.1 0 0 -.1 44.135 122.95)" id="text_10"><use xlink:href="#DejaVuSans-50"/><use x="63.623" xlink:href="#DejaVuSans-53"/></g></g><g id="ytick_7"><use x="63.86" xlink:href="#mca00e0c6cb" y="83.276" stroke="#000" stroke-width=".8" id="line2d_11"/><g id="text_11"><defs><path d="M40.578 39.313Q47.656 37.797 51.625 33q3.984-4.781 3.984-11.813 0-10.78-7.422-16.703-7.421-5.906-21.093-5.906-4.578 0-9.438.906-4.86.907-10.031 2.72v9.515q4.094-2.39 8.969-3.61 4.89-1.218 10.218-1.218 9.266 0 14.125 3.656 4.86 3.656 4.86 10.64 0 6.454-4.516 10.079-4.515 3.64-12.562 3.64h-8.5v8.11h8.89q7.266 0 11.125 2.906 3.86 2.906 3.86 8.375 0 5.61-3.985 8.61-3.968 3.015-11.39 3.015-4.063 0-8.703-.89-4.641-.876-10.203-2.72v8.782q5.624 1.562 10.53 2.344 4.907.78 9.25.78 11.235 0 17.766-5.109 6.547-5.093 6.547-13.78 0-6.063-3.468-10.235-3.47-4.172-9.86-5.782z" id="DejaVuSans-51"/></defs><g transform="matrix(.1 0 0 -.1 44.135 87.075)"><use xlink:href="#DejaVuSans-51"/><use x="63.623" xlink:href="#DejaVuSans-48"/></g></g></g><g id="ytick_8"><use x="63.86" xlink:href="#mca00e0c6cb" y="47.402" stroke="#000" stroke-width=".8" id="line2d_12"/><g transform="matrix(.1 0 0 -.1 44.135 51.202)" id="text_12"><use xlink:href="#DejaVuSans-51"/><use x="63.623" xlink:href="#DejaVuSans-53"/></g></g><g id="text_13"><defs><path d="M32.172-5.078q-3.797-9.766-7.422-12.735-3.61-2.984-9.656-2.984H7.906v7.516h5.282q3.703 0 5.75 1.765Q21-9.766 23.483-3.219l1.61 4.094-22.11 53.813H12.5l17.094-42.766 17.093 42.766h9.516z" id="DejaVuSans-121"/><path d="M19.672 34.813V8.108H35.5q7.953 0 11.781 3.297 3.844 3.297 3.844 10.078 0 6.844-3.844 10.078-3.828 3.25-11.781 3.25zm0 29.984V42.828h14.61q7.218 0 10.75 2.703 3.546 2.719 3.546 8.282 0 5.515-3.547 8.25-3.531 2.734-10.75 2.734zm-9.86 8.11h25.204q11.28 0 17.375-4.688Q58.5 63.53 58.5 54.89q0-6.703-3.125-10.657-3.125-3.953-9.188-4.922 7.282-1.562 11.313-6.53 4.031-4.954 4.031-12.376 0-9.765-6.64-15.093Q48.25 0 35.984 0H9.812z" id="DejaVuSans-66"/></defs><g transform="matrix(0 -.1 -.1 0 38.055 205.15)"><use xlink:href="#DejaVuSans-77"/><use x="86.279" xlink:href="#DejaVuSans-101"/><use x="147.803" xlink:href="#DejaVuSans-109"/><use x="245.215" xlink:href="#DejaVuSans-111"/><use x="306.396" xlink:href="#DejaVuSans-114"/><use x="347.51" xlink:href="#DejaVuSans-121"/><use x="406.689" xlink:href="#DejaVuSans-32"/><use x="438.477" xlink:href="#DejaVuSans-40"/><use x="477.49" xlink:href="#DejaVuSans-77"/><use x="563.77" xlink:href="#DejaVuSans-66"/><use x="632.373" xlink:href="#DejaVuSans-41"/></g></g></g><path d="M63.86 298.52V44.64" fill="none" stroke="#000" stroke-linecap="square" stroke-width=".8" id="patch_7"/><path d="M423.057 298.52V44.64" fill="none" stroke="#000" stroke-linecap="square" stroke-width=".8" id="patch_8"/><path d="M63.86 298.52h359.197" fill="none" stroke="#000" stroke-linecap="square" stroke-width=".8" id="patch_9"/><path d="M63.86 44.64h359.197" fill="none" stroke="#000" stroke-linecap="square" stroke-width=".8" id="patch_10"/><g transform="matrix(.1 0 0 -.1 96.266 151.944)" id="text_14"><use xlink:href="#DejaVuSans-50"/><use x="63.623" xlink:href="#DejaVuSans-48"/><use x="127.246" xlink:href="#DejaVuSans-46"/><use x="159.033" xlink:href="#DejaVuSans-48"/></g><g id="text_15"><defs><path d="M8.203 72.906h46.875v-4.203L28.61 0H18.312L43.22 64.594H8.203z" id="DejaVuSans-55"/></defs><g transform="matrix(.1 0 0 -.1 186.973 53.65)"><use xlink:href="#DejaVuSans-51"/><use x="63.623" xlink:href="#DejaVuSans-51"/><use x="127.246" xlink:href="#DejaVuSans-46"/><use x="159.033" xlink:href="#DejaVuSans-55"/></g></g><g transform="matrix(.1 0 0 -.1 280.86 245.217)" id="text_16"><use xlink:href="#DejaVuSans-55"/><use x="63.623" xlink:href="#DejaVuSans-46"/><use x="95.41" xlink:href="#DejaVuSans-48"/></g><g transform="matrix(.1 0 0 -.1 371.567 259.566)" id="text_17"><use xlink:href="#DejaVuSans-53"/><use x="63.623" xlink:href="#DejaVuSans-46"/><use x="95.41" xlink:href="#DejaVuSans-48"/></g><g id="text_18"><defs><path d="M8.5 21.578v33.11h8.984V21.922q0-7.766 3.016-11.656 3.031-3.875 9.094-3.875 7.265 0 11.484 4.64 4.234 4.64 4.234 12.656v31h8.985V0h-8.984v8.406Q42.047 3.422 37.718 1q-4.313-2.422-10.032-2.422-9.421 0-14.312 5.86Q8.5 10.296 8.5 21.578zM31.11 56z" id="DejaVuSans-117"/><path d="M34.281 27.484q-10.89 0-15.093-2.484-4.204-2.484-4.204-8.5 0-4.781 3.157-7.594 3.156-2.797 8.562-2.797 7.485 0 12 5.297 4.516 5.297 4.516 14.078v2zm17.922 3.72V0H43.22v8.297Q40.14 3.328 35.547.953q-4.594-2.375-11.234-2.375-8.391 0-13.36 4.719Q6 8.016 6 15.922q0 9.219 6.172 13.906 6.187 4.688 18.437 4.688h12.61v.89q0 6.203-4.078 9.594-4.078 3.39-11.453 3.39-4.688 0-9.141-1.124-4.438-1.125-8.531-3.375v8.312q4.921 1.906 9.562 2.844 4.64.953 9.031.953 11.875 0 17.735-6.156 5.86-6.14 5.86-18.64z" id="DejaVuSans-97"/><path d="M45.406 27.984q0 9.766-4.031 15.125-4.016 5.375-11.297 5.375-7.219 0-11.25-5.375-4.031-5.359-4.031-15.125 0-9.718 4.031-15.093t11.25-5.375q7.281 0 11.297 5.375 4.031 5.375 4.031 15.093zm8.985-21.203q0-13.953-6.203-20.765Q42-20.797 29.203-20.797q-4.734 0-8.937.703-4.203.703-8.157 2.172v8.735q3.954-2.141 7.813-3.157 3.86-1.031 7.86-1.031 8.843 0 13.234 4.61 4.39 4.609 4.39 13.937v4.453q-2.781-4.844-7.125-7.234Q33.938 0 27.875 0 17.828 0 11.672 7.656q-6.156 7.672-6.156 20.328 0 12.688 6.156 20.344Q17.828 56 27.875 56q6.063 0 10.406-2.39 4.344-2.391 7.125-7.22v8.297h8.985z" id="DejaVuSans-103"/><path d="M37.11 75.984V68.5h-8.594q-4.828 0-6.72-1.953-1.874-1.953-1.874-7.031v-4.828h14.797v-6.985H19.922V0H10.89v47.703H2.297v6.984h8.594V58.5q0 9.125 4.25 13.297 4.25 4.187 13.468 4.187z" id="DejaVuSans-102"/><path d="M9.422 75.984h8.984V0H9.422z" id="DejaVuSans-108"/><path d="M18.313 70.219V54.688h18.5v-6.985h-18.5V18.016q0-6.688 1.828-8.594 1.828-1.906 7.453-1.906h9.218V0h-9.218q-10.407 0-14.36 3.875-3.953 3.89-3.953 14.14v29.688H2.687v6.984h6.594V70.22z" id="DejaVuSans-116"/></defs><g transform="matrix(.12 0 0 -.12 165.523 38.64)"><use xlink:href="#DejaVuSans-77"/><use x="86.279" xlink:href="#DejaVuSans-101"/><use x="147.803" xlink:href="#DejaVuSans-109"/><use x="245.215" xlink:href="#DejaVuSans-111"/><use x="306.396" xlink:href="#DejaVuSans-114"/><use x="347.51" xlink:href="#DejaVuSans-121"/><use x="406.689" xlink:href="#DejaVuSans-32"/><use x="438.477" xlink:href="#DejaVuSans-117"/><use x="501.855" xlink:href="#DejaVuSans-115"/><use x="553.955" xlink:href="#DejaVuSans-97"/><use x="615.234" xlink:href="#DejaVuSans-103"/><use x="678.711" xlink:href="#DejaVuSans-101"/><use x="740.234" xlink:href="#DejaVuSans-32"/><use x="772.021" xlink:href="#DejaVuSans-111"/><use x="833.203" xlink:href="#DejaVuSans-102"/><use x="868.408" xlink:href="#DejaVuSans-32"/><use x="900.195" xlink:href="#DejaVuSans-114"/><use x="941.309" xlink:href="#DejaVuSans-117"/><use x="1004.688" xlink:href="#DejaVuSans-108"/><use x="1032.471" xlink:href="#DejaVuSans-101"/><use x="1093.994" xlink:href="#DejaVuSans-115"/><use x="1146.094" xlink:href="#DejaVuSans-101"/><use x="1207.617" xlink:href="#DejaVuSans-116"/><use x="1246.826" xlink:href="#DejaVuSans-115"/></g></g><g id="legend_1"><path d="M253.543 67.318h162.514q2 0 2-2V51.64q0-2-2-2H253.543q-2 0-2 2v13.678q0 2 2 2z" fill="#fff" opacity=".8" stroke="#ccc" id="patch_11"/><path d="M255.543 61.238h20v-7h-20z" fill="#1f77b4" id="patch_12"/><g id="text_19"><defs><path d="M64.406 67.281v-10.39q-4.984 4.64-10.625 6.922-5.64 2.296-11.984 2.296-12.5 0-19.14-7.64-6.641-7.64-6.641-22.094 0-14.406 6.64-22.047 6.64-7.64 19.14-7.64 6.345 0 11.985 2.296 5.64 2.297 10.625 6.938V5.609Q59.234 2.094 53.437.33q-5.78-1.75-12.218-1.75-16.563 0-26.094 10.124-9.516 10.14-9.516 27.672 0 17.578 9.516 27.703 9.531 10.14 26.094 10.14 6.531 0 12.312-1.734 5.797-1.734 10.875-5.203z" id="DejaVuSans-67"/><path d="M54.89 33.016V0h-8.984v32.719q0 7.765-3.031 11.61-3.031 3.858-9.078 3.858-7.281 0-11.484-4.64-4.204-4.625-4.204-12.64V0H9.08v75.984h9.03V46.188q3.235 4.937 7.594 7.374Q30.078 56 35.797 56q9.422 0 14.25-5.828 4.844-5.828 4.844-17.156z" id="DejaVuSans-104"/><path d="M19.672 64.797V8.109h11.922q15.093 0 22.093 6.829 7 6.843 7 21.593 0 14.64-7 21.453-7 6.813-22.093 6.813zm-9.86 8.11h20.266q21.188 0 31.094-8.813 9.922-8.813 9.922-27.563 0-18.86-9.969-27.703Q51.172 0 30.078 0H9.813z" id="DejaVuSans-68"/><path d="M2.984 54.688H12.5L29.594 8.797l17.093 45.89h9.516L35.687 0H23.485z" id="DejaVuSans-118"/></defs><g transform="matrix(.1 0 0 -.1 283.543 61.238)"><use xlink:href="#DejaVuSans-67"/><use x="69.824" xlink:href="#DejaVuSans-104"/><use x="133.203" xlink:href="#DejaVuSans-114"/><use x="174.285" xlink:href="#DejaVuSans-111"/><use x="235.467" xlink:href="#DejaVuSans-109"/><use x="332.879" xlink:href="#DejaVuSans-101"/><use x="394.402" xlink:href="#DejaVuSans-32"/><use x="426.189" xlink:href="#DejaVuSans-77"/><use x="512.469" xlink:href="#DejaVuSans-101"/><use x="573.992" xlink:href="#DejaVuSans-109"/><use x="671.404" xlink:href="#DejaVuSans-111"/><use x="732.586" xlink:href="#DejaVuSans-114"/><use x="773.699" xlink:href="#DejaVuSans-121"/><use x="832.879" xlink:href="#DejaVuSans-32"/><use x="864.666" xlink:href="#DejaVuSans-68"/><use x="941.668" xlink:href="#DejaVuSans-101"/><use x="1003.191" xlink:href="#DejaVuSans-118"/><use x="1062.371" xlink:href="#DejaVuSans-32"/><use x="1094.158" xlink:href="#DejaVuSans-84"/><use x="1154.977" xlink:href="#DejaVuSans-111"/><use x="1216.158" xlink:href="#DejaVuSans-111"/><use x="1277.34" xlink:href="#DejaVuSans-108"/></g></g></g></g></g><defs><clipPath id="p7388479497"><path d="M63.86 44.64h359.197v253.88H63.86z"/></clipPath></defs></svg>