<svg xmlns="http://www.w3.org/2000/svg" height="512" width="512"><rect height="512" rx="64" ry="64" width="512" fill="#6b6b6b"/><path d="M84.461 146.092a15.458 15.458 0 00-4.842 11.267v184.265c0 8.548 6.747 15.478 15.42 15.478h322.736c8.516 0 15.42-6.917 15.42-15.478V157.359c0-4.454-1.832-8.468-4.813-11.292L256.407 295.61 84.46 146.092zm10.586-19.584c-17.011 0-30.801 13.752-30.801 30.655V341.82c0 16.93 13.678 30.655 30.8 30.655h322.72c17.012 0 30.802-13.752 30.802-30.655V157.163c0-16.93-13.678-30.655-30.801-30.655H95.047zm161.36 149.118L410.136 141.88H102.678l153.729 133.745z" fill="#fff" stroke="#fff" fill-rule="evenodd" stroke-width="15.373"/></svg>