<svg height="512" width="512" xmlns="http://www.w3.org/2000/svg"><rect height="512" rx="64" ry="64" width="512" fill="#d0422a"/><path d="M266.66 284.363l-18.76-14.568c-5.712-4.739-13.528-10.993-13.528-22.44 0-11.495 7.816-18.804 14.594-25.57 21.854-17.201 43.685-35.504 43.685-74.082 0-39.666-24.959-60.53-36.922-70.434h32.254L321.835 56H219.274c-28.143 0-68.7 6.66-98.392 31.173-22.385 19.304-33.297 45.928-33.297 69.896 0 40.68 31.241 81.922 86.398 81.922 5.214 0 10.91-.512 16.644-1.045-2.577 6.268-5.182 11.486-5.182 20.346 0 16.155 8.305 26.067 15.624 35.447-23.435 1.616-67.19 4.208-99.449 24.034-30.714 18.269-40.067 44.855-40.067 63.623 0 38.627 36.411 74.604 111.901 74.604 89.53 0 136.919-49.533 136.919-98.574.015-36.033-20.802-53.764-43.713-73.063zm-68.188-59.99c-44.786 0-65.077-57.895-65.077-92.832 0-13.603 2.573-27.643 11.434-38.612 8.351-10.445 22.892-17.224 36.468-17.224 43.175 0 65.568 58.418 65.568 95.988 0 9.4-1.036 26.057-13.006 38.103-8.375 8.35-22.384 14.578-35.387 14.578zm.509 209.769c-55.691 0-91.605-26.642-91.605-63.684 0-37.034 33.297-49.562 44.76-53.708 21.847-7.355 49.967-8.38 54.658-8.38 5.205 0 7.81 0 11.951.524 39.596 28.173 56.783 42.22 56.783 68.895 0 32.296-26.562 56.353-76.547 56.353zm199.137-132.04v-52.475h52.33V223.58h-52.33v-52.16h-25.764v52.16h-52.071v26.047h52.071v52.475" fill="#fff"/></svg>