<svg height="512" width="512" xmlns="http://www.w3.org/2000/svg"><rect height="512" rx="64" ry="64" width="512" fill="#ca2127"/><path d="M265.381 56c-109.16 0-164.202 78.261-164.202 143.538 0 39.512 14.952 74.666 47.038 87.752 5.264 2.174 9.981.08 11.511-5.742 1.06-4.02 3.57-14.188 4.693-18.44 1.53-5.76.931-7.768-3.312-12.804-9.251-10.907-15.177-25.03-15.177-45.055 0-58.055 43.448-110.04 113.123-110.04 61.704 0 95.603 37.703 95.603 88.037 0 66.256-29.324 122.17-72.838 122.17-24.039 0-42.019-19.868-36.267-44.255 6.904-29.108 20.284-60.513 20.284-81.54 0-18.8-10.109-34.484-30.986-34.484-24.57 0-44.31 25.42-44.31 59.467 0 21.685 7.33 36.36 7.33 36.36s-25.15 106.539-29.556 125.198c-8.775 37.162-1.323 82.703-.685 87.29.37 2.74 3.88 3.402 5.468 1.338 2.253-2.957 31.537-39.085 41.468-75.195 2.823-10.216 16.162-63.149 16.162-63.149 7.991 15.24 31.318 28.627 56.128 28.627 73.852 0 123.965-67.326 123.965-157.448C410.834 119.47 353.102 56 265.381 56z" fill="#fff"/></svg>