<svg xmlns="http://www.w3.org/2000/svg" height="32" width="32"><rect height="32" rx="4" ry="4" width="32" fill="#e84352"/><path d="M24.297 5.554H7.703c-1.631 0-2.953 1.332-2.953 2.976v8.243c0 .153.012.303.034.45a6.366 6.366 0 00-.034.666c0 4.725 5.037 8.557 11.25 8.557s11.25-3.832 11.25-8.557a6.71 6.71 0 00-.034-.666c.022-.147.034-.297.034-.45V8.53c0-1.644-1.324-2.976-2.953-2.976zM22.9 13.841l-5.811 5.81a1.49 1.49 0 01-1.07.438 1.489 1.489 0 01-1.107-.438l-5.81-5.81a1.494 1.494 0 012.112-2.112L16 16.516l4.787-4.787a1.494 1.494 0 012.112 0 1.493 1.493 0 010 2.112z" fill="#fff"/></svg>