<svg xmlns="http://www.w3.org/2000/svg" height="60" width="60"><rect height="60" rx="7.5" ry="7.5" width="60" fill="#e84352"/><path d="M45.557 10.414H14.443c-3.058 0-5.537 2.498-5.537 5.579V31.45c0 .286.022.568.064.844a11.936 11.936 0 00-.064 1.248c0 8.86 9.444 16.045 21.094 16.045s21.094-7.185 21.094-16.045c0-.42-.023-.837-.064-1.248.041-.276.064-.558.064-.844V15.993c0-3.082-2.482-5.58-5.537-5.58zm-2.622 15.538L32.04 36.846a2.793 2.793 0 01-2.006.82 2.791 2.791 0 01-2.076-.82L17.065 25.952a2.801 2.801 0 013.96-3.96L30 30.967l8.975-8.975a2.802 2.802 0 013.96 0 2.799 2.799 0 010 3.96z" fill="#fff"/></svg>