<svg xmlns="http://www.w3.org/2000/svg" height="60" width="60"><rect height="60" rx="7.5" ry="7.5" width="60" fill="#ef4623"/><path d="M40.077 31.743a2.597 2.597 0 01.176.946c0 .639-.221 1.26-.591 1.766-.366.5-.885.89-1.496 1.06h.001c-.005.002-.01.002-.013.004l-.008.002a2.677 2.677 0 01-.87.144 3.09 3.09 0 01-1.886-.664 2.837 2.837 0 01-1.06-1.727l-.001-.007c0-.002 0-.004-.002-.007h.002a2.592 2.592 0 01-.06-.548c0-.615.21-1.207.555-1.694a2.911 2.911 0 011.4-1.07h.004c.003 0 .003-.003.005-.003a2.879 2.879 0 01.998-.179 3.12 3.12 0 011.724.525c.503.334.91.824 1.116 1.433l.004.01c0 .005.002.007.003.01h-.002zm-1.874 7.552a1.494 1.494 0 00-.812-.251c-.237 0-.483.068-.702.213a13.64 13.64 0 01-6.925 1.914c-1.815 0-3.619-.383-5.252-1.186l-.008-.004-.008-.003c-.246-.1-.527-.315-.833-.52a3.1 3.1 0 00-.499-.274 1.49 1.49 0 00-.586-.13c-.176 0-.36.041-.54.123l-.028.01a1.316 1.316 0 00-.65.544 1.564 1.564 0 00-.039 1.548 1.331 1.331 0 00.538.538c2.336 1.576 5.085 2.289 7.846 2.286 2.49 0 4.993-.576 7.223-1.625l.012-.006.01-.006c.295-.174.685-.33 1.054-.557.182-.117.36-.251.513-.425a1.605 1.605 0 00.344-.641v-.001a1.306 1.306 0 00-.092-.91 1.584 1.584 0 00-.566-.636zm-16.397-3.789a.042.042 0 01.014.004 2.647 2.647 0 00.91.163c.758 0 1.496-.31 2.054-.817.558-.508.94-1.228.94-2.046 0-.022 0-.043-.002-.069a2.19 2.19 0 00.003-.117c0-.813-.375-1.535-.928-2.044a3.057 3.057 0 00-2.052-.824c-.203 0-.411.024-.614.071l-.008.001h-.004a2.985 2.985 0 00-2.22 1.99v.005a2.733 2.733 0 00-.137.86c0 .631.209 1.246.568 1.752a2.814 2.814 0 001.476 1.073zm31.622-7.356v.004c.007.103.009.204.009.306 0 1.138-.365 2.233-.975 3.162a6.354 6.354 0 01-2.256 2.09c.058.453.092.91.092 1.365-.001 2.452-.847 4.862-2.319 6.793v.001h-.003c-2.721 3.62-6.9 5.754-11.12 6.831l-.004.003a29.216 29.216 0 01-6.89.826c-3.457 0-6.913-.624-10.136-1.917l-.001-.003h-.003c-3.343-1.377-6.528-3.567-8.481-6.776a11.047 11.047 0 01-1.628-5.739c0-.456.031-.913.092-1.366a6.542 6.542 0 01-2.208-2.037 6.002 6.002 0 01-1.035-3.072v-.017c0-1.562.68-3.043 1.734-4.134 1.056-1.09 2.496-1.803 4.04-1.803h.065a6.964 6.964 0 01.49-.018 6.39 6.39 0 012.292.409l.004.003h.004c.63.266 1.257.586 1.816 1.03.18-.095.378-.201.6-.286 3.385-2.005 7.32-2.778 11.155-3.001.034-1.9.267-3.888 1.193-5.629.773-1.446 2.111-2.572 3.706-2.961l.006-.003.008-.001a9.622 9.622 0 011.828-.172c1.62 0 3.222.384 4.72.982.664-1 1.61-1.781 2.722-2.22l.01-.006.01-.004a6.872 6.872 0 012.032-.322c.73 0 1.464.133 2.153.44v-.001c0 .002.002.002.002.002.005.002.009.004.013.004.988.38 1.823 1.083 2.416 1.956.592.878.941 1.928.941 3.008a5.168 5.168 0 01-.034.599l-.002.004-.001.01c-.116 1.395-.823 2.62-1.824 3.494-1.007.877-2.311 1.407-3.65 1.407-.215 0-.432-.012-.647-.04-1.328-.102-2.566-.744-3.475-1.7-.912-.954-1.5-2.23-1.5-3.605 0-.066.006-.134.008-.2-1.246-.555-2.57-1.017-3.885-1.015-.19 0-.38.01-.57.03h-.003c-.984.095-1.9.715-2.343 1.608v.003c-.673 1.312-.808 2.845-.829 4.367 3.776.246 7.573 1.152 10.903 3.067h.005l.048.027c.063.038.18.102.286.158.229-.185.47-.376.747-.541a6.148 6.148 0 013.403-1.007c.53 0 1.062.067 1.578.2h.002l.022.006c.007 0 .013.004.02.004a6.3 6.3 0 013.15 1.955c.83.945 1.388 2.14 1.497 3.439v.002zm-11.12-12.355c0 .051 0 .104.007.158v.008c.024.656.333 1.266.805 1.717.472.451 1.1.73 1.737.733h.016c.046.003.093.003.137.003.643.001 1.28-.276 1.76-.725.48-.451.797-1.066.822-1.727v-.007c.005-.05.007-.1.007-.15 0-.68-.318-1.33-.817-1.811-.496-.48-1.165-.777-1.824-.776-.212 0-.423.029-.63.093h-.005l-.007.003a2.785 2.785 0 00-1.418.92c-.367.444-.59.991-.59 1.56zm-27.865 10.12c-.505-.235-1.026-.404-1.542-.4a2.05 2.05 0 00-.26.014h-.013l-.012.002c-.74.02-1.488.343-2.05.86-.56.516-.932 1.213-.96 1.98v.008l-.001.006a2.298 2.298 0 00-.007.183c0 .473.145.931.392 1.347.181.31.42.594.691.84.866-1.895 2.218-3.504 3.762-4.84zm32.886 9.27c0-1.69-.61-3.387-1.597-4.753-1.967-2.737-5.019-4.523-8.194-5.518l-.022-.008a25.837 25.837 0 00-1.845-.494 25.505 25.505 0 00-5.658-.633 25.64 25.64 0 00-7.547 1.13c-3.174 1.008-6.236 2.781-8.2 5.528v.002c-.994 1.371-1.577 3.075-1.577 4.77 0 .624.078 1.247.243 1.855l.002.001c.357 1.363 1.056 2.58 1.96 3.64.905 1.061 2.014 1.967 3.18 2.706a21.985 21.985 0 00.784.462c3.388 1.89 7.29 2.72 11.164 2.72.655 0 1.314-.023 1.965-.07 3.902-.322 7.82-1.474 10.986-3.826v-.003c1.009-.745 1.943-1.647 2.681-2.673.741-1.026 1.285-2.174 1.526-3.42v-.005a6.707 6.707 0 00.148-1.412zm3.079-6.723a2.522 2.522 0 00-.3-1.2l-.005-.004-.002-.006a2.929 2.929 0 00-1.225-1.283 3.557 3.557 0 00-1.74-.442c-.55 0-1.1.124-1.587.368 1.549 1.345 2.908 2.962 3.787 4.865a3.172 3.172 0 00.704-.882c.235-.439.368-.93.368-1.416z" fill="#fff"/></svg>