<svg height="512" width="512" xmlns="http://www.w3.org/2000/svg"><rect height="512" rx="64" ry="64" width="512" fill="#ef4623"/><path d="M341.989 270.872a22.16 22.16 0 011.501 8.076c0 5.449-1.885 10.746-5.044 15.07-3.123 4.267-7.55 7.588-12.76 9.046h.012c-.044.019-.084.019-.114.03-.016 0-.051.017-.065.017a22.841 22.841 0 01-7.424 1.23c-5.817 0-11.526-2.1-16.096-5.672-4.527-3.557-7.958-8.669-9.035-14.738h-.012c0-.02 0-.033-.012-.059 0-.019 0-.033-.02-.062h.02a22.117 22.117 0 01-.514-4.67c0-5.251 1.789-10.3 4.74-14.46 2.946-4.145 7.094-7.434 11.945-9.127.016 0 .036-.005.036-.005.027 0 .027-.023.042-.023a24.565 24.565 0 018.514-1.522c5.226 0 10.375 1.582 14.718 4.477 4.285 2.852 7.766 7.029 9.515 12.23.015.027.015.062.03.089 0 .033.023.053.035.075h-.014zm-15.991 64.443c-2.052-1.329-4.421-2.14-6.929-2.14-2.02 0-4.123.578-5.987 1.821-17.673 10.551-38.464 16.33-59.097 16.33-15.488 0-30.878-3.27-44.82-10.122l-.071-.034-.07-.026c-2.097-.856-4.493-2.69-7.105-4.428-1.33-.855-2.718-1.713-4.255-2.342-1.52-.65-3.203-1.106-5.007-1.106-1.496 0-3.068.342-4.61 1.044-.08.028-.157.062-.236.086h.012a11.226 11.226 0 00-5.554 4.641c-1.28 2.078-1.906 4.49-1.906 6.896 0 2.169.517 4.34 1.573 6.31a11.361 11.361 0 004.593 4.594c19.932 13.447 43.395 19.532 66.955 19.508 21.24 0 42.606-4.92 61.632-13.87l.101-.055.095-.054c2.512-1.48 5.842-2.814 8.986-4.753 1.556-.993 3.073-2.14 4.377-3.626a13.694 13.694 0 002.94-5.472v-.012c.242-.951.363-1.883.363-2.807 0-1.77-.434-3.449-1.15-4.954-1.078-2.256-2.805-4.11-4.828-5.432zm-139.921-32.328a.36.36 0 01.122.03 22.587 22.587 0 007.757 1.39c6.478 0 12.769-2.651 17.535-6.976 4.76-4.332 8.016-10.474 8.016-17.46 0-.18 0-.365-.012-.583.015-.315.026-.653.026-1.004 0-6.936-3.208-13.092-7.923-17.442-4.73-4.362-11.007-7.026-17.512-7.026-1.732 0-3.507.204-5.235.605-.026 0-.04.007-.065.007h-.03c-8.602 1.802-16.152 8.184-18.941 16.975v.048a23.32 23.32 0 00-1.173 7.339c0 5.385 1.78 10.628 4.843 14.947 3.036 4.241 7.341 7.57 12.512 9.132.029 0 .048.012.085.025zm269.842-62.776v.038c.062.88.08 1.743.08 2.613 0 9.713-3.117 19.058-8.317 26.982-4.851 7.416-11.547 13.631-19.254 17.834.495 3.87.782 7.77.782 11.651-.012 20.92-7.226 41.485-19.784 57.967v.012h-.025c-23.222 30.886-58.885 49.101-94.89 58.291l-.031.022a249.312 249.312 0 01-58.792 7.046c-29.503 0-58.994-5.325-86.502-16.355l-.012-.028h-.026c-28.522-11.753-55.704-30.437-72.371-57.824-8.965-14.614-13.887-31.752-13.887-48.972 0-3.896.262-7.793.783-11.66a55.823 55.823 0 01-18.84-17.378c-5.154-7.691-8.419-16.692-8.833-26.213v-.148c0-13.333 5.797-25.964 14.797-35.276 9.007-9.31 21.296-15.39 34.481-15.39h.546a59.424 59.424 0 014.179-.154c6.62 0 13.261 1.077 19.562 3.493l.036.028.037.006c5.38 2.264 10.727 4.998 15.493 8.785 1.547-.81 3.229-1.718 5.125-2.437 28.885-17.11 62.46-23.71 95.188-25.614.289-16.209 2.274-33.178 10.183-48.032 6.59-12.344 18.011-21.945 31.624-25.272l.051-.027.071-.007c5.18-1.002 10.406-1.464 15.6-1.464 13.826 0 27.493 3.276 40.277 8.38 5.66-8.541 13.74-15.202 23.22-18.943l.086-.051.086-.033c5.565-1.731 11.44-2.748 17.343-2.748 6.226 0 12.493 1.135 18.37 3.76v-.017c.011.017.015.017.015.017.046.02.08.038.116.038 8.43 3.249 15.556 9.243 20.61 16.696 5.057 7.485 8.035 16.45 8.035 25.667a44.1 44.1 0 01-.294 5.106l-.018.033c0 .025 0 .058-.012.091-.99 11.903-7.024 22.362-15.565 29.813-8.595 7.485-19.723 12.007-31.145 12.007-1.833 0-3.684-.104-5.524-.343-11.328-.87-21.89-6.352-29.653-14.506-7.783-8.14-12.8-19.022-12.8-30.76 0-.57.05-1.15.065-1.717-10.632-4.732-21.928-8.667-33.152-8.654-1.622 0-3.245.09-4.867.253h-.02c-8.4.81-16.212 6.101-19.998 13.726v.027c-5.745 11.193-6.892 24.277-7.07 37.261 32.217 2.1 64.62 9.83 93.04 26.171h.046l.404.237c.54.321 1.535.868 2.44 1.346 1.956-1.583 4.019-3.21 6.374-4.618 8.62-5.738 18.829-8.59 29.038-8.59 4.527 0 9.07.573 13.473 1.706h.015l.183.053c.06.005.11.03.166.03v.005c10.402 2.644 19.81 8.62 26.89 16.672 7.076 8.068 11.84 18.272 12.77 29.349v.021zm-94.885-105.424c0 .436 0 .888.051 1.343v.072c.207 5.596 2.845 10.808 6.868 14.656 4.034 3.85 9.39 6.23 14.823 6.256h.14c.39.027.79.027 1.173.027 5.483.01 10.926-2.359 15.018-6.19 4.094-3.851 6.798-9.099 7.01-14.739l.012-.025v-.035c.036-.432.05-.845.05-1.282 0-5.803-2.714-11.343-6.969-15.45-4.235-4.1-9.94-6.634-15.565-6.624-1.814 0-3.608.25-5.37.798l-.052.005-.057.02c-4.632 1.21-8.974 4.064-12.098 7.86-3.133 3.78-5.033 8.453-5.033 13.308zm-237.789 86.35c-4.304-2.004-8.757-3.44-13.159-3.414-.738 0-1.486.034-2.224.121h-.106l-.101.016c-6.321.173-12.698 2.93-17.485 7.347-4.79 4.4-7.96 10.348-8.202 16.897v.056l-.012.054c-.041.53-.06 1.06-.06 1.564 0 4.038 1.243 7.945 3.345 11.493 1.551 2.649 3.593 5.067 5.903 7.17 7.383-16.175 18.92-29.898 32.1-41.304zm280.628 79.101c0-14.414-5.199-28.894-13.626-40.548-16.787-23.362-42.827-38.598-69.92-47.09l-.19-.066a220.48 220.48 0 00-15.747-4.216c-15.833-3.606-32.065-5.405-48.283-5.405-21.775 0-43.545 3.22-64.396 9.65-27.088 8.6-53.216 23.73-69.967 47.167v.013c-8.49 11.704-13.468 26.238-13.468 40.7 0 5.328.672 10.649 2.078 15.837l.015.012c3.047 11.628 9.009 22.01 16.727 31.055 7.722 9.062 17.181 16.793 27.137 23.098a187.604 187.604 0 006.686 3.94c28.91 16.135 62.214 23.212 95.269 23.212 5.59 0 11.214-.194 16.767-.598 33.293-2.747 66.722-12.579 93.744-32.65l.012-.026c8.6-6.355 16.57-14.052 22.872-22.81 6.325-8.754 10.965-18.55 13.023-29.183v-.042a57.233 57.233 0 001.264-12.049zm26.274-57.364c-.012-3.501-.81-6.983-2.561-10.236l-.042-.033-.02-.054c-2.34-4.827-6.024-8.47-10.455-10.953-4.439-2.503-9.627-3.771-14.839-3.771-4.706 0-9.395 1.057-13.549 3.143 13.22 11.478 24.819 25.272 32.319 41.511a27.068 27.068 0 006.003-7.523c2.005-3.743 3.144-7.939 3.144-12.084z" fill="#fff"/></svg>