<svg xmlns="http://www.w3.org/2000/svg" height="32" width="32"><rect height="32" rx="4" ry="4" width="32" fill="#ef4623"/><path d="M21.374 16.93a1.385 1.385 0 01.094.504c0 .34-.118.672-.315.942a1.495 1.495 0 01-.798.565l-.006.002-.004.002a1.428 1.428 0 01-.464.076 1.648 1.648 0 01-1.006-.354 1.513 1.513 0 01-.566-.92v-.005l-.001-.003a1.382 1.382 0 01-.031-.293c0-.328.112-.643.296-.903a1.553 1.553 0 01.746-.57h.003l.002-.002a1.535 1.535 0 01.533-.096 1.664 1.664 0 01.919.28c.268.178.485.44.595.764l.002.006.002.005h-.001zm-1 4.027a.797.797 0 00-.432-.134.679.679 0 00-.375.114 7.275 7.275 0 01-3.693 1.02c-.968 0-1.93-.203-2.8-.632l-.005-.002-.005-.001c-.13-.054-.28-.168-.444-.278a1.653 1.653 0 00-.266-.146.795.795 0 00-.312-.07.697.697 0 00-.288.066l-.015.006a.702.702 0 00-.347.29.834.834 0 00-.02.825.71.71 0 00.286.287c1.246.84 2.712 1.221 4.185 1.22a9.127 9.127 0 003.852-.867l.006-.003.006-.003c.157-.093.365-.176.562-.298a1.27 1.27 0 00.273-.226.856.856 0 00.184-.342.697.697 0 00-.05-.486.845.845 0 00-.301-.34zm-8.744-2.02a.022.022 0 01.007.002 1.412 1.412 0 00.486.087c.404 0 .798-.166 1.095-.436a1.48 1.48 0 00.502-1.091c0-.012 0-.023-.002-.037a1.168 1.168 0 00.002-.063c0-.433-.2-.818-.495-1.09a1.63 1.63 0 00-1.094-.44c-.109 0-.22.014-.328.039h-.006a1.592 1.592 0 00-1.184 1.062v.002a1.458 1.458 0 00-.073.459c0 .336.111.664.303.934a1.5 1.5 0 00.787.573zm16.865-3.924v.002a3.084 3.084 0 01-.515 1.85 3.389 3.389 0 01-1.203 1.115c.03.241.049.485.049.728a6.026 6.026 0 01-1.237 3.623h-.002c-1.451 1.93-3.68 3.069-5.93 3.643l-.003.002a15.582 15.582 0 01-3.674.44 14.52 14.52 0 01-5.406-1.022v-.002h-.002c-1.783-.734-3.482-1.902-4.523-3.613a5.892 5.892 0 01-.869-3.061c0-.243.017-.487.05-.729a3.49 3.49 0 01-1.178-1.086 3.201 3.201 0 01-.552-1.639v-.009c0-.833.362-1.623.925-2.204.563-.582 1.33-.962 2.154-.962h.035a3.714 3.714 0 01.261-.01 3.408 3.408 0 011.223.219l.002.001h.002a4.1 4.1 0 01.968.55c.096-.051.202-.108.32-.153 1.806-1.07 3.904-1.482 5.95-1.6.018-1.014.142-2.074.636-3.003.412-.77 1.126-1.371 1.977-1.579l.003-.002h.004a5.132 5.132 0 01.975-.092c.864 0 1.718.205 2.517.524.354-.533.859-.95 1.452-1.184l.005-.003.006-.002a3.665 3.665 0 011.083-.172c.39 0 .781.07 1.149.235l.008.002c.527.203.972.578 1.288 1.043.316.469.502 1.029.502 1.605a2.756 2.756 0 01-.018.32l-.001.001v.006c-.063.744-.44 1.397-.973 1.863a2.995 2.995 0 01-1.947.75 2.85 2.85 0 01-.345-.02c-.708-.055-1.369-.398-1.854-.908-.486-.508-.8-1.189-.8-1.922 0-.035.004-.072.005-.107-.665-.296-1.37-.542-2.072-.541a2.8 2.8 0 00-.304.016h-.002a1.586 1.586 0 00-1.25.857v.002c-.358.7-.43 1.517-.442 2.33 2.014.13 4.04.614 5.815 1.635h.003l.026.014c.033.02.096.055.152.085.122-.1.25-.201.399-.289a3.279 3.279 0 011.814-.537c.283 0 .567.036.842.107h.001l.012.003.01.002a3.36 3.36 0 011.68 1.043c.443.504.74 1.14.799 1.834zm-5.93-6.589c0 .027 0 .055.003.084v.005c.013.35.178.675.43.915.251.24.586.39.926.391h.008c.025.002.05.002.073.002.343 0 .683-.147.939-.387.256-.24.425-.568.438-.92v-.005a.793.793 0 00.004-.08c0-.362-.17-.709-.436-.965a1.43 1.43 0 00-.972-.414 1.1 1.1 0 00-.336.05h-.007a1.485 1.485 0 00-.756.492 1.315 1.315 0 00-.315.832zM7.702 13.821c-.27-.125-.547-.215-.822-.213a1.093 1.093 0 00-.14.007h-.006l-.006.002a1.72 1.72 0 00-1.094.458 1.522 1.522 0 00-.512 1.056v.008a1.226 1.226 0 00-.004.097c0 .253.077.497.21.719.096.165.223.317.368.448.461-1.01 1.183-1.869 2.006-2.582zm17.54 4.944c0-.901-.326-1.806-.853-2.535-1.049-1.46-2.676-2.412-4.37-2.943l-.011-.004a13.78 13.78 0 00-.984-.263 13.603 13.603 0 00-3.018-.338 13.675 13.675 0 00-4.025.603c-1.693.537-3.326 1.483-4.373 2.948v.001a4.397 4.397 0 00-.842 2.544c0 .333.042.665.13.99h.001c.19.727.563 1.376 1.046 1.941a7.521 7.521 0 001.696 1.444 11.725 11.725 0 00.418.246c1.807 1.008 3.888 1.45 5.954 1.45.35 0 .7-.012 1.048-.037 2.08-.171 4.17-.786 5.859-2.04v-.002a6.567 6.567 0 001.43-1.425 4.62 4.62 0 00.814-1.824v-.003a3.577 3.577 0 00.079-.753zm1.641-3.585a1.345 1.345 0 00-.16-.64l-.002-.002-.002-.004a1.562 1.562 0 00-.653-.684 1.897 1.897 0 00-.928-.236 1.9 1.9 0 00-.846.197c.826.717 1.55 1.58 2.02 2.594a1.692 1.692 0 00.375-.47c.125-.234.196-.496.196-.755z" fill="#fff"/></svg>