<svg xmlns="http://www.w3.org/2000/svg" height="60" width="60"><rect height="60" rx="7.5" ry="7.5" width="60" fill="#00abf1"/><path d="M53.438 15.462a19.216 19.216 0 01-5.523 1.514 9.652 9.652 0 004.228-5.32 19.26 19.26 0 01-6.108 2.333 9.6 9.6 0 00-7.019-3.036c-5.311 0-9.618 4.306-9.618 9.617 0 .753.086 1.487.25 2.192-7.993-.403-15.079-4.23-19.822-10.05a9.57 9.57 0 00-1.302 4.836 9.61 9.61 0 004.278 8.004 9.59 9.59 0 01-4.356-1.202v.12c0 4.66 3.315 8.546 7.714 9.431a9.681 9.681 0 01-2.533.337c-.62 0-1.223-.062-1.81-.173a9.627 9.627 0 008.983 6.679A19.29 19.29 0 018.856 44.86c-.775 0-1.54-.046-2.294-.136a27.217 27.217 0 0014.743 4.322c17.689 0 27.362-14.654 27.362-27.362 0-.418-.01-.832-.027-1.245a19.55 19.55 0 004.798-4.978z" fill="#fff"/></svg>