<svg height="512" width="512" xmlns="http://www.w3.org/2000/svg"><rect height="512" rx="64" ry="64" width="512" fill="#00abf1"/><path d="M456 131.941c-14.717 6.531-30.527 10.938-47.128 12.924 16.936-10.156 29.95-26.243 36.08-45.397a164.35 164.35 0 01-52.12 19.908c-14.96-15.952-36.296-25.914-59.893-25.914-45.325 0-82.072 36.747-82.072 82.067 0 6.43.728 12.69 2.13 18.704-68.208-3.432-128.671-36.095-169.148-85.753-7.065 12.12-11.11 26.213-11.11 41.262 0 28.472 14.482 53.586 36.504 68.303a81.832 81.832 0 01-37.17-10.261c-.004.337-.004.683-.004 1.03 0 39.758 28.29 72.924 65.827 80.476a82.612 82.612 0 01-21.615 2.875c-5.295 0-10.431-.53-15.437-1.477 10.44 32.597 40.75 56.327 76.653 56.99-28.078 22.014-63.465 35.135-101.923 35.135-6.618 0-13.15-.39-19.574-1.157 36.326 23.294 79.46 36.882 125.803 36.882 150.943 0 233.49-125.048 233.49-233.491 0-3.566-.082-7.103-.233-10.625a166.833 166.833 0 0040.94-42.48z" fill="#fff"/></svg>