<svg xmlns="http://www.w3.org/2000/svg" height="32" width="32"><rect height="32" rx="4" ry="4" width="32" fill="#00abf1"/><path d="M28.5 8.246a10.249 10.249 0 01-2.945.808 5.148 5.148 0 002.255-2.837 10.272 10.272 0 01-3.258 1.244 5.12 5.12 0 00-3.743-1.62 5.13 5.13 0 00-4.997 6.299A14.562 14.562 0 015.241 6.78a5.104 5.104 0 00-.695 2.579 5.125 5.125 0 002.282 4.269 5.115 5.115 0 01-2.323-.641v.064a5.133 5.133 0 004.114 5.03 5.163 5.163 0 01-1.351.18c-.33 0-.653-.034-.966-.093a5.134 5.134 0 004.791 3.562 10.288 10.288 0 01-6.37 2.195c-.413 0-.821-.024-1.223-.072a14.516 14.516 0 007.863 2.305c9.434 0 14.593-7.816 14.593-14.593 0-.223-.006-.444-.015-.664a10.427 10.427 0 002.56-2.655z" fill="#fff"/></svg>