<svg height="512" width="512" xmlns="http://www.w3.org/2000/svg"><rect height="512" rx="64" ry="64" width="512" fill="#2984b8"/><path d="M56.003 256.108c-.633-110.142 90.73-200.88 201.472-200.179C366.321 56.632 456.07 146.56 456 256.25c-.036 110.04-90.348 199.888-200.81 199.826-109.476-.07-199.187-90.14-199.187-199.967zM176.3 416.848l.35-.034v-.35c-.63-2.005-1.159-4.041-1.86-6.008-27.033-74.05-54.036-148.105-81.105-222.155-.46-1.264-.565-3.37-1.967-3.471-1.826-.105-1.862 2.137-2.425 3.47-10.428 25.314-14.818 51.794-12.852 79.036C80.163 319.23 102.28 362 142.275 395.323c10.355 8.64 21.45 16.261 34.024 21.526zm169.659-54.177c.455-1.05.912-1.753 1.123-2.526 8.991-29.985 18.12-59.901 26.757-89.986 6.14-21.357 4.032-42.244-5.655-62.293-3.518-7.231-7.798-13.975-11.94-20.826-4.741-7.827-9.055-15.834-10.78-24.998-3.722-19.344 8.354-36.13 27.772-38.694.81-.104 1.722.035 2.282-.883 0-1.33-1.122-1.858-1.966-2.522-40.306-34.09-86.867-48.315-139.183-42.485-38.585 4.318-72.122 20.363-100.738 46.56-9.55 8.777-17.941 18.605-25.347 29.248-.632.875-1.688 1.821-1.233 2.948.565 1.466 2.178.913 3.374.945 3.37.104 6.705.052 10.11.104 14.466.214 28.866-1.364 43.297-1.892 5.582-.174 8.668 2.144 9.057 6.6.388 4.182-2.563 7.268-7.9 8.008-4.319.595-8.639.947-12.99 1.333-6.148.56-6.215.56-4.216 6.495 20.435 60.812 40.871 121.597 61.306 182.409.493 1.37.533 3.057 2.18 3.894 1.23-.81 1.435-2.106 1.823-3.263 12.148-36.342 24.262-72.715 36.374-109.06.638-1.893 1.018-3.717.287-5.719a17428.182 17428.182 0 01-25.982-71.209c-.917-2.523-2.497-3.299-5.057-3.476a208.457 208.457 0 01-15.486-1.652c-4.111-.632-6.53-3.9-6.142-7.689.416-4.076 3.05-6.46 7.298-6.673.983-.07 1.966 0 2.949.07 19.633 1.153 39.256 2.39 58.917 1.687 11.203-.426 22.4-1.264 33.603-1.727 4.742-.207 7.517 2.249 7.934 6.323.424 4.178-2.104 7.376-6.77 8.075-4.6.666-9.201 1.056-13.8 1.479-6.494.63-6.53.593-4.498 6.636 20.228 60.11 40.456 120.25 60.711 180.369.46 1.412.597 3.095 2.529 4.39zm-86.41-89.467c-2.076 1.793-2.249 3.553-2.815 5.094-4.456 12.85-8.846 25.768-13.268 38.62-12.184 35.432-24.366 70.858-36.625 106.282-1.155 3.34-1.65 5.551 2.949 6.71 34.062 8.636 67.765 7.827 101.298-2.706 3.372-1.086 3.93-2.453 2.739-5.753-16.359-44.524-32.585-89.112-48.843-133.64-1.712-4.736-3.505-9.41-5.434-14.607zM347.47 409.79c24.117-5.828 66.394-57.51 79.139-97.292 15.484-48.242 11.344-94.974-11.483-140.444-1.192.985-1.02 1.713-.948 2.383 2.46 22.93-1.263 45.052-8.74 66.645-18.786 54.245-37.678 108.457-56.5 162.671-.664 1.936-1.747 3.795-1.468 6.037z" fill="#fff"/></svg>