<svg xmlns="http://www.w3.org/2000/svg" width="930" height="676.29" version="1.0"><path d="M767.639 656.714c-19.707-13.292-30.064-34.782-31.988-66.369-1.433-23.538.92-41.277 11.044-83.251 9.042-37.487 10.25-44.99 10.827-67.2l.5-19.308-2.798-5.141c-1.539-2.828-3.066-5.112-3.394-5.076-1.016.111-13.343 14.737-20.833 24.716-16.333 21.76-25.602 43.224-27.29 63.192l-.653 7.726-5.27 1.094c-10.617 2.204-10.87 2.131-12.368-3.532-2-7.568-1.055-26.472 1.739-34.784 3.79-11.273 12.295-27.063 24.453-45.394 13.496-20.351 22.295-36.422 25.535-46.641 2.652-8.364 2.97-8.558 15.552-9.45l8.732-.62 3.122 7.95c7.435 18.936 10.172 32.252 11.062 53.826 1.018 24.646-1.582 46.649-11.853 100.319-8.903 46.517-8.794 45.453-6.148 59.92 4.57 24.986 10.854 39.459 22.644 52.155 2.841 3.06 2.93 3.438 2.22 9.578-.406 3.516-1.125 7.413-1.597 8.66-1.35 3.57-5.546 2.82-13.238-2.37zm-90.382-99.953l-4.41-.392.543-4.04c.831-6.201 4.815-11.355 11.185-14.472 4.94-2.417 7.237-2.8 21.476-3.59 8.77-.485 17.646-.9 19.725-.92l3.781-.04v9.56c0 11.298 2.893 9.732-23.254 12.592-18.386 2.01-20.178 2.09-29.046 1.302zm91.016-12.91c-.834-3.322.235-9.928 2.232-13.789 2.39-4.622 9.146-11.533 17.53-17.932 8.64-6.596 16.138-14.29 18.641-19.13 5.39-10.424 9.041-44.897 6.653-62.815-3.253-24.407-15.884-51.579-32.354-69.6-2.771-3.032-5.04-5.96-5.04-6.507 0-.547 4.84-5.475 10.754-10.95 7.58-7.018 10.894-9.508 11.233-8.442 1.335 4.197 18.16 35.586 21.94 40.929 8.178 11.56 19.032 19.8 29.692 22.539 2.486.639 6.23 1.819 8.321 2.623 5.503 2.115 13.06 1.804 25.746-1.06 18.98-4.284 25.021-3.067 29.371 5.919 3.607 7.45 2.884 8.766-6.562 11.935-16.564 5.557-38.39 5.797-60.265.662-6.739-1.582-9.202-1.809-10.083-.93-1.322 1.321-1.394 10.011-.2 24.256.671 7.99.441 11.47-1.386 20.999-5.554 28.962-16.406 50.159-34.208 66.815-7.022 6.57-9.575 8.303-14.19 9.632-3.093.891-8.225 2.925-11.402 4.52l-5.777 2.898-.646-2.572zm-57.102-177.905c-1.517-.457-4.353-1.816-6.301-3.02-2.908-1.797-3.543-2.794-3.543-5.557v-3.366l6.805-.666c17.001-1.665 30.729-7.279 44.25-18.097 14.424-11.54 26.917-28.176 47.247-62.91 6.543-11.178 10.67-17.237 11.757-17.26 2.038-.042 6.668 5.26 7.505 8.596 1.349 5.375-6.398 31.26-13.792 46.085-14.283 28.632-38.258 48.118-67.98 55.25-8.27 1.983-20.962 2.446-25.948.945zm-502.366-14.112l-163.333-.512-3.284-2.342c-4.13-2.946-10.436-15.756-13.241-26.897-4.841-19.229-7.646-40.277-9.202-69.064-.585-10.813-2.007-34.179-3.16-51.924-2.29-35.227-2.126-57.275.674-90.236 4.225-49.742 11.904-79.575 22.225-86.337 2.839-1.86 32.603-3.671 129.204-7.862 90.87-3.942 189.046-.7 244.234 8.062 12.446 1.977 14.733 3.726 20.709 15.841 6.04 12.245 9.501 26.164 10.402 41.826.98 17.04.58 21.072-2.168 21.81-3.513.942-14.752.695-16.739-.369-2.872-1.537-4.932-8.065-6.606-20.927-3.55-27.287-8.372-33.703-28.996-38.576-23.038-5.444-58.072-7.476-127.787-7.413-67.75.061-120.08 2.146-172.585 6.876-12.975 1.17-16.683 1.869-20.71 3.91-10.431 5.286-18.224 17.636-23 36.449-3.658 14.415-4.397 23.88-5.481 70.153-1.559 66.529.973 98.745 10.47 133.203 5.739 20.824 10.508 27.893 22.895 33.935 13.773 6.718 8.38 6.479 145.057 6.437 118.464-.036 157.582-.778 172.956-3.28 14.307-2.329 22.507-17.167 27.215-49.245 2.196-14.964 2.459-15.868 5.377-18.475 5.917-5.287 13.672-4.651 16.971 1.392 2.965 5.43 2.345 22.99-1.452 41.129-4.896 23.387-9.382 39.22-11.994 42.323-5.097 6.057-20.125 9.676-42.714 10.286-6.932.187-86.103.11-175.937-.173zm459.754-16.549c-6.57-1.623-10.52-3.753-15.268-8.232l-3.87-3.65 2.36-1.911c3.653-2.958 11.544-4.94 25.852-6.491 7.209-.782 15.149-2.084 17.644-2.894 27.424-8.906 44.524-19.866 66.69-42.745 10.848-11.197 33.177-38.89 34.83-43.198.335-.874 2.15-1.375 4.976-1.375 5.201 0 5.192-.6.21 14.586-11.25 34.29-34.463 62.668-67.629 82.677-7.458 4.5-8.87 4.931-31.653 9.68-25.636 5.343-26.524 5.436-34.142 3.553zm-487.123-21.25c.972-2.53 37.967-53.885 46.196-64.126 16.944-21.085 41.699-47.043 51.061-53.544 6.968-4.837 19.286-8.814 31.321-10.111 14.334-1.545 132.179-1.49 223.442.106 77.425 1.354 75.303 1.175 97.393 8.173 6.84 2.167 12.63 3.748 12.864 3.514.234-.234-.812-2.048-2.324-4.03-3.557-4.664-11.46-9.852-19.723-12.948-13.802-5.172-18.48-5.492-97.284-6.657-71.06-1.05-103.025-1.804-188.035-4.435l-39.826-1.233-5.911-2.948c-10.414-5.194-18.737-14.35-59.8-65.793-21.806-27.32-39.649-49.916-39.649-50.214 0-1.015 22.68.835 24.12 1.968.788.62 11.382 14.437 23.54 30.704 26.187 35.033 34.006 44.517 46.052 55.856 11.928 11.229 16.114 13.993 23.564 15.56 14.357 3.022 53.391 3.728 140.665 2.545 101.178-1.372 135.091-.642 150.897 3.245 12.622 3.105 28.12 8.487 37.806 13.129 4.088 1.959 7.61 3.385 7.825 3.17.94-.942-3.007-6.566-7.67-10.928-14.627-13.681-36.41-22.205-63.67-24.912-10.922-1.085-73.586-1.585-114.435-.914-12.754.21-38.162.37-56.461.358-29.889-.021-34.535-.251-45.693-2.26-14.78-2.66-31.305-7.964-41.029-13.169-5.83-3.12-7.427-4.546-9.271-8.274-5.305-10.725-5.863-39.927-1.207-63.234l1.057-5.293h7.994c4.397 0 8.067.113 8.155.252.088.139.447 11.368.797 24.954.698 27.04 1.034 28.72 7.132 35.665 4.446 5.063 7.245 6.34 16.67 7.607 19.962 2.683 35.253 3.123 107.977 3.106 44.88-.01 81.951.419 89.228 1.034 34.131 2.885 61.444 9.703 85.223 21.272 11.53 5.61 12.815 6.543 21.038 15.276 15.47 16.43 30.451 38.388 39.02 57.192l3.904 8.57-.365-6.143c-.814-13.702-20.991-47.104-52.574-87.034-5.885-7.44-10.7-13.88-10.7-14.31 0-1.45 4.46-3.922 7.076-3.922 4.606 0 16.482 8.016 21.88 14.769 27.54 34.452 44.745 62.511 52.764 86.054 1.795 5.268 4.333 10.703 5.64 12.077l2.377 2.5 3.05-3.05 3.05-3.05-2.61-9.028c-5.824-20.16-12.178-32.627-36.671-71.951-18.69-30.005-18.806-30.338-10.642-30.338 3.534 0 5.687.924 11.723 5.031 4.067 2.768 8.114 5.603 8.994 6.302 2.577 2.046 22.771 36.288 29.777 50.49 3.54 7.178 8.063 18.322 10.052 24.765 5.271 17.079 5.289 17.098 11.026 12.06 3.672-3.224 3.734-3.398 3.147-8.874-1.368-12.773-8.709-35.697-17.413-54.381-2.427-5.21-4.413-10.08-4.413-10.823 0-.742 1.314-2.82 2.92-4.616 2.81-3.146 3.026-3.212 5.797-1.78 4.687 2.422 12.727 11.21 16.154 17.658 1.756 3.306 5.792 14.743 8.967 25.418 3.176 10.675 6.137 19.409 6.58 19.409.443 0 2.306-1.884 4.14-4.186 8.46-10.622 11.529-12.1 15.76-7.596 2.737 2.913 2.784 6.723.176 14.302-2.694 7.832-2.59 10.002.552 11.433 1.412.644 3.227 1.17 4.033 1.17 1.98 0 1.842 2.62-.499 9.424-6.925 20.128-21.857 37.886-45.423 54.02-22.387 15.326-51.432 24.906-78.977 26.048-13.664.567-21.614-1.019-28.4-5.665-5.215-3.57-5.402-6.703-.593-9.943 5.252-3.54 12.195-5.193 26.69-6.357 45.013-3.614 79.077-19.97 103.803-49.846 3.88-4.689 3.968-4.92 1.17-3.083-30.705 20.147-64.16 34.857-89.508 39.354-7.604 1.35-13.25 1.631-24.702 1.235-15.728-.544-25.118-2.433-35.986-7.24-6.01-2.657-6.777-4.035-6.336-11.38l.256-4.268-82.675-.509c-45.471-.28-93.318-.506-106.326-.505-30.084.005-59.34 1.94-84.23 5.571-11.748 1.714-13.804 3.244-17.732 13.192-2.647 6.701-3.166 19.682-1.535 38.387 1.016 11.646-.22 18.504-3.786 21.001-1.298.91-4.518 1.47-8.451 1.47-7.552 0-7.55.004-9.225-13.663-2.455-20.018-.94-41.778 3.926-56.402 1.952-5.865 2.787-7 7.782-10.577 10.528-7.539 28.116-12.576 52.703-15.093 6.025-.617 31.185-1.062 58.478-1.035 26.346.027 73.536-.247 104.867-.61 36.476-.42 67.088-.25 85.108.474 15.478.623 28.337.937 28.576.698 1.004-1.004-10.784-6.667-17.834-8.568-13.881-3.744-20.243-4.142-81.23-5.078a32130.14 32130.14 0 01-119.98-2.112c-90.38-1.797-98.624-1.769-106.369.359-13.684 3.76-25.653 9.519-35.792 17.223-10.244 7.785-22.056 21.05-50.154 56.323l-30.32 38.06h-10.534c-8.892 0-10.446-.232-9.962-1.493z"/></svg>