<svg xmlns="http://www.w3.org/2000/svg" xmlns:xlink="http://www.w3.org/1999/xlink" width="600" height="400" viewBox="0 0 450 300"><defs><symbol overflow="visible" id="a"><path d="M5.39-6.094c.583 0 1-.11 1.25-.328.258-.219.391-.578.391-1.078 0-.5-.133-.852-.39-1.063-.25-.218-.668-.328-1.25-.328H4.203v2.797zM4.204-4.14V0H1.375v-10.938h4.313c1.437 0 2.488.247 3.156.735.676.48 1.015 1.242 1.015 2.281 0 .73-.18 1.328-.53 1.797-.345.46-.872.797-1.579 1.016.383.086.727.28 1.031.593.313.313.625.782.938 1.407L11.25 0h-3L6.922-2.719c-.274-.539-.547-.91-.828-1.11C5.82-4.034 5.457-4.14 5-4.14zm0 0"/></symbol><symbol overflow="visible" id="b"><path d="M9.453-4.125v.75h-6.14c.062.617.285 1.078.671 1.39.383.305.914.454 1.594.454a6.41 6.41 0 001.688-.235 8.726 8.726 0 001.796-.75V-.5a10.21 10.21 0 01-1.874.531A9.258 9.258 0 015.343.22C3.851.22 2.694-.155 1.874-.905 1.051-1.664.641-2.726.641-4.094c0-1.332.398-2.383 1.203-3.156.812-.77 1.926-1.156 3.343-1.156 1.29 0 2.32.39 3.094 1.172.781.773 1.172 1.808 1.172 3.109zM6.75-5c0-.5-.148-.898-.438-1.203-.292-.3-.671-.453-1.14-.453-.5 0-.914.148-1.234.437-.313.282-.512.688-.594 1.219zm0 0"/></symbol><symbol overflow="visible" id="c"><path d="M1.266-11.39h2.609V0h-2.61zm0 0"/></symbol><symbol overflow="visible" id="d"><path d="M4.938-3.688c-.555 0-.97.094-1.25.282-.274.18-.407.449-.407.812 0 .336.11.594.328.781.227.188.54.282.938.282.488 0 .898-.176 1.234-.532.344-.351.516-.796.516-1.328v-.296zm4-1V0H6.296v-1.219c-.356.5-.75.867-1.188 1.094-.437.227-.968.344-1.593.344-.856 0-1.547-.25-2.079-.75-.53-.5-.796-1.145-.796-1.938 0-.957.328-1.66.984-2.11.664-.444 1.707-.671 3.125-.671h1.547v-.203c0-.414-.168-.719-.5-.906-.324-.196-.828-.297-1.516-.297a6.98 6.98 0 00-1.578.172 5.04 5.04 0 00-1.344.5v-2a17.05 17.05 0 011.688-.313 14 14 0 011.703-.11c1.477 0 2.547.294 3.203.876.656.586.984 1.531.984 2.843zm0 0"/></symbol><symbol overflow="visible" id="e"><path d="M4.125-10.531v2.328h2.703v1.875H4.125v3.484c0 .375.07.633.219.766.156.137.457.203.906.203h1.344V0h-2.25C3.312 0 2.578-.21 2.14-.64c-.43-.439-.64-1.173-.64-2.205v-3.484H.203v-1.875H1.5v-2.328zm0 0"/></symbol><symbol overflow="visible" id="f"><path d="M1.266-8.203h2.609V0h-2.61zm0-3.188h2.609v2.125h-2.61zm0 0"/></symbol><symbol overflow="visible" id="g"><path d="M.234-8.203h2.61L4.89-2.531l2.03-5.672h2.641L6.329 0H3.453zm0 0"/></symbol><symbol overflow="visible" id="h"><path d="M1.375-10.938h4.688c1.382 0 2.445.313 3.187.938.75.617 1.125 1.492 1.125 2.625 0 1.156-.375 2.043-1.125 2.656-.742.617-1.805.922-3.188.922H4.204V0H1.375zM4.203-8.89v3.047H5.75c.55 0 .973-.129 1.266-.39.3-.27.453-.649.453-1.141 0-.477-.153-.848-.453-1.11-.293-.269-.715-.406-1.266-.406zm0 0"/></symbol><symbol overflow="visible" id="i"><path d="M5.156-6.531c-.574 0-1.015.21-1.328.625-.305.418-.453 1.023-.453 1.812 0 .782.148 1.387.453 1.813.313.418.754.625 1.328.625.57 0 1.008-.207 1.313-.625.3-.426.453-1.031.453-1.813 0-.789-.152-1.394-.453-1.812-.305-.414-.742-.625-1.313-.625zm0-1.875c1.414 0 2.52.386 3.313 1.156.789.762 1.187 1.813 1.187 3.156 0 1.344-.398 2.403-1.187 3.172C7.676-.16 6.57.218 5.156.218 3.75.219 2.645-.16 1.844-.921 1.039-1.692.64-2.75.64-4.094c0-1.343.398-2.394 1.203-3.156.8-.77 1.906-1.156 3.312-1.156zm0 0"/></symbol><symbol overflow="visible" id="j"><path d="M3.875-1.188v4.313h-2.61V-8.203h2.61V-7c.363-.477.766-.832 1.203-1.063a3.304 3.304 0 011.516-.343c1.008 0 1.836.406 2.484 1.219.656.804.985 1.835.985 3.093 0 1.262-.329 2.297-.985 3.11C8.43-.18 7.602.219 6.594.219c-.563 0-1.07-.117-1.516-.344-.437-.227-.84-.582-1.203-1.063zM5.625-6.5c-.563 0-.996.21-1.297.625-.305.406-.453 1-.453 1.781 0 .774.148 1.367.453 1.782.3.417.734.624 1.297.624s.988-.203 1.281-.609c.301-.414.453-1.015.453-1.797 0-.781-.152-1.375-.453-1.781-.293-.414-.718-.625-1.281-.625zm0 0"/></symbol><symbol overflow="visible" id="k"><path d="M1.172-3.188v-5.015h2.64v.812c0 .45-.007 1.012-.015 1.688v1.344c0 .656.015 1.132.047 1.421.031.293.086.5.172.626.113.18.254.312.421.406.176.093.38.14.61.14.539 0 .969-.207 1.281-.625.313-.425.469-1.015.469-1.765v-4.047h2.625V0H6.797v-1.188c-.399.481-.82.836-1.266 1.063a3.115 3.115 0 01-1.453.344c-.95 0-1.672-.29-2.172-.875-.492-.582-.734-1.426-.734-2.531zm0 0"/></symbol><symbol overflow="visible" id="l"><path d="M9.5-5v5H6.875v-3.828c0-.707-.016-1.192-.047-1.453-.031-.27-.09-.469-.172-.594a1.08 1.08 0 00-.422-.406 1.202 1.202 0 00-.593-.14c-.555 0-.985.214-1.297.64-.313.418-.469 1-.469 1.75V0h-2.61v-8.203h2.61V-7c.395-.477.816-.832 1.266-1.063a3.202 3.202 0 011.468-.343c.946 0 1.664.293 2.157.875.488.586.734 1.43.734 2.531zm0 0"/></symbol><symbol overflow="visible" id="m"><path d="M.984-7.297h1.47l1.858 4.969 1.875-4.969h1.47V0h-.97v-6.406l-1.875 5h-1l-1.874-5V0H.984zm0 0"/></symbol><symbol overflow="visible" id="n"><path d="M5.625-2.953v.437h-4.14c.038.618.226 1.086.562 1.407.332.324.797.484 1.39.484.344 0 .676-.04 1-.125a4.14 4.14 0 00.97-.375v.844A5.3 5.3 0 013.39.14c-.875 0-1.57-.25-2.079-.75-.51-.507-.764-1.203-.764-2.078 0-.894.238-1.601.719-2.124.488-.52 1.144-.782 1.968-.782.739 0 1.32.235 1.75.703.426.47.641 1.118.641 1.938zm-.906-.266c0-.488-.137-.879-.407-1.172-.273-.3-.625-.453-1.062-.453-.512 0-.918.149-1.219.438-.293.281-.465.68-.515 1.187zm0 0"/></symbol><symbol overflow="visible" id="o"><path d="M5.484-5.469L3.516-2.812 5.594 0H4.53L2.938-2.156 1.343 0H.28l2.125-2.86L.47-5.468h1.06l1.453 1.953 1.438-1.953zm0 0"/></symbol><symbol overflow="visible" id="p"><path d="M.938-5.469h.906V0H.937zm0-2.125h.906v1.14H.937zm0 0"/></symbol><symbol overflow="visible" id="q"><path d="M4.875-5.266v.844a3.995 3.995 0 00-.766-.312 2.84 2.84 0 00-.765-.11c-.586 0-1.04.188-1.36.563-.324.367-.484.883-.484 1.547 0 .668.16 1.187.484 1.562.32.367.774.547 1.36.547.258 0 .515-.031.765-.094.258-.07.516-.18.766-.328v.844c-.25.117-.512.2-.781.25A3.626 3.626 0 013.25.14c-.836 0-1.496-.254-1.984-.766-.48-.52-.72-1.223-.72-2.11 0-.882.243-1.581.735-2.093.489-.508 1.16-.766 2.016-.766.281 0 .55.028.812.078.258.055.516.137.766.25zm0 0"/></symbol><symbol overflow="visible" id="r"><path d="M3.063-4.844c-.481 0-.86.188-1.141.563-.281.375-.422.89-.422 1.547 0 .656.133 1.171.406 1.546.282.375.664.563 1.157.563.476 0 .859-.188 1.14-.563.281-.375.422-.89.422-1.546 0-.645-.14-1.157-.422-1.532a1.349 1.349 0 00-1.14-.578zm0-.75c.78 0 1.394.258 1.843.766.446.5.672 1.2.672 2.094 0 .898-.226 1.601-.672 2.109-.449.512-1.062.766-1.843.766-.782 0-1.399-.254-1.844-.766-.45-.508-.672-1.21-.672-2.11 0-.894.223-1.593.672-2.093.445-.508 1.062-.766 1.843-.766zm0 0"/></symbol><symbol overflow="visible" id="t"><path d="M6.438-6.734v1.046a3.385 3.385 0 00-1.063-.687 3.066 3.066 0 00-1.188-.234c-.835 0-1.476.257-1.921.765-.438.512-.657 1.246-.657 2.203 0 .961.22 1.696.657 2.204.445.511 1.086.765 1.921.765.415 0 .813-.07 1.188-.219.375-.156.727-.39 1.063-.703v1.032a3.73 3.73 0 01-1.094.53 4.314 4.314 0 01-1.219.173C3.02.14 2.148-.195 1.515-.875.88-1.551.564-2.473.564-3.641c0-1.164.316-2.086.953-2.765.632-.676 1.504-1.016 2.609-1.016.438 0 .848.059 1.234.172.383.117.743.29 1.079.516zm0 0"/></symbol><symbol overflow="visible" id="s"><path d="M1.828-7.016v1.547h1.86v.703h-1.86v2.97c0 .437.063.726.188.859.125.125.375.187.75.187h.921V0h-.921c-.7 0-1.184-.129-1.454-.39-.261-.258-.39-.727-.39-1.407v-2.969H.266v-.703h.656v-1.547zm0 0"/></symbol><symbol overflow="visible" id="u"><path d="M3.219.516c-.25.644-.5 1.066-.75 1.265-.242.196-.559.297-.953.297h-.72v-.75h.516c.25 0 .442-.058.579-.172.132-.117.285-.39.453-.828l.172-.422-2.22-5.375h.954l1.703 4.282L4.672-5.47h.953zm0 0"/></symbol><symbol overflow="visible" id="v"><path d="M.844-2.156V-5.47h.906v3.282c0 .511.098.898.297 1.156.207.261.508.39.906.39.488 0 .875-.148 1.156-.453.282-.312.422-.738.422-1.281V-5.47h.907V0H4.53v-.844a2.253 2.253 0 01-.765.75 2.03 2.03 0 01-1 .235c-.625 0-1.106-.192-1.438-.579-.324-.394-.484-.968-.484-1.718zm2.265-3.438zm0 0"/></symbol><symbol overflow="visible" id="w"><path d="M5.203-4.422c.219-.406.484-.703.797-.89.313-.188.68-.282 1.11-.282.57 0 1.007.2 1.312.594.312.398.469.965.469 1.703V0h-.907v-3.266c0-.53-.093-.921-.28-1.171-.18-.25-.462-.375-.845-.375-.468 0-.84.156-1.109.468-.262.305-.39.719-.39 1.25V0h-.907v-3.266c0-.53-.094-.921-.281-1.171-.188-.25-.477-.375-.86-.375-.46 0-.824.156-1.093.468-.274.305-.406.719-.406 1.25V0H.905v-5.469h.906v.844c.208-.332.454-.578.735-.734a2.099 2.099 0 011.015-.235c.407 0 .743.102 1.016.297.281.2.488.492.625.875zm0 0"/></symbol><symbol overflow="visible" id="x"><path d="M4.875-2.734c0-.657-.14-1.172-.422-1.547a1.299 1.299 0 00-1.11-.563c-.48 0-.855.188-1.124.563-.274.375-.406.89-.406 1.547 0 .668.132 1.187.406 1.562.27.375.644.563 1.125.563.469 0 .836-.188 1.11-.563.28-.375.421-.894.421-1.562zM1.812-4.641c.188-.32.422-.562.704-.718.289-.157.64-.235 1.046-.235.665 0 1.204.266 1.61.797.414.524.625 1.211.625 2.063 0 .867-.211 1.562-.625 2.093-.406.524-.945.782-1.61.782-.406 0-.757-.078-1.046-.235C2.234-.25 2-.492 1.812-.828V0H.906v-7.594h.906zm0 0"/></symbol><symbol overflow="visible" id="y"><path d="M3.422-2.75c-.719 0-1.219.086-1.5.25-.281.168-.422.45-.422.844 0 .324.102.578.313.765.207.188.492.282.859.282.5 0 .898-.176 1.203-.532.3-.351.453-.82.453-1.406v-.203zm1.797-.375V0h-.89v-.828c-.212.336-.47.578-.782.734-.305.157-.672.235-1.11.235-.562 0-1.011-.157-1.343-.47-.336-.312-.5-.734-.5-1.265 0-.613.207-1.078.625-1.39.414-.313 1.031-.47 1.843-.47h1.266v-.093c0-.406-.14-.723-.422-.953-.273-.227-.652-.344-1.14-.344-.313 0-.621.043-.922.125A3.704 3.704 0 001-4.39v-.828c.332-.125.648-.218.953-.281.313-.063.613-.094.906-.094.79 0 1.38.203 1.766.61.395.406.594 1.027.594 1.859zm0 0"/></symbol><symbol overflow="visible" id="z"><path d="M5.36-7.047v.953a6.146 6.146 0 00-1.063-.39 3.586 3.586 0 00-.969-.141c-.531 0-.945.105-1.234.313-.293.21-.438.507-.438.89 0 .324.094.57.282.734.195.168.566.297 1.109.391l.594.125c.726.149 1.27.399 1.625.75.351.344.53.813.53 1.406 0 .711-.241 1.246-.718 1.61C4.61-.04 3.914.14 3 .14c-.344 0-.715-.043-1.11-.125A6.955 6.955 0 01.689-.328v-1.016c.406.23.796.403 1.171.516.383.117.766.172 1.141.172.563 0 .992-.11 1.297-.328.312-.227.469-.547.469-.954 0-.351-.11-.628-.329-.828-.218-.207-.585-.363-1.093-.468l-.594-.11c-.742-.144-1.277-.375-1.61-.687-.324-.313-.484-.75-.484-1.313 0-.644.223-1.148.672-1.515.457-.375 1.086-.563 1.89-.563.345 0 .692.031 1.048.094.351.062.718.156 1.093.281zm0 0"/></symbol><symbol overflow="visible" id="A"><path d="M4.547-4.64v-2.954h.89V0h-.89v-.828a1.81 1.81 0 01-.719.734c-.293.157-.64.235-1.047.235a1.958 1.958 0 01-1.61-.782C.755-1.17.548-1.867.548-2.734c0-.852.207-1.54.625-2.063.414-.531.953-.797 1.61-.797.405 0 .753.078 1.046.235.29.156.531.398.719.718zM1.484-2.735c0 .668.133 1.187.407 1.562.27.375.644.563 1.125.563a1.3 1.3 0 001.109-.563c.281-.375.422-.894.422-1.562 0-.657-.14-1.172-.422-1.547a1.299 1.299 0 00-1.11-.563c-.48 0-.855.188-1.124.563-.274.375-.407.89-.407 1.547zm0 0"/></symbol><symbol overflow="visible" id="B"><path d="M5.484-3.297V0h-.89v-3.266c0-.52-.106-.906-.313-1.156-.199-.258-.5-.39-.906-.39-.48 0-.86.156-1.14.468-.282.305-.422.719-.422 1.25V0H.905v-5.469h.906v.844c.22-.32.473-.563.766-.719a2 2 0 011-.25c.625 0 1.098.196 1.422.578.32.387.484.961.484 1.72zm0 0"/></symbol><symbol overflow="visible" id="C"><path d="M.984-7.297h.985v6.469h3.547V0H.984zm0 0"/></symbol><symbol overflow="visible" id="D"><path d="M.984-7.297h1.329l3.234 6.11v-6.11H6.5V0H5.172L1.938-6.094V0H.984zm0 0"/></symbol><symbol overflow="visible" id="E"><path d="M.422-5.469h.89l1.125 4.266L3.563-5.47h1.062L5.75-1.203 6.86-5.47h.906L6.328 0H5.266L4.094-4.484 2.906 0H1.844zm0 0"/></symbol><symbol overflow="visible" id="F"><path d="M-.016-7.297h1.063l2.016 3 2-3h1.062L3.547-3.469V0h-.985v-3.469zm0 0"/></symbol><symbol overflow="visible" id="G"><path d="M4.11-4.625a1.053 1.053 0 00-.329-.125 1.508 1.508 0 00-.39-.047c-.512 0-.903.168-1.172.5-.274.324-.406.797-.406 1.422V0H.905v-5.469h.906v.844c.188-.332.43-.578.735-.734.3-.157.672-.235 1.11-.235.062 0 .128.008.202.016.07 0 .157.012.25.031zm0 0"/></symbol><symbol overflow="visible" id="H"><path d="M.906-7.594h.906v4.485L4.5-5.47h1.14L2.735-2.906 5.766 0H4.594L1.812-2.672V0H.906zm0 0"/></symbol></defs><path fill="#fff" d="M0 0h450v300H0z"/><use xlink:href="#a" x="143.402" y="18.922"/><use xlink:href="#b" x="154.953" y="18.922"/><use xlink:href="#c" x="165.126" y="18.922"/><use xlink:href="#d" x="170.268" y="18.922"/><use xlink:href="#e" x="180.39" y="18.922"/><use xlink:href="#f" x="187.56" y="18.922"/><use xlink:href="#g" x="192.702" y="18.922"/><use xlink:href="#b" x="202.479" y="18.922"/><use xlink:href="#h" x="212.653" y="18.922"/><use xlink:href="#h" x="217.875" y="18.922"/><use xlink:href="#i" x="228.869" y="18.922"/><use xlink:href="#j" x="239.174" y="18.922"/><use xlink:href="#k" x="249.911" y="18.922"/><use xlink:href="#c" x="260.59" y="18.922"/><use xlink:href="#d" x="265.731" y="18.922"/><use xlink:href="#e" x="275.854" y="18.922"/><use xlink:href="#f" x="283.024" y="18.922"/><use xlink:href="#i" x="288.166" y="18.922"/><use xlink:href="#l" x="298.471" y="18.922"/><path d="M297.129 161.23c0 28.184-16.414 53.786-42.024 65.547-25.609 11.762-55.726 7.532-77.105-10.832l47-54.715zm0 0" fill="#00f" stroke-linejoin="bevel" stroke="#fff" stroke-opacity=".1" stroke-miterlimit="10"/><path d="M257.191 231.32l6.262 13.63h61.594" fill="none" stroke="#000" stroke-miterlimit="10"/><use xlink:href="#m" x="268.453" y="242.594"/><use xlink:href="#n" x="277.081" y="242.594"/><use xlink:href="#o" x="283.233" y="242.594"/><use xlink:href="#p" x="289.151" y="242.594"/><use xlink:href="#q" x="291.93" y="242.594"/><use xlink:href="#r" x="297.428" y="242.594"/><use xlink:href="#s" x="303.546" y="242.594"/><use xlink:href="#t" x="306.725" y="242.594"/><use xlink:href="#p" x="313.707" y="242.594"/><use xlink:href="#s" x="316.485" y="242.594"/><use xlink:href="#u" x="320.406" y="242.594"/><path d="M178 215.945c-29.395-25.25-33.586-69.218-9.488-99.566L225 161.23zm0 0" fill="red" stroke-linejoin="bevel" stroke="#fff" stroke-opacity=".1" stroke-miterlimit="10"/><path d="M148.219 168.547l-14.934 1.426H90.246" fill="none" stroke="#000" stroke-miterlimit="10"/><use xlink:href="#m" x="90.246" y="167.613"/><use xlink:href="#v" x="98.874" y="167.613"/><use xlink:href="#w" x="105.212" y="167.613"/><use xlink:href="#x" x="114.953" y="167.613"/><use xlink:href="#y" x="121.301" y="167.613"/><use xlink:href="#p" x="127.429" y="167.613"/><path d="M168.512 116.379a72.16 72.16 0 0129.133-21.89L225 161.23zm0 0" fill="green" stroke-linejoin="bevel" stroke="#fff" stroke-opacity=".1" stroke-miterlimit="10"/><path d="M178.672 99.566l-9.012-11.992h-41.074" fill="none" stroke="#000" stroke-miterlimit="10"/><use xlink:href="#z" x="128.586" y="85.215"/><use xlink:href="#u" x="134.934" y="85.215"/><use xlink:href="#A" x="140.852" y="85.215"/><use xlink:href="#B" x="147.199" y="85.215"/><use xlink:href="#n" x="153.537" y="85.215"/><use xlink:href="#u" x="159.689" y="85.215"/><path d="M197.645 94.488a72.13 72.13 0 0167.894 7.082L225 161.23zm0 0" fill="#ff0" stroke-linejoin="bevel" stroke="#fff" stroke-opacity=".1" stroke-miterlimit="10"/><path d="M233 84.52l1.559-14.922h39.992" fill="none" stroke="#000" stroke-miterlimit="10"/><use xlink:href="#C" x="239.559" y="67.242"/><use xlink:href="#r" x="245.13" y="67.242"/><use xlink:href="#B" x="251.248" y="67.242"/><use xlink:href="#A" x="257.586" y="67.242"/><use xlink:href="#r" x="263.934" y="67.242"/><use xlink:href="#B" x="270.052" y="67.242"/><path d="M287.633 89.871a72.13 72.13 0 0131.59 59.66h-72.13zm0 0" fill="#0ff" stroke-linejoin="bevel" stroke="#fff" stroke-opacity=".1" stroke-miterlimit="10"/><path d="M315.258 113.438l13.254-7.02h51.11" fill="none" stroke="#000" stroke-miterlimit="10"/><use xlink:href="#D" x="333.512" y="104.063"/><use xlink:href="#n" x="340.992" y="104.063"/><use xlink:href="#E" x="347.145" y="104.063"/><use xlink:href="#s" x="355.323" y="104.063"/><use xlink:href="#F" x="358.502" y="104.063"/><use xlink:href="#r" x="364.61" y="104.063"/><use xlink:href="#G" x="370.729" y="104.063"/><use xlink:href="#H" x="374.84" y="104.063"/></svg>