<svg xmlns="http://www.w3.org/2000/svg" width="400" height="400" viewBox="0 0 300 300"><g stroke-width=".39" stroke="#fff" stroke-miterlimit="10"><path d="M177.387 268.633l3.285 14.234c.387-.09.773-.18 1.16-.273l-3.41-14.207c-.344.082-.688.164-1.035.242zm0 0" fill="violet"/><path d="M175.012 254.184l3.41 14.207c.344-.082.687-.168 1.031-.254l-3.535-14.176c-.3.074-.606.148-.906.223zm0 0" fill="plum"/><path d="M174.102 254.398l3.285 14.235c.343-.078.691-.16 1.035-.242l-3.41-14.207c-.305.074-.606.144-.91.214zm0 0" fill="plum"/><path d="M175.313 269.094l3.039 14.293c.386-.082.777-.168 1.164-.254l-3.164-14.266a98.81 98.81 0 01-1.04.227zm0 0" fill="violet"/><path d="M173.191 254.602l3.164 14.265 1.036-.234-3.286-14.235c-.304.07-.609.141-.91.207zm-.914.198l3.04 14.294c.347-.074.69-.149 1.038-.227l-3.164-14.265-.914.199zm0 0" fill="plum"/><path d="M172.387 239.785l3.535 14.176c.605-.152 1.207-.309 1.808-.469l-3.78-14.113c-.52.14-1.044.273-1.563.406zm-1.571.375l3.286 14.235a102.07 102.07 0 001.816-.438l-3.535-14.176c-.524.13-1.047.258-1.57.38zm0 0" fill="#b0c4de"/><path d="M169.238 240.512l3.04 14.293c.609-.13 1.218-.266 1.824-.407l-3.286-14.234c-.523.121-1.05.238-1.578.348zm0 0" fill="#b0c4de"/><path d="M171.14 269.902l2.536 14.387 1.172-.21-2.664-14.368c-.348.066-.696.129-1.047.187zm0 0" fill="violet"/><path d="M169.523 255.348l2.665 14.367c.347-.067.695-.13 1.042-.2l-2.789-14.343-.918.176zm0 0" fill="plum"/><path d="M168.605 255.516l2.536 14.386 1.047-.187-2.665-14.367c-.304.058-.613.113-.921.168zm0 0" fill="plum"/><path d="M169.047 270.254l2.285 14.43c.39-.063.785-.125 1.176-.192l-2.41-14.41c-.348.059-.7.117-1.047.172zm0 0" fill="violet"/><path d="M167.684 255.672l2.41 14.41c.347-.059.699-.117 1.047-.18l-2.536-14.386c-.308.054-.613.105-.921.16zm0 0" fill="plum"/><path d="M166.762 255.824l2.285 14.43c.351-.055.7-.113 1.047-.172l-2.41-14.41c-.309.05-.614.101-.922.148zm0 0" fill="plum"/><path d="M167.656 240.832l2.79 14.344a94.99 94.99 0 001.831-.371l-3.039-14.293a79.09 79.09 0 01-1.582.32zm-1.59.293l2.536 14.387c.613-.11 1.226-.223 1.84-.34l-2.79-14.344c-.527.102-1.058.2-1.59.293zm0 0" fill="#b0c4de"/><path d="M164.477 241.395l2.285 14.43c.617-.098 1.23-.2 1.843-.31l-2.535-14.386c-.53.094-1.062.184-1.593.266zm0 0" fill="#b0c4de"/><path d="M164.84 270.848l1.781 14.5c.395-.047.79-.098 1.18-.149l-1.906-14.484c-.352.047-.704.09-1.055.133zm0 0" fill="violet"/><path d="M163.984 256.227l1.907 14.484c.351-.047.703-.094 1.054-.145l-2.035-14.468c-.308.043-.617.086-.926.125zm0 0" fill="plum"/><path d="M163.059 256.344l1.78 14.5c.352-.043.704-.086 1.056-.133l-1.907-14.484-.925.117zm0 0" fill="plum"/><path d="M162.727 271.086l1.527 14.531 1.184-.129-1.653-14.515-1.055.117zm0 0" fill="violet"/><path d="M162.129 256.453l1.652 14.516c.352-.04.703-.082 1.055-.125l-1.781-14.5c-.309.039-.618.074-.93.11zm0 0" fill="plum"/><path d="M161.2 256.555l1.527 14.53c.351-.034.703-.073 1.054-.116l-1.652-14.516c-.309.035-.621.07-.93.102zm0 0" fill="plum"/><path d="M162.879 241.633l2.035 14.469a95.62 95.62 0 001.848-.278l-2.285-14.43c-.532.086-1.063.165-1.598.239zm0 0" fill="#b0c4de"/><path d="M161.277 241.844l1.782 14.5a100.44 100.44 0 001.855-.242l-2.035-14.47c-.531.075-1.066.145-1.602.212zm-1.605.183l1.527 14.532a170.7 170.7 0 001.86-.211l-1.782-14.5c-.535.066-1.07.125-1.605.183zm0 0" fill="#b0c4de"/><path d="M170.168 225.266l3.781 14.113a91.69 91.69 0 004.645-1.375l-4.516-13.895a80.123 80.123 0 01-3.91 1.16zm0 0" fill="#afeeee"/><path d="M166.2 226.219l3.038 14.293a92.818 92.818 0 004.711-1.133l-3.781-14.113a80.34 80.34 0 01-3.969.953zm0 0" fill="#afeeee"/><path d="M162.191 226.96l2.286 14.43a93.635 93.635 0 004.761-.882l-3.039-14.293a77.86 77.86 0 01-4.012.742zm0 0" fill="#afeeee"/><path d="M158.145 227.496l1.527 14.531a90.81 90.81 0 004.805-.632l-2.286-14.43c-1.343.21-2.691.39-4.043.531zm0 0" fill="#afeeee"/><path d="M152.125 271.734l.254 14.61c.398-.008.793-.016 1.191-.028l-.382-14.605-1.063.023zm0 0" fill="violet"/><path d="M152.805 257.105l.382 14.606c.356-.008.708-.02 1.063-.031l-.512-14.602c-.312.012-.62.02-.933.027zm0 0" fill="plum"/><path d="M151.871 257.125l.254 14.61 1.063-.024-.383-14.606c-.313.008-.625.016-.934.02zm0 0" fill="plum"/><path d="M150 271.754v14.61c.398 0 .793 0 1.191-.005l-.129-14.609c-.355.004-.707.004-1.062.004zm0 0" fill="violet"/><path d="M150.934 257.14l.129 14.61a94.02 94.02 0 001.062-.016l-.254-14.609-.934.012zm0 0" fill="plum"/><path d="M150 257.145v14.609c.355 0 .707 0 1.063-.004l-.13-14.61c-.312.005-.624.005-.933.005zm0 0" fill="plum"/><path d="M153.23 242.477l.512 14.601c.621-.023 1.246-.05 1.867-.082l-.765-14.59c-.54.028-1.074.051-1.614.07zm-1.617.043l.254 14.609a99.694 99.694 0 001.871-.05l-.511-14.602c-.54.02-1.075.03-1.614.043zm0 0" fill="#b0c4de"/><path d="M150 242.531v14.61c.625 0 1.246-.004 1.871-.016l-.254-14.61c-.539.008-1.078.016-1.613.016zm0 0" fill="#b0c4de"/><path d="M145.75 271.68l-.512 14.601c.395.016.793.028 1.188.035l.383-14.605c-.356-.008-.707-.02-1.063-.031zm0 0" fill="violet"/><path d="M147.195 257.105l-.382 14.606 1.062.023.254-14.609a72.905 72.905 0 01-.934-.02zm-.933-.027l-.512 14.602c.355.011.707.023 1.063.03l.382-14.605c-.312-.007-.625-.02-.933-.027zm0 0" fill="plum"/><path d="M143.629 271.586l-.766 14.59 1.188.058.637-14.597a96.67 96.67 0 01-1.063-.051zm0 0" fill="violet"/><path d="M145.328 257.04l-.637 14.597c.356.015.707.031 1.063.043l.512-14.602-.934-.035zm-.938-.044l-.765 14.59c.355.02.707.035 1.063.05l.636-14.597a73.62 73.62 0 01-.933-.043zm0 0" fill="plum"/><path d="M148.387 242.52l-.254 14.609c.625.012 1.246.016 1.87.016v-14.61c-.538 0-1.077-.004-1.612-.015zm-1.617-.043l-.512 14.601a98.8 98.8 0 001.87.05l.255-14.608a73.453 73.453 0 01-1.613-.043zm-1.614-.071l-.765 14.59c.62.031 1.246.059 1.867.082l.512-14.601c-.54-.02-1.075-.043-1.614-.07zm0 0" fill="#b0c4de"/><path d="M139.387 271.29l-1.274 14.554c.395.035.79.066 1.188.097l1.144-14.566a96.668 96.668 0 01-1.058-.09zm0 0" fill="violet"/><path d="M141.594 256.813l-1.145 14.566c.352.027.707.055 1.059.078l1.02-14.574c-.313-.024-.622-.043-.934-.07zm-.934-.079l-1.273 14.555c.351.031.707.059 1.058.09l1.145-14.567c-.313-.023-.621-.05-.934-.078zm0 0" fill="plum"/><path d="M137.273 271.086l-1.527 14.531c.395.043.79.082 1.184.121l1.398-14.543-1.058-.105zm0 0" fill="violet"/><path d="M139.73 256.648l-1.398 14.543c.352.036.707.067 1.059.098l1.273-14.555c-.309-.027-.621-.054-.93-.086zm0 0" fill="plum"/><path d="M138.8 256.555l-1.527 14.53c.352.036.704.075 1.059.106l1.398-14.543-.93-.093zm0 0" fill="plum"/><path d="M143.547 242.309l-1.02 14.574a97.74 97.74 0 001.868.113l.765-14.59c-.539-.027-1.074-.062-1.613-.097zm-1.613-.129l-1.274 14.554c.621.055 1.242.102 1.863.149l1.02-14.574c-.535-.04-1.074-.079-1.61-.125zm0 0" fill="#b0c4de"/><path d="M140.328 242.027l-1.527 14.532c.62.066 1.242.125 1.863.18l1.274-14.555a77.217 77.217 0 01-1.61-.157zm0 0" fill="#b0c4de"/><path d="M154.078 227.816l.766 14.59a94.907 94.907 0 004.828-.379l-1.527-14.53a78.89 78.89 0 01-4.067.32zm0 0" fill="#afeeee"/><path d="M150 227.922v14.61c1.613 0 3.23-.044 4.844-.126l-.766-14.59c-1.36.07-2.719.106-4.078.106zm-4.078-.106l-.766 14.59c1.614.086 3.227.125 4.844.125v-14.61c-1.36 0-2.719-.034-4.078-.105zm0 0" fill="#afeeee"/><path d="M141.855 227.496l-1.527 14.531c1.606.168 3.215.297 4.828.38l.766-14.59c-1.36-.07-2.715-.18-4.067-.32zm0 0" fill="#afeeee"/><path d="M126.77 269.516l-2.79 14.343 1.168.223 2.665-14.367c-.348-.067-.696-.13-1.043-.2zm0 0" fill="violet"/><path d="M130.477 255.348l-2.665 14.367c.348.066.696.129 1.047.187l2.536-14.386c-.31-.055-.614-.11-.922-.168zm0 0" fill="plum"/><path d="M129.555 255.176l-2.79 14.344 1.044.199 2.664-14.367c-.305-.059-.614-.114-.918-.176zm0 0" fill="plum"/><path d="M124.688 269.094l-3.04 14.293c.387.082.778.164 1.165.242l2.914-14.317c-.348-.07-.696-.144-1.04-.214zm0 0" fill="violet"/><path d="M128.64 254.992l-2.913 14.317c.347.07.695.14 1.043.207l2.789-14.344a76.267 76.267 0 01-.918-.184zm-.917-.192l-3.04 14.294c.348.074.692.144 1.04.215l2.914-14.317c-.305-.062-.61-.125-.914-.191zm0 0" fill="plum"/><path d="M133.934 241.125l-2.536 14.387c.614.11 1.23.21 1.844.308l2.285-14.43a99.76 99.76 0 01-1.593-.265zm-1.59-.293l-2.79 14.344c.614.117 1.227.234 1.84.34l2.536-14.387c-.532-.094-1.059-.191-1.59-.293zm0 0" fill="#b0c4de"/><path d="M130.762 240.512l-3.04 14.293c.61.129 1.22.254 1.833.37l2.789-14.343c-.528-.102-1.055-.21-1.582-.32zm0 0" fill="#b0c4de"/><path d="M120.547 268.137l-3.535 14.175c.386.098.77.192 1.156.282l3.41-14.207c-.344-.082-.687-.168-1.031-.254zm0 0" fill="violet"/><path d="M124.988 254.184l-3.41 14.207c.344.082.688.164 1.035.242l3.285-14.235c-.304-.07-.605-.14-.91-.214zm-.91-.224l-3.535 14.177c.344.086.687.168 1.031.254l3.41-14.207-.906-.223zm0 0" fill="plum"/><path d="M118.488 267.605l-3.781 14.114 1.152.304 3.657-14.144-1.028-.27zm0 0" fill="violet"/><path d="M123.172 253.73l-3.656 14.145c.343.09.687.176 1.03.262l3.536-14.176c-.3-.074-.605-.152-.906-.23zm0 0" fill="plum"/><path d="M122.27 253.492l-3.782 14.113c.344.09.684.184 1.028.27l3.656-14.145c-.3-.078-.602-.156-.902-.238zm0 0" fill="plum"/><path d="M129.184 240.16l-3.286 14.235c.606.14 1.215.273 1.825.406l3.039-14.293c-.528-.113-1.051-.227-1.578-.348zm-1.571-.375l-3.535 14.176c.606.152 1.211.297 1.817.437l3.285-14.234a76.347 76.347 0 01-1.57-.379zm0 0" fill="#b0c4de"/><path d="M126.05 239.379l-3.78 14.113c.601.16 1.207.317 1.808.469l3.535-14.176a70.496 70.496 0 01-1.562-.406zm0 0" fill="#b0c4de"/><path d="M114.402 266.434l-4.273 13.972c.379.117.758.23 1.14.344l4.149-14.008c-.34-.101-.68-.203-1.016-.305zm0 0" fill="violet"/><path d="M119.57 252.73l-4.148 14.008c.34.102.68.2 1.02.297l4.027-14.043a76.11 76.11 0 01-.899-.262zm-.894-.27l-4.274 13.974c.34.105.68.207 1.016.304l4.148-14.008-.894-.27zm0 0" fill="plum"/><path d="M112.375 265.793l-4.516 13.894 1.133.364 4.395-13.934a98.799 98.799 0 01-1.012-.324zm0 0" fill="violet"/><path d="M117.781 252.184l-4.394 13.933c.336.106.675.211 1.015.317l4.274-13.973c-.297-.09-.594-.184-.895-.277zm0 0" fill="plum"/><path d="M116.89 251.898l-4.515 13.895c.336.11.676.219 1.012.324l4.394-13.933c-.297-.094-.594-.188-.89-.286zm0 0" fill="plum"/><path d="M124.496 238.95l-4.027 14.042c.597.172 1.199.34 1.8.5l3.782-14.113c-.52-.14-1.04-.281-1.555-.43zm-1.551-.462l-4.273 13.973c.598.184 1.195.36 1.793.531l4.027-14.043c-.515-.148-1.035-.3-1.547-.457zm0 0" fill="#b0c4de"/><path d="M121.406 238.004l-4.515 13.894c.593.192 1.187.38 1.785.563l4.273-13.973a100.61 100.61 0 01-1.539-.484zm0 0" fill="#b0c4de"/><path d="M137.809 226.96l-2.286 14.43a89.75 89.75 0 004.805.633l1.527-14.53a77.817 77.817 0 01-4.042-.532zm0 0" fill="#afeeee"/><path d="M133.8 226.219l-3.038 14.293c1.578.336 3.168.629 4.761.883l2.286-14.43a77.86 77.86 0 01-4.012-.742zm0 0" fill="#afeeee"/><path d="M129.832 225.266l-3.781 14.113c1.558.418 3.129.797 4.71 1.133l3.04-14.293a77.122 77.122 0 01-3.969-.953zm0 0" fill="#afeeee"/><path d="M125.922 224.11l-4.516 13.894c1.535.5 3.086.957 4.645 1.375l3.781-14.113a76.012 76.012 0 01-3.91-1.16zm0 0" fill="#afeeee"/><path d="M102.426 262.074l-5.707 13.45c.363.156.73.308 1.097.46l5.59-13.5c-.328-.136-.652-.273-.98-.41zm0 0" fill="violet"/><path d="M109 248.988l-5.59 13.5c.328.137.656.27.985.403l5.472-13.547a79.133 79.133 0 01-.867-.356zm-.863-.363l-5.707 13.45.98.41 5.59-13.5c-.29-.122-.574-.239-.863-.364zm0 0" fill="plum"/><path d="M100.477 261.227l-5.942 13.347 1.09.48 5.824-13.398c-.324-.14-.648-.285-.972-.43zm0 0" fill="violet"/><path d="M107.277 248.258l-5.824 13.398c.324.14.649.281.977.418l5.707-13.449-.86-.367zm0 0" fill="plum"/><path d="M106.422 247.879l-5.942 13.348c.325.144.649.285.973.43l5.824-13.4-.855-.374zm0 0" fill="plum"/><path d="M115.336 235.793l-5.473 13.547c.578.234 1.157.46 1.739.683l5.234-13.64a70.644 70.644 0 01-1.504-.594zm0 0" fill="#b0c4de"/><path d="M113.844 235.176l-5.707 13.449c.574.242 1.148.48 1.726.715l5.473-13.547c-.5-.203-.996-.406-1.492-.617zm0 0" fill="#b0c4de"/><path d="M112.363 234.531l-5.941 13.348c.57.254 1.14.504 1.715.746l5.707-13.45c-.496-.21-.989-.425-1.48-.644zm0 0" fill="#b0c4de"/><path d="M96.625 259.43l-6.406 13.132c.355.176.715.348 1.07.516l6.29-13.187c-.321-.153-.638-.305-.958-.461zm0 0" fill="violet"/><path d="M103.875 246.707l-6.29 13.188c.321.152.642.304.962.453l6.176-13.243-.844-.398zm-.844-.407l-6.406 13.134c.316.156.637.308.957.46l6.29-13.187c-.282-.133-.563-.27-.845-.406zm0 0" fill="plum"/><path d="M94.727 258.484l-6.633 13.02c.351.18.707.36 1.062.535l6.52-13.074c-.317-.156-.633-.317-.95-.477zm0 0" fill="violet"/><path d="M102.191 245.887l-6.52 13.074c.317.156.634.316.954.469l6.406-13.133a83.403 83.403 0 01-.84-.414zm0 0" fill="plum"/><path d="M101.36 245.465l-6.633 13.02c.316.16.632.32.949.476l6.52-13.074-.837-.422zm0 0" fill="plum"/><path d="M110.895 233.863l-6.176 13.242c.566.262 1.133.524 1.703.778l5.941-13.348a97.01 97.01 0 01-1.468-.668zm0 0" fill="#b0c4de"/><path d="M109.438 233.168l-6.407 13.133c.559.273 1.121.543 1.688.804l6.176-13.242c-.489-.226-.973-.46-1.457-.695zm-1.446-.723l-6.633 13.02c.555.281 1.114.562 1.672.836l6.406-13.133c-.484-.234-.964-.477-1.445-.719zm0 0" fill="#b0c4de"/><path d="M90.973 256.488l-7.082 12.778 1.043.574L91.906 257c-.312-.168-.62-.34-.93-.512zm0 0" fill="violet"/><path d="M98.875 244.16L91.902 257l.938.504 6.86-12.899a72.853 72.853 0 01-.825-.44zm0 0" fill="plum"/><path d="M98.055 243.71l-7.082 12.778c.308.172.62.344.93.512l6.972-12.84a85.095 85.095 0 01-.82-.45zm0 0" fill="plum"/><path d="M89.125 255.441l-7.305 12.653c.344.199.688.394 1.032.59l7.195-12.715a193.77 193.77 0 01-.922-.528zm0 0" fill="violet"/><path d="M97.242 243.254l-7.195 12.715c.308.176.617.347.926.52l7.082-12.778c-.274-.152-.543-.305-.817-.457zm0 0" fill="plum"/><path d="M96.43 242.79l-7.305 12.651.922.528 7.195-12.715c-.27-.152-.543-.309-.812-.465zm0 0" fill="plum"/><path d="M106.559 231.703l-6.86 12.899a84.09 84.09 0 001.66.863l6.633-13.02a99.68 99.68 0 01-1.433-.746zm0 0" fill="#b0c4de"/><path d="M105.14 230.93l-7.081 12.777c.546.3 1.093.602 1.644.89l6.86-12.898c-.477-.254-.95-.508-1.418-.77zm0 0" fill="#b0c4de"/><path d="M103.734 230.137l-7.304 12.652c.539.313 1.082.617 1.629.922l7.082-12.777a99.843 99.843 0 01-1.407-.797zm0 0" fill="#b0c4de"/><path d="M122.074 222.746l-5.234 13.64a94.522 94.522 0 004.566 1.618l4.516-13.895a78.744 78.744 0 01-3.844-1.363zm0 0" fill="#afeeee"/><path d="M118.305 221.184l-5.942 13.347a97.216 97.216 0 004.477 1.856l5.234-13.64a77.3 77.3 0 01-3.77-1.563zm0 0" fill="#afeeee"/><path d="M114.625 219.43l-6.633 13.02a91.31 91.31 0 004.371 2.085l5.942-13.347a81.455 81.455 0 01-3.684-1.758zm0 0" fill="#afeeee"/><path d="M111.04 217.484l-7.306 12.653a91.3 91.3 0 004.258 2.312l6.633-13.02a79.451 79.451 0 01-3.586-1.945zm0 0" fill="#afeeee"/><path d="M169.563 210.215l4.515 13.894a77.928 77.928 0 0014.883-6.625l-7.305-12.652a63.4 63.4 0 01-12.09 5.383zm-12.946 2.75l1.528 14.531a77.959 77.959 0 0015.933-3.387l-4.516-13.894a63.204 63.204 0 01-12.945 2.75zm0 0" fill="#20b2aa"/><path d="M143.383 212.965l-1.528 14.531c5.415.57 10.875.57 16.29 0l-1.528-14.531c-4.398.46-8.836.46-13.234 0zm-12.945-2.75l-4.516 13.894a77.959 77.959 0 0015.933 3.387l1.528-14.531a63.204 63.204 0 01-12.946-2.75zm-12.094-5.387l-7.305 12.652a77.928 77.928 0 0014.883 6.625l4.516-13.894a63.292 63.292 0 01-12.09-5.383zm0 0" fill="#20b2aa"/><path d="M60.957 233.035L50.273 243c.27.29.543.578.817.867l10.597-10.058c-.242-.258-.488-.516-.726-.774zm0 0" fill="violet"/><path d="M72.281 223.754l-10.597 10.059c.242.257.488.511.734.765L72.93 224.43c-.215-.223-.434-.45-.649-.676zm-.641-.684l-10.683 9.965.727.774L72.28 223.75c-.215-.227-.43-.453-.64-.68zm0 0" fill="plum"/><path d="M59.52 231.469l-10.86 9.777c.266.293.531.59.8.879l10.774-9.871-.714-.785zm0 0" fill="violet"/><path d="M71.008 222.383l-10.774 9.87c.239.263.48.52.723.782l10.684-9.965a51.466 51.466 0 01-.633-.687zm0 0" fill="plum"/><path d="M70.379 221.691l-10.86 9.778.715.785 10.774-9.871c-.211-.23-.422-.461-.63-.692zm0 0" fill="plum"/><path d="M83.438 214.277l-10.512 10.149c.433.449.87.894 1.312 1.332l10.332-10.332a105.35 105.35 0 01-1.132-1.153zm0 0" fill="#b0c4de"/><path d="M82.324 213.105l-10.683 9.965c.425.457.855.907 1.289 1.356l10.511-10.149a78.852 78.852 0 01-1.113-1.172zm0 0" fill="#b0c4de"/><path d="M81.234 211.918l-10.859 9.777c.418.465.84.922 1.262 1.38l10.683-9.966c-.367-.394-.73-.789-1.09-1.191zm0 0" fill="#b0c4de"/><path d="M56.73 228.262l-11.19 9.39c.253.305.51.606.769.91l11.109-9.488-.688-.812zm0 0" fill="violet"/><path d="M68.527 219.582l-11.109 9.488c.23.27.46.54.695.805l11.028-9.586c-.204-.234-.407-.473-.61-.707zm0 0" fill="plum"/><path d="M67.922 218.871l-11.192 9.39c.227.27.458.544.688.813l11.11-9.488c-.204-.238-.403-.477-.606-.715zm0 0" fill="plum"/><path d="M55.379 226.621l-11.356 9.195c.25.309.5.618.754.922l11.274-9.293a68.58 68.58 0 01-.672-.824zm0 0" fill="violet"/><path d="M67.324 218.152l-11.273 9.293c.226.274.453.547.68.817l11.19-9.39c-.198-.24-.398-.477-.597-.72zm-.59-.726L55.38 226.62c.223.274.445.55.672.824l11.273-9.293c-.199-.242-.394-.48-.59-.722zm0 0" fill="plum"/><path d="M80.164 210.707l-11.027 9.586c.41.469.82.937 1.238 1.402l10.86-9.777c-.36-.398-.72-.805-1.07-1.211zm0 0" fill="#b0c4de"/><path d="M79.117 209.48l-11.191 9.391c.402.477.804.953 1.215 1.422l11.027-9.586a157.86 157.86 0 01-1.05-1.227zm-1.027-1.246l-11.356 9.196c.391.484.79.965 1.188 1.441l11.191-9.39c-.347-.415-.687-.829-1.027-1.247zm0 0" fill="#b0c4de"/><path d="M52.762 223.273l-11.668 8.793c.238.317.48.633.718.946l11.59-8.895c-.215-.281-.43-.562-.644-.847zm0 0" fill="violet"/><path d="M64.996 215.223l-11.59 8.894c.215.281.434.563.653.84l11.511-8.996-.574-.738zm0 0" fill="plum"/><path d="M64.434 214.48l-11.668 8.793c.214.282.425.567.644.848L65 215.227a58.56 58.56 0 01-.566-.747zm0 0" fill="plum"/><path d="M51.5 221.566l-11.82 8.586.703.961 11.746-8.691a98.58 98.58 0 01-.629-.856zm0 0" fill="violet"/><path d="M63.871 213.73l-11.746 8.692c.21.285.422.57.637.851l11.668-8.793c-.188-.25-.375-.5-.559-.75zm-.551-.753l-11.82 8.585c.207.286.418.57.629.856l11.746-8.691c-.184-.25-.371-.5-.555-.754zm0 0" fill="plum"/><path d="M77.082 206.969l-11.512 8.996c.383.492.774.98 1.164 1.465l11.356-9.196c-.34-.418-.676-.84-1.004-1.265zm0 0" fill="#b0c4de"/><path d="M76.102 205.688l-11.668 8.792c.375.497.754.993 1.136 1.485l11.512-8.996c-.332-.426-.66-.852-.984-1.281zm0 0" fill="#b0c4de"/><path d="M75.14 204.39l-11.82 8.587c.367.503.739 1.003 1.114 1.503l11.668-8.792c-.325-.43-.645-.864-.961-1.297zm0 0" fill="#b0c4de"/><path d="M94.902 205.098L84.57 215.43a91.562 91.562 0 003.516 3.336l9.777-10.86a80.354 80.354 0 01-2.96-2.808zm0 0" fill="#afeeee"/><path d="M92.094 202.14l-10.86 9.778a94.368 94.368 0 003.336 3.516l10.332-10.332a78.54 78.54 0 01-2.808-2.961zm-2.653-3.1l-11.355 9.194a94.172 94.172 0 003.144 3.684l10.86-9.777a79.803 79.803 0 01-2.649-3.102zm-2.481-3.24l-11.82 8.587a93.61 93.61 0 002.95 3.843l11.355-9.195a79.86 79.86 0 01-2.484-3.238zm0 0" fill="#afeeee"/><path d="M45.637 212.707l-12.524 7.523c.203.34.41.68.617 1.016l12.458-7.633c-.184-.3-.368-.605-.551-.91zm0 0" fill="violet"/><path d="M58.645 205.98l-12.458 7.633c.184.301.372.602.56.903l12.39-7.743-.492-.796zm0 0" fill="plum"/><path d="M58.16 205.184l-12.523 7.523c.183.305.367.606.55.91l12.458-7.633a54.432 54.432 0 01-.485-.8zm0 0" fill="plum"/><path d="M44.559 210.875l-12.653 7.305.598 1.027 12.59-7.414c-.18-.305-.36-.61-.535-.918zm0 0" fill="violet"/><path d="M57.684 204.379l-12.59 7.414c.18.305.36.61.543.914l12.523-7.523c-.16-.266-.32-.536-.476-.805zm0 0" fill="plum"/><path d="M57.21 203.57l-12.651 7.305c.175.309.355.613.535.918l12.59-7.414c-.157-.27-.317-.54-.473-.809zm0 0" fill="plum"/><path d="M71.527 199.035l-12.39 7.742c.332.528.664 1.055 1.004 1.578l12.254-7.957c-.293-.453-.582-.906-.868-1.363zm-.843-1.379L58.16 205.18c.32.535.649 1.066.977 1.593l12.39-7.742a81.1 81.1 0 01-.843-1.379zm0 0" fill="#b0c4de"/><path d="M69.863 196.266l-12.652 7.304c.312.54.629 1.078.95 1.61l12.523-7.524c-.278-.46-.551-.926-.82-1.39zm0 0" fill="#b0c4de"/><path d="M42.5 207.16l-12.898 6.86c.187.351.375.699.562 1.046l12.84-6.972-.504-.938zm0 0" fill="violet"/><path d="M55.84 201.125L43 208.098c.168.312.34.62.512.93l12.777-7.083c-.152-.273-.3-.547-.45-.82zm0 0" fill="plum"/><path d="M55.398 200.3L42.5 207.16c.168.313.332.625.504.938l12.84-6.973a55.103 55.103 0 01-.442-.824zm0 0" fill="plum"/><path d="M41.516 205.273l-13.02 6.633.543 1.059L42 206.219c-.164-.313-.324-.63-.488-.946zm0 0" fill="violet"/><path d="M54.965 199.473l-12.961 6.746c.164.312.328.629.496.941l12.898-6.86c-.144-.273-.293-.55-.433-.827zm-.43-.833l-13.02 6.633c.16.317.325.63.489.946l12.96-6.746c-.144-.278-.284-.555-.429-.832zm0 0" fill="plum"/><path d="M69.07 194.86l-12.777 7.081c.3.547.61 1.086.922 1.63l12.652-7.305a81.78 81.78 0 01-.797-1.407zm0 0" fill="#b0c4de"/><path d="M68.297 193.441l-12.899 6.86c.293.55.59 1.097.891 1.644l12.777-7.082c-.261-.472-.52-.945-.77-1.418zm0 0" fill="#b0c4de"/><path d="M67.555 192.008l-13.02 6.633c.281.554.57 1.109.863 1.66l12.899-6.86a99.69 99.69 0 01-.746-1.433zm0 0" fill="#b0c4de"/><path d="M39.652 201.457l-13.242 6.176c.168.36.336.719.508 1.078l13.187-6.29c-.152-.32-.304-.64-.453-.96zm0 0" fill="violet"/><path d="M53.293 196.125l-13.188 6.29c.153.32.305.636.461.956l13.133-6.406c-.136-.281-.273-.563-.406-.844zm0 0" fill="plum"/><path d="M52.895 195.281l-13.243 6.176c.149.32.301.64.453.961l13.188-6.29-.398-.843zm0 0" fill="plum"/><path d="M38.773 199.523l-13.347 5.942c.16.363.324.722.488 1.086l13.293-6.059a92.828 92.828 0 01-.437-.969zm0 0" fill="violet"/><path d="M52.504 194.43l-13.293 6.058c.148.325.297.645.445.965l13.242-6.176c-.132-.28-.261-.566-.39-.847zm0 0" fill="plum"/><path d="M52.121 193.578l-13.348 5.942c.145.324.29.644.438.968l13.293-6.058c-.129-.285-.258-.567-.383-.852zm0 0" fill="plum"/><path d="M66.832 190.563l-13.133 6.406c.274.558.551 1.117.836 1.672l13.02-6.633a72.03 72.03 0 01-.72-1.446zm-.695-1.458l-13.242 6.176c.261.567.53 1.13.804 1.688l13.133-6.406c-.234-.485-.469-.97-.695-1.458zm0 0" fill="#b0c4de"/><path d="M65.469 187.637l-13.348 5.941c.254.57.512 1.137.777 1.703l13.243-6.176c-.227-.488-.45-.976-.668-1.468zm0 0" fill="#b0c4de"/><path d="M84.648 192.438l-12.253 7.957a90.193 90.193 0 002.742 3.992l11.82-8.586a78.878 78.878 0 01-2.312-3.363zm0 0" fill="#afeeee"/><path d="M82.516 188.96l-12.653 7.306a92.603 92.603 0 002.532 4.129l12.253-7.958a77.396 77.396 0 01-2.132-3.476zm0 0" fill="#afeeee"/><path d="M80.57 185.375l-13.02 6.633a93.329 93.329 0 002.313 4.258l12.653-7.305a79.451 79.451 0 01-1.946-3.586zm0 0" fill="#afeeee"/><path d="M78.816 181.695l-13.347 5.942a89.55 89.55 0 002.086 4.37l13.02-6.632a79.494 79.494 0 01-1.759-3.684zm0 0" fill="#afeeee"/><path d="M34.879 189.64l-13.813 4.758c.13.375.262.75.391 1.125l13.773-4.878-.351-1.004zm0 0" fill="violet"/><path d="M49.004 185.766l-13.774 4.879c.118.332.239.667.36 1l13.73-4.997-.316-.878zm0 0" fill="plum"/><path d="M48.695 184.883l-13.812 4.758c.117.336.23.668.351 1.004l13.774-4.88c-.106-.292-.207-.59-.309-.882zm0 0" fill="plum"/><path d="M34.207 187.625l-13.895 4.516c.122.379.247.754.372 1.129l13.855-4.637a98.818 98.818 0 01-.332-1.008zm0 0" fill="violet"/><path d="M48.395 183.996l-13.856 4.637.34 1.008 13.812-4.758c-.101-.293-.203-.59-.3-.887zm0 0" fill="plum"/><path d="M48.102 183.11l-13.895 4.515c.11.336.219.672.332 1.008l13.856-4.637c-.098-.297-.196-.59-.293-.887zm0 0" fill="plum"/><path d="M63.047 181.648l-13.73 4.997c.214.585.43 1.167.656 1.75l13.64-5.235c-.191-.504-.383-1.008-.566-1.512zm0 0" fill="#b0c4de"/><path d="M62.508 180.125l-13.813 4.758c.203.59.41 1.176.625 1.762l13.73-4.997c-.183-.507-.362-1.011-.538-1.523zm-.512-1.531l-13.894 4.515c.191.594.39 1.184.593 1.774l13.813-4.758a70.338 70.338 0 01-.512-1.531zm0 0" fill="#b0c4de"/><path d="M32.965 183.559l-14.043 4.027c.11.383.219.762.332 1.14l14.008-4.148c-.102-.34-.2-.68-.297-1.02zm0 0" fill="violet"/><path d="M47.27 180.43l-14.008 4.148.304 1.016 13.973-4.274-.27-.894zm0 0" fill="plum"/><path d="M47.008 179.531l-14.043 4.028c.097.34.195.68.297 1.02l14.008-4.15c-.09-.3-.176-.597-.262-.898zm0 0" fill="plum"/><path d="M32.395 181.512l-14.114 3.781c.102.383.207.766.313 1.148l14.078-3.906-.281-1.023zm0 0" fill="violet"/><path d="M46.754 178.633l-14.078 3.906c.094.34.191.684.289 1.024l14.043-4.028c-.086-.3-.172-.597-.254-.898zm-.246-.903l-14.113 3.782c.09.343.183.683.28 1.023l14.079-3.906-.246-.902zm0 0" fill="plum"/><path d="M61.512 177.055l-13.973 4.273c.184.598.371 1.192.563 1.785l13.894-4.515a77.631 77.631 0 01-.484-1.54zm-.462-1.551l-14.042 4.027c.172.598.347 1.196.531 1.793l13.973-4.273c-.157-.516-.309-1.031-.457-1.547zm0 0" fill="#b0c4de"/><path d="M60.621 173.95l-14.113 3.78c.16.602.328 1.204.5 1.801l14.043-4.027a70.303 70.303 0 01-.43-1.555zm0 0" fill="#b0c4de"/><path d="M31.367 177.387l-14.234 3.285c.09.387.18.773.273 1.16l14.207-3.41a80.274 80.274 0 01-.242-1.035zm0 0" fill="violet"/><path d="M45.816 175.012l-14.207 3.41c.082.344.168.687.254 1.031l14.176-3.535c-.074-.3-.148-.606-.223-.906zm-.214-.91l-14.235 3.285c.078.343.16.691.242 1.035l14.207-3.41a76.704 76.704 0 01-.214-.91zm0 0" fill="plum"/><path d="M30.906 175.313l-14.293 3.039c.082.386.168.777.254 1.164l14.266-3.164a98.81 98.81 0 01-.227-1.04zm0 0" fill="violet"/><path d="M45.398 173.191l-14.265 3.164.234 1.036 14.235-3.286c-.07-.304-.141-.609-.207-.91zm0 0" fill="plum"/><path d="M45.2 172.277l-14.294 3.04c.074.347.149.69.227 1.038l14.265-3.164-.199-.914zm0 0" fill="plum"/><path d="M60.215 172.387l-14.176 3.535c.152.605.309 1.207.469 1.808l14.113-3.78c-.14-.52-.273-1.044-.406-1.563zm-.375-1.571l-14.235 3.286c.141.605.286 1.214.438 1.816l14.176-3.535c-.13-.524-.258-1.047-.38-1.57zm0 0" fill="#b0c4de"/><path d="M59.488 169.238l-14.293 3.04c.13.609.266 1.218.407 1.824l14.234-3.286a70.856 70.856 0 01-.348-1.578zm0 0" fill="#b0c4de"/><path d="M77.254 177.926l-13.64 5.234c.577 1.508 1.195 3 1.855 4.477l13.347-5.942a77.3 77.3 0 01-1.562-3.77zm0 0" fill="#afeeee"/><path d="M75.89 174.078l-13.894 4.516c.5 1.535 1.04 3.058 1.617 4.566l13.64-5.234a78.744 78.744 0 01-1.362-3.844zm0 0" fill="#afeeee"/><path d="M74.734 170.168l-14.113 3.781a91.69 91.69 0 001.375 4.645l13.895-4.516a80.123 80.123 0 01-1.16-3.91zm0 0" fill="#afeeee"/><path d="M73.781 166.2l-14.293 3.038a92.818 92.818 0 001.133 4.711l14.113-3.781a80.34 80.34 0 01-.953-3.969zm0 0" fill="#afeeee"/><path d="M29.152 164.84l-14.5 1.781c.047.395.098.79.149 1.18l14.484-1.906a97.17 97.17 0 01-.133-1.055zm0 0" fill="violet"/><path d="M43.773 163.984l-14.484 1.907c.047.351.094.703.145 1.054l14.468-2.035a71.022 71.022 0 01-.125-.926zm0 0" fill="plum"/><path d="M43.656 163.059l-14.5 1.78c.043.352.086.704.133 1.056l14.484-1.907-.117-.925zm0 0" fill="plum"/><path d="M28.914 162.727l-14.531 1.527.129 1.184 14.515-1.653-.117-1.055zm0 0" fill="violet"/><path d="M43.547 162.129L29.03 163.78c.04.352.082.703.125 1.055l14.5-1.781c-.039-.309-.074-.618-.11-.93zm0 0" fill="plum"/><path d="M43.445 161.2l-14.53 1.527c.034.351.073.703.116 1.054l14.516-1.652a97.84 97.84 0 01-.102-.93zm0 0" fill="plum"/><path d="M58.367 162.879l-14.469 2.035c.086.617.18 1.234.278 1.848l14.43-2.285a71.482 71.482 0 01-.239-1.598zm0 0" fill="#b0c4de"/><path d="M58.156 161.277l-14.5 1.782c.074.617.157 1.238.242 1.855l14.47-2.035c-.075-.531-.145-1.066-.212-1.602zm-.183-1.605l-14.532 1.527c.067.621.137 1.238.211 1.86l14.5-1.782c-.066-.535-.125-1.07-.183-1.605zm0 0" fill="#b0c4de"/><path d="M28.543 158.492l-14.574 1.02c.027.394.058.793.09 1.187l14.566-1.144a96.393 96.393 0 01-.078-1.059zm0 0" fill="violet"/><path d="M43.188 158.406l-14.567 1.145c.027.351.059.707.09 1.058l14.555-1.273a69.36 69.36 0 01-.078-.934zm0 0" fill="plum"/><path d="M43.117 157.473l-14.574 1.02c.023.35.05.706.078 1.058l14.567-1.145-.07-.933zm0 0" fill="plum"/><path d="M28.414 156.371l-14.59.766c.02.394.043.793.067 1.187l14.582-.89a47.099 47.099 0 01-.059-1.063zm0 0" fill="violet"/><path d="M43.059 156.54l-14.582.89c.023.351.043.707.07 1.058l14.574-1.02a74.863 74.863 0 01-.062-.933zm0 0" fill="plum"/><path d="M43.004 155.61l-14.59.765.059 1.063 14.582-.891c-.02-.313-.035-.621-.055-.934zm0 0" fill="plum"/><path d="M57.82 158.066l-14.554 1.274c.054.62.113 1.242.18 1.863l14.53-1.527c-.054-.535-.109-1.07-.156-1.61zm-.129-1.613l-14.574 1.02c.043.62.094 1.242.149 1.863l14.554-1.274a74.355 74.355 0 01-.125-1.609zm0 0" fill="#b0c4de"/><path d="M57.594 154.844l-14.59.765c.031.621.07 1.246.113 1.868l14.574-1.02a71.238 71.238 0 01-.097-1.613zm0 0" fill="#b0c4de"/><path d="M28.266 152.125l-14.61.254c.008.398.016.793.028 1.191l14.605-.382-.023-1.063zm0 0" fill="violet"/><path d="M42.895 152.805l-14.606.382c.008.356.02.708.031 1.063l14.602-.512c-.012-.312-.02-.62-.027-.933zm0 0" fill="plum"/><path d="M42.875 151.871l-14.61.254.024 1.063 14.606-.383c-.008-.313-.016-.625-.02-.934zm0 0" fill="plum"/><path d="M28.246 150h-14.61c0 .398 0 .793.005 1.191l14.609-.129c-.004-.355-.004-.707-.004-1.062zm0 0" fill="violet"/><path d="M42.86 150.934l-14.61.129c.004.355.008.707.016 1.062l14.609-.254-.012-.934zm-.005-.934H28.246c0 .355 0 .707.004 1.063l14.61-.13c-.005-.312-.005-.624-.005-.933zm0 0" fill="plum"/><path d="M57.523 153.23l-14.601.512c.023.621.05 1.246.082 1.867l14.59-.765a96.755 96.755 0 01-.07-1.614zm-.043-1.617l-14.609.254c.012.625.027 1.246.05 1.871l14.602-.511c-.02-.54-.03-1.075-.043-1.614zm0 0" fill="#b0c4de"/><path d="M57.469 150h-14.61c0 .625.004 1.246.016 1.871l14.61-.254c-.008-.539-.016-1.078-.016-1.613zm0 0" fill="#b0c4de"/><path d="M73.04 162.191l-14.43 2.286c.253 1.593.546 3.183.882 4.761l14.293-3.039a77.86 77.86 0 01-.742-4.012zm0 0" fill="#afeeee"/><path d="M72.504 158.145l-14.531 1.527a90.81 90.81 0 00.632 4.805l14.43-2.286a78.376 78.376 0 01-.531-4.043zm-.32-4.067l-14.59.766c.086 1.613.21 3.222.379 4.828l14.53-1.527a78.448 78.448 0 01-.32-4.067zm0 0" fill="#afeeee"/><path d="M72.078 150h-14.61c0 1.613.044 3.23.126 4.844l14.59-.766a78.935 78.935 0 01-.106-4.078zm0 0" fill="#afeeee"/><path d="M107.637 197.05l-9.778 10.86a77.914 77.914 0 0013.18 9.574l7.305-12.652a63.087 63.087 0 01-10.707-7.781zm-8.856-9.835l-11.82 8.586a78.016 78.016 0 0010.898 12.105l9.778-10.86a63.174 63.174 0 01-8.856-9.835zm0 0" fill="#20b2aa"/><path d="M92.16 175.75l-13.347 5.941a78.112 78.112 0 008.144 14.11l11.82-8.586a63.128 63.128 0 01-6.617-11.461zm0 0" fill="#20b2aa"/><path d="M88.07 163.164l-14.293 3.04a77.96 77.96 0 005.035 15.491l13.348-5.941a63.135 63.135 0 01-4.09-12.59zM86.688 150h-14.61c0 5.445.57 10.875 1.703 16.2l14.293-3.04a63.437 63.437 0 01-1.383-13.164zm0 0" fill="#20b2aa"/><path d="M33.566 114.402l-13.972-4.273c-.117.379-.23.758-.344 1.14l14.008 4.149.304-1.016zm0 0" fill="violet"/><path d="M47.27 119.57l-14.008-4.148c-.102.34-.2.68-.297 1.02l14.043 4.027c.086-.301.172-.598.262-.899zm.27-.894l-13.974-4.274c-.105.34-.207.68-.304 1.016l14.008 4.148.27-.894zm0 0" fill="plum"/><path d="M34.207 112.375l-13.895-4.516c-.12.38-.242.754-.363 1.133l13.934 4.395c.105-.336.215-.676.324-1.012zm0 0" fill="violet"/><path d="M47.816 117.781l-13.933-4.394c-.106.336-.211.675-.317 1.015l13.973 4.274c.09-.297.184-.594.277-.895zm0 0" fill="plum"/><path d="M48.102 116.89l-13.895-4.515c-.11.336-.219.676-.324 1.012l13.933 4.394c.094-.297.188-.594.286-.89zm0 0" fill="plum"/><path d="M61.05 124.496l-14.042-4.027a92.09 92.09 0 00-.5 1.8l14.113 3.782c.14-.52.281-1.04.43-1.555zm.462-1.551l-13.973-4.273c-.184.598-.36 1.195-.531 1.793l14.043 4.027c.148-.515.3-1.035.457-1.547zm0 0" fill="#b0c4de"/><path d="M61.996 121.406l-13.894-4.515c-.192.593-.38 1.187-.563 1.785l13.973 4.273c.156-.515.32-1.027.484-1.539zm0 0" fill="#b0c4de"/><path d="M35.59 108.36l-13.73-4.997c-.137.371-.27.746-.403 1.121l13.773 4.88c.118-.333.239-.669.36-1zm0 0" fill="violet"/><path d="M49.004 114.234l-13.774-4.879-.351 1.004 13.812 4.758c.102-.293.204-.59.309-.883zm0 0" fill="plum"/><path d="M49.32 113.355l-13.73-4.996c-.121.332-.242.668-.36 1l13.774 4.88.316-.88zm0 0" fill="plum"/><path d="M36.332 106.367l-13.64-5.234-.422 1.113 13.683 5.117.375-.992zm0 0" fill="violet"/><path d="M49.64 112.477l-13.683-5.118c-.125.332-.246.664-.367.996l13.73 4.997c.106-.293.215-.586.325-.88zm0 0" fill="plum"/><path d="M49.973 111.602l-13.641-5.235c-.125.332-.254.66-.375.992l13.684 5.118c.109-.293.218-.582.332-.875zm0 0" fill="plum"/><path d="M62.508 119.875l-13.813-4.758c-.203.59-.402 1.18-.593 1.774l13.894 4.515c.168-.511.336-1.023.512-1.531zm0 0" fill="#b0c4de"/><path d="M63.047 118.352l-13.73-4.997a94.308 94.308 0 00-.626 1.762l13.813 4.758c.176-.508.355-1.016.539-1.523zm0 0" fill="#b0c4de"/><path d="M63.613 116.84l-13.64-5.235c-.223.582-.442 1.165-.657 1.75l13.73 4.997a66.31 66.31 0 01.567-1.512zm0 0" fill="#b0c4de"/><path d="M37.926 102.426l-13.45-5.707c-.156.363-.308.73-.46 1.097l13.5 5.59c.136-.328.273-.652.41-.98zm0 0" fill="violet"/><path d="M51.012 109l-13.5-5.59c-.137.328-.27.656-.403.985l13.547 5.472c.117-.289.235-.578.356-.867zm.363-.863l-13.45-5.707-.41.98 13.5 5.59c.122-.29.239-.574.364-.863zm0 0" fill="plum"/><path d="M38.773 100.477l-13.347-5.942-.48 1.09 13.398 5.824c.14-.324.285-.648.43-.972zm0 0" fill="violet"/><path d="M51.742 107.277l-13.398-5.824c-.14.324-.282.649-.418.977l13.449 5.707.367-.86zm0 0" fill="plum"/><path d="M52.121 106.422l-13.348-5.942c-.144.325-.285.649-.43.973l13.4 5.824.374-.855zm0 0" fill="plum"/><path d="M64.207 115.336l-13.547-5.473c-.234.578-.46 1.157-.683 1.739l13.64 5.234c.192-.504.39-1.004.594-1.504zm0 0" fill="#b0c4de"/><path d="M64.824 113.844l-13.449-5.707c-.242.574-.48 1.148-.715 1.726l13.547 5.473c.203-.5.406-.996.617-1.492zm0 0" fill="#b0c4de"/><path d="M65.469 112.363l-13.348-5.941c-.254.57-.504 1.14-.746 1.715l13.45 5.707c.21-.496.425-.989.644-1.48zm0 0" fill="#b0c4de"/><path d="M74.734 129.832l-14.113-3.781a91.823 91.823 0 00-1.133 4.71l14.293 3.04c.281-1.332.602-2.653.953-3.969zm1.156-3.91l-13.894-4.516a91.69 91.69 0 00-1.375 4.645l14.113 3.781a76.012 76.012 0 011.16-3.91zm0 0" fill="#afeeee"/><path d="M77.254 122.074l-13.64-5.234a94.522 94.522 0 00-1.618 4.566l13.895 4.516a78.744 78.744 0 011.363-3.844zm0 0" fill="#afeeee"/><path d="M78.816 118.305l-13.347-5.942a97.216 97.216 0 00-1.856 4.477l13.64 5.234a77.3 77.3 0 011.563-3.77zm0 0" fill="#afeeee"/><path d="M43.512 90.973L30.734 83.89l-.574 1.043L43 91.906c.168-.312.34-.62.512-.93zm0 0" fill="violet"/><path d="M55.84 98.875L43 91.902l-.504.938 12.899 6.86c.144-.274.292-.552.44-.825zm0 0" fill="plum"/><path d="M56.29 98.055l-12.778-7.082c-.172.308-.344.62-.512.93l12.84 6.972c.148-.273.297-.547.45-.82zm0 0" fill="plum"/><path d="M44.559 89.125L31.906 81.82c-.199.344-.394.688-.59 1.032l12.715 7.195c.176-.309.352-.617.528-.922zm0 0" fill="violet"/><path d="M56.746 97.242l-12.715-7.195c-.176.308-.347.617-.52.926l12.778 7.082c.152-.274.305-.543.457-.817zm0 0" fill="plum"/><path d="M57.21 96.43l-12.65-7.305-.528.922 12.715 7.195c.152-.27.309-.543.465-.812zm0 0" fill="plum"/><path d="M68.297 106.559l-12.899-6.86a84.09 84.09 0 00-.863 1.66l13.02 6.633c.246-.48.492-.957.746-1.433zm0 0" fill="#b0c4de"/><path d="M69.07 105.14l-12.777-7.08c-.3.546-.602 1.093-.89 1.644l12.898 6.86c.254-.477.508-.95.77-1.418zm0 0" fill="#b0c4de"/><path d="M69.863 103.734L57.211 96.43c-.313.539-.617 1.082-.922 1.629l12.777 7.082c.262-.473.528-.938.797-1.407zm0 0" fill="#b0c4de"/><path d="M46.746 85.48l-12.39-7.742c-.211.336-.419.672-.626 1.012l12.458 7.633c.183-.301.37-.602.558-.903zm0 0" fill="violet"/><path d="M58.645 94.02l-12.458-7.633c-.183.3-.367.605-.55.91L58.16 94.82c.16-.265.32-.535.485-.8zm.492-.797l-12.39-7.743c-.188.301-.376.602-.56.903l12.458 7.633.492-.797zm0 0" fill="plum"/><path d="M47.89 83.688L35.638 75.73l-.645 1 12.324 7.852c.192-.297.383-.598.575-.894zm0 0" fill="violet"/><path d="M59.637 92.434l-12.325-7.852c-.19.297-.378.598-.566.898l12.39 7.743c.165-.266.333-.528.5-.79zm0 0" fill="plum"/><path d="M60.14 91.645l-12.253-7.957c-.192.296-.383.593-.575.894l12.325 7.852.504-.786zm0 0" fill="plum"/><path d="M70.684 102.344L58.16 94.82c-.32.535-.637 1.07-.95 1.61l12.653 7.304c.27-.464.543-.93.82-1.39zm.843-1.379l-12.39-7.742a82.755 82.755 0 00-.977 1.593l12.524 7.524c.277-.461.558-.922.843-1.38zm0 0" fill="#b0c4de"/><path d="M72.395 99.602L60.14 91.645c-.34.523-.676 1.046-1.004 1.578l12.39 7.742c.285-.457.575-.91.868-1.363zm0 0" fill="#b0c4de"/><path d="M50.266 80.164l-11.97-8.379c-.226.324-.452.653-.679.977l12.04 8.277c.198-.293.402-.582.605-.871zm0 0" fill="violet"/><path d="M61.7 89.313l-12.04-8.278c-.2.293-.398.586-.597.88l12.113 8.17.527-.772zm0 0" fill="plum"/><path d="M62.234 88.547l-11.968-8.379c-.203.289-.407.582-.606.871l12.04 8.277c.175-.257.355-.511.53-.77zm0 0" fill="plum"/><path d="M51.5 78.434l-11.82-8.586c-.235.32-.465.644-.696.965l11.895 8.484c.207-.29.414-.574.621-.863zm0 0" fill="violet"/><path d="M62.773 87.781L50.88 79.297c-.207.289-.41.578-.613.867l11.968 8.379c.18-.254.36-.512.54-.762zm0 0" fill="plum"/><path d="M63.32 87.023L51.5 78.438c-.207.285-.414.574-.621.863l11.894 8.484c.18-.254.364-.508.547-.758zm0 0" fill="plum"/><path d="M73.285 98.258l-12.113-8.172a107.54 107.54 0 00-1.031 1.559l12.254 7.957c.293-.454.59-.903.89-1.348zm0 0" fill="#b0c4de"/><path d="M74.203 96.926l-11.969-8.38a82.88 82.88 0 00-1.058 1.544l12.113 8.172c.3-.446.606-.89.914-1.332zm0 0" fill="#b0c4de"/><path d="M75.14 95.61l-11.82-8.587a112.86 112.86 0 00-1.086 1.524l11.97 8.379c.308-.442.62-.88.937-1.317zm0 0" fill="#b0c4de"/><path d="M80.57 114.625l-13.02-6.633a91.31 91.31 0 00-2.085 4.371l13.347 5.942a81.455 81.455 0 011.758-3.684zm0 0" fill="#afeeee"/><path d="M82.516 111.04l-12.653-7.306a91.3 91.3 0 00-2.312 4.258l13.02 6.633a79.451 79.451 0 011.945-3.586zm0 0" fill="#afeeee"/><path d="M84.648 107.563l-12.253-7.958a94.897 94.897 0 00-2.532 4.13l12.653 7.304c.68-1.18 1.39-2.336 2.132-3.477zm2.312-3.363l-11.82-8.587a90.192 90.192 0 00-2.742 3.992l12.254 7.957a78.876 78.876 0 012.313-3.363zm0 0" fill="#afeeee"/><path d="M58.113 70.121l-11.027-9.586c-.262.3-.52.602-.777.903l11.109 9.488c.23-.27.46-.54.695-.805zm0 0" fill="violet"/><path d="M68.527 80.418L57.418 70.93l-.688.812 11.192 9.39c.2-.237.402-.476.605-.714zm.61-.711l-11.028-9.586c-.23.266-.464.535-.695.805l11.11 9.488c.203-.238.406-.473.609-.707zm0 0" fill="plum"/><path d="M59.52 68.531l-10.86-9.777c-.265.293-.531.59-.793.887l10.942 9.68c.234-.266.468-.532.707-.794zm0 0" fill="violet"/><path d="M69.754 79.004l-10.942-9.68c-.234.266-.468.531-.699.797l11.028 9.586c.203-.234.41-.469.617-.703zm0 0" fill="plum"/><path d="M70.379 78.309l-10.86-9.778c-.238.262-.472.528-.706.793l10.94 9.68c.208-.234.415-.465.622-.7zm0 0" fill="plum"/><path d="M79.117 90.52l-11.191-9.391c-.403.476-.797.957-1.188 1.441l11.356 9.196c.34-.418.68-.832 1.027-1.246zm0 0" fill="#b0c4de"/><path d="M80.164 89.293l-11.027-9.586c-.41.469-.813.945-1.215 1.422l11.191 9.39c.348-.414.696-.82 1.051-1.226zm1.07-1.211l-10.859-9.777c-.418.465-.832.93-1.238 1.402l11.027 9.586c.352-.406.711-.809 1.07-1.211zm0 0" fill="#b0c4de"/><path d="M62.418 65.422L51.906 55.273c-.277.286-.55.57-.824.86L61.68 66.19c.242-.257.488-.511.734-.765zm0 0" fill="violet"/><path d="M72.281 76.246L61.684 66.188c-.243.257-.489.515-.727.773l10.684 9.965c.21-.227.425-.453.64-.68zm0 0" fill="plum"/><path d="M72.93 75.574L62.418 65.426c-.246.254-.492.511-.734.765L72.28 76.25c.215-.227.43-.453.649-.676zm0 0" fill="plum"/><path d="M63.906 63.906L53.574 53.574c-.281.281-.558.563-.836.844L63.16 64.66c.25-.254.496-.504.746-.754zm0 0" fill="violet"/><path d="M73.582 74.902L63.16 64.66c-.25.254-.496.508-.742.762L72.93 75.57c.215-.222.433-.449.652-.668zm0 0" fill="plum"/><path d="M74.238 74.238L63.906 63.906c-.25.25-.5.504-.746.754l10.422 10.242c.219-.222.438-.445.66-.664zm0 0" fill="plum"/><path d="M82.324 86.895L71.641 76.93a81.72 81.72 0 00-1.262 1.379l10.86 9.777a93.03 93.03 0 011.09-1.191zm0 0" fill="#b0c4de"/><path d="M83.438 85.723L72.925 75.574c-.434.45-.864.903-1.29 1.356l10.684 9.965c.368-.395.739-.786 1.114-1.172zm1.132-1.153L74.238 74.238c-.441.442-.879.887-1.312 1.332l10.511 10.15c.376-.387.75-.77 1.133-1.153zm0 0" fill="#b0c4de"/><path d="M66.965 60.957L57 50.273c-.29.27-.578.543-.867.817L66.19 61.687c.258-.242.516-.488.774-.726zm0 0" fill="violet"/><path d="M76.246 72.281L66.188 61.684c-.258.242-.512.488-.766.734L75.57 72.93c.223-.215.45-.434.676-.649zm.684-.641l-9.965-10.683-.774.727L76.25 72.28c.227-.215.453-.43.68-.64zm0 0" fill="plum"/><path d="M68.531 59.52l-9.777-10.86c-.293.266-.59.531-.879.8l9.871 10.774.785-.714zm0 0" fill="violet"/><path d="M77.617 71.008l-9.87-10.774c-.263.239-.52.48-.782.723l9.965 10.684c.226-.211.457-.426.687-.633zm0 0" fill="plum"/><path d="M78.309 70.379l-9.778-10.86-.785.715 9.871 10.774c.23-.211.461-.422.692-.63zm0 0" fill="plum"/><path d="M85.723 83.438L75.574 72.925c-.449.433-.894.87-1.332 1.312L84.574 84.57c.38-.379.766-.757 1.153-1.132zm0 0" fill="#b0c4de"/><path d="M86.895 82.324L76.93 71.641a96.95 96.95 0 00-1.356 1.289l10.149 10.51c.386-.375.777-.746 1.172-1.113zm0 0" fill="#b0c4de"/><path d="M88.082 81.234l-9.777-10.859c-.465.418-.922.84-1.38 1.262l9.966 10.683c.394-.367.789-.73 1.191-1.09zm0 0" fill="#b0c4de"/><path d="M89.441 100.96l-11.355-9.194a91.02 91.02 0 00-2.95 3.843l11.821 8.586a79.86 79.86 0 012.484-3.238zm0 0" fill="#afeeee"/><path d="M92.094 97.86l-10.86-9.778a90.922 90.922 0 00-3.144 3.684l11.355 9.195a76.993 76.993 0 012.649-3.102zm0 0" fill="#afeeee"/><path d="M94.902 94.902L84.57 84.57a91.562 91.562 0 00-3.336 3.516l10.86 9.777a80.354 80.354 0 012.808-2.96zm0 0" fill="#afeeee"/><path d="M97.86 92.094l-9.778-10.86a94.368 94.368 0 00-3.516 3.336l10.332 10.332a78.54 78.54 0 012.961-2.808zm0 0" fill="#afeeee"/><path d="M76.727 52.762l-8.793-11.668c-.317.238-.633.48-.946.718l8.895 11.59c.281-.215.562-.43.847-.644zm0 0" fill="violet"/><path d="M84.777 64.996l-8.894-11.59c-.281.215-.563.434-.84.653l8.996 11.511.738-.574zm0 0" fill="plum"/><path d="M85.52 64.434l-8.793-11.668c-.282.214-.567.425-.848.644L84.773 65c.247-.191.497-.379.747-.566zm0 0" fill="plum"/><path d="M78.434 51.5l-8.586-11.82-.961.703 8.691 11.746c.285-.211.57-.422.856-.629zm0 0" fill="violet"/><path d="M86.27 63.871l-8.692-11.746c-.285.21-.57.422-.851.637L85.52 64.43c.25-.188.5-.375.75-.559zm.753-.551L78.438 51.5c-.286.207-.57.418-.856.629l8.691 11.746c.25-.184.5-.371.754-.555zm0 0" fill="plum"/><path d="M93.031 77.082L84.035 65.57c-.492.383-.98.774-1.465 1.164l9.196 11.356c.418-.34.84-.676 1.265-1.004zm0 0" fill="#b0c4de"/><path d="M94.313 76.102L85.52 64.434c-.497.375-.993.754-1.485 1.136l8.996 11.512c.426-.332.852-.66 1.281-.984zm0 0" fill="#b0c4de"/><path d="M95.61 75.14l-8.587-11.82c-.503.367-1.003.739-1.503 1.114l8.793 11.668c.43-.325.863-.645 1.296-.961zm0 0" fill="#b0c4de"/><path d="M81.918 49.063l-8.172-12.114-.984.668 8.277 12.04c.293-.2.586-.4.879-.598zm0 0" fill="violet"/><path d="M89.313 61.7l-8.278-12.04c-.293.2-.582.403-.87.606l8.378 11.968c.254-.18.512-.355.77-.53zm.773-.524l-8.172-12.114-.879.598 8.278 12.04c.257-.177.515-.352.773-.528zm0 0" fill="plum"/><path d="M83.688 47.89L75.73 35.638c-.332.215-.664.433-.996.652l8.063 12.184c.297-.196.59-.391.887-.582zm0 0" fill="violet"/><path d="M90.863 60.656l-8.062-12.183c-.297.195-.59.39-.883.59l8.172 12.113c.258-.176.515-.348.777-.52zm0 0" fill="plum"/><path d="M91.645 60.14l-7.957-12.253c-.297.191-.594.386-.887.582l8.062 12.183c.262-.172.52-.343.782-.511zm0 0" fill="plum"/><path d="M96.926 74.203l-8.38-11.969c-.51.36-1.019.72-1.523 1.086l8.586 11.82c.434-.316.875-.628 1.317-.937zm0 0" fill="#b0c4de"/><path d="M98.258 73.285l-8.172-12.113c-.516.348-1.031.703-1.543 1.058l8.379 11.97c.441-.31.883-.614 1.332-.915zm1.344-.89L91.645 60.14c-.524.34-1.043.683-1.56 1.03l8.173 12.114c.445-.3.894-.597 1.347-.89zm0 0" fill="#b0c4de"/><path d="M87.293 45.637L79.77 33.113c-.34.203-.68.41-1.016.617l7.633 12.458c.3-.184.605-.368.91-.551zm0 0" fill="violet"/><path d="M94.02 58.645l-7.633-12.458c-.301.184-.602.372-.903.56l7.743 12.39.796-.492zm0 0" fill="plum"/><path d="M94.816 58.16l-7.523-12.523c-.305.183-.606.367-.91.55l7.633 12.458c.265-.165.53-.325.8-.485zm0 0" fill="plum"/><path d="M89.125 44.559L81.82 31.906l-1.027.598 7.414 12.59c.305-.18.61-.36.918-.535zm0 0" fill="violet"/><path d="M95.621 57.684l-7.414-12.59c-.305.18-.61.36-.914.543l7.523 12.523c.266-.16.536-.32.805-.476zm0 0" fill="plum"/><path d="M96.43 57.21l-7.305-12.65c-.309.175-.613.355-.918.535l7.414 12.59c.27-.157.54-.317.809-.473zm0 0" fill="plum"/><path d="M100.965 71.527l-7.742-12.39c-.528.332-1.055.664-1.578 1.004l7.957 12.254c.453-.293.906-.582 1.363-.868zm1.379-.843L94.82 58.16c-.535.32-1.066.649-1.593.977l7.742 12.39a81.1 81.1 0 011.379-.843zm0 0" fill="#b0c4de"/><path d="M103.734 69.863L96.43 57.211a98.58 98.58 0 00-1.61.95l7.524 12.523c.46-.278.926-.551 1.39-.82zm0 0" fill="#b0c4de"/><path d="M100.96 89.441l-9.194-11.355a94.172 94.172 0 00-3.684 3.144l9.777 10.86a79.803 79.803 0 013.102-2.649zm3.24-2.481l-8.587-11.82a93.61 93.61 0 00-3.843 2.95l9.195 11.355a79.86 79.86 0 013.238-2.484zm0 0" fill="#afeeee"/><path d="M107.563 84.648l-7.958-12.253a90.193 90.193 0 00-3.992 2.742l8.586 11.82c1.102-.8 2.223-1.57 3.364-2.312zm0 0" fill="#afeeee"/><path d="M111.04 82.516l-7.306-12.653a92.603 92.603 0 00-4.129 2.532l7.957 12.253a77.024 77.024 0 013.477-2.132zm0 0" fill="#afeeee"/><path d="M88.07 136.836l-14.293-3.04a77.869 77.869 0 00-1.703 16.2h14.61c0-4.426.464-8.836 1.382-13.164zm0 0" fill="#20b2aa"/><path d="M92.16 124.25l-13.347-5.941a77.96 77.96 0 00-5.036 15.492l14.293 3.039a63.135 63.135 0 014.09-12.59zm6.621-11.465l-11.82-8.586a77.978 77.978 0 00-8.145 14.11l13.348 5.941a63.225 63.225 0 016.617-11.46zm8.856-9.835l-9.778-10.86a77.818 77.818 0 00-10.898 12.105l11.82 8.586a63.57 63.57 0 018.856-9.836zm0 0" fill="#20b2aa"/><path d="M118.344 95.172l-7.305-12.652a78.13 78.13 0 00-13.18 9.574l9.778 10.86a63.458 63.458 0 0110.707-7.782zm0 0" fill="#20b2aa"/><path d="M122.613 31.367l-3.285-14.234c-.387.09-.773.18-1.16.273l3.41 14.207c.344-.082.688-.164 1.035-.242zm0 0" fill="violet"/><path d="M124.988 45.816l-3.41-14.207c-.344.082-.687.168-1.031.254l3.535 14.176c.3-.074.606-.148.906-.223zm0 0" fill="plum"/><path d="M125.898 45.602l-3.285-14.235c-.343.078-.691.16-1.035.242l3.41 14.207c.305-.074.606-.144.91-.214zm0 0" fill="plum"/><path d="M124.688 30.906l-3.04-14.293c-.386.082-.777.168-1.164.254l3.164 14.266a98.81 98.81 0 011.04-.227zm0 0" fill="violet"/><path d="M126.809 45.398l-3.164-14.265-1.036.234 3.286 14.235c.304-.07.609-.141.91-.207zm0 0" fill="plum"/><path d="M127.723 45.2l-3.04-14.294c-.347.074-.69.149-1.038.227l3.164 14.265.914-.199zm0 0" fill="plum"/><path d="M127.613 60.215l-3.535-14.176c-.605.152-1.207.309-1.808.469l3.78 14.113c.52-.14 1.044-.273 1.563-.406zm1.571-.375l-3.286-14.235c-.605.141-1.214.286-1.816.438l3.535 14.176c.524-.13 1.047-.258 1.57-.38zm0 0" fill="#b0c4de"/><path d="M130.762 59.488l-3.04-14.293c-.609.13-1.218.266-1.824.407l3.286 14.234c.523-.121 1.05-.238 1.578-.348zm0 0" fill="#b0c4de"/><path d="M128.86 30.098l-2.536-14.387-1.172.21 2.664 14.368c.348-.066.696-.129 1.047-.187zm0 0" fill="violet"/><path d="M130.477 44.652l-2.665-14.367c-.347.067-.695.13-1.042.2l2.789 14.343.918-.176zm.918-.168l-2.536-14.386-1.047.187 2.665 14.367c.304-.058.613-.113.921-.168zm0 0" fill="plum"/><path d="M130.953 29.746l-2.285-14.43c-.39.063-.785.125-1.176.192l2.41 14.41c.348-.059.7-.117 1.047-.172zm0 0" fill="violet"/><path d="M132.316 44.328l-2.41-14.41c-.347.059-.699.117-1.047.18l2.536 14.386c.308-.054.613-.105.921-.16zm0 0" fill="plum"/><path d="M133.238 44.176l-2.285-14.43c-.351.055-.7.113-1.047.172l2.41 14.41c.309-.05.614-.101.922-.148zm0 0" fill="plum"/><path d="M132.344 59.168l-2.79-14.344a94.99 94.99 0 00-1.831.371l3.039 14.293a75.613 75.613 0 011.582-.32zm1.59-.293l-2.536-14.387c-.613.11-1.226.223-1.84.34l2.79 14.344c.527-.102 1.058-.2 1.59-.293zm0 0" fill="#b0c4de"/><path d="M135.523 58.605l-2.285-14.43c-.617.098-1.23.2-1.843.31l2.535 14.386a75.282 75.282 0 011.593-.266zm0 0" fill="#b0c4de"/><path d="M135.16 29.152l-1.781-14.5c-.395.047-.79.098-1.18.149l1.906 14.484c.352-.047.704-.09 1.055-.133zm0 0" fill="violet"/><path d="M136.016 43.773l-1.907-14.484c-.351.047-.703.094-1.054.145l2.035 14.468c.308-.043.617-.086.926-.125zm0 0" fill="plum"/><path d="M136.941 43.656l-1.78-14.5c-.352.043-.704.086-1.056.133l1.907 14.484.925-.117zm0 0" fill="plum"/><path d="M137.273 28.914l-1.527-14.531-1.184.129 1.653 14.515 1.055-.117zm0 0" fill="violet"/><path d="M137.871 43.547L136.22 29.03c-.352.04-.703.082-1.055.125l1.781 14.5c.309-.039.618-.074.93-.11zm0 0" fill="plum"/><path d="M138.8 43.445l-1.527-14.53c-.351.034-.703.073-1.054.116l1.652 14.516c.309-.035.621-.07.93-.102zm0 0" fill="plum"/><path d="M137.121 58.367l-2.035-14.469a95.62 95.62 0 00-1.848.278l2.285 14.43a71.482 71.482 0 011.598-.239zm0 0" fill="#b0c4de"/><path d="M138.723 58.156l-1.782-14.5c-.617.074-1.238.157-1.855.242l2.035 14.47c.531-.075 1.066-.145 1.602-.212zm1.605-.183l-1.527-14.532a170.7 170.7 0 00-1.86.211l1.782 14.5c.535-.066 1.07-.125 1.605-.183zm0 0" fill="#b0c4de"/><path d="M129.832 74.734l-3.781-14.113a91.69 91.69 0 00-4.645 1.375l4.516 13.895a80.123 80.123 0 013.91-1.16zm0 0" fill="#afeeee"/><path d="M133.8 73.781l-3.038-14.293a92.818 92.818 0 00-4.711 1.133l3.781 14.113a80.34 80.34 0 013.969-.953zm0 0" fill="#afeeee"/><path d="M137.809 73.04l-2.286-14.43a93.635 93.635 0 00-4.761.882l3.039 14.293a77.86 77.86 0 014.012-.742zm0 0" fill="#afeeee"/><path d="M141.855 72.504l-1.527-14.531a90.81 90.81 0 00-4.805.632l2.286 14.43c1.343-.21 2.691-.39 4.043-.531zm0 0" fill="#afeeee"/><path d="M147.875 28.266l-.254-14.61c-.398.008-.793.016-1.191.028l.382 14.605 1.063-.023zm0 0" fill="violet"/><path d="M147.195 42.895l-.382-14.606c-.356.008-.708.02-1.063.031l.512 14.602c.312-.012.62-.02.933-.027zm0 0" fill="plum"/><path d="M148.129 42.875l-.254-14.61-1.063.024.383 14.606c.313-.008.625-.016.934-.02zm0 0" fill="plum"/><path d="M150 28.246v-14.61c-.398 0-.793 0-1.191.005l.129 14.609c.355-.004.707-.004 1.062-.004zm0 0" fill="violet"/><path d="M149.066 42.86l-.129-14.61a94.02 94.02 0 00-1.062.016l.254 14.609.934-.012zm.934-.005V28.246c-.355 0-.707 0-1.063.004l.13 14.61c.312-.005.624-.005.933-.005zm0 0" fill="plum"/><path d="M146.77 57.523l-.512-14.601c-.621.023-1.246.05-1.867.082l.765 14.59c.54-.028 1.074-.051 1.614-.07zm1.617-.043l-.254-14.609c-.625.012-1.246.027-1.871.05l.511 14.602c.54-.02 1.075-.03 1.614-.043zm0 0" fill="#b0c4de"/><path d="M150 57.469v-14.61c-.625 0-1.246.004-1.871.016l.254 14.61c.539-.008 1.078-.016 1.613-.016zm0 0" fill="#b0c4de"/><path d="M154.25 28.32l.512-14.601a60.243 60.243 0 00-1.188-.035l-.383 14.605c.356.008.707.02 1.063.031zm0 0" fill="violet"/><path d="M152.805 42.895l.382-14.606-1.062-.023-.254 14.609c.313.004.625.012.934.02zm0 0" fill="plum"/><path d="M153.738 42.922l.512-14.602c-.355-.011-.707-.023-1.063-.03l-.382 14.605c.312.007.625.02.933.027zm0 0" fill="plum"/><path d="M156.371 28.414l.766-14.59-1.188-.058-.637 14.597c.356.016.708.032 1.063.051zm0 0" fill="violet"/><path d="M154.672 42.96l.637-14.597c-.356-.015-.707-.031-1.063-.043l-.512 14.602.934.035zm.938.044l.765-14.59a96.67 96.67 0 00-1.063-.05l-.636 14.597c.312.012.62.027.933.043zm0 0" fill="plum"/><path d="M151.613 57.48l.254-14.609a99.594 99.594 0 00-1.87-.016v14.61c.538 0 1.077.004 1.612.015zm1.617.043l.512-14.601a98.8 98.8 0 00-1.87-.05l-.255 14.608c.54.008 1.078.024 1.613.043zm1.614.071l.765-14.59c-.62-.031-1.246-.059-1.867-.082l-.512 14.601c.54.02 1.075.043 1.614.07zm0 0" fill="#b0c4de"/><path d="M160.613 28.71l1.274-14.554c-.395-.035-.79-.066-1.188-.097l-1.144 14.566c.351.027.707.059 1.058.09zm0 0" fill="violet"/><path d="M158.406 43.188l1.145-14.567a96.39 96.39 0 00-1.059-.078l-1.02 14.574c.313.024.622.043.934.07zm.934.078l1.273-14.555c-.351-.031-.707-.059-1.058-.09l-1.145 14.567c.313.023.621.05.934.078zm0 0" fill="plum"/><path d="M162.727 28.914l1.527-14.531c-.395-.043-.79-.082-1.184-.121l-1.398 14.543 1.058.105zm0 0" fill="violet"/><path d="M160.27 43.352l1.398-14.543c-.352-.036-.707-.067-1.059-.098l-1.273 14.555c.309.027.621.054.93.086zm0 0" fill="plum"/><path d="M161.2 43.445l1.527-14.53c-.352-.036-.704-.075-1.059-.106l-1.398 14.543.93.093zm0 0" fill="plum"/><path d="M156.453 57.691l1.02-14.574a97.74 97.74 0 00-1.868-.113l-.765 14.59c.539.027 1.074.062 1.613.097zm1.613.129l1.274-14.554c-.621-.055-1.242-.102-1.863-.149l-1.02 14.574c.535.04 1.074.079 1.61.125zm0 0" fill="#b0c4de"/><path d="M159.672 57.973l1.527-14.532c-.62-.066-1.242-.125-1.863-.18l-1.274 14.555c.536.047 1.07.098 1.61.157zm0 0" fill="#b0c4de"/><path d="M145.922 72.184l-.766-14.59c-1.613.086-3.222.21-4.828.379l1.527 14.53a78.89 78.89 0 014.067-.32zm0 0" fill="#afeeee"/><path d="M150 72.078v-14.61c-1.613 0-3.23.044-4.844.126l.766 14.59c1.36-.07 2.719-.106 4.078-.106zm4.078.106l.766-14.59a91.004 91.004 0 00-4.844-.125v14.61c1.36 0 2.719.034 4.078.105zm0 0" fill="#afeeee"/><path d="M158.145 72.504l1.527-14.531a90.625 90.625 0 00-4.828-.38l-.766 14.59c1.36.07 2.715.18 4.067.32zm0 0" fill="#afeeee"/><path d="M173.23 30.484l2.79-14.343-1.168-.223-2.665 14.367c.348.067.696.13 1.043.2zm0 0" fill="violet"/><path d="M169.523 44.652l2.665-14.367a45.002 45.002 0 00-1.047-.187l-2.536 14.386c.31.055.614.11.922.168zm0 0" fill="plum"/><path d="M170.445 44.824l2.79-14.344-1.044-.199-2.664 14.367c.305.059.614.114.918.176zm0 0" fill="plum"/><path d="M175.313 30.906l3.039-14.293a123.22 123.22 0 00-1.165-.242l-2.914 14.317c.348.07.696.144 1.04.214zm0 0" fill="violet"/><path d="M171.36 45.008l2.913-14.317c-.347-.07-.695-.14-1.043-.207l-2.789 14.344c.305.059.614.121.918.184zm.917.192l3.04-14.294a98.108 98.108 0 00-1.04-.215l-2.914 14.317c.305.062.61.125.914.191zm0 0" fill="plum"/><path d="M166.066 58.875l2.536-14.387c-.614-.11-1.23-.21-1.844-.308l-2.285 14.43c.53.085 1.062.171 1.593.265zm1.59.293l2.79-14.344c-.614-.117-1.227-.234-1.84-.34l-2.536 14.387c.532.094 1.059.191 1.59.293zm0 0" fill="#b0c4de"/><path d="M169.238 59.488l3.04-14.293a94.99 94.99 0 00-1.833-.37l-2.789 14.343c.528.102 1.055.21 1.582.32zm0 0" fill="#b0c4de"/><path d="M179.453 31.863l3.535-14.175c-.386-.098-.77-.192-1.156-.282l-3.41 14.207c.344.082.687.168 1.031.254zm0 0" fill="violet"/><path d="M175.012 45.816l3.41-14.207c-.344-.082-.688-.164-1.035-.242l-3.285 14.235c.304.07.605.14.91.214zm.91.224l3.535-14.177c-.344-.086-.687-.168-1.031-.254l-3.41 14.207.906.223zm0 0" fill="plum"/><path d="M181.512 32.395l3.781-14.114-1.152-.304-3.657 14.144 1.028.27zm0 0" fill="violet"/><path d="M176.828 46.27l3.656-14.145c-.343-.09-.687-.176-1.03-.262l-3.536 14.176c.3.074.605.152.906.23zm0 0" fill="plum"/><path d="M177.73 46.508l3.782-14.113c-.344-.09-.684-.184-1.028-.27l-3.656 14.145c.3.078.602.156.902.238zm0 0" fill="plum"/><path d="M170.816 59.84l3.286-14.235c-.606-.14-1.215-.273-1.825-.406l-3.039 14.293c.528.113 1.051.227 1.578.348zm1.571.375l3.535-14.176a99.781 99.781 0 00-1.817-.437l-3.285 14.234c.524.121 1.047.246 1.57.379zm0 0" fill="#b0c4de"/><path d="M173.95 60.621l3.78-14.113a153.87 153.87 0 00-1.808-.469l-3.535 14.176c.523.129 1.043.265 1.562.406zm0 0" fill="#b0c4de"/><path d="M185.598 33.566l4.273-13.972a97.18 97.18 0 00-1.14-.344l-4.149 14.008 1.016.304zm0 0" fill="violet"/><path d="M180.43 47.27l4.148-14.008c-.34-.102-.68-.2-1.02-.297l-4.027 14.043c.301.086.598.172.899.262zm.894.27l4.274-13.974a57.52 57.52 0 00-1.016-.304l-4.148 14.008.894.27zm0 0" fill="plum"/><path d="M187.625 34.207l4.516-13.895c-.38-.12-.754-.242-1.133-.363l-4.395 13.934c.336.105.676.215 1.012.324zm0 0" fill="violet"/><path d="M182.219 47.816l4.394-13.933c-.336-.106-.675-.211-1.015-.317l-4.274 13.973c.297.09.594.184.895.277zm0 0" fill="plum"/><path d="M183.11 48.102l4.515-13.895a79.04 79.04 0 00-1.012-.324l-4.394 13.933c.297.094.594.188.89.286zm0 0" fill="plum"/><path d="M175.504 61.05l4.027-14.042a94.39 94.39 0 00-1.8-.5l-3.782 14.113c.52.14 1.04.281 1.555.43zm1.551.462l4.273-13.973a93.513 93.513 0 00-1.793-.531l-4.027 14.043c.515.148 1.035.3 1.547.457zm0 0" fill="#b0c4de"/><path d="M178.594 61.996l4.515-13.894c-.593-.192-1.187-.38-1.785-.563l-4.273 13.973c.515.156 1.027.32 1.539.484zm0 0" fill="#b0c4de"/><path d="M162.191 73.04l2.286-14.43a89.75 89.75 0 00-4.805-.633l-1.527 14.53c1.351.141 2.703.321 4.042.532zm0 0" fill="#afeeee"/><path d="M166.2 73.781l3.038-14.293a93.636 93.636 0 00-4.761-.883l-2.286 14.43a78.15 78.15 0 014.012.742zm0 0" fill="#afeeee"/><path d="M170.168 74.734l3.781-14.113a91.823 91.823 0 00-4.71-1.133l-3.04 14.293c1.332.281 2.653.602 3.969.953zm0 0" fill="#afeeee"/><path d="M174.078 75.89l4.516-13.894a91.69 91.69 0 00-4.645-1.375l-3.781 14.113c1.312.352 2.617.739 3.91 1.16zm0 0" fill="#afeeee"/><path d="M197.574 37.926l5.707-13.45c-.363-.156-.73-.308-1.097-.46l-5.59 13.5c.328.136.652.273.98.41zm0 0" fill="violet"/><path d="M191 51.012l5.59-13.5c-.328-.137-.656-.27-.985-.403l-5.472 13.547c.289.117.578.235.867.356zm.863.363l5.707-13.45-.98-.41-5.59 13.5c.29.122.574.239.863.364zm0 0" fill="plum"/><path d="M199.523 38.773l5.942-13.347-1.09-.48-5.824 13.398c.324.14.648.285.972.43zm0 0" fill="violet"/><path d="M192.723 51.742l5.824-13.398c-.324-.14-.649-.282-.977-.418l-5.707 13.449.86.367zm0 0" fill="plum"/><path d="M193.578 52.121l5.942-13.348c-.325-.144-.649-.285-.973-.43l-5.824 13.4.855.374zm0 0" fill="plum"/><path d="M184.664 64.207l5.473-13.547a94.288 94.288 0 00-1.739-.683l-5.234 13.64c.504.192 1.004.39 1.504.594zm0 0" fill="#b0c4de"/><path d="M186.156 64.824l5.707-13.449c-.574-.242-1.148-.48-1.726-.715l-5.473 13.547c.5.203.996.406 1.492.617zm0 0" fill="#b0c4de"/><path d="M187.637 65.469l5.941-13.348c-.57-.254-1.14-.504-1.715-.746l-5.707 13.45c.496.21.989.425 1.48.644zm0 0" fill="#b0c4de"/><path d="M203.375 40.57l6.406-13.133a66.855 66.855 0 00-1.07-.515l-6.29 13.187c.321.153.638.305.958.461zm0 0" fill="violet"/><path d="M196.125 53.293l6.29-13.188c-.321-.152-.642-.304-.962-.453l-6.176 13.243.844.398zm.844.407l6.406-13.134a72.125 72.125 0 00-.957-.46l-6.29 13.187c.282.133.563.27.845.406zm0 0" fill="plum"/><path d="M205.273 41.516l6.633-13.02c-.351-.18-.707-.36-1.062-.535l-6.52 13.074c.317.156.633.317.95.477zm0 0" fill="violet"/><path d="M197.809 54.113l6.52-13.074c-.317-.156-.634-.316-.954-.469l-6.406 13.133c.281.137.558.274.84.414zm0 0" fill="plum"/><path d="M198.64 54.535l6.633-13.02c-.316-.16-.632-.32-.949-.476l-6.52 13.074.837.422zm0 0" fill="plum"/><path d="M189.105 66.137l6.176-13.242c-.566-.262-1.133-.524-1.703-.778l-5.941 13.348c.492.219.98.441 1.468.668zm1.458.695l6.406-13.133a83.577 83.577 0 00-1.688-.804l-6.176 13.242c.489.226.973.46 1.458.695zm1.445.723l6.633-13.02c-.555-.281-1.114-.562-1.672-.836l-6.406 13.133c.484.234.964.477 1.445.719zm0 0" fill="#b0c4de"/><path d="M209.027 43.512l7.082-12.778-1.043-.574L208.094 43c.312.168.62.34.93.512zm0 0" fill="violet"/><path d="M201.125 55.84L208.098 43l-.938-.504-6.86 12.899c.274.144.552.292.825.44zm0 0" fill="plum"/><path d="M201.945 56.29l7.082-12.778c-.308-.172-.62-.344-.93-.512l-6.972 12.84c.273.148.547.297.82.45zm0 0" fill="plum"/><path d="M210.875 44.559l7.305-12.653c-.344-.199-.688-.394-1.032-.59l-7.195 12.715c.309.176.617.352.922.528zm0 0" fill="violet"/><path d="M202.758 56.746l7.195-12.715c-.308-.176-.617-.347-.926-.52l-7.082 12.778c.274.152.543.305.817.457zm0 0" fill="plum"/><path d="M203.57 57.21l7.305-12.651-.922-.528-7.195 12.715c.27.152.543.309.812.465zm0 0" fill="plum"/><path d="M193.441 68.297l6.86-12.899a83.358 83.358 0 00-1.66-.863l-6.633 13.02c.48.246.957.492 1.433.746zm0 0" fill="#b0c4de"/><path d="M194.86 69.07l7.081-12.777c-.546-.3-1.093-.602-1.644-.89l-6.86 12.898c.477.254.95.508 1.418.77zm0 0" fill="#b0c4de"/><path d="M196.266 69.863l7.304-12.652a109.68 109.68 0 00-1.629-.922l-7.082 12.777c.473.262.938.528 1.407.797zm0 0" fill="#b0c4de"/><path d="M177.926 77.254l5.234-13.64a94.522 94.522 0 00-4.566-1.618l-4.516 13.895a78.29 78.29 0 013.844 1.363zm0 0" fill="#afeeee"/><path d="M181.695 78.816l5.942-13.347a97.216 97.216 0 00-4.477-1.856l-5.234 13.64a77.3 77.3 0 013.77 1.563zm0 0" fill="#afeeee"/><path d="M185.375 80.57l6.633-13.02a91.31 91.31 0 00-4.371-2.085l-5.942 13.347a81.455 81.455 0 013.684 1.758zm0 0" fill="#afeeee"/><path d="M188.96 82.516l7.306-12.653a91.3 91.3 0 00-4.258-2.312l-6.633 13.02a79.451 79.451 0 013.586 1.945zm0 0" fill="#afeeee"/><path d="M130.438 89.785l-4.516-13.894a77.928 77.928 0 00-14.883 6.625l7.305 12.652a63.4 63.4 0 0112.09-5.383zm12.945-2.75l-1.528-14.531a77.959 77.959 0 00-15.933 3.387l4.516 13.894a63.204 63.204 0 0112.945-2.75zm0 0" fill="#20b2aa"/><path d="M156.617 87.035l1.528-14.531a77.754 77.754 0 00-16.29 0l1.528 14.531c4.398-.46 8.836-.46 13.234 0zm0 0" fill="#20b2aa"/><path d="M169.563 89.785l4.515-13.894a77.959 77.959 0 00-15.933-3.387l-1.528 14.531a63.204 63.204 0 0112.946 2.75zm12.093 5.387l7.305-12.652a77.928 77.928 0 00-14.883-6.625l-4.516 13.894a63.292 63.292 0 0112.09 5.383zm0 0" fill="#20b2aa"/><path d="M239.043 66.965L249.727 57c-.27-.29-.543-.578-.817-.867L238.313 66.19c.242.258.488.516.726.774zm0 0" fill="violet"/><path d="M227.719 76.246l10.597-10.058a67.923 67.923 0 00-.734-.766L227.07 75.57c.215.223.434.45.649.676zm.641.684l10.683-9.965-.727-.774L227.72 76.25c.215.227.43.453.64.68zm0 0" fill="plum"/><path d="M240.48 68.531l10.86-9.777c-.266-.293-.531-.59-.8-.879l-10.774 9.871.714.785zm0 0" fill="violet"/><path d="M228.992 77.617l10.774-9.87c-.239-.263-.48-.52-.723-.782l-10.684 9.965c.211.226.426.457.633.687zm0 0" fill="plum"/><path d="M229.621 78.309l10.86-9.778-.715-.785-10.774 9.871c.211.23.422.461.63.692zm0 0" fill="plum"/><path d="M216.563 85.723l10.511-10.149c-.433-.449-.87-.894-1.312-1.332L215.43 84.574c.379.38.757.766 1.132 1.153zm0 0" fill="#b0c4de"/><path d="M217.676 86.895l10.683-9.965a96.95 96.95 0 00-1.289-1.356l-10.51 10.149c.375.386.746.777 1.113 1.172zm0 0" fill="#b0c4de"/><path d="M218.766 88.082l10.859-9.777c-.418-.465-.84-.922-1.262-1.38l-10.683 9.966c.367.394.73.789 1.09 1.191zm0 0" fill="#b0c4de"/><path d="M243.27 71.738l11.19-9.39c-.253-.305-.51-.606-.769-.91l-11.109 9.488.688.812zm0 0" fill="violet"/><path d="M231.473 80.418l11.109-9.488c-.23-.27-.46-.54-.695-.805l-11.028 9.586.61.707zm0 0" fill="plum"/><path d="M232.078 81.129l11.192-9.39c-.227-.27-.458-.544-.688-.813l-11.11 9.488c.204.238.403.477.606.715zm0 0" fill="plum"/><path d="M244.621 73.379l11.356-9.195c-.25-.309-.5-.618-.754-.922l-11.274 9.293c.227.273.45.547.672.824zm0 0" fill="violet"/><path d="M232.676 81.848l11.273-9.293c-.226-.274-.453-.547-.68-.817l-11.19 9.39c.198.24.398.477.597.72zm0 0" fill="plum"/><path d="M233.266 82.574l11.355-9.195c-.223-.274-.445-.55-.672-.824l-11.273 9.293c.199.242.394.48.59.722zm0 0" fill="plum"/><path d="M219.836 89.293l11.027-9.586c-.41-.469-.82-.937-1.238-1.402l-10.86 9.777c.36.398.72.805 1.07 1.211zm0 0" fill="#b0c4de"/><path d="M220.883 90.52l11.191-9.391a96.86 96.86 0 00-1.215-1.422l-11.027 9.586c.352.406.703.816 1.05 1.227zm1.027 1.246l11.356-9.196c-.391-.484-.79-.965-1.188-1.441l-11.191 9.39c.347.415.687.829 1.027 1.247zm0 0" fill="#b0c4de"/><path d="M247.238 76.727l11.668-8.793c-.238-.317-.48-.633-.719-.946l-11.59 8.895c.215.281.43.562.645.847zm0 0" fill="violet"/><path d="M235.004 84.777l11.59-8.894a68.772 68.772 0 00-.653-.84l-11.511 8.996.574.738zm0 0" fill="plum"/><path d="M235.566 85.52l11.668-8.793c-.214-.282-.425-.567-.644-.848L235 84.773c.191.247.379.497.566.747zm0 0" fill="plum"/><path d="M248.5 78.434l11.82-8.586-.703-.961-11.746 8.691c.211.285.422.57.629.856zm0 0" fill="violet"/><path d="M236.129 86.27l11.746-8.692c-.21-.285-.422-.57-.637-.851L235.57 85.52c.188.25.375.5.559.75zm.551.753l11.82-8.585c-.207-.286-.418-.57-.629-.856l-11.746 8.691c.184.25.371.5.555.754zm0 0" fill="plum"/><path d="M222.918 93.031l11.512-8.996c-.383-.492-.774-.98-1.164-1.465l-11.356 9.196c.34.418.676.84 1.004 1.265zm0 0" fill="#b0c4de"/><path d="M223.898 94.313l11.668-8.793a135.53 135.53 0 00-1.136-1.485l-11.512 8.996c.332.426.66.852.984 1.281zm0 0" fill="#b0c4de"/><path d="M224.86 95.61l11.82-8.587a135.65 135.65 0 00-1.114-1.503l-11.668 8.793c.325.43.645.863.961 1.296zm0 0" fill="#b0c4de"/><path d="M205.098 94.902L215.43 84.57a91.562 91.562 0 00-3.516-3.336l-9.777 10.86a80.354 80.354 0 012.96 2.808zm0 0" fill="#afeeee"/><path d="M207.906 97.86l10.86-9.778a94.368 94.368 0 00-3.336-3.516l-10.332 10.332a78.54 78.54 0 012.808 2.961zm2.653 3.1l11.355-9.194a94.172 94.172 0 00-3.144-3.684l-10.86 9.777a79.803 79.803 0 012.649 3.102zm2.481 3.24l11.82-8.587a93.61 93.61 0 00-2.95-3.843l-11.355 9.195a79.86 79.86 0 012.484 3.238zm0 0" fill="#afeeee"/><path d="M254.363 87.293l12.524-7.523c-.203-.34-.41-.68-.617-1.016l-12.457 7.633c.183.3.367.605.55.91zm0 0" fill="violet"/><path d="M241.355 94.02l12.458-7.633c-.184-.301-.372-.602-.56-.903l-12.39 7.743.492.796zm0 0" fill="plum"/><path d="M241.84 94.816l12.523-7.523c-.183-.305-.367-.606-.55-.91l-12.458 7.633c.165.265.325.53.485.8zm0 0" fill="plum"/><path d="M255.441 89.125l12.653-7.305-.598-1.027-12.59 7.414c.18.305.36.61.535.918zm0 0" fill="violet"/><path d="M242.316 95.621l12.59-7.414c-.18-.305-.36-.61-.543-.914l-12.523 7.523c.16.266.32.536.476.805zm0 0" fill="plum"/><path d="M242.79 96.43l12.651-7.305a70.446 70.446 0 00-.535-.918l-12.59 7.414c.157.27.317.54.473.809zm0 0" fill="plum"/><path d="M228.473 100.965l12.39-7.742a134.21 134.21 0 00-1.004-1.578l-12.254 7.957c.293.453.583.906.868 1.363zm.843 1.379l12.524-7.524a108.41 108.41 0 00-.977-1.593l-12.39 7.742c.285.457.566.914.843 1.379zm0 0" fill="#b0c4de"/><path d="M230.137 103.734l12.652-7.304a108.78 108.78 0 00-.95-1.61l-12.523 7.524c.278.46.551.926.82 1.39zm0 0" fill="#b0c4de"/><path d="M257.5 92.84l12.898-6.86c-.187-.351-.375-.699-.562-1.046l-12.84 6.972.504.938zm0 0" fill="violet"/><path d="M244.16 98.875L257 91.902c-.168-.312-.34-.62-.512-.93l-12.777 7.083c.152.273.3.547.45.82zm0 0" fill="plum"/><path d="M244.602 99.7l12.898-6.86c-.168-.313-.332-.625-.504-.938l-12.84 6.973c.149.273.297.547.442.824zm0 0" fill="plum"/><path d="M258.484 94.727l13.02-6.633-.543-1.059L258 93.781c.164.313.324.63.488.946zm0 0" fill="violet"/><path d="M245.035 100.527l12.961-6.746c-.164-.312-.328-.629-.496-.941l-12.898 6.86c.144.273.293.55.433.827zm.43.833l13.02-6.633c-.16-.317-.325-.63-.489-.946l-12.96 6.746c.144.278.284.555.429.832zm0 0" fill="plum"/><path d="M230.93 105.14l12.777-7.081c-.3-.547-.61-1.086-.922-1.63l-12.652 7.305c.27.465.535.934.797 1.407zm0 0" fill="#b0c4de"/><path d="M231.703 106.559l12.899-6.86c-.293-.55-.59-1.097-.891-1.644l-12.777 7.082c.261.472.52.945.77 1.418zm.742 1.433l13.02-6.633a96.985 96.985 0 00-.863-1.66l-12.899 6.86c.254.476.5.953.746 1.433zm0 0" fill="#b0c4de"/><path d="M260.348 98.543l13.242-6.176c-.168-.36-.336-.719-.508-1.078l-13.187 6.29c.152.32.304.64.453.96zm0 0" fill="violet"/><path d="M246.707 103.875l13.188-6.29c-.153-.32-.305-.636-.461-.956l-13.133 6.406c.137.281.273.563.406.844zm0 0" fill="plum"/><path d="M247.105 104.719l13.243-6.176c-.149-.32-.301-.64-.453-.961l-13.188 6.29.398.843zm0 0" fill="plum"/><path d="M261.227 100.477l13.347-5.942c-.16-.363-.324-.722-.488-1.086l-13.293 6.059c.148.324.293.644.437.969zm0 0" fill="violet"/><path d="M247.496 105.57l13.293-6.058c-.148-.325-.297-.645-.445-.965l-13.242 6.176c.132.28.261.566.39.847zm0 0" fill="plum"/><path d="M247.879 106.422l13.348-5.942c-.145-.324-.29-.644-.438-.968l-13.293 6.058c.129.285.258.567.383.852zm0 0" fill="plum"/><path d="M233.168 109.438l13.133-6.407a95.239 95.239 0 00-.836-1.672l-13.02 6.633c.246.48.485.961.72 1.445zm0 0" fill="#b0c4de"/><path d="M233.863 110.895l13.242-6.176a83.577 83.577 0 00-.804-1.688l-13.133 6.406c.234.485.469.97.695 1.458zm0 0" fill="#b0c4de"/><path d="M234.531 112.363l13.348-5.941a95.108 95.108 0 00-.777-1.703l-13.243 6.176c.227.488.45.976.668 1.468zm0 0" fill="#b0c4de"/><path d="M215.352 107.563l12.253-7.958a90.193 90.193 0 00-2.742-3.992l-11.82 8.586c.8 1.102 1.57 2.223 2.312 3.364zm0 0" fill="#afeeee"/><path d="M217.484 111.04l12.653-7.306a92.603 92.603 0 00-2.532-4.129l-12.253 7.957a77.024 77.024 0 012.132 3.477zm0 0" fill="#afeeee"/><path d="M219.43 114.625l13.02-6.633a93.329 93.329 0 00-2.313-4.258l-12.653 7.305a79.451 79.451 0 011.946 3.586zm0 0" fill="#afeeee"/><path d="M221.184 118.305l13.347-5.942a89.55 89.55 0 00-2.086-4.37l-13.02 6.632a79.494 79.494 0 011.759 3.684zm0 0" fill="#afeeee"/><path d="M265.121 110.36l13.813-4.758c-.13-.375-.262-.75-.391-1.125l-13.773 4.878.351 1.004zm0 0" fill="violet"/><path d="M250.996 114.234l13.774-4.879c-.118-.332-.239-.668-.36-1l-13.73 4.997.316.878zm0 0" fill="plum"/><path d="M251.305 115.117l13.812-4.758c-.117-.336-.23-.668-.351-1.004l-13.774 4.88c.106.292.207.59.309.882zm0 0" fill="plum"/><path d="M265.793 112.375l13.894-4.516c-.12-.379-.246-.754-.37-1.129l-13.856 4.637c.113.336.223.672.332 1.008zm0 0" fill="violet"/><path d="M251.605 116.004l13.856-4.637-.34-1.008-13.812 4.758c.101.293.203.59.3.887zm0 0" fill="plum"/><path d="M251.898 116.89l13.895-4.515c-.11-.336-.219-.672-.332-1.008l-13.856 4.637c.098.297.196.59.293.887zm0 0" fill="plum"/><path d="M236.953 118.352l13.73-4.997a94.333 94.333 0 00-.656-1.75l-13.64 5.235c.191.504.383 1.008.566 1.512zm0 0" fill="#b0c4de"/><path d="M237.492 119.875l13.813-4.758c-.203-.59-.41-1.176-.625-1.762l-13.73 4.997c.183.507.363 1.011.538 1.523zm.512 1.531l13.894-4.515a94.396 94.396 0 00-.593-1.774l-13.813 4.758c.176.508.348 1.02.512 1.531zm0 0" fill="#b0c4de"/><path d="M267.035 116.441l14.043-4.027c-.11-.383-.219-.762-.332-1.14l-14.008 4.148c.102.34.2.68.297 1.02zm0 0" fill="violet"/><path d="M252.73 119.57l14.008-4.148-.304-1.016-13.973 4.274.27.894zm0 0" fill="plum"/><path d="M252.992 120.469l14.043-4.028c-.098-.34-.195-.68-.297-1.02l-14.008 4.15c.09.3.176.597.262.898zm0 0" fill="plum"/><path d="M267.605 118.488l14.114-3.781c-.102-.383-.207-.766-.313-1.148l-14.078 3.906.281 1.023zm0 0" fill="violet"/><path d="M253.246 121.367l14.078-3.906c-.094-.34-.191-.684-.289-1.023l-14.043 4.027c.086.3.172.597.254.898zm.246.903l14.113-3.782a43.83 43.83 0 00-.28-1.023l-14.079 3.906.246.902zm0 0" fill="plum"/><path d="M238.488 122.945l13.973-4.273c-.184-.598-.371-1.192-.563-1.785l-13.894 4.515c.168.512.328 1.028.484 1.54zm.462 1.551l14.042-4.027a98.866 98.866 0 00-.531-1.793l-13.973 4.273c.157.516.309 1.031.457 1.547zm0 0" fill="#b0c4de"/><path d="M239.379 126.05l14.113-3.78a94.39 94.39 0 00-.5-1.801l-14.043 4.027c.149.516.293 1.035.43 1.555zm0 0" fill="#b0c4de"/><path d="M268.633 122.613l14.234-3.285c-.09-.387-.18-.773-.273-1.16l-14.207 3.41c.082.344.164.688.242 1.035zm0 0" fill="violet"/><path d="M254.184 124.988l14.207-3.41c-.082-.344-.168-.687-.254-1.031l-14.176 3.535c.074.3.148.606.223.906zm0 0" fill="plum"/><path d="M254.398 125.898l14.235-3.285a99.03 99.03 0 00-.242-1.035l-14.207 3.41c.074.305.144.606.214.91zm0 0" fill="plum"/><path d="M269.094 124.688l14.293-3.04c-.082-.386-.168-.777-.254-1.164l-14.266 3.164c.078.348.153.692.227 1.04zm0 0" fill="violet"/><path d="M254.602 126.809l14.265-3.164-.234-1.036-14.235 3.286c.07.304.141.609.207.91zm.198.914l14.294-3.04a98.816 98.816 0 00-.227-1.038l-14.265 3.164.199.914zm0 0" fill="plum"/><path d="M239.785 127.613l14.176-3.535c-.152-.605-.309-1.207-.469-1.808l-14.113 3.78c.14.52.273 1.044.406 1.563zm.375 1.571l14.235-3.286a94.542 94.542 0 00-.438-1.816l-14.176 3.535c.13.524.258 1.047.38 1.57zm0 0" fill="#b0c4de"/><path d="M240.512 130.762l14.293-3.04a94.765 94.765 0 00-.407-1.824l-14.234 3.286c.121.523.238 1.05.348 1.578zm0 0" fill="#b0c4de"/><path d="M222.746 122.074l13.64-5.234c-.577-1.508-1.195-3-1.855-4.477l-13.347 5.942a77.3 77.3 0 011.562 3.77zm0 0" fill="#afeeee"/><path d="M224.11 125.922l13.894-4.516a94.522 94.522 0 00-1.617-4.566l-13.64 5.234c.487 1.27.94 2.551 1.362 3.844zm0 0" fill="#afeeee"/><path d="M225.266 129.832l14.113-3.781a91.69 91.69 0 00-1.375-4.645l-13.895 4.516a80.123 80.123 0 011.16 3.91zm0 0" fill="#afeeee"/><path d="M226.219 133.8l14.293-3.038a92.818 92.818 0 00-1.133-4.711l-14.113 3.781a80.34 80.34 0 01.953 3.969zm0 0" fill="#afeeee"/><path d="M270.848 135.16l14.5-1.781c-.047-.395-.098-.79-.149-1.18l-14.484 1.906c.047.352.09.704.133 1.055zm0 0" fill="violet"/><path d="M256.227 136.016l14.484-1.907c-.047-.351-.094-.703-.145-1.054l-14.468 2.035c.043.308.086.617.125.926zm0 0" fill="plum"/><path d="M256.344 136.941l14.5-1.78c-.043-.352-.086-.704-.133-1.056l-14.484 1.907.117.925zm0 0" fill="plum"/><path d="M271.086 137.273l14.531-1.527-.129-1.184-14.515 1.653.117 1.055zm0 0" fill="violet"/><path d="M256.453 137.871l14.516-1.652c-.04-.352-.082-.703-.125-1.055l-14.5 1.781c.039.309.074.618.11.93zm0 0" fill="plum"/><path d="M256.555 138.8l14.53-1.527a48.346 48.346 0 00-.116-1.054l-14.516 1.652c.035.309.07.621.102.93zm0 0" fill="plum"/><path d="M241.633 137.121l14.469-2.035a95.62 95.62 0 00-.278-1.848l-14.43 2.285c.086.532.165 1.063.239 1.598zm0 0" fill="#b0c4de"/><path d="M241.844 138.723l14.5-1.782a100.44 100.44 0 00-.242-1.855l-14.47 2.035c.075.531.145 1.066.212 1.602zm.183 1.605l14.532-1.527a170.7 170.7 0 00-.211-1.86l-14.5 1.782c.066.535.125 1.07.183 1.605zm0 0" fill="#b0c4de"/><path d="M271.457 141.508l14.574-1.02a94.743 94.743 0 00-.09-1.187l-14.566 1.144c.027.352.055.707.078 1.059zm0 0" fill="violet"/><path d="M256.813 141.594l14.566-1.145a96.668 96.668 0 00-.09-1.058l-14.555 1.273c.028.309.055.621.079.934zm0 0" fill="plum"/><path d="M256.883 142.527l14.574-1.02a96.39 96.39 0 00-.078-1.058l-14.567 1.145.07.933zm0 0" fill="plum"/><path d="M271.586 143.629l14.59-.766c-.02-.394-.043-.793-.067-1.187l-14.582.89c.024.352.043.707.059 1.063zm0 0" fill="violet"/><path d="M256.941 143.46l14.582-.89c-.023-.351-.043-.707-.07-1.058l-14.574 1.02c.023.312.043.62.062.933zm0 0" fill="plum"/><path d="M256.996 144.39l14.59-.765-.059-1.063-14.582.891c.02.313.035.621.055.934zm0 0" fill="plum"/><path d="M242.18 141.934l14.554-1.274a90.921 90.921 0 00-.18-1.863l-14.53 1.527c.054.535.109 1.07.156 1.61zm.129 1.613l14.574-1.02a99.696 99.696 0 00-.149-1.863l-14.554 1.274c.047.535.09 1.074.125 1.609zm0 0" fill="#b0c4de"/><path d="M242.406 145.156l14.59-.765a99.716 99.716 0 00-.113-1.868l-14.574 1.02c.039.535.07 1.074.097 1.613zm0 0" fill="#b0c4de"/><path d="M271.734 147.875l14.61-.254c-.008-.398-.016-.793-.028-1.191l-14.605.382.023 1.063zm0 0" fill="violet"/><path d="M257.105 147.195l14.606-.382c-.008-.356-.02-.708-.031-1.063l-14.602.512c.012.312.02.62.027.933zm0 0" fill="plum"/><path d="M257.125 148.129l14.61-.254-.024-1.063-14.606.383c.008.313.016.625.02.934zm0 0" fill="plum"/><path d="M271.754 150h14.61c0-.398 0-.793-.005-1.191l-14.609.129c.004.355.004.707.004 1.062zm0 0" fill="violet"/><path d="M257.14 149.066l14.61-.129a96.347 96.347 0 00-.016-1.062l-14.609.254.012.934zm0 0" fill="plum"/><path d="M257.145 150h14.609c0-.355 0-.707-.004-1.063l-14.61.13c.005.312.005.624.005.933zm0 0" fill="plum"/><path d="M242.477 146.77l14.601-.512c-.023-.621-.05-1.246-.082-1.867l-14.59.765c.028.54.051 1.074.07 1.614zm.043 1.617l14.609-.254a99.694 99.694 0 00-.05-1.871l-14.602.511c.02.54.03 1.075.043 1.614zm0 0" fill="#b0c4de"/><path d="M242.531 150h14.61c0-.625-.004-1.246-.016-1.871l-14.61.254c.008.539.016 1.078.016 1.613zm0 0" fill="#b0c4de"/><path d="M226.96 137.809l14.43-2.286a93.635 93.635 0 00-.882-4.761l-14.293 3.039a77.86 77.86 0 01.742 4.012zm0 0" fill="#afeeee"/><path d="M227.496 141.855l14.531-1.527a90.81 90.81 0 00-.632-4.805l-14.43 2.286c.21 1.343.39 2.691.531 4.043zm.32 4.067l14.59-.766a94.907 94.907 0 00-.379-4.828l-14.53 1.527c.14 1.352.25 2.708.32 4.067zm0 0" fill="#afeeee"/><path d="M227.922 150h14.61c0-1.613-.044-3.23-.126-4.844l-14.59.766c.07 1.36.106 2.719.106 4.078zm0 0" fill="#afeeee"/><path d="M192.363 102.95l9.778-10.86a77.914 77.914 0 00-13.18-9.574l-7.305 12.652a63.087 63.087 0 0110.707 7.781zm8.856 9.835l11.82-8.586a78.016 78.016 0 00-10.898-12.105l-9.778 10.86a63.174 63.174 0 018.856 9.835zm0 0" fill="#20b2aa"/><path d="M207.84 124.25l13.347-5.941a78.112 78.112 0 00-8.144-14.11l-11.82 8.586a63.128 63.128 0 016.617 11.461zm0 0" fill="#20b2aa"/><path d="M211.93 136.836l14.293-3.04a77.96 77.96 0 00-5.036-15.491l-13.347 5.941a63.135 63.135 0 014.09 12.59zM213.313 150h14.609c0-5.445-.57-10.875-1.703-16.2l-14.293 3.04a63.437 63.437 0 011.383 13.164zm0 0" fill="#20b2aa"/><path d="M174.352 192.176l7.304 12.652A63.309 63.309 0 00213.312 150h-14.609a48.697 48.697 0 01-24.351 42.176zm0 0" fill="#f08080"/><path d="M125.648 192.176l-7.304 12.652a63.318 63.318 0 0063.312 0l-7.304-12.652a48.707 48.707 0 01-48.704 0zm0 0" fill="#f08080"/><path d="M101.297 150h-14.61a63.309 63.309 0 0031.657 54.828l7.304-12.652A48.705 48.705 0 01101.297 150zm24.351-42.176l-7.304-12.652A63.309 63.309 0 0086.688 150h14.609a48.697 48.697 0 0124.351-42.176zm48.704 0l7.304-12.652a63.318 63.318 0 00-63.312 0l7.304 12.652a48.707 48.707 0 0148.704 0zm0 0" fill="#f08080"/><path d="M198.703 150h14.61a63.309 63.309 0 00-31.657-54.828l-7.304 12.652A48.705 48.705 0 01198.703 150zm0 0" fill="#f08080"/></g></svg>