<svg xmlns="http://www.w3.org/2000/svg" width="400" height="400" viewBox="0 0 300 300"><defs><clipPath id="a"><path d="M173 272h9v16h-9zm0 0"/></clipPath><clipPath id="b"><path d="M181.105 280.547l-.738 2.59-1.62 2.148-2.29 1.418-2.648.496-2.649-.496-2.289-1.418-1.621-2.148-.738-2.59.25-2.68 1.199-2.41 1.988-1.812 2.512-.973h2.691l2.512.973 1.988 1.812 1.2 2.41zm0 0"/></clipPath><clipPath id="c"><path d="M166 272h8v16h-8zm0 0"/></clipPath><clipPath id="d"><path d="M181.105 280.547l-.738 2.59-1.62 2.148-2.29 1.418-2.648.496-2.649-.496-2.289-1.418-1.621-2.148-.738-2.59.25-2.68 1.199-2.41 1.988-1.812 2.512-.973h2.691l2.512.973 1.988 1.812 1.2 2.41zm0 0"/></clipPath><clipPath id="e"><path d="M166 272h9v16h-9zm0 0"/></clipPath><clipPath id="f"><path d="M181.105 280.547l-.738 2.59-1.62 2.148-2.29 1.418-2.648.496-2.649-.496-2.289-1.418-1.621-2.148-.738-2.59.25-2.68 1.199-2.41 1.988-1.812 2.512-.973h2.691l2.512.973 1.988 1.812 1.2 2.41zm0 0"/></clipPath><clipPath id="g"><path d="M173 250h9v16h-9zm0 0"/></clipPath><clipPath id="h"><path d="M181.105 257.55l-.738-2.59-1.62-2.148-2.29-1.417-2.648-.497-2.649.497-2.289 1.417-1.621 2.149-.738 2.59.25 2.68 1.199 2.41 1.988 1.812 2.512.973h2.691l2.512-.973 1.988-1.812 1.2-2.41zm0 0"/></clipPath><clipPath id="i"><path d="M166 250h8v16h-8zm0 0"/></clipPath><clipPath id="j"><path d="M181.105 257.55l-.738-2.59-1.62-2.148-2.29-1.417-2.648-.497-2.649.497-2.289 1.417-1.621 2.149-.738 2.59.25 2.68 1.199 2.41 1.988 1.812 2.512.973h2.691l2.512-.973 1.988-1.812 1.2-2.41zm0 0"/></clipPath><clipPath id="k"><path d="M166 250h9v16h-9zm0 0"/></clipPath><clipPath id="l"><path d="M181.105 257.55l-.738-2.59-1.62-2.148-2.29-1.417-2.648-.497-2.649.497-2.289 1.417-1.621 2.149-.738 2.59.25 2.68 1.199 2.41 1.988 1.812 2.512.973h2.691l2.512-.973 1.988-1.812 1.2-2.41zm0 0"/></clipPath><clipPath id="m"><path d="M30 251h19v36H30zm0 0"/></clipPath><clipPath id="n"><path d="M48.797 270l-.184-3.61-.906-3.5-1.594-3.245-2.21-2.86-2.743-2.355-3.16-1.754-3.45-1.082-3.597-.367-3.598.367-3.449 1.082-3.16 1.754-2.742 2.355-2.211 2.86-1.594 3.246-.906 3.5-.184 3.609.547 3.574 1.254 3.39 1.914 3.067 2.492 2.621 2.97 2.067 3.32 1.426 3.539.726h3.613l3.539-.726 3.32-1.426 2.969-2.067 2.492-2.62 1.914-3.067 1.254-3.39zm0 0"/></clipPath><clipPath id="o"><path d="M13 251h18v36H13zm0 0"/></clipPath><clipPath id="p"><path d="M48.797 270l-.184-3.61-.906-3.5-1.594-3.245-2.21-2.86-2.743-2.355-3.16-1.754-3.45-1.082-3.597-.367-3.598.367-3.449 1.082-3.16 1.754-2.742 2.355-2.211 2.86-1.594 3.246-.906 3.5-.184 3.609.547 3.574 1.254 3.39 1.914 3.067 2.492 2.621 2.97 2.067 3.32 1.426 3.539.726h3.613l3.539-.726 3.32-1.426 2.969-2.067 2.492-2.62 1.914-3.067 1.254-3.39zm0 0"/></clipPath><clipPath id="q"><path d="M13 251h19v36H13zm0 0"/></clipPath><clipPath id="r"><path d="M48.797 270l-.184-3.61-.906-3.5-1.594-3.245-2.21-2.86-2.743-2.355-3.16-1.754-3.45-1.082-3.597-.367-3.598.367-3.449 1.082-3.16 1.754-2.742 2.355-2.211 2.86-1.594 3.246-.906 3.5-.184 3.609.547 3.574 1.254 3.39 1.914 3.067 2.492 2.621 2.97 2.067 3.32 1.426 3.539.726h3.613l3.539-.726 3.32-1.426 2.969-2.067 2.492-2.62 1.914-3.067 1.254-3.39zm0 0"/></clipPath><clipPath id="s"><path d="M221 203h19v37h-19zm0 0"/></clipPath><clipPath id="t"><path d="M239.195 220.516l-.62-3.797-1.427-3.574-2.16-3.184-2.793-2.645-3.297-1.984-3.644-1.227-3.824-.414-3.825.414-3.644 1.227-3.297 1.984-2.793 2.645-2.16 3.184-1.426 3.574-.62 3.797.206 3.84 1.027 3.707 1.801 3.398 2.492 2.934 3.063 2.328 3.492 1.617 3.758.828h3.848l3.757-.828 3.493-1.617 3.062-2.328 2.492-2.934 1.801-3.399 1.027-3.707zm0 0"/></clipPath><clipPath id="u"><path d="M220 203h20v37h-20zm0 0"/></clipPath><clipPath id="v"><path d="M239.195 220.516l-.62-3.797-1.427-3.574-2.16-3.184-2.793-2.645-3.297-1.984-3.644-1.227-3.824-.414-3.825.414-3.644 1.227-3.297 1.984-2.793 2.645-2.16 3.184-1.426 3.574-.62 3.797.206 3.84 1.027 3.707 1.801 3.398 2.492 2.934 3.063 2.328 3.492 1.617 3.758.828h3.848l3.757-.828 3.493-1.617 3.062-2.328 2.492-2.934 1.801-3.399 1.027-3.707zm0 0"/></clipPath><clipPath id="w"><path d="M203 203h19v37h-19zm0 0"/></clipPath><clipPath id="x"><path d="M239.195 220.516l-.62-3.797-1.427-3.574-2.16-3.184-2.793-2.645-3.297-1.984-3.644-1.227-3.824-.414-3.825.414-3.644 1.227-3.297 1.984-2.793 2.645-2.16 3.184-1.426 3.574-.62 3.797.206 3.84 1.027 3.707 1.801 3.398 2.492 2.934 3.063 2.328 3.492 1.617 3.758.828h3.848l3.757-.828 3.493-1.617 3.062-2.328 2.492-2.934 1.801-3.399 1.027-3.707zm0 0"/></clipPath><clipPath id="y"><path d="M203 203h20v37h-20zm0 0"/></clipPath><clipPath id="z"><path d="M239.195 220.516l-.62-3.797-1.427-3.574-2.16-3.184-2.793-2.645-3.297-1.984-3.644-1.227-3.824-.414-3.825.414-3.644 1.227-3.297 1.984-2.793 2.645-2.16 3.184-1.426 3.574-.62 3.797.206 3.84 1.027 3.707 1.801 3.398 2.492 2.934 3.063 2.328 3.492 1.617 3.758.828h3.848l3.757-.828 3.493-1.617 3.062-2.328 2.492-2.934 1.801-3.399 1.027-3.707zm0 0"/></clipPath><clipPath id="A"><path d="M78 225h8v15h-8zm0 0"/></clipPath><clipPath id="B"><path d="M85.648 233.07l-1.21 3.192-2.555 2.261-3.313.817-3.312-.817-2.555-2.261-1.21-3.192.41-3.386 1.937-2.809 3.02-1.586h3.413l3.02 1.586 1.937 2.809zm0 0"/></clipPath><clipPath id="C"><path d="M77 225h9v15h-9zm0 0"/></clipPath><clipPath id="D"><path d="M85.648 233.07l-1.21 3.192-2.555 2.261-3.313.817-3.312-.817-2.555-2.261-1.21-3.192.41-3.386 1.937-2.809 3.02-1.586h3.413l3.02 1.586 1.937 2.809zm0 0"/></clipPath><clipPath id="E"><path d="M71 225h8v15h-8zm0 0"/></clipPath><clipPath id="F"><path d="M85.648 233.07l-1.21 3.192-2.555 2.261-3.313.817-3.312-.817-2.555-2.261-1.21-3.192.41-3.386 1.937-2.809 3.02-1.586h3.413l3.02 1.586 1.937 2.809zm0 0"/></clipPath><clipPath id="G"><path d="M71 225h9v15h-9zm0 0"/></clipPath><clipPath id="H"><path d="M85.648 233.07l-1.21 3.192-2.555 2.261-3.313.817-3.312-.817-2.555-2.261-1.21-3.192.41-3.386 1.937-2.809 3.02-1.586h3.413l3.02 1.586 1.937 2.809zm0 0"/></clipPath><clipPath id="I"><path d="M78 203h8v15h-8zm0 0"/></clipPath><clipPath id="J"><path d="M85.648 209.79l-1.21-3.192-2.555-2.262-3.313-.816-3.312.816-2.555 2.262-1.21 3.191.41 3.387 1.937 2.808 3.02 1.586h3.413l3.02-1.586 1.937-2.808zm0 0"/></clipPath><clipPath id="K"><path d="M77 203h9v15h-9zm0 0"/></clipPath><clipPath id="L"><path d="M85.648 209.79l-1.21-3.192-2.555-2.262-3.313-.816-3.312.816-2.555 2.262-1.21 3.191.41 3.387 1.937 2.808 3.02 1.586h3.413l3.02-1.586 1.937-2.808zm0 0"/></clipPath><clipPath id="M"><path d="M71 203h8v15h-8zm0 0"/></clipPath><clipPath id="N"><path d="M85.648 209.79l-1.21-3.192-2.555-2.262-3.313-.816-3.312.816-2.555 2.262-1.21 3.191.41 3.387 1.937 2.808 3.02 1.586h3.413l3.02-1.586 1.937-2.808zm0 0"/></clipPath><clipPath id="O"><path d="M71 203h9v15h-9zm0 0"/></clipPath><clipPath id="P"><path d="M85.648 209.79l-1.21-3.192-2.555-2.262-3.313-.816-3.312.816-2.555 2.262-1.21 3.191.41 3.387 1.937 2.808 3.02 1.586h3.413l3.02-1.586 1.937-2.808zm0 0"/></clipPath><clipPath id="Q"><path d="M221 156h18v36h-18zm0 0"/></clipPath><clipPath id="R"><path d="M238.887 175.086l-.325-4.754-1.597-4.492-2.75-3.895-3.695-3.007-4.372-1.899-4.722-.648-4.723.648-4.371 1.899-3.695 3.007-2.75 3.895-1.598 4.492-.324 4.754.969 4.668 2.191 4.23 3.254 3.485 4.07 2.476 4.59 1.285h4.766l4.59-1.285 4.07-2.476 3.254-3.485 2.191-4.23zm0 0"/></clipPath><clipPath id="S"><path d="M220 156h19v36h-19zm0 0"/></clipPath><clipPath id="T"><path d="M238.887 175.086l-.325-4.754-1.597-4.492-2.75-3.895-3.695-3.007-4.372-1.899-4.722-.648-4.723.648-4.371 1.899-3.695 3.007-2.75 3.895-1.598 4.492-.324 4.754.969 4.668 2.191 4.23 3.254 3.485 4.07 2.476 4.59 1.285h4.766l4.59-1.285 4.07-2.476 3.254-3.485 2.191-4.23zm0 0"/></clipPath><clipPath id="U"><path d="M203 156h19v36h-19zm0 0"/></clipPath><clipPath id="V"><path d="M238.887 175.086l-.325-4.754-1.597-4.492-2.75-3.895-3.695-3.007-4.372-1.899-4.722-.648-4.723.648-4.371 1.899-3.695 3.007-2.75 3.895-1.598 4.492-.324 4.754.969 4.668 2.191 4.23 3.254 3.485 4.07 2.476 4.59 1.285h4.766l4.59-1.285 4.07-2.476 3.254-3.485 2.191-4.23zm0 0"/></clipPath><clipPath id="W"><path d="M203 156h20v36h-20zm0 0"/></clipPath><clipPath id="X"><path d="M238.887 175.086l-.325-4.754-1.597-4.492-2.75-3.895-3.695-3.007-4.372-1.899-4.722-.648-4.723.648-4.371 1.899-3.695 3.007-2.75 3.895-1.598 4.492-.324 4.754.969 4.668 2.191 4.23 3.254 3.485 4.07 2.476 4.59 1.285h4.766l4.59-1.285 4.07-2.476 3.254-3.485 2.191-4.23zm0 0"/></clipPath><clipPath id="Y"><path d="M30 156h19v35H30zm0 0"/></clipPath><clipPath id="Z"><path d="M48.11 175.348l-.47-5.649-2.277-5.191-3.84-4.168-4.984-2.7-5.59-.933-5.59.934-4.984 2.699-3.84 4.168-2.277 5.191-.469 5.649 1.39 5.496 3.102 4.746 4.473 3.48 5.36 1.84h5.667l5.36-1.84 4.472-3.48 3.102-4.746zm0 0"/></clipPath><clipPath id="aa"><path d="M13 156h18v35H13zm0 0"/></clipPath><clipPath id="ab"><path d="M48.11 175.348l-.47-5.649-2.277-5.191-3.84-4.168-4.984-2.7-5.59-.933-5.59.934-4.984 2.699-3.84 4.168-2.277 5.191-.469 5.649 1.39 5.496 3.102 4.746 4.473 3.48 5.36 1.84h5.667l5.36-1.84 4.472-3.48 3.102-4.746zm0 0"/></clipPath><clipPath id="ac"><path d="M13 156h19v35H13zm0 0"/></clipPath><clipPath id="ad"><path d="M48.11 175.348l-.47-5.649-2.277-5.191-3.84-4.168-4.984-2.7-5.59-.933-5.59.934-4.984 2.699-3.84 4.168-2.277 5.191-.469 5.649 1.39 5.496 3.102 4.746 4.473 3.48 5.36 1.84h5.667l5.36-1.84 4.472-3.48 3.102-4.746zm0 0"/></clipPath><clipPath id="ae"><path d="M221 109h18v35h-18zm0 0"/></clipPath><clipPath id="af"><path d="M238.39 124.762l-1.714-6.02-3.774-4.996-5.32-3.297-6.152-1.148-6.153 1.148-5.32 3.297-3.773 4.996-1.715 6.02.578 6.234 2.789 5.606 4.625 4.218 5.836 2.262h6.262l5.836-2.262 4.625-4.218 2.789-5.606zm0 0"/></clipPath><clipPath id="ag"><path d="M220 109h19v35h-19zm0 0"/></clipPath><clipPath id="ah"><path d="M238.39 124.762l-1.714-6.02-3.774-4.996-5.32-3.297-6.152-1.148-6.153 1.148-5.32 3.297-3.773 4.996-1.715 6.02.578 6.234 2.789 5.606 4.625 4.218 5.836 2.262h6.262l5.836-2.262 4.625-4.218 2.789-5.606zm0 0"/></clipPath><clipPath id="ai"><path d="M204 109h18v35h-18zm0 0"/></clipPath><clipPath id="aj"><path d="M238.39 124.762l-1.714-6.02-3.774-4.996-5.32-3.297-6.152-1.148-6.153 1.148-5.32 3.297-3.773 4.996-1.715 6.02.578 6.234 2.789 5.606 4.625 4.218 5.836 2.262h6.262l5.836-2.262 4.625-4.218 2.789-5.606zm0 0"/></clipPath><clipPath id="ak"><path d="M204 109h19v35h-19zm0 0"/></clipPath><clipPath id="al"><path d="M238.39 124.762l-1.714-6.02-3.774-4.996-5.32-3.297-6.152-1.148-6.153 1.148-5.32 3.297-3.773 4.996-1.715 6.02.578 6.234 2.789 5.606 4.625 4.218 5.836 2.262h6.262l5.836-2.262 4.625-4.218 2.789-5.606zm0 0"/></clipPath><clipPath id="am"><path d="M30 110h18v33H30zm0 0"/></clipPath><clipPath id="an"><path d="M47.363 124.438l-2.804-7.399-5.922-5.246-7.684-1.895-7.683 1.895-5.922 5.246-2.805 7.398.953 7.856 4.496 6.512 7.004 3.675h7.91l7.004-3.675 4.496-6.512zm0 0"/></clipPath><clipPath id="ao"><path d="M30 109h18v34H30zm0 0"/></clipPath><clipPath id="ap"><path d="M47.363 124.438l-2.804-7.399-5.922-5.246-7.684-1.895-7.683 1.895-5.922 5.246-2.805 7.398.953 7.856 4.496 6.512 7.004 3.675h7.91l7.004-3.675 4.496-6.512zm0 0"/></clipPath><clipPath id="aq"><path d="M14 110h17v33H14zm0 0"/></clipPath><clipPath id="ar"><path d="M47.363 124.438l-2.804-7.399-5.922-5.246-7.684-1.895-7.683 1.895-5.922 5.246-2.805 7.398.953 7.856 4.496 6.512 7.004 3.675h7.91l7.004-3.675 4.496-6.512zm0 0"/></clipPath><clipPath id="as"><path d="M14 109h18v34H14zm0 0"/></clipPath><clipPath id="at"><path d="M47.363 124.438l-2.804-7.399-5.922-5.246-7.684-1.895-7.683 1.895-5.922 5.246-2.805 7.398.953 7.856 4.496 6.512 7.004 3.675h7.91l7.004-3.675 4.496-6.512zm0 0"/></clipPath></defs><path d="M292.855 292.855v-47.617h-47.617v47.617zm0 0" fill="none" stroke-width="1.2" stroke="#000" stroke-miterlimit="10"/><path d="M284.828 273.898l-4.898 8.485-4.899-8.485zm0 0" fill="#ffff59"/><path d="M282.871 272.77h3.918l-1.96 3.394zm0 0" fill="#ffff59"/><path d="M282.219 273.898a1.304 1.304 0 01-.477-1.785c.36-.625 1.16-.84 1.785-.476.625.36.84 1.16.477 1.785-.36.625-1.16.84-1.785.476zm3.918 2.262a1.305 1.305 0 11-2.61 0 1.305 1.305 0 012.61 0zm0-4.523a1.308 1.308 0 011.785.476c.36.625.148 1.422-.477 1.785a1.308 1.308 0 01-1.785-.476 1.308 1.308 0 01.477-1.785zm0 0"/><path d="M275.035 276.16l-1.96-3.394h3.917zm0 0" fill="#ffff59"/><path d="M276.34 276.16a1.305 1.305 0 11-2.61 0 1.305 1.305 0 012.61 0zm0-4.523a1.308 1.308 0 011.785.476c.36.625.148 1.422-.477 1.785a1.308 1.308 0 01-1.785-.476 1.308 1.308 0 01.477-1.785zm-3.918 2.261a1.304 1.304 0 01-.477-1.785c.36-.625 1.16-.84 1.785-.476.625.36.84 1.16.477 1.785-.36.625-1.16.84-1.785.476zm0 0"/><path d="M281.89 281.254l-1.96 3.394-1.961-3.394zm0 0" fill="#ffff59"/><path d="M281.238 280.121a1.308 1.308 0 011.785.477c.36.625.149 1.422-.476 1.785a1.308 1.308 0 01-1.785-.477 1.308 1.308 0 01.476-1.785zm-3.918 2.262a1.304 1.304 0 01-.476-1.785c.36-.625 1.16-.84 1.785-.477.625.36.84 1.16.476 1.785-.359.625-1.16.84-1.785.477zm3.918 2.262a1.305 1.305 0 11-2.609 0 1.305 1.305 0 012.61 0zm0 0"/><path d="M284.828 264.195l-4.898-8.484-4.899 8.484zm0 0" fill="#ffff59"/><path d="M282.871 265.328h3.918l-1.96-3.394zm0 0" fill="#ffff59"/><path d="M282.219 264.195c-.625.36-.84 1.16-.477 1.785.36.625 1.16.84 1.785.477.625-.36.84-1.16.477-1.785a1.304 1.304 0 00-1.785-.477zm3.918-2.261a1.305 1.305 0 10-2.61 0 1.305 1.305 0 002.61 0zm0 4.523c.625.36 1.422.148 1.785-.477a1.308 1.308 0 00-.477-1.785 1.308 1.308 0 00-1.785.477 1.308 1.308 0 00.477 1.785zm0 0"/><path d="M275.035 261.934l-1.96 3.394h3.917zm0 0" fill="#ffff59"/><path d="M276.34 261.934a1.305 1.305 0 10-2.61 0 1.305 1.305 0 002.61 0zm0 4.523c.625.36 1.422.148 1.785-.477a1.308 1.308 0 00-.477-1.785 1.308 1.308 0 00-1.785.477 1.308 1.308 0 00.477 1.785zm-3.918-2.262c-.625.36-.84 1.16-.477 1.785.36.625 1.16.84 1.785.477.625-.36.84-1.16.477-1.785a1.304 1.304 0 00-1.785-.477zm0 0"/><path d="M281.89 256.844l-1.96-3.395-1.961 3.395zm0 0" fill="#ffff59"/><path d="M281.238 257.973a1.308 1.308 0 001.785-.477 1.308 1.308 0 00-.476-1.785 1.308 1.308 0 00-1.785.476 1.308 1.308 0 00.476 1.786zm-3.918-2.263a1.304 1.304 0 00-.476 1.786c.36.625 1.16.84 1.785.477.625-.36.84-1.16.476-1.786a1.304 1.304 0 00-1.785-.476zm3.918-2.26a1.305 1.305 0 10-2.609-.001 1.305 1.305 0 002.61 0zm0 0"/><path d="M263.063 273.898l-4.899 8.485-4.898-8.485zm0 0" fill="#ffff59"/><path d="M261.102 272.77h3.918l-1.961 3.394zm0 0" fill="#ffff59"/><path d="M260.45 273.898a1.304 1.304 0 01-.477-1.785 1.303 1.303 0 011.785-.476c.625.36.84 1.16.476 1.785-.359.625-1.16.84-1.785.476zm3.917 2.262a1.305 1.305 0 11-2.609 0 1.305 1.305 0 012.61 0zm0-4.523a1.308 1.308 0 011.785.476c.36.625.149 1.422-.476 1.785a1.308 1.308 0 01-1.785-.476 1.308 1.308 0 01.476-1.785zm0 0"/><path d="M253.266 276.16l-1.961-3.394h3.918zm0 0" fill="#ffff59"/><path d="M254.57 276.16a1.305 1.305 0 11-2.609 0 1.305 1.305 0 012.61 0zm0-4.523a1.308 1.308 0 011.785.476c.36.625.149 1.422-.476 1.785a1.308 1.308 0 01-1.785-.476 1.308 1.308 0 01.476-1.785zm-3.918 2.261a1.304 1.304 0 01-.476-1.785c.36-.625 1.16-.84 1.785-.476.625.36.84 1.16.476 1.785-.359.625-1.16.84-1.785.476zm0 0"/><path d="M260.121 281.254l-1.96 3.394-1.962-3.394zm0 0" fill="#ffff59"/><path d="M259.469 280.121a1.308 1.308 0 011.785.477c.36.625.148 1.422-.477 1.785a1.308 1.308 0 01-1.785-.477 1.308 1.308 0 01.477-1.785zm-3.919 2.262a1.304 1.304 0 01-.476-1.785c.36-.625 1.16-.84 1.785-.477.625.36.84 1.16.477 1.785-.36.625-1.16.84-1.785.477zm3.919 2.262a1.305 1.305 0 11-2.61 0 1.305 1.305 0 012.61 0zm0 0"/><path d="M263.063 264.195l-4.899-8.484-4.898 8.484zm0 0" fill="#ffff59"/><path d="M261.102 265.328h3.918l-1.961-3.394zm0 0" fill="#ffff59"/><path d="M260.45 264.195c-.626.36-.84 1.16-.477 1.785.359.625 1.16.84 1.785.477.625-.36.84-1.16.476-1.785a1.304 1.304 0 00-1.785-.477zm3.917-2.261a1.305 1.305 0 10-2.609 0 1.305 1.305 0 002.61 0zm0 4.523c.625.36 1.422.148 1.785-.477a1.308 1.308 0 00-.476-1.785 1.308 1.308 0 00-1.785.477 1.308 1.308 0 00.476 1.785zm0 0"/><path d="M253.266 261.934l-1.961 3.394h3.918zm0 0" fill="#ffff59"/><path d="M254.57 261.934a1.305 1.305 0 10-2.609 0 1.305 1.305 0 002.61 0zm0 4.523c.625.36 1.422.148 1.785-.477a1.308 1.308 0 00-.476-1.785 1.308 1.308 0 00-1.785.477 1.308 1.308 0 00.476 1.785zm-3.918-2.262c-.625.36-.84 1.16-.476 1.785.36.625 1.16.84 1.785.477.625-.36.84-1.16.476-1.785a1.304 1.304 0 00-1.785-.477zm0 0"/><path d="M260.121 256.844l-1.96-3.395-1.962 3.395zm0 0" fill="#ffff59"/><path d="M259.469 257.973a1.308 1.308 0 001.785-.477 1.308 1.308 0 00-.477-1.785 1.308 1.308 0 00-1.785.476 1.308 1.308 0 00.477 1.786zm-3.919-2.263a1.305 1.305 0 00-.476 1.786c.36.625 1.16.84 1.785.477.625-.36.84-1.16.477-1.786a1.304 1.304 0 00-1.785-.476zm3.919-2.26a1.305 1.305 0 10-2.61-.001 1.305 1.305 0 002.61 0zm0 0"/><path d="M245.238 292.855v-47.617h-47.617v47.617zm0 0" fill="none" stroke-width="1.2" stroke="#000" stroke-miterlimit="10"/><path d="M234.992 266.082l-13.562-9.855-13.563 9.855 5.18 15.945h16.766zm0 0" fill="#5959ff"/><path d="M235.39 270.484l3.294-1.968.515-3.801-2.652-2.774-3.82.344-2.114 3.203 1.184 3.649zm0 0" fill="#945994"/><path d="M237.977 269.586a1.28 1.28 0 101.41-2.135 1.28 1.28 0 00-1.41 2.135zm-3.86 1.012a1.279 1.279 0 102.547-.227 1.279 1.279 0 00-2.547.227zm-3.203-2.388a1.278 1.278 0 101.77 1.849 1.278 1.278 0 10-1.77-1.848zm-.129-3.987a1.277 1.277 0 10-.344 2.53 1.277 1.277 0 00.344-2.53zm3.039-2.59a1.28 1.28 0 10-2.195 1.313 1.28 1.28 0 002.195-1.313zm3.918.757a1.275 1.275 0 00-.746-1.644 1.275 1.275 0 00-1.644.746c-.25.66.085 1.399.746 1.645.66.25 1.398-.086 1.644-.746zm1.852 3.544a1.277 1.277 0 10-.79-2.43 1.277 1.277 0 00.79 2.43zm0 0"/><path d="M225.746 283.766l2.89 2.523 3.774-.684 1.817-3.378-1.508-3.528-3.7-1.02-3.101 2.255zm0 0" fill="#945994"/><path d="M227.402 285.95a1.28 1.28 0 00.891 1.573 1.28 1.28 0 001.574-.89 1.28 1.28 0 00-.89-1.574 1.28 1.28 0 00-1.575.89zm-2.156-3.36a1.28 1.28 0 101.009 2.352 1.28 1.28 0 00-1.009-2.352zm1.277-3.781a1.276 1.276 0 00-1.73.52 1.276 1.276 0 00.52 1.73 1.276 1.276 0 001.73-.52 1.276 1.276 0 00-.52-1.73zm3.758-1.359a1.281 1.281 0 10-2.52.458 1.281 1.281 0 002.52-.459zm3.403 2.09a1.28 1.28 0 10-1.928-1.684 1.28 1.28 0 001.928 1.683zm.488 3.964a1.28 1.28 0 10.116-2.556 1.28 1.28 0 00-.116 2.556zm-2.797 2.851c.414.57 1.215.7 1.785.282.57-.414.7-1.215.281-1.785a1.276 1.276 0 00-1.785-.282 1.276 1.276 0 00-.281 1.785zm0 0"/><path d="M210.137 278.7l-1.508 3.527 1.816 3.378 3.774.684 2.89-2.523-.172-3.832-3.101-2.254zm0 0" fill="#945994"/><path d="M208.57 280.95a1.277 1.277 0 00-1.218 1.335c.03.707.628 1.25 1.335 1.219a1.277 1.277 0 001.22-1.336 1.277 1.277 0 00-1.337-1.219zm2.532-3.095a1.28 1.28 0 10-1.926 1.686 1.28 1.28 0 001.926-1.686zm3.992.051a1.283 1.283 0 00-1.031-1.488 1.283 1.283 0 00-1.489 1.031 1.283 1.283 0 001.031 1.488 1.283 1.283 0 001.489-1.03zm2.449 3.153a1.277 1.277 0 10-1.211-2.25 1.277 1.277 0 101.211 2.25zm-.933 3.882a1.28 1.28 0 001.68-.671 1.28 1.28 0 00-.673-1.68 1.28 1.28 0 00-1.68.672 1.28 1.28 0 00.672 1.68zm-3.622 1.688c.188.68.89 1.082 1.575.89.68-.187 1.082-.89.89-1.574a1.276 1.276 0 00-1.574-.89c-.68.187-1.082.89-.89 1.574zm-3.574-1.777a1.28 1.28 0 002.066 1.503 1.28 1.28 0 00-2.066-1.503zm0 0"/><path d="M210.133 262.285l-3.82-.344-2.653 2.774.516 3.8 3.293 1.97 3.59-1.348 1.183-3.649zm0 0" fill="#945994"/><path d="M207.508 261.492a1.276 1.276 0 10-2.39.899 1.276 1.276 0 102.39-.899zm3.722 1.449a1.28 1.28 0 10-2.196-1.312 1.28 1.28 0 002.196 1.312zm1.188 3.813a1.274 1.274 0 001.094-1.438 1.274 1.274 0 00-1.438-1.093 1.274 1.274 0 00-1.094 1.437c.094.7.739 1.192 1.438 1.094zm-2.242 3.309c.512.488 1.32.468 1.808-.04a1.282 1.282 0 00-.039-1.808 1.282 1.282 0 00-1.808.039 1.282 1.282 0 00.039 1.808zm-3.981.308a1.279 1.279 0 102.548.226 1.279 1.279 0 00-2.548-.226zm-2.726-2.921c-.59.39-.75 1.183-.364 1.773.391.59 1.184.75 1.774.363.59-.39.75-1.184.363-1.774a1.283 1.283 0 00-1.773-.363zm.586-3.95a1.274 1.274 0 00-1.61.82 1.274 1.274 0 00.82 1.61 1.274 1.274 0 001.61-.82 1.274 1.274 0 00-.82-1.61zm0 0"/><path d="M225.738 257.21l-.855-3.737-3.457-1.664-3.457 1.664-.856 3.738 2.39 3h3.837zm0 0" fill="#945994"/><path d="M225.684 254.469a1.28 1.28 0 10-1.595-2 1.28 1.28 0 001.595 2zm-.231 3.988a1.28 1.28 0 00.57-2.492 1.28 1.28 0 00-.57 2.492zm-3.258 2.309a1.28 1.28 0 102.306-1.111 1.28 1.28 0 00-2.306 1.11zm-3.835-1.11a1.28 1.28 0 102.306 1.11 1.28 1.28 0 00-2.307-1.11zm-1.524-3.691a1.277 1.277 0 00-.961 1.531 1.277 1.277 0 001.531.961 1.277 1.277 0 00.961-1.531 1.277 1.277 0 00-1.531-.961zm1.934-3.492a1.276 1.276 0 00-1.797.203 1.276 1.276 0 00.203 1.797c.55.441 1.355.351 1.797-.203a1.276 1.276 0 00-.203-1.797zm3.937-.668a1.278 1.278 0 10-2.556 0 1.278 1.278 0 002.556 0zm0 0"/><path d="M197.617 292.855v-47.617H150v47.617zm0 0" fill="none" stroke-width="1.2" stroke="#000" stroke-miterlimit="10"/><g clip-path="url(#a)"><g clip-path="url(#b)"><path d="M181.105 272.605v14.532h-7.296v-14.532zm0 0" fill="#945994" stroke-width="1.2" stroke="#945994" stroke-miterlimit="10"/></g></g><g clip-path="url(#c)"><g clip-path="url(#d)"><path d="M173.809 272.605v14.532h-7.297v-14.532zm0 0" fill="#ff5959"/></g></g><g clip-path="url(#e)"><g clip-path="url(#f)"><path d="M173.809 272.605v14.532h-7.297v-14.532zm0 0" fill="none" stroke-width="1.2" stroke="#ff5959" stroke-miterlimit="10"/></g></g><path d="M177.293 286.379a.897.897 0 11-1.673.648.897.897 0 011.673-.648zm2.117-1.699a.897.897 0 01-.058 1.27.897.897 0 01-1.27-.06.897.897 0 01.059-1.269.897.897 0 011.27.059zm1.36-2.348a.895.895 0 01.402 1.203.895.895 0 01-1.203.402.895.895 0 01-.403-1.203.895.895 0 011.204-.402zm.418-2.68a.903.903 0 01.812.977.903.903 0 01-.977.812.903.903 0 01-.812-.976.903.903 0 01.976-.813zm-.575-2.652a.898.898 0 11.492 1.727.898.898 0 01-.492-1.727zm-1.496-2.262a.901.901 0 011.258.176.901.901 0 01-.176 1.258.901.901 0 01-1.258-.176.901.901 0 01.176-1.258zm-2.215-1.57a.895.895 0 011.235-.29c.422.263.55.813.289 1.235a.895.895 0 01-1.235.29.895.895 0 01-.289-1.235zm-2.629-.668a.897.897 0 111.765.326.897.897 0 01-1.765-.326zm-2.691.332a.897.897 0 111.764-.33.897.897 0 01-1.764.33zm-2.394 1.281a.897.897 0 111.525-.944.897.897 0 01-1.525.944zm-1.766 2.059a.9.9 0 01-.176-1.258.9.9 0 011.258-.176.9.9 0 01.176 1.258.9.9 0 01-1.258.176zm-.906 2.555a.898.898 0 11.492-1.727.898.898 0 01-.492 1.727zm.082 2.714a.898.898 0 11-.165-1.787.898.898 0 01.165 1.787zm1.05 2.5a.896.896 0 11-.8-1.605.896.896 0 11.8 1.605zm1.887 1.949a.897.897 0 01-1.27.06.897.897 0 01-.058-1.27.897.897 0 011.27-.059.897.897 0 01.058 1.27zm2.465 1.137a.897.897 0 11-1.673-.65.897.897 0 011.673.65zm2.707.173a.899.899 0 11-1.797-.001.899.899 0 011.797 0zm0 0"/><g clip-path="url(#g)"><g clip-path="url(#h)"><path d="M181.105 265.492v-14.531h-7.296v14.531zm0 0" fill="#945994" stroke-width="1.2" stroke="#945994" stroke-miterlimit="10"/></g></g><g clip-path="url(#i)"><g clip-path="url(#j)"><path d="M173.809 265.492v-14.531h-7.297v14.531zm0 0" fill="#ff5959"/></g></g><g clip-path="url(#k)"><g clip-path="url(#l)"><path d="M173.809 265.492v-14.531h-7.297v14.531zm0 0" fill="none" stroke-width="1.2" stroke="#ff5959" stroke-miterlimit="10"/></g></g><path d="M177.293 251.715a.897.897 0 10-1.673-.648.897.897 0 001.673.648zm2.117 1.699a.897.897 0 00-.058-1.27.897.897 0 00-1.27.06.897.897 0 00.059 1.269.897.897 0 001.27-.059zm1.36 2.348a.895.895 0 00.402-1.203.895.895 0 00-1.203-.403.895.895 0 00-.403 1.203.895.895 0 001.204.403zm.418 2.679a.903.903 0 00.812-.976.903.903 0 00-.977-.813.903.903 0 00-.812.977.903.903 0 00.976.812zm-.575 2.653a.898.898 0 10.492-1.727.898.898 0 00-.492 1.727zm-1.496 2.266a.901.901 0 001.258-.176.901.901 0 00-.176-1.258.901.901 0 00-1.258.176.901.901 0 00.176 1.257zm-2.215 1.57a.895.895 0 001.235.289.895.895 0 00.289-1.235.895.895 0 00-1.235-.289.895.895 0 00-.289 1.235zm-2.629.664a.897.897 0 101.765-.327.897.897 0 00-1.765.327zm-2.691-.328a.897.897 0 101.764.329.897.897 0 00-1.764-.33zm-2.394-1.282a.897.897 0 101.525.945.897.897 0 00-1.525-.945zm-1.766-2.058a.9.9 0 00-.176 1.258.9.9 0 001.258.175.9.9 0 00.176-1.257.9.9 0 00-1.258-.176zm-.906-2.559a.898.898 0 10.492 1.727.898.898 0 00-.492-1.727zm.082-2.711a.898.898 0 10-.165 1.788.898.898 0 00.165-1.788zm1.05-2.5a.896.896 0 10-.8 1.606.896.896 0 10.8-1.606zm1.887-1.949a.897.897 0 00-1.27-.059.897.897 0 00-.058 1.27.897.897 0 001.27.059.897.897 0 00.058-1.27zm2.465-1.141a.897.897 0 10-1.673.65.897.897 0 001.673-.65zm2.707-.168a.899.899 0 10-1.797 0 .899.899 0 001.797 0zm0 0"/><path d="M150 292.855v-47.617h-47.617v47.617zm0 0" fill="none" stroke-width="1.2" stroke="#000" stroke-miterlimit="10"/><path d="M137.586 278.93l-11.395-19.735-11.394 19.735zm0 0" fill="#ffff59"/><path d="M133.598 284l3.375 1.352 3.57-.688 2.629-2.508.855-3.531-1.187-3.434-2.856-2.246-3.617-.343-3.23 1.664-1.817 3.148.172 3.629zm0 0" fill="#ff5959"/><path d="M139.46 285.219c.306.594 1.04.828 1.634.523a1.215 1.215 0 00.523-1.633 1.215 1.215 0 00-1.633-.523 1.215 1.215 0 00-.523 1.633zm-3.694.015a1.21 1.21 0 102.41.231 1.21 1.21 0 00-2.41-.23zm-3.121-1.984a1.207 1.207 0 00.203 1.7 1.208 1.208 0 001.699-.204 1.207 1.207 0 00-.203-1.7 1.207 1.207 0 00-1.7.204zm-1.551-3.355a1.211 1.211 0 10.79 2.289 1.211 1.211 0 00-.79-2.29zm.508-3.665a1.211 1.211 0 00-1.461.891 1.211 1.211 0 00.89 1.461 1.211 1.211 0 001.461-.89 1.211 1.211 0 00-.89-1.462zm2.41-2.804a1.206 1.206 0 00-1.711-.04 1.206 1.206 0 00-.04 1.712 1.208 1.208 0 001.712.039 1.207 1.207 0 00.039-1.711zm3.543-1.059a1.212 1.212 0 00-2.38.457 1.212 1.212 0 002.38-.457zm3.55 1.023a1.21 1.21 0 00-.675-1.574 1.21 1.21 0 00-1.575.676 1.21 1.21 0 00.676 1.574 1.21 1.21 0 001.574-.675zm2.435 2.786a1.213 1.213 0 10-1.407-1.977 1.213 1.213 0 001.406 1.977zm.546 3.656a1.211 1.211 0 001.152-1.27 1.211 1.211 0 00-1.27-1.152 1.211 1.211 0 00-1.152 1.27 1.211 1.211 0 001.27 1.152zm-1.523 3.371a1.21 1.21 0 001.656-.445 1.21 1.21 0 00-.446-1.656 1.21 1.21 0 00-1.656.445 1.21 1.21 0 00.446 1.656zm0 0"/><path d="M112.398 272.941l-2.855 2.247-1.188 3.433.856 3.531 2.629 2.508 3.57.688 3.375-1.352 2.11-2.96.171-3.63-1.816-3.148-3.23-1.664zm0 0" fill="#ff5959"/><path d="M108.41 277.414a1.216 1.216 0 00-1.27 1.152 1.216 1.216 0 001.153 1.27 1.216 1.216 0 001.27-1.152 1.216 1.216 0 00-1.153-1.27zm1.836-3.211a1.214 1.214 0 10-1.406 1.979 1.214 1.214 0 001.406-1.979zm3.277-1.711a1.214 1.214 0 00-1.574-.676c-.62.25-.922.954-.676 1.575.25.62.954.921 1.575.675.62-.25.922-.953.675-1.574zm3.684.332a1.212 1.212 0 00-2.379-.457 1.212 1.212 0 002.379.457zm2.918 2.274a1.21 1.21 0 10-1.749-1.672 1.21 1.21 0 001.749 1.672zm1.227 3.488a1.208 1.208 0 00.89-1.461 1.208 1.208 0 00-1.46-.89 1.208 1.208 0 00-.891 1.46 1.206 1.206 0 001.46.89zm-.856 3.598a1.21 1.21 0 10.79-2.29 1.21 1.21 0 10-.79 2.29zm-2.664 2.566a1.208 1.208 0 001.7.203 1.208 1.208 0 00.202-1.7 1.208 1.208 0 00-1.699-.202 1.208 1.208 0 00-.203 1.699zm-3.629.715a1.207 1.207 0 001.32 1.09 1.207 1.207 0 001.09-1.32 1.207 1.207 0 00-1.32-1.09 1.207 1.207 0 00-1.09 1.32zm-3.437-1.36a1.213 1.213 0 102.157 1.11 1.213 1.213 0 00-2.157-1.11zm-2.161-3a1.217 1.217 0 00-.445 1.657 1.217 1.217 0 001.656.445 1.217 1.217 0 00.446-1.656 1.217 1.217 0 00-1.657-.446zm0 0"/><path d="M132.574 260.113l-.515-3.597-2.38-2.746-3.488-1.024-3.488 1.024-2.379 2.746-.515 3.597 1.507 3.305 3.059 1.965h3.633l3.058-1.965zm0 0" fill="#ff5959"/><path d="M130.695 254.426a1.213 1.213 0 10-2.039-1.313 1.213 1.213 0 002.04 1.313zm1.868 3.191a1.21 1.21 0 10-1.007-2.202 1.21 1.21 0 001.006 2.202zm-.161 3.696a1.21 1.21 0 001.371-1.028 1.21 1.21 0 00-1.027-1.37 1.21 1.21 0 00-1.371 1.026 1.21 1.21 0 001.027 1.372zm-2.129 3.023c.504.437 1.27.383 1.707-.121a1.211 1.211 0 00-.12-1.707 1.211 1.211 0 00-1.708.12 1.211 1.211 0 00.121 1.708zm-3.429 1.391c.187.64.863 1.007 1.504.82a1.213 1.213 0 00.82-1.504 1.213 1.213 0 00-1.504-.82 1.213 1.213 0 00-.82 1.504zm-3.634-.684c-.187.64.18 1.316.821 1.504.64.187 1.317-.18 1.504-.82a1.213 1.213 0 00-.82-1.504 1.213 1.213 0 00-1.504.82zm-2.687-2.539a1.211 1.211 0 00-.12 1.707 1.211 1.211 0 001.706.121 1.211 1.211 0 00.121-1.707 1.211 1.211 0 00-1.707-.121zm-.89-3.59a1.212 1.212 0 10.344 2.399 1.212 1.212 0 00-.344-2.399zm1.195-3.5a1.21 1.21 0 10-1.008 2.201 1.21 1.21 0 001.008-2.2zm2.895-2.301a1.212 1.212 0 10-2.039 1.31 1.212 1.212 0 002.039-1.31zm3.679-.367a1.212 1.212 0 00-2.422 0 1.212 1.212 0 002.422 0zm0 0"/><path d="M102.383 292.855v-47.617H54.766v47.617zm0 0" fill="none" stroke-width="1.2" stroke="#000" stroke-miterlimit="10"/><path d="M86.734 277.266a1.5 1.5 0 11-3-.001 1.5 1.5 0 013 0zm0-3.996a1.5 1.5 0 10-3 0 1.5 1.5 0 003 0zm-3.996 3.996a1.5 1.5 0 11-3-.001 1.5 1.5 0 013 0zm0-3.996a1.5 1.5 0 10-3 0 1.5 1.5 0 003 0zm3.996 9.328a1.5 1.5 0 10-3 0 1.5 1.5 0 003 0zm0 4a1.5 1.5 0 11-3-.001 1.5 1.5 0 013 0zm-3.996-4a1.5 1.5 0 10-3 0 1.5 1.5 0 003 0zm0 4a1.5 1.5 0 11-3-.001 1.5 1.5 0 013 0zm-5.332-9.332a1.5 1.5 0 11-3-.001 1.5 1.5 0 013 0zm0-3.996a1.5 1.5 0 10-3 0 1.5 1.5 0 003 0zm-4 3.996a1.5 1.5 0 11-3-.001 1.5 1.5 0 013 0zm0-3.996a1.5 1.5 0 10-3 0 1.5 1.5 0 003 0zm4 9.328a1.5 1.5 0 10-3 0 1.5 1.5 0 003 0zm0 4a1.5 1.5 0 11-3-.001 1.5 1.5 0 013 0zm-4-4a1.5 1.5 0 10-3 0 1.5 1.5 0 003 0zm0 4a1.5 1.5 0 11-3-.001 1.5 1.5 0 013 0zm13.328-25.77a1.5 1.5 0 10-3 0 1.5 1.5 0 003 0zm0 4a1.5 1.5 0 11-3 0 1.5 1.5 0 013 0zm-3.996-4a1.5 1.5 0 10-3 0 1.5 1.5 0 003 0zm0 4a1.5 1.5 0 11-3 0 1.5 1.5 0 013 0zm3.996-9.332a1.5 1.5 0 11-3 0 1.5 1.5 0 013 0zm0-3.996a1.5 1.5 0 10-3 0 1.5 1.5 0 003 0zm-3.996 3.996a1.5 1.5 0 11-3 0 1.5 1.5 0 013 0zm0-3.996a1.5 1.5 0 10-3 0 1.5 1.5 0 003 0zm-5.332 9.328a1.5 1.5 0 10-3 0 1.5 1.5 0 003 0zm0 4a1.5 1.5 0 11-3 0 1.5 1.5 0 013 0zm-4-4a1.5 1.5 0 10-3 0 1.5 1.5 0 003 0zm0 4a1.5 1.5 0 11-3 0 1.5 1.5 0 013 0zm4-9.332a1.5 1.5 0 11-3 0 1.5 1.5 0 013 0zm0-3.996a1.5 1.5 0 10-3 0 1.5 1.5 0 003 0zm-4 3.996a1.5 1.5 0 11-3 0 1.5 1.5 0 013 0zm0-3.996a1.5 1.5 0 10-3 0 1.5 1.5 0 003 0zm0 0"/><path d="M54.762 292.855v-47.617H7.145v47.617zm0 0" fill="none" stroke-width="1.2" stroke="#000" stroke-miterlimit="10"/><g clip-path="url(#m)"><g clip-path="url(#n)"><path d="M48.797 286.914v-35.64H30.953v35.64zm0 0" fill="#ff5959" stroke-width="1.2" stroke="#ff5959" stroke-miterlimit="10"/></g></g><g clip-path="url(#o)"><g clip-path="url(#p)"><path d="M30.953 286.914v-35.64H13.11v35.64zm0 0" fill="#ffff59"/></g></g><g clip-path="url(#q)"><g clip-path="url(#r)"><path d="M30.953 286.914v-35.64H13.11v35.64zm0 0" fill="none" stroke-width="1.2" stroke="#ffff59" stroke-miterlimit="10"/></g></g><path d="M35.73 251.836a1.204 1.204 0 10-2.359-.484 1.204 1.204 0 102.36.484zm3.375 1.316a1.203 1.203 0 00-.632-1.582 1.203 1.203 0 00-1.582.633 1.204 1.204 0 102.214.949zm3.043 1.965a1.203 1.203 0 10-1.975-1.375 1.203 1.203 0 001.975 1.375zm2.582 2.539c.48-.457.5-1.222.043-1.703a1.208 1.208 0 00-1.703-.043c-.48.457-.5 1.223-.043 1.703s1.223.5 1.703.043zm2.02 3.008a1.204 1.204 0 10-1.273-2.047 1.204 1.204 0 101.273 2.047zm1.375 3.356a1.204 1.204 0 10-.835-2.258 1.204 1.204 0 00.835 2.258zm.668 3.558a1.206 1.206 0 10-.367-2.383 1.206 1.206 0 00.367 2.383zm-.059 3.625a1.205 1.205 0 10.124-2.407 1.205 1.205 0 00-.124 2.407zm-.789 3.535a1.204 1.204 0 10.606-2.332 1.204 1.204 0 10-.606 2.332zm-1.485 3.305a1.206 1.206 0 101.063-2.165 1.206 1.206 0 00-1.062 2.165zm-2.116 2.937a1.206 1.206 0 101.476-1.908 1.206 1.206 0 00-1.476 1.908zm-2.668 2.454a1.206 1.206 0 001.828-1.57 1.206 1.206 0 00-1.828 1.57zM38.57 285.3a1.202 1.202 0 001.637.47 1.202 1.202 0 00.469-1.637 1.202 1.202 0 00-1.637-.469 1.202 1.202 0 00-.469 1.637zm-3.418 1.2a1.206 1.206 0 102.302-.723 1.204 1.204 0 00-1.513-.789c-.636.2-.988.875-.789 1.512zm-3.589.488c.066.66.66 1.145 1.32 1.078a1.208 1.208 0 001.078-1.32 1.208 1.208 0 00-1.32-1.078c-.66.066-1.145.66-1.078 1.32zm-3.618-.242a1.205 1.205 0 102.399.242 1.205 1.205 0 00-2.399-.242zm-3.492-.969c-.2.637.152 1.313.79 1.512.636.2 1.312-.152 1.51-.789a1.204 1.204 0 00-.788-1.512 1.204 1.204 0 00-1.512.79zm-3.223-1.648a1.201 1.201 0 00.47 1.637 1.201 1.201 0 001.636-.47 1.201 1.201 0 00-.469-1.636 1.201 1.201 0 00-1.637.469zm-2.828-2.266a1.206 1.206 0 001.828 1.57 1.206 1.206 0 00-1.828-1.57zm-2.316-2.785a1.206 1.206 0 101.477 1.906 1.206 1.206 0 00-1.477-1.906zm-1.703-3.199a1.206 1.206 0 101.063 2.164 1.206 1.206 0 00-1.063-2.164zm-1.028-3.473a1.204 1.204 0 10.606 2.332 1.204 1.204 0 10-.606-2.332zm-.308-3.613a1.205 1.205 0 10.126 2.407 1.205 1.205 0 00-.126-2.407zm.43-3.598a1.208 1.208 0 00-1.375 1.008 1.208 1.208 0 001.007 1.375 1.208 1.208 0 001.375-1.008 1.208 1.208 0 00-1.007-1.375zm1.14-3.437a1.202 1.202 0 00-1.547.71c-.23.626.086 1.317.711 1.548a1.202 1.202 0 001.547-.711 1.202 1.202 0 00-.71-1.547zm1.813-3.137a1.204 1.204 0 10-1.273 2.047c.566.352 1.308.18 1.66-.387a1.204 1.204 0 00-.387-1.66zm2.402-2.711a1.208 1.208 0 00-1.703.043 1.208 1.208 0 00.043 1.703c.48.457 1.246.438 1.703-.043a1.208 1.208 0 00-.043-1.703zm2.902-2.168a1.204 1.204 0 10-1.976 1.375 1.204 1.204 0 001.976-1.375zm3.282-1.542a1.204 1.204 0 10-2.215.947 1.204 1.204 0 002.215-.948zm3.519-.848a1.204 1.204 0 10-2.36.484 1.204 1.204 0 102.36-.484zm3.621-.125a1.204 1.204 0 10-2.407 0 1.204 1.204 0 002.407 0zm0 0"/><path d="M292.855 245.238v-47.617h-47.617v47.617zm0 0" fill="none" stroke-width="1.2" stroke="#000" stroke-miterlimit="10"/><path d="M274.309 227.727l-5.262 9.113-5.262-9.113zm0 0" fill="#ffff59"/><path d="M273.766 225.172l2.804 1.25-.32 3.055-3.004.636-1.535-2.66zm0 0" fill="#5959ff"/><path d="M272.766 225.387a1.023 1.023 0 01.789-1.215 1.023 1.023 0 011.215.789 1.023 1.023 0 01-.79 1.215 1.023 1.023 0 01-1.214-.79zm-1.161 3.086a1.023 1.023 0 11.214-2.035 1.023 1.023 0 01-.214 2.035zm2.579 2.058a1.025 1.025 0 11-1.872-.834 1.025 1.025 0 011.872.834zm2.75-1.816a1.02 1.02 0 01.074 1.445 1.02 1.02 0 01-1.445.074 1.02 1.02 0 01-.075-1.445 1.02 1.02 0 011.446-.074zm-.875-3.18a1.026 1.026 0 011.398.375 1.026 1.026 0 01-.375 1.399 1.026 1.026 0 01-1.398-.375 1.026 1.026 0 01.375-1.399zm0 0"/><path d="M261.844 229.477l-.32-3.055 2.804-1.25 2.055 2.281-1.535 2.66zm0 0" fill="#5959ff"/><path d="M262.531 230.234a1.024 1.024 0 01-1.37-1.52 1.024 1.024 0 011.37 1.52zm3.254-.534a1.025 1.025 0 11-1.873.83 1.025 1.025 0 011.873-.83zm.492-3.262a1.023 1.023 0 11.216 2.033 1.023 1.023 0 01-.216-2.034zm-2.949-1.478c.117-.554.66-.905 1.215-.788.555.117.906.66.789 1.215-.117.554-.66.906-1.215.789a1.023 1.023 0 01-.789-1.215zm-2.316 2.349a1.026 1.026 0 01-.375-1.399c.281-.488.91-.656 1.398-.375.488.281.656.91.375 1.399-.281.488-.91.656-1.398.375zm0 0"/><path d="M271.531 237.648l-2.484 1.805-2.485-1.805.95-2.921h3.07zm0 0" fill="#5959ff"/><path d="M271.848 236.676a1.022 1.022 0 11-.633 1.945 1.022 1.022 0 11.633-1.945zm-2.094-2.551a1.024 1.024 0 111.656 1.205 1.024 1.024 0 01-1.656-1.205zm-3.07 1.203a1.024 1.024 0 111.657-1.203 1.024 1.024 0 01-1.657 1.203zm.195 3.293a1.023 1.023 0 11-.632-1.946 1.023 1.023 0 01.632 1.946zm3.191.832c0 .567-.457 1.024-1.023 1.024a1.022 1.022 0 01-1.024-1.024c0-.566.457-1.023 1.024-1.023.566 0 1.023.457 1.023 1.023zm0 0"/><path d="M274.309 215.129l-5.262-9.113-5.262 9.113zm0 0" fill="#ffff59"/><path d="M273.766 217.684l2.804-1.25-.32-3.055-3.004-.637-1.535 2.66zm0 0" fill="#5959ff"/><path d="M272.766 217.473a1.023 1.023 0 00.789 1.214 1.023 1.023 0 001.215-.789 1.023 1.023 0 00-.79-1.214 1.023 1.023 0 00-1.214.789zm-1.161-3.09a1.023 1.023 0 10.214 2.034 1.023 1.023 0 00-.214-2.034zm2.579-2.055a1.025 1.025 0 10-1.872.834 1.025 1.025 0 001.872-.834zm2.75 1.812a1.02 1.02 0 00.074-1.445 1.02 1.02 0 00-1.445-.074 1.02 1.02 0 00-.075 1.445 1.02 1.02 0 001.446.075zm-.875 3.18a1.026 1.026 0 001.398-.375 1.026 1.026 0 00-.375-1.398 1.026 1.026 0 00-1.398.375 1.026 1.026 0 00.375 1.398zm0 0"/><path d="M261.844 213.383l-.32 3.054 2.804 1.25 2.055-2.28-1.535-2.66zm0 0" fill="#5959ff"/><path d="M262.531 212.621a1.024 1.024 0 00-1.37 1.52 1.024 1.024 0 001.37-1.52zm3.254.539a1.025 1.025 0 10-1.873-.831 1.025 1.025 0 001.873.831zm.492 3.262a1.023 1.023 0 10.216-2.034 1.023 1.023 0 00-.216 2.034zm-2.949 1.476a1.023 1.023 0 102.004-.425 1.023 1.023 0 00-1.215-.79c-.555.118-.906.66-.789 1.215zm-2.316-2.351a1.024 1.024 0 001.023 1.773c.488-.28.656-.91.375-1.398a1.026 1.026 0 00-1.398-.375zm0 0"/><path d="M271.531 205.21l-2.484-1.804-2.485 1.805.95 2.922h3.07zm0 0" fill="#5959ff"/><path d="M271.848 206.184c.539-.176.832-.754.656-1.29a1.022 1.022 0 10-1.945.633c.175.54.753.832 1.289.657zm-2.094 2.546a1.024 1.024 0 101.656-1.204 1.024 1.024 0 00-1.656 1.204zm-3.07-1.203a1.024 1.024 0 101.657 1.203 1.024 1.024 0 00-1.657-1.203zm.195-3.293a1.023 1.023 0 10-.632 1.947 1.023 1.023 0 00.632-1.947zm3.191-.828c0-.566-.457-1.023-1.023-1.023-.567 0-1.024.457-1.024 1.023 0 .567.457 1.024 1.024 1.024.566 0 1.023-.457 1.023-1.024zm0 0"/><path d="M245.238 245.238v-47.617h-47.617v47.617zm0 0" fill="none" stroke-width="1.2" stroke="#000" stroke-miterlimit="10"/><g clip-path="url(#s)"><g clip-path="url(#t)"><path d="M239.195 239.219v-35.477H221.43v35.477zm0 0" fill="#b16262"/></g></g><g clip-path="url(#u)"><g clip-path="url(#v)"><path d="M239.195 239.219v-35.477H221.43v35.477zm0 0" fill="none" stroke-width="1.2" stroke="#b16262" stroke-miterlimit="10"/></g></g><g clip-path="url(#w)"><g clip-path="url(#x)"><path d="M221.43 239.219v-35.477h-17.766v35.477zm0 0" fill="#ffb159"/></g></g><g clip-path="url(#y)"><g clip-path="url(#z)"><path d="M221.43 239.219v-35.477h-17.766v35.477zm0 0" fill="none" stroke-width="1.2" stroke="#ffb159" stroke-miterlimit="10"/></g></g><path d="M226.504 204.383a1.282 1.282 0 10-2.504-.551 1.282 1.282 0 002.504.55zm3.559 1.488a1.285 1.285 0 00-.625-1.703 1.285 1.285 0 00-1.704.625 1.285 1.285 0 00.625 1.703 1.285 1.285 0 001.703-.625zm3.152 2.223a1.28 1.28 0 00-.246-1.797 1.28 1.28 0 00-1.797.246 1.28 1.28 0 00.246 1.797 1.28 1.28 0 001.797-.246zm2.605 2.847c.54-.457.606-1.27.149-1.808a1.286 1.286 0 00-1.809-.149 1.286 1.286 0 00-.148 1.809c.457.539 1.27.605 1.808.148zm1.93 3.34a1.283 1.283 0 10-1.205-2.266 1.283 1.283 0 001.205 2.266zm1.164 3.676a1.279 1.279 0 00.89-1.578 1.279 1.279 0 00-1.577-.89 1.279 1.279 0 00-.891 1.577 1.279 1.279 0 001.578.891zm.348 3.84a1.284 1.284 0 10-.142-2.564 1.284 1.284 0 00.142 2.564zm-.485 3.828a1.282 1.282 0 10.415-2.531 1.282 1.282 0 00-.415 2.531zm-1.297 3.633a1.282 1.282 0 00.95-2.38 1.282 1.282 0 00-.95 2.38zm-2.046 3.269a1.282 1.282 0 101.441-2.12 1.282 1.282 0 00-1.441 2.12zm-2.7 2.75a1.283 1.283 0 001.864-1.761 1.283 1.283 0 00-1.864 1.761zm-3.23 2.11a1.283 1.283 0 102.199-1.323 1.283 1.283 0 00-2.2 1.323zm-3.609 1.363a1.281 1.281 0 102.43-.82 1.281 1.281 0 10-2.43.82zm-3.817.555c.078.703.711 1.21 1.414 1.136a1.287 1.287 0 001.137-1.414 1.287 1.287 0 00-1.414-1.136 1.287 1.287 0 00-1.137 1.414zm-3.848-.278a1.284 1.284 0 001.137 1.414 1.284 1.284 0 001.414-1.136 1.284 1.284 0 00-1.136-1.414 1.284 1.284 0 00-1.415 1.136zm-3.699-1.097a1.281 1.281 0 102.43.82 1.281 1.281 0 10-2.43-.82zm-3.375-1.867a1.288 1.288 0 00.438 1.761 1.288 1.288 0 001.761-.437 1.288 1.288 0 00-.437-1.762 1.288 1.288 0 00-1.762.438zm-2.894-2.547a1.28 1.28 0 00.05 1.812 1.28 1.28 0 001.813-.05 1.28 1.28 0 00-.05-1.813 1.28 1.28 0 00-1.813.05zm-2.278-3.114a1.282 1.282 0 101.44 2.121 1.282 1.282 0 00-1.44-2.12zm-1.558-3.527a1.278 1.278 0 00-.715 1.664 1.28 1.28 0 001.664.715 1.28 1.28 0 00.715-1.664 1.278 1.278 0 00-1.664-.715zm-.762-3.781a1.282 1.282 0 10.414 2.53 1.282 1.282 0 00-.414-2.53zm.07-3.856a1.284 1.284 0 10-.139 2.564 1.284 1.284 0 00.14-2.564zm.895-3.754a1.28 1.28 0 00-1.578.891 1.28 1.28 0 00.89 1.578 1.28 1.28 0 001.579-.89 1.28 1.28 0 00-.891-1.579zm1.68-3.468a1.283 1.283 0 10-1.203 2.268 1.283 1.283 0 001.203-2.268zm2.391-3.032a1.282 1.282 0 10-1.661 1.955 1.282 1.282 0 001.66-1.955zm2.984-2.441a1.287 1.287 0 00-1.797-.246 1.287 1.287 0 00-.246 1.797c.43.562 1.234.672 1.797.246.562-.43.671-1.235.246-1.797zm3.437-1.746a1.281 1.281 0 00-1.703-.625 1.281 1.281 0 00-.625 1.703 1.281 1.281 0 001.703.625 1.281 1.281 0 00.625-1.703zm3.734-.969a1.282 1.282 0 10-2.503.55 1.282 1.282 0 002.503-.55zm3.855-.14a1.282 1.282 0 10-2.563.001 1.282 1.282 0 002.564-.001zm0 0"/><path d="M197.617 245.238v-47.617H150v47.617zm0 0" fill="none" stroke-width="1.2" stroke="#000" stroke-miterlimit="10"/><path d="M190.988 230.348l-1.246 5.46-5.047 2.43-5.047-2.43-1.246-5.46 3.493-4.38h5.601zm0 0" fill="#945994"/><path d="M190.906 234.348c.805.644.938 1.816.297 2.625a1.872 1.872 0 01-2.625.297 1.872 1.872 0 01-.297-2.625 1.872 1.872 0 012.625-.297zm-.332-5.825a1.87 1.87 0 11.832 3.645 1.87 1.87 0 01-.832-3.645zm-4.761-3.367a1.865 1.865 0 012.492-.87c.93.448 1.32 1.562.87 2.491a1.865 1.865 0 01-2.491.871 1.865 1.865 0 01-.871-2.492zm-5.603 1.621a1.864 1.864 0 01.872-2.492 1.864 1.864 0 012.492.871c.45.93.059 2.047-.87 2.492-.93.45-2.048.059-2.493-.87zm-2.226 5.391a1.87 1.87 0 01.832-3.645 1.87 1.87 0 01-.832 3.645zm2.825 5.102a1.865 1.865 0 01-2.625-.297 1.865 1.865 0 01.296-2.625 1.865 1.865 0 012.625.297c.645.804.512 1.98-.296 2.625zm5.754.968a1.867 1.867 0 11-3.735 0 1.867 1.867 0 013.734 0zm0 0"/><path d="M190.988 212.512l-1.246-5.461-5.047-2.43-5.047 2.43-1.246 5.46 3.493 4.38h5.601zm0 0" fill="#945994"/><path d="M190.906 208.508a1.872 1.872 0 00.297-2.625 1.872 1.872 0 00-2.625-.297 1.872 1.872 0 00-.297 2.625 1.872 1.872 0 002.625.297zm-.332 5.824a1.87 1.87 0 10.832-3.644 1.87 1.87 0 00-.832 3.644zm-4.761 3.371a1.864 1.864 0 002.492.871 1.863 1.863 0 00.87-2.492 1.865 1.865 0 00-2.491-.871 1.865 1.865 0 00-.871 2.492zm-5.603-1.621a1.864 1.864 0 00.872 2.492c.93.45 2.047.059 2.492-.87.45-.93.059-2.048-.87-2.493a1.864 1.864 0 00-2.493.871zm-2.226-5.391a1.87 1.87 0 00.832 3.645 1.87 1.87 0 00-.832-3.645zm2.825-5.101a1.865 1.865 0 00-2.625.297 1.865 1.865 0 00.296 2.625c.805.644 1.98.511 2.625-.297a1.865 1.865 0 00-.296-2.625zm5.754-.973a1.867 1.867 0 10-3.735 0 1.867 1.867 0 003.734 0zm0 0"/><path d="M169.219 230.348l-1.246 5.46-5.047 2.43-5.047-2.43-1.246-5.46 3.492-4.38h5.602zm0 0" fill="#945994"/><path d="M169.137 234.348c.804.644.937 1.816.297 2.625a1.872 1.872 0 01-2.625.297 1.872 1.872 0 01-.297-2.625 1.872 1.872 0 012.625-.297zm-.332-5.825a1.87 1.87 0 11.832 3.645 1.87 1.87 0 01-.832-3.645zm-4.762-3.367a1.865 1.865 0 012.492-.87c.93.448 1.32 1.562.871 2.491a1.865 1.865 0 01-2.492.871 1.865 1.865 0 01-.871-2.492zm-5.602 1.621a1.864 1.864 0 01.871-2.492 1.864 1.864 0 012.493.871c.449.93.058 2.047-.871 2.492-.93.45-2.047.059-2.493-.87zm-2.226 5.391a1.87 1.87 0 01.832-3.645 1.87 1.87 0 01-.832 3.645zm2.828 5.102a1.865 1.865 0 01-2.625-.297 1.865 1.865 0 01.297-2.625 1.865 1.865 0 012.625.297c.644.804.512 1.98-.297 2.625zm5.75.968a1.867 1.867 0 11-3.734 0 1.867 1.867 0 013.734 0zm0 0"/><path d="M169.219 212.512l-1.246-5.461-5.047-2.43-5.047 2.43-1.246 5.46 3.492 4.38h5.602zm0 0" fill="#945994"/><path d="M169.137 208.508a1.872 1.872 0 00.297-2.625 1.872 1.872 0 00-2.625-.297 1.872 1.872 0 00-.297 2.625 1.872 1.872 0 002.625.297zm-.332 5.824a1.87 1.87 0 10.832-3.644 1.87 1.87 0 00-.832 3.644zm-4.762 3.371c.45.93 1.562 1.32 2.492.871a1.864 1.864 0 00.871-2.492 1.865 1.865 0 00-2.492-.871 1.865 1.865 0 00-.871 2.492zm-5.602-1.621a1.864 1.864 0 00.871 2.492c.93.45 2.047.059 2.493-.87a1.865 1.865 0 00-.871-2.493 1.864 1.864 0 00-2.493.871zm-2.226-5.391a1.87 1.87 0 00.832 3.645 1.87 1.87 0 00-.832-3.645zm2.828-5.101a1.865 1.865 0 00-2.625.297 1.865 1.865 0 00.297 2.625c.805.644 1.98.511 2.625-.297a1.865 1.865 0 00-.297-2.625zm5.75-.973a1.867 1.867 0 10-3.734 0 1.867 1.867 0 003.734 0zm0 0"/><path d="M150 245.238v-47.617h-47.617v47.617zm0 0" fill="none" stroke-width="1.2" stroke="#000" stroke-miterlimit="10"/><path d="M137.617 233.172l-11.43-19.793-11.43 19.793zm0 0" fill="#ffff59"/><path d="M133.047 235.813h9.144l-4.57-7.918zm0 0" fill="#ffff59"/><path d="M133.047 233.703l-1.828 3.168h3.656zm0 0" fill="#ffff59"/><path d="M134.266 233.703a1.22 1.22 0 00-1.22-1.219 1.22 1.22 0 00-1.218 1.22 1.22 1.22 0 001.219 1.218 1.22 1.22 0 001.219-1.219zm0 4.223a1.219 1.219 0 001.218-2.11 1.219 1.219 0 00-1.218 2.11zm-3.656-2.113a1.219 1.219 0 001.218 2.109 1.219 1.219 0 00-1.219-2.11zm0 0"/><path d="M139.45 228.95l-1.829-3.169-1.828 3.168zm0 0" fill="#ffff59"/><path d="M138.84 230.008a1.219 1.219 0 001.219-2.11 1.219 1.219 0 00-1.22 2.11zm-3.66-2.113a1.219 1.219 0 001.218 2.109 1.219 1.219 0 00-1.218-2.11zm3.66-2.11a1.22 1.22 0 00-1.219-1.219 1.22 1.22 0 00-1.219 1.22 1.22 1.22 0 001.22 1.218 1.22 1.22 0 001.218-1.219zm0 0"/><path d="M140.363 236.867h3.657l-1.829-3.168zm0 0" fill="#ffff59"/><path d="M139.754 235.813a1.219 1.219 0 001.219 2.109 1.219 1.219 0 00-1.22-2.11zm3.656-2.11a1.22 1.22 0 00-1.219-1.219 1.22 1.22 0 00-1.218 1.22 1.22 1.22 0 001.218 1.218 1.22 1.22 0 001.22-1.219zm0 4.223a1.219 1.219 0 001.219-2.11 1.219 1.219 0 00-1.219 2.11zm0 0"/><path d="M114.762 227.895l-4.57 7.917h9.144zm0 0" fill="#ffff59"/><path d="M116.59 228.95l-1.828-3.169-1.828 3.168zm0 0" fill="#ffff59"/><path d="M115.98 230.008a1.219 1.219 0 001.22-2.11 1.219 1.219 0 00-1.22 2.11zm-3.656-2.113a1.219 1.219 0 001.219 2.109 1.219 1.219 0 00-1.219-2.11zm3.656-2.11a1.22 1.22 0 00-1.218-1.219 1.22 1.22 0 00-1.219 1.22 1.22 1.22 0 001.219 1.218 1.22 1.22 0 001.218-1.219zm0 0"/><path d="M117.504 236.867h3.656l-1.828-3.168zm0 0" fill="#ffff59"/><path d="M116.895 235.813a1.219 1.219 0 001.218 2.109 1.219 1.219 0 00-1.218-2.11zm3.655-2.11a1.22 1.22 0 00-1.218-1.219 1.22 1.22 0 00-1.219 1.22 1.22 1.22 0 001.219 1.218 1.22 1.22 0 001.219-1.219zm0 4.223a1.219 1.219 0 001.22-2.11 1.219 1.219 0 00-1.22 2.11zm0 0"/><path d="M110.191 233.703l-1.828 3.168h3.657zm0 0" fill="#ffff59"/><path d="M111.41 233.703a1.22 1.22 0 00-1.219-1.219 1.22 1.22 0 00-1.218 1.22 1.22 1.22 0 001.218 1.218 1.22 1.22 0 001.22-1.219zm0 4.223a1.219 1.219 0 001.219-2.11 1.219 1.219 0 00-1.219 2.11zm-3.656-2.113a1.219 1.219 0 001.219 2.109 1.219 1.219 0 00-1.22-2.11zm0 0"/><path d="M130.762 216.02l-4.57-7.918-4.57 7.918zm0 0" fill="#ffff59"/><path d="M128.934 217.074h3.656l-1.828-3.168zm0 0" fill="#ffff59"/><path d="M128.324 216.02a1.219 1.219 0 001.219 2.109 1.219 1.219 0 00-1.219-2.11zm3.656-2.114a1.22 1.22 0 00-1.218-1.219 1.22 1.22 0 00-1.219 1.22 1.22 1.22 0 001.219 1.218 1.22 1.22 0 001.218-1.219zm0 4.223a1.219 1.219 0 001.22-2.11 1.219 1.219 0 00-1.22 2.11zm0 0"/><path d="M121.617 213.906l-1.828 3.168h3.656zm0 0" fill="#ffff59"/><path d="M122.84 213.906a1.22 1.22 0 00-1.219-1.219 1.22 1.22 0 00-1.219 1.22 1.22 1.22 0 001.22 1.218 1.22 1.22 0 001.218-1.219zm0 4.223a1.219 1.219 0 001.219-2.11 1.219 1.219 0 00-1.22 2.11zm-3.66-2.109a1.219 1.219 0 001.218 2.109 1.219 1.219 0 00-1.218-2.11zm0 0"/><path d="M128.02 209.156l-1.829-3.168-1.828 3.168zm0 0" fill="#ffff59"/><path d="M127.41 210.21a1.219 1.219 0 001.219-2.108 1.219 1.219 0 00-1.219 2.109zm-3.656-2.108a1.219 1.219 0 001.219 2.109 1.219 1.219 0 00-1.22-2.11zm3.656-2.114a1.22 1.22 0 00-1.219-1.218 1.22 1.22 0 00-1.218 1.218 1.22 1.22 0 001.218 1.219 1.22 1.22 0 001.22-1.219zm0 0"/><path d="M102.383 245.238v-47.617H54.766v47.617zm0 0" fill="none" stroke-width="1.2" stroke="#000" stroke-miterlimit="10"/><g clip-path="url(#A)"><g clip-path="url(#B)"><path d="M85.648 225.184v14.05H78.57v-14.05zm0 0" fill="#ffff59"/></g></g><g clip-path="url(#C)"><g clip-path="url(#D)"><path d="M85.648 225.184v14.05H78.57v-14.05zm0 0" fill="none" stroke-width="1.2" stroke="#ffff59" stroke-miterlimit="10"/></g></g><g clip-path="url(#E)"><g clip-path="url(#F)"><path d="M78.57 225.184v14.05h-7.078v-14.05zm0 0" fill="#ff5959"/></g></g><g clip-path="url(#G)"><g clip-path="url(#H)"><path d="M78.57 225.184v14.05h-7.078v-14.05zm0 0" fill="none" stroke-width="1.2" stroke="#ff5959" stroke-miterlimit="10"/></g></g><path d="M82.89 237.992a1.135 1.135 0 01-.48 1.535 1.135 1.135 0 01-1.535-.48 1.135 1.135 0 01.48-1.535 1.135 1.135 0 011.536.48zm2.196-2.668a1.136 1.136 0 11-1.293 1.871 1.136 1.136 0 111.293-1.871zm.699-3.383a1.138 1.138 0 11-.274 2.259 1.138 1.138 0 01.274-2.259zm-.949-3.324a1.143 1.143 0 011.469.66 1.143 1.143 0 01-.66 1.47 1.143 1.143 0 01-1.47-.661 1.143 1.143 0 01.66-1.469zm-2.386-2.5a1.137 1.137 0 111.702 1.508 1.137 1.137 0 01-1.703-1.508zm-3.278-1.101c.148-.61.766-.985 1.375-.832.61.148.984.765.832 1.375a1.135 1.135 0 01-1.375.832 1.134 1.134 0 01-.832-1.375zm-3.41.543a1.137 1.137 0 112.208-.543 1.137 1.137 0 01-2.208.543zm-2.77 2.07a1.134 1.134 0 01.098-1.606 1.134 1.134 0 011.605.098 1.134 1.134 0 01-.097 1.606 1.134 1.134 0 01-1.606-.098zm-1.488 3.117a1.14 1.14 0 01.808-2.129 1.14 1.14 0 01-.808 2.13zm.129 3.454a1.135 1.135 0 01-1.266-.993 1.135 1.135 0 01.992-1.266 1.135 1.135 0 011.266.993 1.135 1.135 0 01-.992 1.265zm1.719 2.995a1.14 1.14 0 01-1.582-.289 1.14 1.14 0 01.289-1.582 1.14 1.14 0 011.582.29 1.14 1.14 0 01-.29 1.581zm2.914 1.855c-.293.555-.98.77-1.536.481a1.142 1.142 0 01-.48-1.535 1.14 1.14 0 011.535-.48c.555.293.77.98.48 1.535zm3.441.29c0 .629-.508 1.137-1.137 1.137a1.135 1.135 0 01-1.136-1.137 1.135 1.135 0 112.273 0zm0 0"/><g clip-path="url(#I)"><g clip-path="url(#J)"><path d="M85.648 217.672v-14.05H78.57v14.05zm0 0" fill="#ffff59"/></g></g><g clip-path="url(#K)"><g clip-path="url(#L)"><path d="M85.648 217.672v-14.05H78.57v14.05zm0 0" fill="none" stroke-width="1.2" stroke="#ffff59" stroke-miterlimit="10"/></g></g><g clip-path="url(#M)"><g clip-path="url(#N)"><path d="M78.57 217.672v-14.05h-7.078v14.05zm0 0" fill="#ff5959"/></g></g><g clip-path="url(#O)"><g clip-path="url(#P)"><path d="M78.57 217.672v-14.05h-7.078v14.05zm0 0" fill="none" stroke-width="1.2" stroke="#ff5959" stroke-miterlimit="10"/></g></g><path d="M82.89 204.863a1.135 1.135 0 00-.48-1.535 1.135 1.135 0 00-1.535.48 1.135 1.135 0 00.48 1.536 1.135 1.135 0 001.536-.48zm2.196 2.672a1.136 1.136 0 10-1.293-1.871 1.136 1.136 0 101.293 1.871zm.699 3.383a1.138 1.138 0 10-.274-2.259 1.138 1.138 0 00.274 2.259zm-.949 3.32a1.143 1.143 0 001.469-.66 1.143 1.143 0 00-.66-1.469 1.143 1.143 0 00-1.47.66 1.143 1.143 0 00.66 1.47zm-2.386 2.5a1.137 1.137 0 101.702-1.508 1.137 1.137 0 00-1.703 1.508zm-3.278 1.106c.148.61.766.984 1.375.832.61-.149.984-.766.832-1.375a1.134 1.134 0 00-1.375-.832c-.61.148-.984.765-.832 1.375zm-3.41-.547a1.137 1.137 0 102.208.542 1.137 1.137 0 00-2.208-.542zm-2.77-2.067a1.134 1.134 0 00.098 1.606 1.134 1.134 0 001.605-.098 1.134 1.134 0 00-.097-1.605 1.134 1.134 0 00-1.606.097zm-1.488-3.117a1.14 1.14 0 00.808 2.13 1.14 1.14 0 00-.808-2.13zm.129-3.453a1.135 1.135 0 00-1.266.992 1.135 1.135 0 00.992 1.266 1.135 1.135 0 001.266-.992 1.135 1.135 0 00-.992-1.266zm1.719-3a1.14 1.14 0 00-1.582.29 1.14 1.14 0 00.289 1.581 1.14 1.14 0 001.582-.289 1.14 1.14 0 00-.29-1.582zm2.914-1.855a1.142 1.142 0 00-1.536-.48 1.14 1.14 0 00-.48 1.534c.293.555.98.77 1.535.48.555-.292.77-.98.48-1.534zm3.441-.285c0-.63-.508-1.137-1.137-1.137s-1.136.508-1.136 1.137a1.135 1.135 0 102.273 0zm0 0"/><path d="M54.762 245.238v-47.617H7.145v47.617zm0 0" fill="none" stroke-width="1.2" stroke="#000" stroke-miterlimit="10"/><path d="M44.441 218.797l-13.488-9.8-13.488 9.8 5.152 15.86h16.676zm0 0" fill="#5959ff"/><path d="M46.875 222.145l1.504-4.625-3.938-2.86-3.937 2.86 1.504 4.625zm0 0" fill="#5959ff"/><path d="M45.563 223.098a1.623 1.623 0 002.624-1.907 1.623 1.623 0 00-2.624 1.907zm-4.863-1.907a1.62 1.62 0 00.359 2.266 1.62 1.62 0 002.265-.36 1.62 1.62 0 00-.36-2.265 1.62 1.62 0 00-2.265.36zm.308-5.218a1.62 1.62 0 00-2.043 1.043 1.62 1.62 0 001.043 2.043 1.62 1.62 0 002.043-1.043 1.62 1.62 0 00-1.043-2.043zm5.055-1.317a1.622 1.622 0 00-3.243 0 1.622 1.622 0 003.242 0zm2.816 4.403a1.625 1.625 0 001.043-2.043 1.625 1.625 0 00-2.043-1.043 1.625 1.625 0 00-1.043 2.043 1.625 1.625 0 002.043 1.043zm0 0"/><path d="M36.855 238h4.864l1.504-4.625-3.938-2.86-3.937 2.86zm0 0" fill="#5959ff"/><path d="M35.547 237.047a1.62 1.62 0 00.36 2.266 1.62 1.62 0 002.265-.36 1.62 1.62 0 00-.36-2.266 1.62 1.62 0 00-2.265.36zm.308-5.215a1.62 1.62 0 00-2.042 1.043 1.62 1.62 0 001.042 2.043 1.62 1.62 0 002.043-1.043 1.62 1.62 0 00-1.043-2.043zm5.055-1.316a1.622 1.622 0 00-3.242 0 1.622 1.622 0 003.242 0zm2.817 4.402a1.625 1.625 0 001.043-2.043 1.625 1.625 0 00-2.043-1.043 1.625 1.625 0 00-1.043 2.043 1.625 1.625 0 002.043 1.043zm-3.317 4.035a1.623 1.623 0 002.625-1.906 1.623 1.623 0 00-2.625 1.906zm0 0"/><path d="M18.68 233.375L20.184 238h4.863l1.504-4.625-3.938-2.86zm0 0" fill="#5959ff"/><path d="M19.18 231.832a1.62 1.62 0 00-2.043 1.043 1.62 1.62 0 001.043 2.043 1.62 1.62 0 002.043-1.043 1.62 1.62 0 00-1.043-2.043zm5.058-1.316a1.622 1.622 0 00-3.242 0 1.622 1.622 0 003.242 0zm2.812 4.402a1.625 1.625 0 001.044-2.043 1.625 1.625 0 00-2.043-1.043 1.625 1.625 0 00-1.043 2.043 1.625 1.625 0 002.043 1.043zm-3.316 4.035a1.623 1.623 0 002.625-1.906 1.623 1.623 0 00-2.625 1.906zm-4.863-1.906a1.62 1.62 0 00.36 2.266 1.62 1.62 0 002.265-.36 1.62 1.62 0 00-.36-2.266 1.62 1.62 0 00-2.265.36zm0 0"/><path d="M17.46 214.656l-3.937 2.86 1.504 4.625h4.864l1.504-4.625zm0 0" fill="#5959ff"/><path d="M19.086 214.656a1.622 1.622 0 00-3.242 0 1.622 1.622 0 003.242 0zm2.812 4.403a1.625 1.625 0 001.043-2.043 1.625 1.625 0 00-2.043-1.043 1.625 1.625 0 00-1.043 2.043 1.625 1.625 0 002.043 1.043zm-3.316 4.039a1.623 1.623 0 002.625-1.907 1.623 1.623 0 00-2.625 1.907zm-4.863-1.907a1.62 1.62 0 00.36 2.266 1.62 1.62 0 002.265-.36 1.62 1.62 0 00-.36-2.265 1.62 1.62 0 00-2.265.36zm.308-5.218a1.62 1.62 0 00-2.043 1.043 1.62 1.62 0 001.043 2.043 1.62 1.62 0 002.043-1.043 1.62 1.62 0 00-1.043-2.043zm0 0"/><path d="M34.887 207.715l-3.938-2.86-3.937 2.86 1.504 4.625h4.863zm0 0" fill="#5959ff"/><path d="M35.39 209.258a1.625 1.625 0 001.044-2.043 1.625 1.625 0 00-2.043-1.043 1.625 1.625 0 00-1.043 2.043 1.625 1.625 0 002.043 1.043zm-3.316 4.039a1.623 1.623 0 002.625-1.906 1.623 1.623 0 00-2.625 1.906zm-4.867-1.907a1.62 1.62 0 00.36 2.266 1.62 1.62 0 002.265-.36 1.62 1.62 0 00-.36-2.265 1.62 1.62 0 00-2.265.36zm.313-5.218a1.62 1.62 0 00-2.043 1.043 1.62 1.62 0 001.043 2.043 1.62 1.62 0 002.043-1.043 1.62 1.62 0 00-1.043-2.043zm5.054-1.317a1.622 1.622 0 00-3.242 0 1.622 1.622 0 003.242 0zm0 0"/><path d="M292.855 197.617V150h-47.617v47.617zm0 0" fill="none" stroke-width="1.2" stroke="#000" stroke-miterlimit="10"/><path d="M276.402 182.004l-2.28-3.953-2.282 3.953zm0 0" fill="#ffff59"/><path d="M275.64 183.324c.727.422 1.66.172 2.079-.558a1.518 1.518 0 00-.559-2.078 1.518 1.518 0 00-2.078.558 1.518 1.518 0 00.559 2.078zm-4.562-2.636a1.525 1.525 0 00-.558 2.078 1.525 1.525 0 002.078.558 1.525 1.525 0 00.558-2.078 1.525 1.525 0 00-2.078-.559zm4.562-2.638a1.523 1.523 0 10-3.045 0 1.523 1.523 0 003.046 0zm0 0"/><path d="M276.402 187.383l-2.28 3.953-2.282-3.953zm0 0" fill="#ffff59"/><path d="M275.64 186.063a1.518 1.518 0 012.079.558c.422.727.172 1.66-.559 2.078a1.518 1.518 0 01-2.078-.558 1.518 1.518 0 01.559-2.078zm-4.562 2.637a1.525 1.525 0 01-.558-2.079 1.525 1.525 0 012.078-.559c.726.422.976 1.352.558 2.079a1.525 1.525 0 01-2.078.558zm4.562 2.636a1.523 1.523 0 11-3.045.001 1.523 1.523 0 013.046-.001zm0 0"/><path d="M266.258 182.004l-2.281-3.953-2.282 3.953zm0 0" fill="#ffff59"/><path d="M265.496 183.324c.727.422 1.66.172 2.078-.558a1.518 1.518 0 00-.558-2.078 1.518 1.518 0 00-2.079.558 1.518 1.518 0 00.56 2.078zm-4.566-2.636a1.525 1.525 0 00-.559 2.078 1.525 1.525 0 002.078.558 1.525 1.525 0 00.559-2.078 1.525 1.525 0 00-2.078-.559zm4.566-2.638a1.523 1.523 0 10-3.046 0 1.523 1.523 0 003.046 0zm0 0"/><path d="M266.258 187.383l-2.281 3.953-2.282-3.953zm0 0" fill="#ffff59"/><path d="M265.496 186.063a1.518 1.518 0 012.078.558c.422.727.172 1.66-.558 2.078a1.518 1.518 0 01-2.079-.558 1.518 1.518 0 01.56-2.078zm-4.566 2.637a1.525 1.525 0 01-.559-2.079 1.525 1.525 0 012.078-.559c.727.422.977 1.352.559 2.079a1.525 1.525 0 01-2.078.558zm4.566 2.636a1.523 1.523 0 11-3.046.001 1.523 1.523 0 013.046-.001zm0 0"/><path d="M276.402 165.613l-2.28 3.953-2.282-3.953zm0 0" fill="#ffff59"/><path d="M275.64 164.297a1.518 1.518 0 012.079.558c.422.727.172 1.66-.559 2.079a1.518 1.518 0 01-2.078-.559 1.518 1.518 0 01.559-2.078zm-4.562 2.633a1.525 1.525 0 01-.558-2.078 1.525 1.525 0 012.078-.559c.726.422.976 1.352.558 2.078a1.525 1.525 0 01-2.078.559zm4.562 2.636a1.523 1.523 0 11-3.045.001 1.523 1.523 0 013.046 0zm0 0"/><path d="M276.402 160.238l-2.28-3.953-2.282 3.953zm0 0" fill="#ffff59"/><path d="M275.64 161.555c.727.422 1.66.172 2.079-.559a1.518 1.518 0 00-.559-2.078 1.518 1.518 0 00-2.078.559 1.518 1.518 0 00.559 2.078zm-4.562-2.637a1.525 1.525 0 00-.558 2.078 1.525 1.525 0 002.078.559 1.525 1.525 0 00.558-2.078 1.525 1.525 0 00-2.078-.559zm4.562-2.633a1.523 1.523 0 10-3.045 0 1.523 1.523 0 003.046 0zm0 0"/><path d="M266.258 165.613l-2.281 3.953-2.282-3.953zm0 0" fill="#ffff59"/><path d="M265.496 164.297a1.518 1.518 0 012.078.558c.422.727.172 1.66-.558 2.079a1.518 1.518 0 01-2.079-.559 1.518 1.518 0 01.56-2.078zm-4.566 2.633a1.525 1.525 0 01-.559-2.078 1.525 1.525 0 012.078-.559c.727.422.977 1.352.559 2.078a1.525 1.525 0 01-2.078.559zm4.566 2.636a1.523 1.523 0 11-3.046.001 1.523 1.523 0 013.046 0zm0 0"/><path d="M266.258 160.238l-2.281-3.953-2.282 3.953zm0 0" fill="#ffff59"/><path d="M265.496 161.555c.727.422 1.66.172 2.078-.559a1.518 1.518 0 00-.558-2.078 1.518 1.518 0 00-2.079.559 1.518 1.518 0 00.56 2.078zm-4.566-2.637a1.525 1.525 0 00-.559 2.078 1.525 1.525 0 002.078.559 1.525 1.525 0 00.559-2.078 1.525 1.525 0 00-2.078-.559zm4.566-2.633a1.523 1.523 0 10-3.046 0 1.523 1.523 0 003.046 0zm0 0"/><path d="M245.238 197.617V150h-47.617v47.617zm0 0" fill="none" stroke-width="1.2" stroke="#000" stroke-miterlimit="10"/><g clip-path="url(#Q)"><g clip-path="url(#R)"><path d="M238.887 191.309v-34.836H221.43v34.836zm0 0" fill="#ffff59"/></g></g><g clip-path="url(#S)"><g clip-path="url(#T)"><path d="M238.887 191.309v-34.836H221.43v34.836zm0 0" fill="none" stroke-width="1.2" stroke="#ffff59" stroke-miterlimit="10"/></g></g><g clip-path="url(#U)"><g clip-path="url(#V)"><path d="M221.43 191.309v-34.836h-17.457v34.836zm0 0" fill="#ffb159"/></g></g><g clip-path="url(#W)"><g clip-path="url(#X)"><path d="M221.43 191.309v-34.836h-17.457v34.836zm0 0" fill="none" stroke-width="1.2" stroke="#ffb159" stroke-miterlimit="10"/></g></g><path d="M227.68 157.469a1.587 1.587 0 00-1.102-1.957 1.587 1.587 0 00-1.957 1.101 1.587 1.587 0 001.102 1.957 1.587 1.587 0 001.957-1.101zm4.199 2.297a1.588 1.588 0 10-2.715-1.653 1.588 1.588 0 102.715 1.653zm3.421 3.339a1.59 1.59 0 00.079-2.246 1.591 1.591 0 00-2.246-.078 1.591 1.591 0 00-.078 2.246 1.59 1.59 0 002.246.078zm2.395 4.145a1.59 1.59 0 00.68-2.14 1.59 1.59 0 00-2.14-.68 1.59 1.59 0 00-.68 2.14 1.59 1.59 0 002.14.68zm1.192 4.637a1.587 1.587 0 10-.649-3.11 1.587 1.587 0 10.649 3.11zm-.11 4.785a1.587 1.587 0 10.216-3.168 1.587 1.587 0 00-.216 3.168zm-1.39 4.578a1.586 1.586 0 002.027-.965 1.586 1.586 0 00-.965-2.027 1.586 1.586 0 00-2.027.965 1.586 1.586 0 00.965 2.027zm-2.578 4.031a1.587 1.587 0 002.214-.383 1.587 1.587 0 00-.382-2.214 1.587 1.587 0 00-2.215.382 1.587 1.587 0 00.383 2.215zm-3.571 3.188a1.588 1.588 0 102.465-2.004 1.588 1.588 0 00-2.465 2.004zm-4.293 2.105a1.59 1.59 0 002.914-1.265 1.59 1.59 0 00-2.914 1.265zm-4.707.871a1.591 1.591 0 001.79 1.36 1.591 1.591 0 001.359-1.79 1.591 1.591 0 00-1.79-1.359 1.591 1.591 0 00-1.359 1.79zm-4.765-.433a1.584 1.584 0 001.359 1.789 1.584 1.584 0 001.79-1.36 1.584 1.584 0 00-1.36-1.789 1.584 1.584 0 00-1.79 1.36zM213 189.309a1.59 1.59 0 002.914 1.265A1.59 1.59 0 00213 189.31zm-3.848-2.844a1.588 1.588 0 102.465 2.004 1.588 1.588 0 00-2.465-2.004zm-2.937-3.781a1.593 1.593 0 00-.383 2.214 1.593 1.593 0 002.215.383 1.593 1.593 0 00.383-2.215 1.593 1.593 0 00-2.215-.382zm-1.809-4.43a1.587 1.587 0 101.061 2.991 1.587 1.587 0 00-1.06-2.991zm-.546-4.754a1.587 1.587 0 10.214 3.168 1.587 1.587 0 00-.215-3.168zm.757-4.727a1.59 1.59 0 00-1.879 1.23c-.18.86.375 1.7 1.23 1.88.86.18 1.7-.375 1.88-1.23a1.59 1.59 0 00-1.23-1.88zm2.004-4.343a1.59 1.59 0 00-2.14.68 1.59 1.59 0 00.68 2.14 1.59 1.59 0 002.14-.68 1.59 1.59 0 00-.68-2.14zm3.102-3.645a1.588 1.588 0 00-2.246.078 1.588 1.588 0 00.078 2.246c.64.598 1.644.567 2.246-.078a1.588 1.588 0 00-.078-2.246zm3.968-2.672a1.588 1.588 0 10-2.714 1.653 1.588 1.588 0 102.714-1.653zm4.547-1.5a1.591 1.591 0 00-1.957-1.101 1.591 1.591 0 00-1.101 1.957 1.591 1.591 0 001.957 1.101 1.591 1.591 0 001.101-1.957zm4.778-.223a1.589 1.589 0 10-3.18 0 1.589 1.589 0 103.18 0zm0 0"/><path d="M197.617 197.617V150H150v47.617zm0 0" fill="none" stroke-width="1.2" stroke="#000" stroke-miterlimit="10"/><path d="M180.73 183.559l-.562 3.898-2.578 2.977-3.781 1.109-3.782-1.11-2.578-2.976-.562-3.898 1.636-3.582 3.313-2.13h3.941l3.313 2.13zm0 0" fill="#ff5959"/><path d="M178.695 189.723c.39.609.215 1.422-.394 1.816a1.32 1.32 0 01-1.817-.394 1.318 1.318 0 01.395-1.817 1.318 1.318 0 011.816.395zm2.02-3.461a1.312 1.312 0 11-1.09 2.387 1.312 1.312 0 011.09-2.387zm-.172-4.004a1.316 1.316 0 011.488 1.113 1.316 1.316 0 01-1.113 1.488 1.316 1.316 0 01-1.488-1.113 1.316 1.316 0 011.113-1.488zm-2.309-3.278a1.312 1.312 0 111.72 1.985 1.312 1.312 0 11-1.72-1.985zm-3.714-1.507a1.314 1.314 0 112.52.74 1.314 1.314 0 01-2.52-.74zm-3.942.742a1.314 1.314 0 112.522-.737 1.314 1.314 0 01-2.522.737zm-2.914 2.75a1.316 1.316 0 01-.133-1.852 1.316 1.316 0 011.852-.133c.547.477.605 1.305.133 1.852a1.316 1.316 0 01-1.852.133zm-.961 3.89a1.314 1.314 0 11.375-2.601 1.314 1.314 0 01-.375 2.601zm1.293 3.797a1.31 1.31 0 11-1.09-2.387 1.31 1.31 0 111.09 2.387zm3.137 2.493a1.317 1.317 0 01-1.817.394 1.316 1.316 0 01-.394-1.816 1.316 1.316 0 011.816-.395c.61.39.785 1.203.395 1.817zm3.988.398a1.313 1.313 0 11-2.626 0 1.313 1.313 0 012.626 0zm0 0"/><path d="M180.73 164.063l-.562-3.899-2.578-2.976-3.781-1.11-3.782 1.11-2.578 2.976-.562 3.899 1.636 3.582 3.313 2.128h3.941l3.313-2.128zm0 0" fill="#ff5959"/><path d="M178.695 157.895a1.32 1.32 0 00-.394-1.817 1.318 1.318 0 00-1.817.395 1.318 1.318 0 00.395 1.816c.61.39 1.422.215 1.816-.394zm2.02 3.46a1.312 1.312 0 10-1.09-2.386 1.312 1.312 0 001.09 2.386zm-.172 4.008a1.316 1.316 0 001.488-1.113 1.316 1.316 0 00-1.113-1.488 1.316 1.316 0 00-1.488 1.113 1.316 1.316 0 001.113 1.488zm-2.309 3.274a1.312 1.312 0 101.72-1.985 1.312 1.312 0 10-1.72 1.985zm-3.714 1.508a1.314 1.314 0 102.52-.74 1.314 1.314 0 00-2.52.74zm-3.942-.739a1.314 1.314 0 102.522.737 1.314 1.314 0 00-2.522-.737zm-2.914-2.754a1.316 1.316 0 00-.133 1.852 1.316 1.316 0 001.852.133 1.316 1.316 0 00.133-1.852 1.316 1.316 0 00-1.852-.133zm-.961-3.89a1.314 1.314 0 10.375 2.601 1.314 1.314 0 00-.375-2.601zm1.293-3.793a1.31 1.31 0 10-1.09 2.387c.66.3 1.438.011 1.739-.649a1.31 1.31 0 00-.649-1.738zm3.137-2.492a1.316 1.316 0 00-1.817-.395 1.316 1.316 0 00-.394 1.816 1.315 1.315 0 002.211-1.421zm3.988-.403a1.313 1.313 0 10-2.626 0 1.313 1.313 0 002.626 0zm0 0"/><path d="M150 197.617V150h-47.617v47.617zm0 0" fill="none" stroke-width="1.2" stroke="#000" stroke-miterlimit="10"/><path d="M137.781 183.879l-11.59-20.074-11.59 20.074zm0 0" fill="#ffff59"/><path d="M133.625 188.36l5.066 1.562 4.383-2.988.395-5.29-3.887-3.605-5.246.79-2.652 4.593zm0 0" fill="#945994"/><path d="M136.941 190.188a1.769 1.769 0 003.496-.528 1.769 1.769 0 00-3.496.528zm-4.613-3.028a1.77 1.77 0 00.094 2.5 1.77 1.77 0 002.5-.094 1.77 1.77 0 00-.094-2.5 1.77 1.77 0 00-2.5.094zm-.512-5.5a1.767 1.767 0 10-.265 3.524 1.767 1.767 0 00.265-3.524zm3.981-3.824a1.766 1.766 0 00-2.457-.465 1.766 1.766 0 00-.465 2.457 1.766 1.766 0 002.457.465 1.766 1.766 0 00.465-2.457zm5.473.727a1.767 1.767 0 10-3.38-1.043 1.767 1.767 0 103.38 1.042zm2.847 4.73a1.769 1.769 0 10-1.292-3.293 1.769 1.769 0 001.292 3.293zm-1.926 5.176a1.766 1.766 0 002.414-.649c.489-.843.2-1.925-.648-2.414a1.766 1.766 0 00-2.414.649c-.488.843-.2 1.925.648 2.414zm0 0"/><path d="M112.8 178.04l-3.886 3.605.395 5.289 4.382 2.988 5.067-1.563 1.937-4.937-2.652-4.594zm0 0" fill="#945994"/><path d="M109.559 180.004a1.77 1.77 0 00-1.293 3.293 1.77 1.77 0 001.293-3.293zm4.929-2.484a1.767 1.767 0 10-3.379 1.043 1.767 1.767 0 103.379-1.043zm5.016 2.308a1.766 1.766 0 00-.465-2.457 1.766 1.766 0 00-2.457.465 1.766 1.766 0 00.465 2.457c.808.55 1.906.344 2.457-.465zm1.324 5.36a1.767 1.767 0 10-.266-3.525 1.767 1.767 0 00.266 3.524zm-3.368 4.375a1.77 1.77 0 002.5.093 1.77 1.77 0 00.095-2.5 1.77 1.77 0 00-2.5-.094 1.77 1.77 0 00-.094 2.5zm-5.519.097a1.769 1.769 0 003.496.528 1.769 1.769 0 00-3.496-.528zm-3.519-4.254a1.77 1.77 0 00-.649 2.414 1.77 1.77 0 002.415.649 1.77 1.77 0 00.648-2.414 1.77 1.77 0 00-2.414-.649zm0 0"/><path d="M132.148 165.168l-1.18-5.172-4.777-2.3-4.777 2.3-1.18 5.172 3.309 4.144h5.305zm0 0" fill="#945994"/><path d="M132.07 161.379c.762-.61.887-1.723.282-2.484a1.773 1.773 0 00-2.485-.282 1.773 1.773 0 00-.281 2.485c.61.761 1.723.886 2.484.28zm-.316 5.511a1.767 1.767 0 002.117-1.331 1.767 1.767 0 00-1.332-2.118 1.767 1.767 0 00-2.117 1.332 1.767 1.767 0 001.332 2.118zm-4.504 3.188a1.765 1.765 0 002.36.824 1.765 1.765 0 00.824-2.359 1.765 1.765 0 00-2.36-.824 1.765 1.765 0 00-.824 2.36zm-5.305-1.531a1.769 1.769 0 00.825 2.36 1.769 1.769 0 002.359-.825 1.769 1.769 0 00-.824-2.36 1.769 1.769 0 00-2.36.825zm-2.105-5.106a1.77 1.77 0 00-1.332 2.118 1.77 1.77 0 002.117 1.332 1.77 1.77 0 001.332-2.118 1.77 1.77 0 00-2.117-1.332zm2.676-4.828a1.766 1.766 0 00-2.485.282 1.766 1.766 0 00.281 2.484c.762.61 1.876.484 2.485-.281a1.766 1.766 0 00-.281-2.485zm5.441-.918a1.77 1.77 0 00-3.539 0 1.77 1.77 0 003.539 0zm0 0"/><path d="M102.383 197.617V150H54.766v47.617zm0 0" fill="none" stroke-width="1.2" stroke="#000" stroke-miterlimit="10"/><path d="M95.238 185.613l-5.781 4.2-5.781-4.2 2.207-6.797h7.144zm0 0" fill="#5959ff"/><path d="M95.973 183.348a2.378 2.378 0 011.527 3 2.378 2.378 0 01-3 1.527 2.378 2.378 0 01-1.527-3 2.378 2.378 0 013-1.527zm-4.871-5.93a2.384 2.384 0 013.328-.527 2.384 2.384 0 01.527 3.328 2.384 2.384 0 01-3.328.527 2.384 2.384 0 01-.527-3.328zm-7.145 2.801a2.381 2.381 0 01.527-3.328 2.381 2.381 0 013.329.527 2.381 2.381 0 01-.528 3.328 2.381 2.381 0 01-3.328-.527zm.453 7.66a2.38 2.38 0 11-1.472-4.528 2.38 2.38 0 011.472 4.528zm7.426 1.934a2.382 2.382 0 11-4.765 0 2.382 2.382 0 014.765 0zm0 0"/><path d="M95.238 162.004l-5.781-4.2-5.781 4.2 2.207 6.797h7.144zm0 0" fill="#5959ff"/><path d="M95.973 164.27a2.378 2.378 0 001.527-3 2.378 2.378 0 00-3-1.528 2.378 2.378 0 00-1.527 3 2.378 2.378 0 003 1.528zm-4.871 5.93a2.384 2.384 0 003.328.527 2.384 2.384 0 00.527-3.329 2.384 2.384 0 00-3.328-.527 2.384 2.384 0 00-.527 3.328zm-7.145-2.798a2.381 2.381 0 00.527 3.328 2.381 2.381 0 003.329-.527 2.381 2.381 0 00-.528-3.328 2.381 2.381 0 00-3.328.527zm.453-7.664a2.38 2.38 0 10-1.472 4.529 2.38 2.38 0 001.472-4.529zm7.426-1.933a2.382 2.382 0 10-4.765-.001 2.382 2.382 0 004.765 0zm0 0"/><path d="M73.469 185.613l-5.781 4.2-5.782-4.2 2.207-6.797h7.145zm0 0" fill="#5959ff"/><path d="M74.203 183.348a2.378 2.378 0 011.527 3 2.378 2.378 0 01-3 1.527 2.378 2.378 0 01-1.527-3 2.378 2.378 0 013-1.527zm-4.871-5.93a2.384 2.384 0 013.328-.527 2.384 2.384 0 01.528 3.328 2.384 2.384 0 01-3.329.527 2.384 2.384 0 01-.527-3.328zm-7.144 2.801a2.381 2.381 0 01.527-3.328 2.381 2.381 0 013.328.527 2.381 2.381 0 01-.527 3.328 2.381 2.381 0 01-3.329-.527zm.452 7.66a2.38 2.38 0 11-1.472-4.528 2.38 2.38 0 011.473 4.528zm7.43 1.934a2.382 2.382 0 11-4.764 0 2.382 2.382 0 014.764 0zm0 0"/><path d="M73.469 162.004l-5.781-4.2-5.782 4.2 2.207 6.797h7.145zm0 0" fill="#5959ff"/><path d="M74.203 164.27a2.378 2.378 0 001.527-3 2.378 2.378 0 00-3-1.528 2.378 2.378 0 00-1.527 3 2.378 2.378 0 003 1.528zm-4.871 5.93a2.384 2.384 0 003.328.527 2.384 2.384 0 00.528-3.329 2.384 2.384 0 00-3.329-.527 2.384 2.384 0 00-.527 3.328zm-7.144-2.798a2.381 2.381 0 00.527 3.328 2.381 2.381 0 003.328-.527 2.381 2.381 0 00-.527-3.328 2.381 2.381 0 00-3.329.527zm.452-7.664a2.38 2.38 0 10-1.472 4.529 2.38 2.38 0 001.473-4.529zm7.43-1.933a2.382 2.382 0 10-4.764-.001 2.382 2.382 0 004.764 0zm0 0"/><path d="M54.762 197.617V150H7.145v47.617zm0 0" fill="none" stroke-width="1.2" stroke="#000" stroke-miterlimit="10"/><g clip-path="url(#Y)"><g clip-path="url(#Z)"><path d="M48.11 191.027v-34.199H30.95v34.2zm0 0" fill="#b16262" stroke-width="1.2" stroke="#b16262" stroke-miterlimit="10"/></g></g><g clip-path="url(#aa)"><g clip-path="url(#ab)"><path d="M30.953 191.027v-34.199h-17.16v34.2zm0 0" fill="#ff5959"/></g></g><g clip-path="url(#ac)"><g clip-path="url(#ad)"><path d="M30.953 191.027v-34.199h-17.16v34.2zm0 0" fill="none" stroke-width="1.2" stroke="#ff5959" stroke-miterlimit="10"/></g></g><path d="M38.328 158.258a1.886 1.886 0 00-1.172-2.399 1.886 1.886 0 00-2.398 1.172 1.886 1.886 0 001.172 2.399 1.886 1.886 0 002.398-1.172zm4.692 3.242a1.89 1.89 0 10-2.985-2.32 1.89 1.89 0 002.985 2.32zm3.378 4.59a1.886 1.886 0 00.547-2.613 1.886 1.886 0 00-2.613-.547 1.886 1.886 0 00-.547 2.613 1.886 1.886 0 002.613.547zm1.707 5.441a1.89 1.89 0 10-.929-3.663 1.89 1.89 0 00.93 3.663zm-.152 5.699a1.89 1.89 0 00.313-3.765 1.89 1.89 0 00-.313 3.765zm-1.993 5.344a1.888 1.888 0 002.49-.972 1.888 1.888 0 00-.973-2.489 1.888 1.888 0 00-2.489.973c-.418.957.016 2.07.973 2.488zm-3.62 4.403a1.889 1.889 0 102.558-2.78 1.889 1.889 0 00-2.558 2.78zm-4.856 2.992a1.891 1.891 0 103.325-1.803 1.891 1.891 0 00-3.325 1.803zm-5.562 1.25a1.89 1.89 0 103.727-.626 1.89 1.89 0 00-3.727.626zm-5.668-.621a1.892 1.892 0 001.55 2.175 1.892 1.892 0 002.176-1.55 1.892 1.892 0 00-1.55-2.176 1.892 1.892 0 00-2.176 1.55zm-5.156-2.43a1.892 1.892 0 00.761 2.562 1.892 1.892 0 002.563-.761 1.892 1.892 0 00-.762-2.563 1.892 1.892 0 00-2.562.762zm-4.094-3.968a1.885 1.885 0 00-.11 2.667c.708.77 1.903.817 2.669.11a1.886 1.886 0 00.109-2.668 1.885 1.885 0 00-2.668-.11zm-2.578-5.087a1.89 1.89 0 101.515 3.461 1.89 1.89 0 00-1.515-3.46zm-.789-5.648a1.89 1.89 0 00.312 3.765 1.89 1.89 0 00-.312-3.765zm1.09-5.598a1.89 1.89 0 10-.93 3.664 1.89 1.89 0 00.93-3.664zm2.843-4.937a1.89 1.89 0 00-2.066 3.16 1.89 1.89 0 002.066-3.16zm4.297-3.75a1.89 1.89 0 10-2.984 2.32 1.89 1.89 0 002.984-2.32zm5.281-2.153a1.886 1.886 0 00-2.398-1.172 1.886 1.886 0 00-1.172 2.399 1.886 1.886 0 002.399 1.172 1.886 1.886 0 001.171-2.399zm5.692-.317c0-1.042-.848-1.89-1.89-1.89a1.892 1.892 0 00-.001 3.782c1.043 0 1.89-.848 1.89-1.891zm0 0"/><path d="M292.855 150v-47.617h-47.617V150zm0 0" fill="none" stroke-width="1.2" stroke="#000" stroke-miterlimit="10"/><path d="M274.566 131.656l-5.52 9.559-5.519-9.559zm0 0" fill="#ffff59"/><path d="M272.36 130.383h4.413l-2.207 3.824zm0 0" fill="#ffff59"/><path d="M271.625 131.656a1.473 1.473 0 111.475-2.551 1.473 1.473 0 01-1.475 2.551zm4.415 2.551a1.474 1.474 0 01-2.946 0 1.474 1.474 0 012.945 0zm0-5.097a1.474 1.474 0 012.01.538 1.474 1.474 0 01-.538 2.012 1.474 1.474 0 01-2.012-.539 1.474 1.474 0 01.54-2.012zm0 0"/><path d="M263.527 134.207l-2.207-3.824h4.414zm0 0" fill="#ffff59"/><path d="M265 134.207a1.474 1.474 0 01-2.945 0 1.474 1.474 0 012.945 0zm0-5.097a1.474 1.474 0 012.012.538 1.474 1.474 0 01-.54 2.012 1.474 1.474 0 01-2.011-.539 1.474 1.474 0 01.539-2.012zm-4.414 2.546a1.473 1.473 0 111.475-2.551 1.473 1.473 0 01-1.475 2.551zm0 0"/><path d="M271.254 139.941l-2.207 3.825-2.207-3.825zm0 0" fill="#ffff59"/><path d="M270.52 138.668a1.474 1.474 0 012.011.539 1.474 1.474 0 01-.539 2.012 1.474 1.474 0 01-2.012-.54 1.474 1.474 0 01.54-2.011zm-4.415 2.551a1.473 1.473 0 111.475-2.552 1.473 1.473 0 01-1.475 2.552zm4.415 2.547a1.474 1.474 0 01-2.946 0 1.474 1.474 0 012.946 0zm0 0"/><path d="M274.566 120.723l-5.52-9.559-5.519 9.559zm0 0" fill="#ffff59"/><path d="M272.36 121.996h4.413l-2.207-3.824zm0 0" fill="#ffff59"/><path d="M271.625 120.723a1.473 1.473 0 101.475 2.551 1.473 1.473 0 00-1.475-2.551zm4.415-2.547a1.474 1.474 0 00-2.946 0 1.474 1.474 0 002.945 0zm0 5.097a1.474 1.474 0 002.01-.539 1.474 1.474 0 00-.538-2.011 1.474 1.474 0 00-2.012.539 1.474 1.474 0 00.54 2.011zm0 0"/><path d="M263.527 118.176L261.32 122h4.414zm0 0" fill="#ffff59"/><path d="M265 118.176a1.474 1.474 0 00-2.945 0 1.474 1.474 0 002.945 0zm0 5.097a1.474 1.474 0 002.012-.539 1.474 1.474 0 00-.54-2.011 1.474 1.474 0 00-2.011.539 1.474 1.474 0 00.539 2.011zm-4.414-2.55a1.473 1.473 0 101.475 2.551 1.473 1.473 0 00-1.475-2.551zm0 0"/><path d="M271.254 112.438l-2.207-3.825-2.207 3.825zm0 0" fill="#ffff59"/><path d="M270.52 113.71a1.474 1.474 0 002.011-.538 1.474 1.474 0 00-.539-2.012 1.474 1.474 0 00-2.012.54 1.474 1.474 0 00.54 2.01zm-4.415-2.546a1.473 1.473 0 101.475 2.551 1.473 1.473 0 00-1.475-2.55zm4.415-2.551a1.474 1.474 0 00-2.946 0 1.474 1.474 0 002.946 0zm0 0"/><path d="M245.238 150v-47.617h-47.617V150zm0 0" fill="none" stroke-width="1.2" stroke="#000" stroke-miterlimit="10"/><g clip-path="url(#ae)"><g clip-path="url(#af)"><path d="M238.39 143.223v-33.778h-16.96v33.778zm0 0" fill="#945994"/></g></g><g clip-path="url(#ag)"><g clip-path="url(#ah)"><path d="M238.39 143.223v-33.778h-16.96v33.778zm0 0" fill="none" stroke-width="1.2" stroke="#945994" stroke-miterlimit="10"/></g></g><g clip-path="url(#ai)"><g clip-path="url(#aj)"><path d="M221.43 143.223v-33.778h-16.961v33.778zm0 0" fill="#ff5959"/></g></g><g clip-path="url(#ak)"><g clip-path="url(#al)"><path d="M221.43 143.223v-33.778h-16.961v33.778zm0 0" fill="none" stroke-width="1.2" stroke="#ff5959" stroke-miterlimit="10"/></g></g><path d="M229.527 111.207a2.086 2.086 0 10-3.889-1.508 2.086 2.086 0 003.89 1.508zm4.918 3.945a2.088 2.088 0 10-3.086-2.812 2.088 2.088 0 003.086 2.812zm3.16 5.458a2.083 2.083 0 00.938-2.797 2.083 2.083 0 00-2.797-.938 2.083 2.083 0 00-.937 2.797 2.083 2.083 0 002.796.937zm.977 6.23a2.086 2.086 0 10-.383-4.156 2.086 2.086 0 10.383 4.156zm-1.34 6.164a2.086 2.086 0 101.14-4.016 2.086 2.086 0 10-1.14 4.016zm-3.476 5.262a2.087 2.087 0 102.515-3.33 2.087 2.087 0 00-2.515 3.33zm-5.145 3.648a2.086 2.086 0 103.547-2.196 2.086 2.086 0 00-3.547 2.196zm-6.113 1.546a2.086 2.086 0 104.101-.764 2.086 2.086 0 00-4.101.765zm-6.262-.765a2.086 2.086 0 104.101.766 2.086 2.086 0 00-4.1-.766zm-5.558-2.976a2.085 2.085 0 103.545 2.195 2.085 2.085 0 00-3.546-2.195zm-4.11-4.785a2.087 2.087 0 102.517 3.328 2.087 2.087 0 00-2.517-3.328zm-2.105-5.946a2.09 2.09 0 00-1.438 2.578 2.09 2.09 0 002.578 1.438 2.09 2.09 0 001.438-2.578 2.09 2.09 0 00-2.578-1.438zm.187-6.3a2.086 2.086 0 10-.383 4.156 2.086 2.086 0 10.383-4.156zm2.45-5.813a2.087 2.087 0 00-1.86 3.734 2.087 2.087 0 001.86-3.734zm4.386-4.535a2.088 2.088 0 10-3.086 2.812 2.088 2.088 0 003.086-2.812zm5.727-2.64a2.086 2.086 0 10-3.89 1.506 2.086 2.086 0 003.89-1.507zm6.293-.4a2.086 2.086 0 10-4.171 0 2.086 2.086 0 004.17 0zm0 0"/><path d="M197.617 150v-47.617H150V150zm0 0" fill="none" stroke-width="1.2" stroke="#000" stroke-miterlimit="10"/><path d="M192.855 132.41a3.5 3.5 0 10-7 0 3.5 3.5 0 107 0zm0 9.328a3.5 3.5 0 11-7 0 3.5 3.5 0 117 0zm-9.328-9.328a3.5 3.5 0 10-7 0 3.5 3.5 0 107 0zm0 9.328a3.5 3.5 0 11-7 0 3.5 3.5 0 117 0zm9.328-21.765a3.5 3.5 0 11-7 0 3.5 3.5 0 117 0zm0-9.333a3.5 3.5 0 10-7 0 3.5 3.5 0 107 0zm-9.328 9.333a3.5 3.5 0 11-7 0 3.5 3.5 0 117 0zm0-9.333a3.5 3.5 0 10-7 0 3.5 3.5 0 107 0zm-12.437 21.77a3.5 3.5 0 10-7 0 3.5 3.5 0 107 0zm0 9.328a3.5 3.5 0 11-7 0 3.5 3.5 0 117 0zm-9.332-9.328a3.5 3.5 0 10-7 0 3.5 3.5 0 107 0zm0 9.328a3.5 3.5 0 11-7 0 3.5 3.5 0 117 0zm9.332-21.765a3.5 3.5 0 11-7 0 3.5 3.5 0 117 0zm0-9.333a3.5 3.5 0 10-7 0 3.5 3.5 0 107 0zm-9.332 9.333a3.5 3.5 0 11-7 0 3.5 3.5 0 117 0zm0-9.333a3.5 3.5 0 10-7 0 3.5 3.5 0 107 0zm0 0"/><path d="M150 150v-47.617h-47.617V150zm0 0" fill="none" stroke-width="1.2" stroke="#000" stroke-miterlimit="10"/><path d="M137.918 136.41l-11.727-20.308-11.726 20.308zm0 0" fill="#ffff59"/><path d="M136.707 142.102l6.25-2.782-.715-6.804-6.691-1.422-3.422 5.926zm0 0" fill="#5959ff"/><path d="M134.477 141.629a2.284 2.284 0 001.757 2.707 2.284 2.284 0 002.707-1.758 2.284 2.284 0 00-1.757-2.707 2.284 2.284 0 00-2.707 1.758zm-2.587-6.879a2.284 2.284 0 00-2.03 2.508 2.284 2.284 0 002.507 2.031 2.284 2.284 0 002.031-2.508 2.284 2.284 0 00-2.507-2.031zm5.743-4.586a2.28 2.28 0 00-3.012-1.156 2.28 2.28 0 00-1.156 3.012 2.28 2.28 0 003.012 1.156 2.28 2.28 0 001.156-3.012zm6.137 4.043a2.28 2.28 0 00.167-3.223 2.28 2.28 0 00-3.222-.168 2.28 2.28 0 00-.168 3.223 2.28 2.28 0 003.223.168zm-1.954 7.086a2.282 2.282 0 102.282-3.954 2.282 2.282 0 00-2.282 3.954zm0 0"/><path d="M110.14 132.516l-.714 6.804 6.25 2.782 4.578-5.086-3.422-5.926zm0 0" fill="#5959ff"/><path d="M111.664 130.82a2.284 2.284 0 00-3.223.168 2.284 2.284 0 00.168 3.223 2.284 2.284 0 003.223-.168 2.284 2.284 0 00-.168-3.223zm7.25 1.2a2.28 2.28 0 00-1.156-3.012 2.28 2.28 0 00-3.012 1.156 2.28 2.28 0 001.156 3.012 2.28 2.28 0 003.012-1.156zm1.102 7.265a2.281 2.281 0 10.476-4.539 2.281 2.281 0 10-.476 4.54zm-6.571 3.289a2.284 2.284 0 002.707 1.758 2.284 2.284 0 001.758-2.707 2.284 2.284 0 00-2.707-1.758 2.284 2.284 0 00-1.758 2.707zm-5.16-5.23a2.284 2.284 0 00-.836 3.117 2.284 2.284 0 003.117.836 2.284 2.284 0 00.836-3.117 2.284 2.284 0 00-3.117-.836zm0 0"/><path d="M131.727 114.3l-5.536-4.023-5.535 4.024 2.114 6.508h6.843zm0 0" fill="#5959ff"/><path d="M132.43 116.469a2.28 2.28 0 001.465-2.875 2.28 2.28 0 00-2.875-1.465 2.28 2.28 0 00-1.465 2.875 2.28 2.28 0 002.875 1.465zm-4.664 5.679a2.28 2.28 0 103.691-2.684 2.28 2.28 0 10-3.691 2.684zm-6.84-2.679a2.28 2.28 0 103.691 2.683 2.28 2.28 0 10-3.691-2.683zm.434-7.336a2.28 2.28 0 00-2.876 1.465 2.28 2.28 0 001.465 2.875 2.28 2.28 0 002.875-1.465 2.28 2.28 0 00-1.465-2.875zm7.113-1.856a2.281 2.281 0 10-4.563 0 2.281 2.281 0 004.563 0zm0 0"/><path d="M102.383 150v-47.617H54.766V150zm0 0" fill="none" stroke-width="1.2" stroke="#000" stroke-miterlimit="10"/><path d="M84.992 135.285l-1.27 5.57-5.148 2.48-5.148-2.48-1.27-5.57 3.563-4.469h5.715zm0 0" fill="#945994"/><path d="M84.906 139.367c.824.656.957 1.856.301 2.676a1.902 1.902 0 01-2.676.3 1.902 1.902 0 01-.3-2.675 1.902 1.902 0 012.675-.3zm-.34-5.941a1.903 1.903 0 012.282 1.433 1.903 1.903 0 01-1.434 2.282 1.903 1.903 0 01-2.281-1.434 1.903 1.903 0 011.433-2.281zm-4.856-3.438a1.904 1.904 0 012.544-.89 1.904 1.904 0 01.89 2.543 1.904 1.904 0 01-2.542.89 1.904 1.904 0 01-.891-2.543zM74 131.645a1.904 1.904 0 01.89-2.543 1.904 1.904 0 012.544.89c.457.95.058 2.086-.891 2.543a1.904 1.904 0 01-2.543-.89zm-2.273 5.495a1.903 1.903 0 01-1.434-2.28 1.903 1.903 0 012.281-1.434 1.903 1.903 0 011.434 2.281 1.903 1.903 0 01-2.281 1.434zm2.883 5.204a1.905 1.905 0 01-2.376-2.977 1.905 1.905 0 012.375 2.977zm5.867.988a1.906 1.906 0 11-3.813 0 1.906 1.906 0 013.813 0zm0 0"/><path d="M84.992 117.098l-1.27-5.57-5.148-2.481-5.148 2.48-1.27 5.57 3.563 4.47h5.715zm0 0" fill="#945994"/><path d="M84.906 113.016a1.902 1.902 0 00.301-2.676 1.902 1.902 0 00-2.676-.3 1.902 1.902 0 00-.3 2.675 1.902 1.902 0 002.675.3zm-.34 5.937a1.903 1.903 0 002.282-1.433 1.903 1.903 0 00-1.434-2.282 1.903 1.903 0 00-2.281 1.434 1.903 1.903 0 001.433 2.281zm-4.856 3.437a1.904 1.904 0 002.544.891 1.904 1.904 0 00.89-2.543 1.904 1.904 0 00-2.542-.89 1.904 1.904 0 00-.891 2.543zM74 120.738a1.904 1.904 0 00.89 2.543c.95.457 2.087.059 2.544-.89a1.904 1.904 0 00-.891-2.543 1.904 1.904 0 00-2.543.89zm-2.273-5.496a1.903 1.903 0 00-1.434 2.281 1.903 1.903 0 002.281 1.434 1.903 1.903 0 001.434-2.281 1.903 1.903 0 00-2.281-1.434zm2.883-5.202a1.905 1.905 0 00-2.376 2.976 1.905 1.905 0 002.375-2.977zm5.867-.993a1.906 1.906 0 10-3.813 0 1.906 1.906 0 003.813 0zm0 0"/><path d="M54.762 150v-47.617H7.145V150zm0 0" fill="none" stroke-width="1.2" stroke="#000" stroke-miterlimit="10"/><g clip-path="url(#am)"><g clip-path="url(#an)"><path d="M47.363 142.719v-32.582h-16.41v32.582zm0 0" fill="#ffff59"/></g></g><g clip-path="url(#ao)"><g clip-path="url(#ap)"><path d="M47.363 142.719v-32.582h-16.41v32.582zm0 0" fill="none" stroke-width="1.2" stroke="#ffff59" stroke-miterlimit="10"/></g></g><g clip-path="url(#aq)"><g clip-path="url(#ar)"><path d="M30.953 142.719v-32.582h-16.41v32.582zm0 0" fill="#ff5959"/></g></g><g clip-path="url(#as)"><g clip-path="url(#at)"><path d="M30.953 142.719v-32.582h-16.41v32.582zm0 0" fill="none" stroke-width="1.2" stroke="#ff5959" stroke-miterlimit="10"/></g></g><path d="M40.969 113.02a2.642 2.642 0 00-1.11-3.563 2.642 2.642 0 00-3.562 1.11 2.642 2.642 0 001.11 3.562 2.64 2.64 0 003.562-1.11zm5.086 6.19a2.634 2.634 0 00.672-3.667 2.635 2.635 0 00-3.668-.672 2.635 2.635 0 00-.672 3.668 2.635 2.635 0 003.668.672zm1.625 7.845a2.638 2.638 0 10-.636-5.237 2.638 2.638 0 00.636 5.237zm-2.207 7.703a2.64 2.64 0 101.87-4.936 2.64 2.64 0 00-1.87 4.936zm-5.532 5.792a2.638 2.638 0 003.95-3.495 2.638 2.638 0 00-3.95 3.496zm-7.593 2.563a2.637 2.637 0 105.121-1.262 2.637 2.637 0 00-5.121 1.262zm-7.91-1.265a2.637 2.637 0 105.121 1.26 2.637 2.637 0 00-5.122-1.26zm-6.422-4.793a2.638 2.638 0 003.949 3.496 2.638 2.638 0 00-3.95-3.496zm-3.453-7.227a2.638 2.638 0 101.87 4.934 2.638 2.638 0 10-1.87-4.934zm.297-8.008a2.64 2.64 0 00-2.938 2.301 2.64 2.64 0 002.3 2.938 2.64 2.64 0 002.938-2.301 2.64 2.64 0 00-2.3-2.938zm3.988-6.949a2.635 2.635 0 00-3.668.672 2.635 2.635 0 00.672 3.668 2.636 2.636 0 003.668-.672c.828-1.2.527-2.84-.672-3.668zm6.757-4.305a2.64 2.64 0 00-4.671 2.454 2.64 2.64 0 004.671-2.454zm7.985-.668a2.636 2.636 0 00-2.637-2.636 2.636 2.636 0 00-2.637 2.636 2.636 2.636 0 002.637 2.637 2.636 2.636 0 002.637-2.637zm0 0"/><path d="M292.855 102.383V54.766h-47.617v47.617zm0 0" fill="none" stroke-width="1.2" stroke="#000" stroke-miterlimit="10"/><path d="M284.828 84.34l-4.898 8.484-4.899-8.484zm0 0" fill="#ffff59"/><path d="M283.195 81.512a3.265 3.265 0 014.461 1.195 3.265 3.265 0 01-1.195 4.461A3.265 3.265 0 01282 85.973a3.265 3.265 0 011.195-4.461zm-9.793 5.656a3.265 3.265 0 01-1.195-4.461 3.265 3.265 0 014.461-1.195 3.265 3.265 0 011.195 4.46 3.265 3.265 0 01-4.46 1.196zm9.793 5.656a3.264 3.264 0 01-3.265 3.266 3.264 3.264 0 01-3.266-3.266 3.264 3.264 0 013.266-3.265 3.264 3.264 0 013.265 3.265zm0 0"/><path d="M284.828 72.805l-4.898-8.485-4.899 8.485zm0 0" fill="#ffff59"/><path d="M283.195 75.633a3.265 3.265 0 004.461-1.195 3.265 3.265 0 00-1.195-4.461A3.265 3.265 0 00282 71.172a3.265 3.265 0 001.195 4.46zm-9.793-5.656a3.265 3.265 0 00-1.195 4.46 3.265 3.265 0 004.461 1.196 3.265 3.265 0 001.195-4.461 3.265 3.265 0 00-4.46-1.195zm9.793-5.657a3.264 3.264 0 00-3.265-3.265 3.264 3.264 0 00-3.266 3.265 3.264 3.264 0 003.266 3.266 3.264 3.264 0 003.265-3.266zm0 0"/><path d="M263.063 84.34l-4.899 8.484-4.898-8.484zm0 0" fill="#ffff59"/><path d="M261.43 81.512a3.265 3.265 0 014.46 1.195 3.265 3.265 0 01-1.195 4.461 3.265 3.265 0 01-4.46-1.195 3.265 3.265 0 011.195-4.461zm-9.797 5.656a3.265 3.265 0 01-1.196-4.461 3.265 3.265 0 014.461-1.195 3.265 3.265 0 011.196 4.46 3.265 3.265 0 01-4.461 1.196zm9.797 5.656a3.264 3.264 0 01-3.266 3.266 3.264 3.264 0 01-3.266-3.266 3.264 3.264 0 013.266-3.265 3.264 3.264 0 013.266 3.265zm0 0"/><path d="M263.063 72.805l-4.899-8.485-4.898 8.485zm0 0" fill="#ffff59"/><path d="M261.43 75.633a3.265 3.265 0 004.46-1.195 3.265 3.265 0 00-1.195-4.461 3.265 3.265 0 00-4.46 1.195 3.265 3.265 0 001.195 4.46zm-9.797-5.656a3.265 3.265 0 00-1.196 4.46 3.265 3.265 0 004.461 1.196 3.265 3.265 0 001.196-4.461 3.265 3.265 0 00-4.461-1.195zm9.797-5.657a3.264 3.264 0 00-3.266-3.265 3.264 3.264 0 00-3.266 3.265 3.264 3.264 0 003.266 3.266 3.264 3.264 0 003.266-3.266zm0 0"/><path d="M245.238 102.383V54.766h-47.617v47.617zm0 0" fill="none" stroke-width="1.2" stroke="#000" stroke-miterlimit="10"/><path d="M237.438 81.2l-1.297-9.02-5.97-6.887-8.745-2.566-8.746 2.566-5.97 6.887-1.296 9.02 3.785 8.288 7.668 4.926h9.113l7.668-4.926zm0 0" fill="#ff5959"/><path d="M232.727 66.934a3.039 3.039 0 10-5.113-3.286 3.039 3.039 0 005.113 3.286zm4.675 8.007a3.033 3.033 0 001.5-4.023 3.033 3.033 0 00-4.023-1.5 3.033 3.033 0 00-1.5 4.023 3.033 3.033 0 004.023 1.5zm-.398 9.266a3.037 3.037 0 10.863-6.012 3.037 3.037 0 00-.863 6.012zm-5.34 7.578a3.04 3.04 0 004.285-.305 3.04 3.04 0 00-.304-4.285 3.04 3.04 0 00-4.286.305 3.04 3.04 0 00.305 4.285zm-8.594 3.488a3.037 3.037 0 105.828-1.71 3.037 3.037 0 00-5.828 1.71zm-9.113-1.71a3.037 3.037 0 105.828 1.71 3.037 3.037 0 00-5.828-1.71zm-6.742-6.368a3.033 3.033 0 00-.305 4.285 3.033 3.033 0 004.285.305 3.033 3.033 0 00.305-4.285 3.033 3.033 0 00-4.285-.305zm-2.227-9a3.037 3.037 0 10.863 6.012 3.037 3.037 0 00-.863-6.012zm2.989-8.777a3.038 3.038 0 00-4.024 1.5 3.038 3.038 0 001.5 4.023 3.038 3.038 0 004.024-1.5 3.038 3.038 0 00-1.5-4.023zm7.261-5.77a3.04 3.04 0 00-4.199-.914 3.04 3.04 0 00-.914 4.2 3.04 3.04 0 004.2.914 3.04 3.04 0 00.913-4.2zm9.227-.925a3.039 3.039 0 10-6.078 0c0 1.68 1.36 3.039 3.039 3.039 1.68 0 3.039-1.36 3.039-3.04zm0 0"/><path d="M197.617 102.383V54.766H150v47.617zm0 0" fill="none" stroke-width="1.2" stroke="#000" stroke-miterlimit="10"/><path d="M179.797 90.8l-5.988 4.352-5.989-4.351 2.29-7.04h7.402zm0 0" fill="#5959ff"/><path d="M180.563 88.453a2.47 2.47 0 011.585 3.11 2.47 2.47 0 01-3.109 1.585 2.47 2.47 0 01-1.586-3.109 2.47 2.47 0 013.11-1.586zm-5.047-6.144a2.467 2.467 0 113.992 2.9 2.467 2.467 0 01-3.992-2.9zm-7.403 2.901a2.467 2.467 0 113.994-2.897 2.467 2.467 0 01-3.994 2.898zm.469 7.938a2.467 2.467 0 11-1.523-4.695 2.467 2.467 0 111.523 4.695zm7.695 2.004a2.469 2.469 0 11-4.938 0 2.469 2.469 0 014.938 0zm0 0"/><path d="M179.797 66.344l-5.988-4.352-5.989 4.352 2.29 7.039h7.402zm0 0" fill="#5959ff"/><path d="M180.563 68.688a2.47 2.47 0 001.585-3.11 2.47 2.47 0 00-3.109-1.586 2.47 2.47 0 00-1.586 3.11 2.47 2.47 0 003.11 1.585zm-5.047 6.144a2.467 2.467 0 103.992-2.9 2.467 2.467 0 00-3.992 2.9zm-7.403-2.898a2.467 2.467 0 103.994 2.898 2.467 2.467 0 00-3.994-2.898zm.469-7.938a2.467 2.467 0 10-1.523 4.695 2.467 2.467 0 101.523-4.695zm7.695-2.004a2.469 2.469 0 10-4.938 0 2.469 2.469 0 004.938 0zm0 0"/><path d="M150 102.383V54.766h-47.617v47.617zm0 0" fill="none" stroke-width="1.2" stroke="#000" stroke-miterlimit="10"/><path d="M137.617 89.79l-11.43-19.794-11.43 19.793zm0 0" fill="#ffff59"/><path d="M133.047 92.426h9.14l-4.57-7.918zm0 0" fill="#ffff59"/><path d="M131.523 89.79a3.051 3.051 0 00-1.117 4.163 3.051 3.051 0 004.164 1.117 3.051 3.051 0 001.118-4.164 3.051 3.051 0 00-4.165-1.117zm9.145-5.278a3.046 3.046 0 00-3.047-3.047 3.046 3.046 0 00-3.047 3.047 3.046 3.046 0 003.047 3.047 3.046 3.046 0 003.047-3.047zm0 10.554a3.049 3.049 0 103.047-5.28 3.049 3.049 0 00-3.047 5.28zm0 0"/><path d="M114.762 84.512l-4.57 7.918h9.14zm0 0" fill="#ffff59"/><path d="M117.809 84.512a3.046 3.046 0 00-3.047-3.047 3.046 3.046 0 00-3.047 3.047 3.046 3.046 0 003.047 3.047 3.046 3.046 0 003.047-3.047zm0 10.554a3.049 3.049 0 103.046-5.28 3.049 3.049 0 00-3.046 5.28zm-9.141-5.276a3.051 3.051 0 00-1.117 4.163 3.051 3.051 0 004.164 1.117 3.051 3.051 0 001.117-4.164 3.051 3.051 0 00-4.164-1.117zm0 0"/><path d="M130.762 72.633l-4.57-7.918-4.57 7.918zm0 0" fill="#ffff59"/><path d="M129.238 75.273a3.049 3.049 0 103.047-5.28 3.049 3.049 0 00-3.047 5.28zm-9.144-5.281a3.051 3.051 0 00-1.117 4.164 3.051 3.051 0 004.164 1.117 3.051 3.051 0 001.117-4.164 3.051 3.051 0 00-4.164-1.117zm9.144-5.277a3.046 3.046 0 00-3.047-3.047 3.046 3.046 0 00-3.046 3.047 3.046 3.046 0 003.046 3.047 3.046 3.046 0 003.047-3.047zm0 0"/><path d="M102.383 102.383V54.766H54.766v47.617zm0 0" fill="none" stroke-width="1.2" stroke="#000" stroke-miterlimit="10"/><path d="M86.734 84.793a3.5 3.5 0 10-7 0 3.5 3.5 0 107 0zm0 9.328a3.5 3.5 0 11-7 0 3.5 3.5 0 117 0zm-9.328-9.328a3.5 3.5 0 10-7 0 3.5 3.5 0 107 0zm0 9.328a3.5 3.5 0 11-7 0 3.5 3.5 0 117 0zm9.328-21.769a3.5 3.5 0 11-7 0 3.5 3.5 0 117 0zm0-9.329a3.5 3.5 0 10-7 0 3.5 3.5 0 107 0zm-9.328 9.329a3.5 3.5 0 11-7 0 3.5 3.5 0 117 0zm0-9.329a3.5 3.5 0 10-7 0 3.5 3.5 0 107 0zm0 0"/><path d="M54.762 102.383V54.766H7.145v47.617zm0 0" fill="none" stroke-width="1.2" stroke="#000" stroke-miterlimit="10"/><path d="M45.64 82.668l-2.91-12.746-11.78-5.672-11.782 5.672-2.91 12.746 8.152 10.223h13.074zm0 0" fill="#945994"/><path d="M45.45 73.332a4.358 4.358 0 10-5.434-6.816 4.358 4.358 0 005.433 6.816zm-.778 13.586a4.359 4.359 0 005.219-3.277 4.359 4.359 0 00-3.278-5.22 4.359 4.359 0 00-5.218 3.278 4.359 4.359 0 003.277 5.219zm-11.109 7.863a4.358 4.358 0 107.852-3.783 4.358 4.358 0 00-7.852 3.783zM20.488 91a4.358 4.358 0 107.854 3.78A4.358 4.358 0 0020.488 91zm-5.195-12.578a4.353 4.353 0 00-3.277 5.219 4.353 4.353 0 005.218 3.277 4.353 4.353 0 003.278-5.219 4.353 4.353 0 00-5.219-3.277zm6.597-11.906a4.358 4.358 0 10-5.433 6.816 4.358 4.358 0 005.434-6.816zm13.419-2.266a4.36 4.36 0 00-4.36-4.36 4.359 4.359 0 100 8.719 4.36 4.36 0 004.36-4.359zm0 0"/><path d="M292.855 54.762V7.145h-47.617v47.617zm0 0" fill="none" stroke-width="1.2" stroke="#000" stroke-miterlimit="10"/><path d="M274.375 37.227l-5.324 9.226-5.324-9.226zm0 0" fill="#ffff59"/><path d="M272.598 34.148a3.551 3.551 0 113.55 6.152 3.551 3.551 0 01-3.55-6.152zM261.945 40.3a3.551 3.551 0 113.55-6.151 3.551 3.551 0 01-3.55 6.152zm10.653 6.15a3.55 3.55 0 11-7.102-.001 3.55 3.55 0 017.102 0zm0 0"/><path d="M274.375 24.68l-5.324-9.227-5.324 9.227zm0 0" fill="#ffff59"/><path d="M272.598 27.754a3.551 3.551 0 103.55-6.152 3.551 3.551 0 00-3.55 6.152zm-10.653-6.149a3.551 3.551 0 103.55 6.153 3.551 3.551 0 00-3.55-6.153zm10.653-6.148a3.55 3.55 0 10-7.102 0 3.55 3.55 0 007.102 0zm0 0"/><path d="M245.238 54.762V7.145h-47.617v47.617zm0 0" fill="none" stroke-width="1.2" stroke="#000" stroke-miterlimit="10"/><path d="M234.918 27.922l-13.488-9.8-13.489 9.8 5.153 15.855h16.672zm0 0" fill="#5959ff"/><path d="M236.633 33.21a5.557 5.557 0 10-3.438-10.57 5.557 5.557 0 103.438 10.57zM225.27 47.047a5.555 5.555 0 007.761 1.23 5.555 5.555 0 001.23-7.761 5.555 5.555 0 00-7.761-1.23 5.555 5.555 0 00-1.23 7.76zm-16.672-6.531a5.555 5.555 0 001.23 7.761 5.555 5.555 0 007.762-1.23 5.555 5.555 0 00-1.23-7.762 5.555 5.555 0 00-7.762 1.23zm1.058-17.879a5.559 5.559 0 00-3.437 10.57 5.559 5.559 0 003.437-10.57zm17.328-4.512a5.558 5.558 0 10-11.117 0 5.558 5.558 0 1011.117 0zm0 0"/><path d="M197.617 54.762V7.145H150v47.617zm0 0" fill="none" stroke-width="1.2" stroke="#000" stroke-miterlimit="10"/><path d="M192.855 41.836A8.165 8.165 0 01184.691 50a8.165 8.165 0 01-8.164-8.164 8.165 8.165 0 018.164-8.164 8.165 8.165 0 018.164 8.164zm0-21.77a8.165 8.165 0 00-8.164-8.164 8.165 8.165 0 00-8.164 8.164 8.165 8.165 0 008.164 8.164 8.165 8.165 0 008.164-8.164zm-21.765 21.77A8.165 8.165 0 01162.926 50a8.165 8.165 0 01-8.164-8.164 8.165 8.165 0 018.164-8.164 8.165 8.165 0 018.164 8.164zm0-21.77a8.165 8.165 0 00-8.164-8.164 8.165 8.165 0 00-8.164 8.164 8.165 8.165 0 008.164 8.164 8.165 8.165 0 008.164-8.164zm0 0"/><path d="M150 54.762V7.145h-47.617v47.617zm0 0" fill="none" stroke-width="1.2" stroke="#000" stroke-miterlimit="10"/><path d="M137.617 40.848l-11.43-19.793-11.43 19.793zm0 0" fill="#ffff59"/><path d="M133.809 47.445a7.615 7.615 0 0010.406-2.789 7.615 7.615 0 00-2.79-10.406 7.615 7.615 0 00-10.405 2.79 7.615 7.615 0 002.789 10.405zM110.953 34.25a7.62 7.62 0 00-2.789 10.406 7.62 7.62 0 0010.406 2.79 7.62 7.62 0 002.79-10.407 7.62 7.62 0 00-10.407-2.789zm22.856-13.195a7.617 7.617 0 10-15.235 0 7.617 7.617 0 1015.235 0zm0 0"/><path d="M102.383 54.762V7.145H54.766v47.617zm0 0" fill="none" stroke-width="1.2" stroke="#000" stroke-miterlimit="10"/><path d="M86.734 41.836A8.165 8.165 0 0178.57 50a8.165 8.165 0 01-8.164-8.164 8.165 8.165 0 018.164-8.164 8.165 8.165 0 018.164 8.164zm0-21.77a8.165 8.165 0 00-8.164-8.164 8.165 8.165 0 00-8.164 8.164 8.165 8.165 0 008.164 8.164 8.165 8.165 0 008.164-8.164zm0 0"/><path d="M54.762 54.762V7.145H7.145v47.617zm0 0" fill="none" stroke-width="1.2" stroke="#000" stroke-miterlimit="10"/><path d="M50 30.953c0-10.52-8.527-19.047-19.047-19.047-10.52 0-19.047 8.528-19.047 19.047C11.906 41.473 20.434 50 30.953 50 41.473 50 50 41.473 50 30.953zm0 0"/></svg>