<svg xmlns="http://www.w3.org/2000/svg" width="4550" height="4050"><path fill="#9a9a9a" d="M179 580l509 952 304-2V850zm3317 270l-31 680h331l520-940z"/><path d="M3240 590l-660 1140-700 10-650-1160H180l330 620h280l550 970 880 1630 860-1550 590-1050h310l340-610H3240zM2225 2670c-207.106 0-375-167.893-375-375 0-207.106 167.894-375 375-375 207.107 0 375 167.894 375 375 0 207.107-167.893 375-375 375z" fill="#4d4d4d"/><path d="M2912.286 1532.193c104.327-140.917 166.03-315.283 166.03-504.064C3078.316 559.721 2698.512 180 2230 180c-468.513 0-848.316 379.721-848.316 848.129 0 188.781 61.703 363.147 166.03 504.065-207.34 186.66-337.714 457.119-337.714 758.032C1210 2853.432 1666.67 3310 2230 3310s1020-456.568 1020-1019.774c0-300.913-130.373-571.372-337.714-758.033zM2235 820c113.219 0 205 91.781 205 205s-91.781 205-205 205-205-91.781-205-205 91.781-205 205-205zm-5 1760c-160.162 0-290-129.838-290-290s129.838-290 290-290 290 129.838 290 290-129.838 290-290 290z" fill="#3f89ec"/></svg>