<svg width="3071pt" height="461pt" viewBox="0 0 3071 460.9" xmlns="http://www.w3.org/2000/svg"><g class="graph"><path fill="#333" stroke="transparent" d="M0 460.895V0h3071v460.895H0z"/><text text-anchor="middle" x="1531.5" y="-9.2" font-family="Times,serif" font-size="16" fill="#fff" transform="translate(4 456.895)">truie</text><g class="cluster"><path fill="#333" stroke="#000" d="M12 422.895V12h1743v410.895H12z"/><text text-anchor="middle" x="879.5" y="-428.095" font-family="Times,serif" font-size="16" fill="#fff" transform="translate(4 456.895)">unknown origin</text></g><g class="cluster"><path fill="#333" stroke="#000" d="M1763 349.895v-78h78v78h-78z"/><text text-anchor="middle" x="1798" y="-168.2" font-family="Times,serif" font-size="16" fill="#fff" transform="translate(4 456.895)">ML.</text></g><g class="cluster"><path fill="#333" stroke="#000" d="M1849 349.895v-78h188v78h-188z"/><text text-anchor="middle" x="1939" y="-168.2" font-family="Times,serif" font-size="16" fill="#fff" transform="translate(4 456.895)">Latin</text></g><g class="cluster"><path fill="#333" stroke="#000" d="M2045 349.895v-78h95v78h-95z"/><text text-anchor="middle" x="2088.5" y="-168.2" font-family="Times,serif" font-size="16" fill="#fff" transform="translate(4 456.895)">Proto-Celtic</text></g><g class="cluster"><path fill="#333" stroke="#000" d="M2148 349.895v-78h80v78h-80z"/><text text-anchor="middle" x="2184" y="-168.2" font-family="Times,serif" font-size="16" fill="#fff" transform="translate(4 456.895)">Welsh</text></g><g class="cluster"><path fill="#333" stroke="#000" d="M2236 349.895v-78h72v78h-72z"/><text text-anchor="middle" x="2268" y="-168.2" font-family="Times,serif" font-size="16" fill="#fff" transform="translate(4 456.895)">English</text></g><g class="cluster"><path fill="#333" stroke="#000" d="M2316 349.895v-78h96v78h-96z"/><text text-anchor="middle" x="2360" y="-168.2" font-family="Times,serif" font-size="16" fill="#fff" transform="translate(4 456.895)">itc-pro</text></g><g class="cluster"><path fill="#333" stroke="#000" d="M2420 349.895v-78h154v78h-154z"/><text text-anchor="middle" x="2493" y="-168.2" font-family="Times,serif" font-size="16" fill="#fff" transform="translate(4 456.895)">Proto-Indo-European</text></g><g class="cluster"><path fill="#333" stroke="#000" d="M2582 349.895v-78h173v78h-173z"/><text text-anchor="middle" x="2664.5" y="-168.2" font-family="Times,serif" font-size="16" fill="#fff" transform="translate(4 456.895)">Ancient Greek (to 1453)</text></g><g class="cluster"><path fill="#333" stroke="#000" d="M2763 349.895v-78h192v78h-192z"/><text text-anchor="middle" x="2855" y="-168.2" font-family="Times,serif" font-size="16" fill="#fff" transform="translate(4 456.895)">Old English (ca. 450-1100)</text></g><g class="cluster"><path fill="#333" stroke="#000" d="M2963 349.895v-78h96v78h-96z"/><text text-anchor="middle" x="3007" y="-168.2" font-family="Times,serif" font-size="16" fill="#fff" transform="translate(4 456.895)">LL.</text></g><g class="node" transform="translate(4 456.895)"><circle fill="#069" stroke="#fff" cx="927" cy="-378.947" r="27.902"/><circle fill="none" stroke="#fff" cx="927" cy="-378.947" r="31.895"/><text text-anchor="middle" x="927" y="-375.248" font-family="Helvetica,sans-Serif" font-size="14" fill="#fff">truie</text></g><g class="node" transform="translate(4 456.895)"><ellipse fill="#667474" stroke="#fff" cx="927" cy="-242" rx="27.895" ry="18"/><text text-anchor="middle" x="927" y="-238.3" font-family="Helvetica,sans-Serif" font-size="14" fill="#fff">truja</text></g><g class="edge"><path fill="none" stroke="#fff" stroke-dasharray="5,2" d="M931 110.055v76.626"/><path fill="#fff" stroke="#fff" d="M931 196.839l4.5-10-4.5 5v-5h0v5l-4.5-5 4.5 10h0z"/><text text-anchor="middle" x="942.5" y="-300.4" font-family="Courier,monospace" font-size="12" fill="#fff" transform="translate(4 456.895)">link</text></g><g class="node" transform="translate(4 456.895)"><ellipse fill="#667474" stroke="#fff" cx="208" cy="-242" rx="32.494" ry="18"/><text text-anchor="middle" x="208" y="-238.3" font-family="Helvetica,sans-Serif" font-size="14" fill="#fff">trueia</text></g><g class="edge"><path fill="none" stroke="#fff" stroke-dasharray="5,2" d="M899.018 80.768C819.13 88.155 604.643 110.075 429 146.895c-79.587 16.685-99.48 22.48-176 50-2.222.8-4.494 1.662-6.773 2.562"/><path fill="#fff" stroke="#fff" d="M236.932 203.301l10.96.337-6.34-2.248 4.621-1.91h0l-4.62 1.91 2.9-6.069-7.52 7.98h0z"/><text text-anchor="middle" x="440.5" y="-300.4" font-family="Courier,monospace" font-size="12" fill="#fff" transform="translate(4 456.895)">link</text></g><g class="node" transform="translate(4 456.895)"><ellipse fill="#667474" stroke="#fff" cx="87" cy="-242" rx="70.688" ry="18"/><text text-anchor="middle" x="87" y="-238.3" font-family="Helvetica,sans-Serif" font-size="14" fill="#fff">cheval de Troie</text></g><g class="edge"><path fill="none" stroke="#fff" stroke-dasharray="5,2" d="M898.803 79.912C809.023 85.77 548.536 105.347 336 146.895 269.125 159.968 193.819 182 144.565 197.433"/><path fill="#fff" stroke="#fff" d="M134.767 200.524l10.89 1.283-6.122-2.788 4.769-1.504h0l-4.769 1.504 3.415-5.795-8.183 7.3h0z"/><text text-anchor="middle" x="347.5" y="-300.4" font-family="Courier,monospace" font-size="12" fill="#fff" transform="translate(4 456.895)">link</text></g><g class="node" transform="translate(4 456.895)"><ellipse fill="#667474" stroke="#fff" cx="398" cy="-242" rx="32.494" ry="18"/><text text-anchor="middle" x="398" y="-238.3" font-family="Helvetica,sans-Serif" font-size="14" fill="#fff">trauie</text></g><g class="edge"><path fill="none" stroke="#fff" stroke-dasharray="5,2" d="M899.28 82.985c-60.507 9.919-196.356 33.66-308.28 63.91-66.619 18.005-82.57 25.279-147 50a418.41 418.41 0 00-6.876 2.712"/><path fill="#fff" stroke="#fff" d="M427.637 203.537l10.961.33-6.341-2.244 4.619-1.914h0l-4.62 1.914 2.898-6.071-7.517 7.985h0z"/><text text-anchor="middle" x="602.5" y="-300.4" font-family="Courier,monospace" font-size="12" fill="#fff" transform="translate(4 456.895)">link</text></g><g class="node" transform="translate(4 456.895)"><ellipse fill="#667474" stroke="#fff" cx="481" cy="-242" rx="32.494" ry="18"/><text text-anchor="middle" x="481" y="-238.3" font-family="Helvetica,sans-Serif" font-size="14" fill="#fff">truiga</text></g><g class="edge"><path fill="none" stroke="#fff" stroke-dasharray="5,2" d="M899.736 85.109C849.906 96.74 749.566 121.052 666 146.895c-62.722 19.397-77.912 25.947-139 50-2.242.883-4.543 1.81-6.859 2.757"/><path fill="#fff" stroke="#fff" d="M510.665 203.609l10.962.3-6.348-2.227 4.614-1.926h0l-4.614 1.926 2.88-6.079-7.494 8.006h0z"/><text text-anchor="middle" x="677.5" y="-300.4" font-family="Courier,monospace" font-size="12" fill="#fff" transform="translate(4 456.895)">link</text></g><g class="node" transform="translate(4 456.895)"><ellipse fill="#667474" stroke="#fff" cx="564" cy="-242" rx="32.494" ry="18"/><text text-anchor="middle" x="564" y="-238.3" font-family="Helvetica,sans-Serif" font-size="14" fill="#fff">truoia</text></g><g class="edge"><path fill="none" stroke="#fff" stroke-dasharray="5,2" d="M900.468 88.141C861.608 101.227 792.5 124.877 734 146.895c-55.614 20.932-69.132 27.184-124 50a1463.87 1463.87 0 00-6.818 2.856"/><path fill="#fff" stroke="#fff" d="M593.728 203.765l10.964.234-6.361-2.188 4.602-1.954h0l-4.602 1.954 2.844-6.097-7.447 8.05h0z"/><text text-anchor="middle" x="745.5" y="-300.4" font-family="Courier,monospace" font-size="12" fill="#fff" transform="translate(4 456.895)">link</text></g><g class="node" transform="translate(4 456.895)"><ellipse fill="#667474" stroke="#fff" cx="1327" cy="-242" rx="27" ry="18"/><text text-anchor="middle" x="1327" y="-238.3" font-family="Helvetica,sans-Serif" font-size="14" fill="#fff">torc</text></g><g class="edge"><path fill="none" stroke="#fff" stroke-dasharray="5,2" d="M962.523 83.745c50.663 9.833 152.894 31.813 235.477 63.15 37.305 14.156 77.81 35.859 104.194 50.923"/><path fill="#fff" stroke="#fff" d="M1310.909 202.847l-6.413-8.895 2.082 6.396-4.33-2.499h0l4.33 2.5-6.58 1.398 10.91 1.1h0z"/><text text-anchor="middle" x="1238.5" y="-300.4" font-family="Courier,monospace" font-size="12" fill="#fff" transform="translate(4 456.895)">link</text></g><g class="node" transform="translate(4 456.895)"><ellipse fill="#667474" stroke="#fff" cx="758" cy="-242" rx="50.892" ry="18"/><text text-anchor="middle" x="758" y="-238.3" font-family="Helvetica,sans-Serif" font-size="14" fill="#fff">treue, true</text></g><g class="edge"><path fill="none" stroke="#fff" stroke-dasharray="5,2" d="M906.063 98.155L790.29 191.971"/><path fill="#fff" stroke="#fff" d="M782.52 198.267l10.602-2.8-6.718-.348 3.885-3.148h0l-3.885 3.148 1.052-6.644-4.937 9.792h0z"/><text text-anchor="middle" x="856.5" y="-300.4" font-family="Courier,monospace" font-size="12" fill="#fff" transform="translate(4 456.895)">link</text></g><g class="node" transform="translate(4 456.895)"><ellipse fill="#667474" stroke="#fff" cx="303" cy="-242" rx="44.693" ry="18"/><text text-anchor="middle" x="303" y="-238.3" font-family="Helvetica,sans-Serif" font-size="14" fill="#fff">Trojanus</text></g><g class="edge"><path fill="none" stroke="#fff" stroke-dasharray="5,2" d="M899.038 81.434C828.36 89.525 653.753 111.624 511 146.895 453.913 161 389.847 183.491 349 198.708"/><path fill="#fff" stroke="#fff" d="M339.388 202.315l10.943.7-6.262-2.456 4.681-1.757h0l-4.681 1.757 3.1-5.97-7.781 7.727h0z"/><text text-anchor="middle" x="522.5" y="-300.4" font-family="Courier,monospace" font-size="12" fill="#fff" transform="translate(4 456.895)">link</text></g><g class="node" transform="translate(4 456.895)"><ellipse fill="#667474" stroke="#fff" cx="652" cy="-242" rx="37.093" ry="18"/><text text-anchor="middle" x="652" y="-238.3" font-family="Helvetica,sans-Serif" font-size="14" fill="#fff">porcus</text></g><g class="edge"><path fill="none" stroke="#fff" stroke-dasharray="5,2" d="M902.348 92.215l-211.164 105.16"/><path fill="#fff" stroke="#fff" d="M682.157 201.869l10.958-.43-6.482-1.799 4.476-2.229h0l-4.476 2.23 2.47-6.258-6.946 8.486h0z"/><text text-anchor="middle" x="803.5" y="-300.4" font-family="Courier,monospace" font-size="12" fill="#fff" transform="translate(4 456.895)">link</text></g><g class="node" transform="translate(4 456.895)"><ellipse fill="#667474" stroke="#fff" cx="1010" cy="-242" rx="37.093" ry="18"/><text text-anchor="middle" x="1010" y="-238.3" font-family="Helvetica,sans-Serif" font-size="14" fill="#fff">tourc’h</text></g><g class="edge"><path fill="none" stroke="#fff" stroke-dasharray="5,2" d="M947.597 105.332l50.696 83.647"/><path fill="#fff" stroke="#fff" d="M1003.477 197.533l-1.334-10.884-1.257 6.608-2.592-4.276h0l2.592 4.276-6.44-1.943 9.031 6.22h0z"/><text text-anchor="middle" x="991.5" y="-300.4" font-family="Courier,monospace" font-size="12" fill="#fff" transform="translate(4 456.895)">link</text></g><g class="node" transform="translate(4 456.895)"><ellipse fill="#667474" stroke="#fff" cx="1096" cy="-242" rx="30.595" ry="18"/><text text-anchor="middle" x="1096" y="-238.3" font-family="Helvetica,sans-Serif" font-size="14" fill="#fff">troga</text></g><g class="edge"><path fill="none" stroke="#fff" stroke-dasharray="5,2" d="M955.937 98.155l117.72 95.394"/><path fill="#fff" stroke="#fff" d="M1081.728 200.089l-4.936-9.792 1.052 6.644-3.885-3.148h0l3.885 3.148-6.718.348 10.602 2.8h0z"/><text text-anchor="middle" x="1041.5" y="-300.4" font-family="Courier,monospace" font-size="12" fill="#fff" transform="translate(4 456.895)">link</text></g><g class="node" transform="translate(4 456.895)"><ellipse fill="#667474" stroke="#fff" cx="1172" cy="-242" rx="27.895" ry="18"/><text text-anchor="middle" x="1172" y="-238.3" font-family="Helvetica,sans-Serif" font-size="14" fill="#fff">troia</text></g><g class="edge"><path fill="none" stroke="#fff" stroke-dasharray="5,2" d="M959.82 92c27.361 13.523 69.494 34.82 105.18 54.895 28.564 16.069 60.386 35.753 82.609 49.801"/><path fill="#fff" stroke="#fff" d="M1156.214 202.157l-6.032-9.158 1.81 6.479-4.221-2.68h0l4.221 2.68-6.632 1.12 10.854 1.559h0z"/><text text-anchor="middle" x="1098.5" y="-300.4" font-family="Courier,monospace" font-size="12" fill="#fff" transform="translate(4 456.895)">link</text></g><g class="node" transform="translate(4 456.895)"><ellipse fill="#667474" stroke="#fff" cx="1250" cy="-242" rx="32.494" ry="18"/><text text-anchor="middle" x="1250" y="-238.3" font-family="Helvetica,sans-Serif" font-size="14" fill="#fff">trogja</text></g><g class="edge"><path fill="none" stroke="#fff" stroke-dasharray="5,2" d="M961.576 87.628c38.115 12.375 105 35.108 160.424 59.267 35.09 15.296 73.885 35.726 100.28 50.188"/><path fill="#fff" stroke="#fff" d="M1231.072 201.931l-6.584-8.77 2.206 6.356-4.379-2.415h0l4.379 2.415-6.551 1.526 10.93.888h0z"/><text text-anchor="middle" x="1167" y="-300.4" font-family="Courier,monospace" font-size="12" fill="#fff" transform="translate(4 456.895)">recons</text></g><g class="node" transform="translate(4 456.895)"><ellipse fill="#667474" stroke="#fff" cx="854" cy="-242" rx="27" ry="18"/><text text-anchor="middle" x="854" y="-238.3" font-family="Helvetica,sans-Serif" font-size="14" fill="#fff">foie</text></g><g class="edge"><path fill="none" stroke="#fff" stroke-dasharray="5,2" d="M915.874 106.323l-43.926 82.406"/><path fill="#fff" stroke="#fff" d="M867.116 197.793l8.675-6.708-6.323 2.296 2.352-4.413h0l-2.352 4.413-1.619-6.53-.733 10.942h0z"/><text text-anchor="middle" x="904.5" y="-300.4" font-family="Courier,monospace" font-size="12" fill="#fff" transform="translate(4 456.895)">link</text></g><g class="node" transform="translate(4 456.895)"><ellipse fill="#667474" stroke="#fff" cx="1403" cy="-242" rx="30.595" ry="18"/><text text-anchor="middle" x="1403" y="-238.3" font-family="Helvetica,sans-Serif" font-size="14" fill="#fff">treue</text></g><g class="edge"><path fill="none" stroke="#fff" stroke-dasharray="5,2" d="M963.14 82.099c59.908 8.293 192.227 29.23 298.86 64.796 40.522 13.516 84.63 35.3 113.425 50.56"/><path fill="#fff" stroke="#fff" d="M1384.576 202.359l-6.689-8.69 2.282 6.328-4.407-2.362h0l4.407 2.362-6.533 1.605 10.94.757h0z"/><text text-anchor="middle" x="1307.5" y="-300.4" font-family="Courier,monospace" font-size="12" fill="#fff" transform="translate(4 456.895)">link</text></g><g class="node" transform="translate(4 456.895)"><ellipse fill="#667474" stroke="#fff" cx="1479" cy="-242" rx="27.895" ry="18"/><text text-anchor="middle" x="1479" y="-238.3" font-family="Helvetica,sans-Serif" font-size="14" fill="#fff">truia</text></g><g class="edge"><path fill="none" stroke="#fff" stroke-dasharray="5,2" d="M962.957 80.867c68.576 6.824 234.463 26.336 368.043 66.028 43.76 13.003 91.368 35.837 121.428 51.427"/><path fill="#fff" stroke="#fff" d="M1461.543 203.108l-6.762-8.633 2.335 6.309-4.427-2.324h0l4.427 2.324-6.519 1.66 10.946.664h0z"/><text text-anchor="middle" x="1377.5" y="-300.4" font-family="Courier,monospace" font-size="12" fill="#fff" transform="translate(4 456.895)">link</text></g><g class="node" transform="translate(4 456.895)"><ellipse fill="#667474" stroke="#fff" cx="1552" cy="-242" rx="27" ry="18"/><text text-anchor="middle" x="1552" y="-238.3" font-family="Helvetica,sans-Serif" font-size="14" fill="#fff">treu</text></g><g class="edge"><path fill="none" stroke="#fff" stroke-dasharray="5,2" d="M962.923 79.85c76.754 5.17 277.201 22.224 438.077 67.045 45.211 12.596 94.34 35.943 124.901 51.723"/><path fill="#fff" stroke="#fff" d="M1535.142 203.453l-6.775-8.623 2.345 6.305-4.43-2.318h0l4.43 2.318-6.516 1.67 10.946.648h0z"/><text text-anchor="middle" x="1451.5" y="-300.4" font-family="Courier,monospace" font-size="12" fill="#fff" transform="translate(4 456.895)">link</text></g><g class="node" transform="translate(4 456.895)"><ellipse fill="#667474" stroke="#fff" cx="1670" cy="-242" rx="73.387" ry="18"/><text text-anchor="middle" x="1670" y="-238.3" font-family="Helvetica,sans-Serif" font-size="14" fill="#fff">porcus Trojanus</text></g><g class="edge"><path fill="none" stroke="#fff" stroke-dasharray="5,2" d="M962.986 79.69c84.589 5.102 320.804 22.568 512.014 67.205 53.046 12.383 111.854 33.43 151.69 48.835"/><path fill="#fff" stroke="#fff" d="M1636.142 199.418l-7.68-7.827 3.022 6.01-4.658-1.818h0l4.658 1.817-6.293 2.375 10.951-.557h0z"/><text text-anchor="middle" x="1532.5" y="-300.4" font-family="Courier,monospace" font-size="12" fill="#fff" transform="translate(4 456.895)">link</text></g><g class="node" transform="translate(4 456.895)"><ellipse fill="#667474" stroke="#fff" cx="1798" cy="-133" rx="31.396" ry="18"/><text text-anchor="middle" x="1798" y="-129.3" font-family="Helvetica,sans-Serif" font-size="14" fill="#fff">*troia</text></g><g class="edge"><path fill="none" stroke="#fff" stroke-dasharray="5,2" d="M951.96 226.898c5.098 2.406 10.642 4.617 16.04 5.997 80.828 20.67 291.929 10.278 375 18 41.994 3.904 51.963 9.582 94 13 17.835 1.45 305.905.179 322 8 11.572 5.623 21.13 15.993 28.27 26"/><path fill="#fff" stroke="#fff" d="M1792.914 306.469l-1.74-10.827-1.01 6.65-2.748-4.176h0l2.749 4.177-6.508-1.702 9.257 5.878h0z"/><text text-anchor="middle" x="1459.5" y="-196.4" font-family="Courier,monospace" font-size="12" fill="#fff" transform="translate(4 456.895)">inherit</text></g><g class="node" transform="translate(4 456.895)"><ellipse fill="#667474" stroke="#fff" cx="76" cy="-60" rx="59.59" ry="18"/><text text-anchor="middle" x="76" y="-56.3" font-family="Helvetica,sans-Serif" font-size="14" fill="#fff">Trojan horse</text></g><g class="edge"><path fill="none" stroke="#fff" stroke-dasharray="5,2" d="M89.905 233.011l-8.19 135.514"/><path fill="#fff" stroke="#fff" d="M81.09 378.852l5.096-9.71-4.794 4.72.302-4.992h0l-.302 4.991-4.19-5.262 3.889 10.253h0z"/><text text-anchor="middle" x="99.5" y="-129.9" font-family="Courier,monospace" font-size="12" fill="#fff" transform="translate(4 456.895)">etyl</text></g><g class="node" transform="translate(4 456.895)"><ellipse fill="#667474" stroke="#fff" cx="1890" cy="-133" rx="37.093" ry="18"/><text text-anchor="middle" x="1890" y="-129.3" font-family="Helvetica,sans-Serif" font-size="14" fill="#fff">torquis</text></g><g class="edge"><path fill="none" stroke="#fff" stroke-dasharray="5,2" d="M1351.846 226.733c4.851 2.353 10.084 4.581 15.154 6.162 54.425 16.968 70.676 9.193 127 18 33.857 5.294 41.9 9.605 76 13 30.418 3.029 247.114-4.523 275 8 12.679 5.694 23.646 16.365 31.97 26.566"/><path fill="#fff" stroke="#fff" d="M1883.063 306.437l-2.494-10.68-.541 6.706-3.035-3.974h0l3.035 3.974-6.611-1.242 9.646 5.216h0z"/><text text-anchor="middle" x="1592.5" y="-196.4" font-family="Courier,monospace" font-size="12" fill="#fff" transform="translate(4 456.895)">derived</text></g><g class="node" transform="translate(4 456.895)"><ellipse fill="#667474" stroke="#fff" cx="1985" cy="-133" rx="40.094" ry="18"/><text text-anchor="middle" x="1985" y="-129.3" font-family="Helvetica,sans-Serif" font-size="14" fill="#fff">torqueō</text></g><g class="edge"><path fill="none" stroke="#fff" stroke-dasharray="5,2" d="M1351.385 226.815c4.962 2.41 10.358 4.642 15.615 6.08 110.02 30.085 144.894-7.785 256 18 14.954 3.47 16.977 9.845 32 13 31.003 6.51 256.094-4.963 285 8 12.682 5.687 23.65 16.358 31.973 26.56"/><path fill="#fff" stroke="#fff" d="M1978.065 306.432l-2.493-10.68-.542 6.706-3.034-3.974h0l3.034 3.974-6.61-1.243 9.645 5.217h0z"/><text text-anchor="middle" x="1677.5" y="-196.4" font-family="Courier,monospace" font-size="12" fill="#fff" transform="translate(4 456.895)">derived</text></g><g class="node" transform="translate(4 456.895)"><ellipse fill="#667474" stroke="#fff" cx="2087" cy="-133" rx="38.194" ry="18"/><text text-anchor="middle" x="2087" y="-129.3" font-family="Helvetica,sans-Serif" font-size="14" fill="#fff">*torkos</text></g><g class="edge"><path fill="none" stroke="#fff" stroke-dasharray="5,2" d="M1351.367 226.882c4.963 2.407 10.363 4.621 15.633 6.013 146.736 38.751 193.718-18.621 341 18 13.315 3.31 14.642 9.866 28 13 33.004 7.743 273.985-5.687 305 8 12.838 5.666 24.017 16.333 32.529 26.539"/><path fill="#fff" stroke="#fff" d="M2079.765 306.415l-2.611-10.65-.468 6.71-3.078-3.94h0l3.078 3.94-6.624-1.17 9.703 5.11h0z"/><text text-anchor="middle" x="1758.5" y="-196.4" font-family="Courier,monospace" font-size="12" fill="#fff" transform="translate(4 456.895)">inherit</text></g><g class="node" transform="translate(4 456.895)"><ellipse fill="#667474" stroke="#fff" cx="2184" cy="-133" rx="31.695" ry="18"/><text text-anchor="middle" x="2184" y="-129.3" font-family="Helvetica,sans-Serif" font-size="14" fill="#fff">twrch</text></g><g class="edge"><path fill="none" stroke="#fff" stroke-dasharray="5,2" d="M1351.357 226.92c4.963 2.406 10.366 4.61 15.643 5.975 181.744 47.015 240.635-30.456 422 18 12.1 3.233 12.872 9.879 25 13 35.52 9.14 296.916-7.834 330 8 11.715 5.607 21.477 15.974 28.805 25.985"/><path fill="#fff" stroke="#fff" d="M2178.606 306.456l-1.875-10.804-.926 6.663-2.801-4.142h0l2.801 4.142-6.529-1.62 9.33 5.761h0z"/><text text-anchor="middle" x="1836.5" y="-196.4" font-family="Courier,monospace" font-size="12" fill="#fff" transform="translate(4 456.895)">cognate</text></g><g class="node"><path fill="#069" stroke="#fff" d="M2299.5 305.895h-55v36h55v-36z"/><text text-anchor="middle" x="2268" y="-129.3" font-family="Helvetica,sans-Serif" font-size="14" fill="#fff" transform="translate(4 456.895)">torque</text></g><g class="edge"><path fill="none" stroke="#fff" stroke-dasharray="5,2" d="M1351.336 227.005c4.963 2.402 10.372 4.584 15.664 5.89 47.582 11.746 842.777-11.386 882 18 13.738 10.293 19.468 28.787 21.773 44.585"/><path fill="#fff" stroke="#fff" d="M2271.879 305.852l3.415-10.42-3.945 5.448-.53-4.972h0l.53 4.972-5.005-4.495 5.535 9.467h0z"/><text text-anchor="middle" x="2285.5" y="-196.4" font-family="Courier,monospace" font-size="12" fill="#fff" transform="translate(4 456.895)">borrowed</text></g><g class="node" transform="translate(4 456.895)"><ellipse fill="#667474" stroke="#fff" cx="265" cy="-60" rx="32.494" ry="18"/><text text-anchor="middle" x="265" y="-56.3" font-family="Helvetica,sans-Serif" font-size="14" fill="#fff">-anus</text></g><g class="edge"><path fill="none" stroke="#fff" stroke-dasharray="5,2" d="M303.217 233.011l-28.395 136"/><path fill="#fff" stroke="#fff" d="M272.767 378.852l6.45-8.87-5.428 3.976 1.022-4.895h0l-1.022 4.895-3.383-5.815 2.361 10.709h0z"/><text text-anchor="middle" x="306.5" y="-129.9" font-family="Courier,monospace" font-size="12" fill="#fff" transform="translate(4 456.895)">link</text></g><g class="node" transform="translate(4 456.895)"><ellipse fill="#667474" stroke="#fff" cx="184" cy="-60" rx="30.595" ry="18"/><text text-anchor="middle" x="184" y="-56.3" font-family="Helvetica,sans-Serif" font-size="14" fill="#fff">Troja</text></g><g class="edge"><path fill="none" stroke="#fff" stroke-dasharray="5,2" d="M285.33 230.735c-13.246 10.524-29.8 25.289-41.33 41.16-22.086 30.402-38.244 70.9-47.376 97.446"/><path fill="#fff" stroke="#fff" d="M193.361 379.119l7.434-8.062-5.851 3.319 1.583-4.743h0l-1.583 4.743-2.686-6.168 1.103 10.91h0z"/><text text-anchor="middle" x="255.5" y="-129.9" font-family="Courier,monospace" font-size="12" fill="#fff" transform="translate(4 456.895)">link</text></g><g class="node" transform="translate(4 456.895)"><ellipse fill="#667474" stroke="#fff" cx="825" cy="-60" rx="37.093" ry="18"/><text text-anchor="middle" x="825" y="-56.3" font-family="Helvetica,sans-Serif" font-size="14" fill="#fff">pork̂os</text></g><g class="edge"><path fill="none" stroke="#fff" stroke-dasharray="5,2" d="M685.9 225.741c22.588 9.402 53.174 24.86 74.1 46.154 27.451 27.933 21.86 43.832 41 78 3.83 6.836 8.099 14.148 12.126 20.918"/><path fill="#fff" stroke="#fff" d="M818.405 379.614l-1.284-10.89-1.288 6.602-2.571-4.288h0l2.572 4.288-6.431-1.973 9.002 6.26h0z"/><text text-anchor="middle" x="820" y="-129.9" font-family="Courier,monospace" font-size="12" fill="#fff" transform="translate(4 456.895)">recons</text></g><g class="node" transform="translate(4 456.895)"><ellipse fill="#667474" stroke="#fff" cx="915" cy="-60" rx="35.194" ry="18"/><text text-anchor="middle" x="915" y="-56.3" font-family="Helvetica,sans-Serif" font-size="14" fill="#fff">Ferkel</text></g><g class="edge"><path fill="none" stroke="#fff" stroke-dasharray="5,2" d="M684.532 226.622c5.742 2.2 11.766 4.397 17.468 6.273 63.392 20.857 93.983-4.02 145 39 29.188 24.613 16.271 45.311 36 78 4.481 7.425 9.92 15.06 15.196 21.963"/><path fill="#fff" stroke="#fff" d="M904.71 380.135l-2.647-10.64-.444 6.711-3.092-3.929h0l3.092 3.93-6.629-1.147 9.72 5.075h0z"/><text text-anchor="middle" x="894.5" y="-129.9" font-family="Courier,monospace" font-size="12" fill="#fff" transform="translate(4 456.895)">link</text></g><g class="node" transform="translate(4 456.895)"><ellipse fill="#667474" stroke="#fff" cx="1001" cy="-60" rx="32.494" ry="18"/><text text-anchor="middle" x="1001" y="-56.3" font-family="Helvetica,sans-Serif" font-size="14" fill="#fff">porca</text></g><g class="edge"><path fill="none" stroke="#fff" stroke-dasharray="5,2" d="M683.874 226.998c5.901 2.223 12.153 4.331 18.126 5.897 92.673 24.29 143.25-27.722 212 39 25.848 25.085.958 48.766 22 78 8.926 12.4 22.2 22.558 34.728 30.217"/><path fill="#fff" stroke="#fff" d="M979.646 385.244l-6.423-8.888 2.09 6.394-4.334-2.494h0l4.334 2.494-6.579 1.406 10.912 1.088h0z"/><text text-anchor="middle" x="947.5" y="-129.9" font-family="Courier,monospace" font-size="12" fill="#fff" transform="translate(4 456.895)">lien</text></g><g class="node" transform="translate(4 456.895)"><ellipse fill="#667474" stroke="#fff" cx="351" cy="-60" rx="35.194" ry="18"/><text text-anchor="middle" x="351" y="-56.3" font-family="Helvetica,sans-Serif" font-size="14" fill="#fff">farrow</text></g><g class="edge"><path fill="none" stroke="#fff" stroke-dasharray="5,2" d="M627.365 226.507c-6.018 2.258-12.362 4.506-18.365 6.388-69.016 21.642-97.457-.574-158 39-37.863 24.75-66.858 69.66-82.648 98.372"/><path fill="#fff" stroke="#fff" d="M363.509 379.331l8.681-6.7-6.325 2.29 2.356-4.41h0l-2.356 4.41-1.613-6.53-.743 10.94h0z"/><text text-anchor="middle" x="462.5" y="-129.9" font-family="Courier,monospace" font-size="12" fill="#fff" transform="translate(4 456.895)">link</text></g><g class="node" transform="translate(4 456.895)"><ellipse fill="#667474" stroke="#fff" cx="455" cy="-60" rx="51.191" ry="18"/><text text-anchor="middle" x="455" y="-56.3" font-family="Helvetica,sans-Serif" font-size="14" fill="#fff">marcassin</text></g><g class="edge"><path fill="none" stroke="#fff" stroke-dasharray="5,2" d="M626.691 225.934c-23.108 9.69-55.237 25.438-78.691 45.961-32.46 28.404-59.462 70.88-74.925 98.266"/><path fill="#fff" stroke="#fff" d="M468.097 379.171l8.775-6.576-6.357 2.2 2.418-4.377h0l-2.418 4.377-1.52-6.553-.898 10.929h0z"/><text text-anchor="middle" x="559.5" y="-129.9" font-family="Courier,monospace" font-size="12" fill="#fff" transform="translate(4 456.895)">lien</text></g><g class="node" transform="translate(4 456.895)"><ellipse fill="#667474" stroke="#fff" cx="559" cy="-60" rx="35.194" ry="18"/><text text-anchor="middle" x="559" y="-56.3" font-family="Helvetica,sans-Serif" font-size="14" fill="#fff">прасѧ</text></g><g class="edge"><path fill="none" stroke="#fff" stroke-dasharray="5,2" d="M643.95 231.932c-7.61 11.111-17.393 26.078-24.95 39.963-17.764 32.636-34.706 72.002-45.212 97.723"/><path fill="#fff" stroke="#fff" d="M569.958 379.092l7.92-7.584-6.046 2.948 1.875-4.635h0l-1.875 4.635-2.298-6.322.424 10.958h0z"/><text text-anchor="middle" x="630.5" y="-129.9" font-family="Courier,monospace" font-size="12" fill="#fff" transform="translate(4 456.895)">lien</text></g><g class="node" transform="translate(4 456.895)"><ellipse fill="#667474" stroke="#fff" cx="649" cy="-60" rx="37.093" ry="18"/><text text-anchor="middle" x="649" y="-56.3" font-family="Helvetica,sans-Serif" font-size="14" fill="#fff">pórkos</text></g><g class="edge"><path fill="none" stroke="#fff" stroke-dasharray="5,2" d="M655.701 233.011l-2.233 135.514"/><path fill="#fff" stroke="#fff" d="M653.297 378.852l4.665-9.924-4.582 4.925.082-5h0l-.082 5-4.417-5.074 4.334 10.073h0z"/><text text-anchor="middle" x="667.5" y="-129.9" font-family="Courier,monospace" font-size="12" fill="#fff" transform="translate(4 456.895)">link</text></g><g class="node" transform="translate(4 456.895)"><ellipse fill="#667474" stroke="#fff" cx="737" cy="-60" rx="32.494" ry="18"/><text text-anchor="middle" x="737" y="-56.3" font-family="Helvetica,sans-Serif" font-size="14" fill="#fff">prasę</text></g><g class="edge"><path fill="none" stroke="#fff" stroke-dasharray="5,2" d="M667.836 232.419c7.192 11.053 16.282 25.78 23.164 39.476 16.397 32.635 31.405 72 40.611 97.722"/><path fill="#fff" stroke="#fff" d="M734.96 379.092l.91-10.928-2.576 6.213-1.666-4.714h0l1.666 4.715-5.91-3.215 7.576 7.929h0z"/><text text-anchor="middle" x="736.5" y="-129.9" font-family="Courier,monospace" font-size="12" fill="#fff" transform="translate(4 456.895)">link</text></g><g class="node" transform="translate(4 456.895)"><ellipse fill="#667474" stroke="#fff" cx="2360" cy="-133" rx="40.094" ry="18"/><text text-anchor="middle" x="2360" y="-129.3" font-family="Helvetica,sans-Serif" font-size="14" fill="#fff">*porkos</text></g><g class="edge"><path fill="none" stroke="#fff" stroke-dasharray="5,2" d="M683.25 227.395c6.053 2.255 12.523 4.275 18.75 5.5 127.026 24.986 1039.757-14.773 1165 18 11.736 3.071 12.27 9.908 24 13 45.241 11.924 377.947-10.314 421 8 13.256 5.64 24.93 16.41 33.839 26.692"/><path fill="#fff" stroke="#fff" d="M2352.37 306.622l-2.816-10.599-.338 6.719-3.154-3.88h0l3.154 3.88-6.646-1.042 9.8 4.922h0z"/><text text-anchor="middle" x="1913.5" y="-196.4" font-family="Courier,monospace" font-size="12" fill="#fff" transform="translate(4 456.895)">derived</text></g><g class="node" transform="translate(4 456.895)"><ellipse fill="#667474" stroke="#fff" cx="2465" cy="-133" rx="40.893" ry="18"/><text text-anchor="middle" x="2465" y="-129.3" font-family="Helvetica,sans-Serif" font-size="14" fill="#fff">*pórḱos</text></g><g class="edge"><path fill="none" stroke="#fff" stroke-dasharray="5,2" d="M683.249 227.4c6.053 2.254 12.524 4.273 18.751 5.495 135.432 26.572 1108.464-16.875 1242 18 11.737 3.065 12.268 9.915 24 13 48.149 12.661 402.084-11.244 448 8 13.548 5.678 25.536 16.604 34.668 26.982"/><path fill="#fff" stroke="#fff" d="M2457.074 306.609l-2.914-10.571-.276 6.72-3.19-3.85h0l3.19 3.85-6.655-.979 9.845 4.83h0z"/><text text-anchor="middle" x="1990.5" y="-196.4" font-family="Courier,monospace" font-size="12" fill="#fff" transform="translate(4 456.895)">derived</text></g><g class="node" transform="translate(4 456.895)"><ellipse fill="#667474" stroke="#fff" cx="2628" cy="-133" rx="42.494" ry="18"/><text text-anchor="middle" x="2628" y="-129.3" font-family="Helvetica,sans-Serif" font-size="14" fill="#fff">πόρκος</text></g><g class="edge"><path fill="none" stroke="#fff" stroke-dasharray="5,2" d="M683.248 227.404c6.053 2.254 12.524 4.272 18.752 5.491 143.839 28.158 1177.51-20.253 1319 18 11.335 3.065 11.667 9.928 23 13 28.637 7.763 506.566-3.3 534 8 13.713 5.649 25.918 16.572 35.24 26.955"/><path fill="#fff" stroke="#fff" d="M2619.783 306.588l-3.021-10.542-.207 6.724-3.23-3.818h0l3.23 3.818-6.665-.912 9.893 4.73h0z"/><text text-anchor="middle" x="2066.5" y="-196.4" font-family="Courier,monospace" font-size="12" fill="#fff" transform="translate(4 456.895)">cognate</text></g><g class="node" transform="translate(4 456.895)"><ellipse fill="#667474" stroke="#fff" cx="2798" cy="-133" rx="30.595" ry="18"/><text text-anchor="middle" x="2798" y="-129.3" font-family="Helvetica,sans-Serif" font-size="14" fill="#fff">fearh</text></g><g class="edge"><path fill="none" stroke="#fff" stroke-dasharray="5,2" d="M683.247 227.407c6.054 2.254 12.525 4.271 18.753 5.488 152.136 29.724 1245.345-22.401 1395 18 11.336 3.06 11.663 9.942 23 13 34.278 9.247 606.973-7.32 639 8 11.688 5.591 21.303 16.057 28.454 26.142"/><path fill="#fff" stroke="#fff" d="M2793.095 306.67l-1.703-10.833-1.032 6.647-2.735-4.185h0l2.735 4.185-6.502-1.724 9.237 5.91h0z"/><text text-anchor="middle" x="2142.5" y="-196.4" font-family="Courier,monospace" font-size="12" fill="#fff" transform="translate(4 456.895)">cognate</text></g><g class="node" transform="translate(4 456.895)"><ellipse fill="#667474" stroke="#fff" cx="1171" cy="-60" rx="48.192" ry="18"/><text text-anchor="middle" x="1171" y="-56.3" font-family="Helvetica,sans-Serif" font-size="14" fill="#fff">συκωτόν</text></g><g class="edge"><path fill="none" stroke="#fff" stroke-dasharray="5,2" d="M878.982 226.334c4.845 2.373 10.04 4.71 15.018 6.561 66.182 24.597 99.69-6.117 154 39 29.369 24.398 9.607 50.41 36 78 12.638 13.211 29.804 23.392 45.822 30.846"/><path fill="#fff" stroke="#fff" d="M1139.077 384.816l-7.338-8.148 2.762 6.133-4.576-2.015h0l4.576 2.015-6.39 2.103 10.966-.088h0z"/><text text-anchor="middle" x="1095.5" y="-129.9" font-family="Courier,monospace" font-size="12" fill="#fff" transform="translate(4 456.895)">link</text></g><g class="node" transform="translate(4 456.895)"><ellipse fill="#667474" stroke="#fff" cx="1267" cy="-60" rx="29.795" ry="18"/><text text-anchor="middle" x="1267" y="-56.3" font-family="Helvetica,sans-Serif" font-size="14" fill="#fff">figue</text></g><g class="edge"><path fill="none" stroke="#fff" stroke-dasharray="5,2" d="M878.835 226.768c4.852 2.35 10.088 4.57 15.165 6.127 95.355 29.248 144.095-24.511 221 39 29.44 24.312 7.833 52.224 36 78 28.21 25.814 45.606 14.53 81 29 1.864.762 3.768 1.563 5.684 2.388"/><path fill="#fff" stroke="#fff" d="M1247.222 385.515l-7.316-8.17 2.746 6.142-4.57-2.028h0l4.57 2.028-6.396 2.085 10.966-.057h0z"/><text text-anchor="middle" x="1162.5" y="-129.9" font-family="Courier,monospace" font-size="12" fill="#fff" transform="translate(4 456.895)">link</text></g><g class="node" transform="translate(4 456.895)"><ellipse fill="#667474" stroke="#fff" cx="1356" cy="-60" rx="40.893" ry="18"/><text text-anchor="middle" x="1356" y="-56.3" font-family="Helvetica,sans-Serif" font-size="14" fill="#fff">συκώτι</text></g><g class="edge"><path fill="none" stroke="#fff" stroke-dasharray="5,2" d="M878.404 226.745c4.961 2.413 10.352 4.665 15.596 6.15 62.14 17.602 238.202-2.125 288 39 29.44 24.312 7.343 52.77 36 78 32.178 28.33 51.378 15.292 92 29 2.88.972 5.845 1.991 8.828 3.03"/><path fill="#fff" stroke="#fff" d="M1328.327 385.275l-7.934-7.57 3.218 5.907-4.715-1.663h0l4.716 1.663-6.213 2.581 10.928-.917h0z"/><text text-anchor="middle" x="1229.5" y="-129.9" font-family="Courier,monospace" font-size="12" fill="#fff" transform="translate(4 456.895)">lien</text></g><g class="node" transform="translate(4 456.895)"><ellipse fill="#667474" stroke="#fff" cx="1445" cy="-60" rx="29.795" ry="18"/><text text-anchor="middle" x="1445" y="-56.3" font-family="Helvetica,sans-Serif" font-size="14" fill="#fff">jecur</text></g><g class="edge"><path fill="none" stroke="#fff" stroke-dasharray="5,2" d="M878.385 226.817c4.961 2.41 10.357 4.642 15.615 6.078 76.559 20.912 293.08-10.643 355 39 29.789 23.883 6.388 53.898 36 78 44.232 36.001 71.05 10.51 125 29 2.12.727 4.281 1.531 6.443 2.385"/><path fill="#fff" stroke="#fff" d="M1425.808 385.251l-7.45-8.047 2.846 6.095-4.603-1.952h0l4.603 1.952-6.36 2.19 10.964-.238h0z"/><text text-anchor="middle" x="1296.5" y="-129.9" font-family="Courier,monospace" font-size="12" fill="#fff" transform="translate(4 456.895)">lien</text></g><g class="node" transform="translate(4 456.895)"><ellipse fill="#667474" stroke="#fff" cx="1521" cy="-60" rx="28.695" ry="18"/><text text-anchor="middle" x="1521" y="-56.3" font-family="Helvetica,sans-Serif" font-size="14" fill="#fff">ficus</text></g><g class="edge"><path fill="none" stroke="#fff" stroke-dasharray="5,2" d="M878.37 226.873c4.962 2.407 10.362 4.624 15.63 6.022 182.057 48.298 246.962-30.564 422 39 69.838 27.755 143.453 77.23 181.931 104.883"/><path fill="#fff" stroke="#fff" d="M1506.488 382.985l-5.452-9.514 1.405 6.578-4.047-2.936h0l4.047 2.936-6.69.707 10.737 2.23h0z"/><text text-anchor="middle" x="1469.5" y="-129.9" font-family="Courier,monospace" font-size="12" fill="#fff" transform="translate(4 456.895)">link</text></g><g class="node" transform="translate(4 456.895)"><ellipse fill="#667474" stroke="#fff" cx="1078" cy="-60" rx="27" ry="18"/><text text-anchor="middle" x="1078" y="-56.3" font-family="Helvetica,sans-Serif" font-size="14" fill="#fff">oie</text></g><g class="edge"><path fill="none" stroke="#fff" stroke-dasharray="5,2" d="M879.539 226.093c4.724 2.336 9.728 4.719 14.461 6.802 20.472 9.012 27.245 7.508 47 18 14.374 7.634 18.948 9.052 30 21 27.329 29.545 18.898 48.247 46 78 10.338 11.35 23.826 21.64 35.834 29.679"/><path fill="#fff" stroke="#fff" d="M1061.25 385.012l-5.956-9.207 1.757 6.493-4.2-2.713h0l4.2 2.713-6.642 1.066 10.841 1.648h0z"/><text text-anchor="middle" x="1028.5" y="-129.9" font-family="Courier,monospace" font-size="12" fill="#fff" transform="translate(4 456.895)">link</text></g><g class="node" transform="translate(4 456.895)"><ellipse fill="#667474" stroke="#fff" cx="3007" cy="-133" rx="39.794" ry="18"/><text text-anchor="middle" x="3007" y="-129.3" font-family="Helvetica,sans-Serif" font-size="14" fill="#fff">fīcātum</text></g><g class="edge"><path fill="none" stroke="#fff" stroke-dasharray="5,2" d="M878.33 227.03c4.964 2.4 10.374 4.576 15.67 5.865 138.09 33.626 1143.523-24.959 1279 18 9.753 3.093 9.241 9.925 19 13 40.644 12.806 727.716-8.512 767 8 13.28 5.582 24.956 16.346 33.861 26.639"/><path fill="#fff" stroke="#fff" d="M2999.387 306.58l-2.804-10.602-.345 6.718-3.15-3.883h0l3.15 3.883-6.645-1.048 9.794 4.932h0z"/><text text-anchor="middle" x="2214.5" y="-196.4" font-family="Courier,monospace" font-size="12" fill="#fff" transform="translate(4 456.895)">inherit</text></g></g></svg>