<?xml version="1.0" encoding="UTF-8" standalone="no"?>
<!DOCTYPE svg PUBLIC "-//W3C//DTD SVG 1.1//EN"
 "http://www.w3.org/Graphics/SVG/1.1/DTD/svg11.dtd">
<!-- Generated by graphviz version 2.40.1 (20161225.0304)
 -->
<!-- Title: %3 Pages: 1 -->
<svg width="2175pt" height="888pt"
 viewBox="0.00 0.00 2175.00 888.49" xmlns="http://www.w3.org/2000/svg" xmlns:xlink="http://www.w3.org/1999/xlink">
<g id="graph0" class="graph" transform="scale(1 1) rotate(0) translate(4 884.4913)">
<title>%3</title>
<polygon fill="#333333" stroke="transparent" points="-4,4 -4,-884.4913 2171,-884.4913 2171,4 -4,4"/>
<text text-anchor="middle" x="1083.5" y="-9.2" font-family="Times,serif" font-size="16.00" fill="#ffffff">candidate</text>
<g id="clust1" class="cluster">
<title>cluster_unknown_origin</title>
<polygon fill="#333333" stroke="#000000" points="210,-143 210,-872.4913 1697,-872.4913 1697,-143 210,-143"/>
<text text-anchor="middle" x="953.5" y="-855.6913" font-family="Times,serif" font-size="16.00" fill="#ffffff">unknown origin</text>
</g>
<g id="clust2" class="cluster">
<title>cluster_la</title>
<polygon fill="#333333" stroke="#000000" points="1705,-616 1705,-694 1827,-694 1827,-616 1705,-616"/>
<text text-anchor="middle" x="1766" y="-677.2" font-family="Times,serif" font-size="16.00" fill="#ffffff">Latin</text>
</g>
<g id="clust3" class="cluster">
<title>cluster_goh</title>
<polygon fill="#333333" stroke="#000000" points="1705,-434 1705,-512 1935,-512 1935,-434 1705,-434"/>
<text text-anchor="middle" x="1820" y="-495.2" font-family="Times,serif" font-size="16.00" fill="#ffffff">Old High German (ca. 750&#45;1050)</text>
</g>
<g id="clust4" class="cluster">
<title>cluster_ine&#45;pro</title>
<polygon fill="#333333" stroke="#000000" points="8,-216 8,-294 202,-294 202,-216 8,-216"/>
<text text-anchor="middle" x="105" y="-277.2" font-family="Times,serif" font-size="16.00" fill="#ffffff">Proto&#45;Indo&#45;European</text>
</g>
<g id="clust5" class="cluster">
<title>cluster_gem&#45;pro</title>
<polygon fill="#333333" stroke="#000000" points="1943,-434 1943,-512 2062,-512 2062,-434 1943,-434"/>
<text text-anchor="middle" x="2002.5" y="-495.2" font-family="Times,serif" font-size="16.00" fill="#ffffff">Proto&#45;Germanic</text>
</g>
<g id="clust6" class="cluster">
<title>cluster_de</title>
<polygon fill="#333333" stroke="#000000" points="1705,-216 1705,-294 1785,-294 1785,-216 1705,-216"/>
<text text-anchor="middle" x="1745" y="-277.2" font-family="Times,serif" font-size="16.00" fill="#ffffff">German</text>
</g>
<g id="clust7" class="cluster">
<title>cluster_VL.</title>
<polygon fill="#333333" stroke="#000000" points="1793,-216 1793,-294 1897,-294 1897,-216 1793,-216"/>
<text text-anchor="middle" x="1845" y="-277.2" font-family="Times,serif" font-size="16.00" fill="#ffffff">VL.</text>
</g>
<g id="clust8" class="cluster">
<title>cluster_non</title>
<polygon fill="#333333" stroke="#000000" points="1905,-216 1905,-294 1989,-294 1989,-216 1905,-216"/>
<text text-anchor="middle" x="1947" y="-277.2" font-family="Times,serif" font-size="16.00" fill="#ffffff">Old Norse</text>
</g>
<g id="clust9" class="cluster">
<title>cluster_lld</title>
<polygon fill="#333333" stroke="#000000" points="2070,-434 2070,-512 2158,-512 2158,-434 2070,-434"/>
<text text-anchor="middle" x="2114" y="-495.2" font-family="Times,serif" font-size="16.00" fill="#ffffff">Ladin</text>
</g>
<g id="clust10" class="cluster">
<title>cluster_es</title>
<polygon fill="#333333" stroke="#000000" points="2070,-325 2070,-403 2158,-403 2158,-325 2070,-325"/>
<text text-anchor="middle" x="2114" y="-386.2" font-family="Times,serif" font-size="16.00" fill="#ffffff">Spanish</text>
</g>
<g id="clust11" class="cluster">
<title>cluster_frm</title>
<polygon fill="#333333" stroke="#000000" points="1786,-325 1786,-403 2004,-403 2004,-325 1786,-325"/>
<text text-anchor="middle" x="1895" y="-386.2" font-family="Times,serif" font-size="16.00" fill="#ffffff">Middle French (ca. 1400&#45;1600)</text>
</g>
<g id="clust12" class="cluster">
<title>cluster_en</title>
<polygon fill="#333333" stroke="#000000" points="1708,-325 1708,-403 1778,-403 1778,-325 1708,-325"/>
<text text-anchor="middle" x="1743" y="-386.2" font-family="Times,serif" font-size="16.00" fill="#ffffff">English</text>
</g>
<g id="clust13" class="cluster">
<title>cluster_hit</title>
<polygon fill="#333333" stroke="#000000" points="1209,-34 1209,-112 1323,-112 1323,-34 1209,-34"/>
<text text-anchor="middle" x="1266" y="-95.2" font-family="Times,serif" font-size="16.00" fill="#ffffff">Hittite</text>
</g>
<g id="clust14" class="cluster">
<title>cluster_xum</title>
<polygon fill="#333333" stroke="#000000" points="1331,-34 1331,-112 1413,-112 1413,-34 1331,-34"/>
<text text-anchor="middle" x="1372" y="-95.2" font-family="Times,serif" font-size="16.00" fill="#ffffff">Umbrian</text>
</g>
<g id="clust15" class="cluster">
<title>cluster_wlm</title>
<polygon fill="#333333" stroke="#000000" points="1421,-34 1421,-112 1528,-112 1528,-34 1421,-34"/>
<text text-anchor="middle" x="1474.5" y="-95.2" font-family="Times,serif" font-size="16.00" fill="#ffffff">Middle Welsh</text>
</g>
<g id="clust16" class="cluster">
<title>cluster_itc&#45;pro</title>
<polygon fill="#333333" stroke="#000000" points="1997,-216 1997,-294 2083,-294 2083,-216 1997,-216"/>
<text text-anchor="middle" x="2040" y="-277.2" font-family="Times,serif" font-size="16.00" fill="#ffffff">itc&#45;pro</text>
</g>
<!-- candidate -->
<g id="node1" class="node">
<title>candidate</title>
<ellipse fill="#006699" stroke="#ffffff" cx="821" cy="-785.7457" rx="48.9738" ry="48.9738"/>
<ellipse fill="none" stroke="#ffffff" cx="821" cy="-785.7457" rx="52.9925" ry="52.9925"/>
<text text-anchor="middle" x="821" y="-782.0457" font-family="Helvetica,sans-Serif" font-size="14.00" fill="#ffffff">candidate</text>
</g>
<!-- blanc -->
<g id="node2" class="node">
<title>blanc</title>
<ellipse fill="#667474" stroke="#ffffff" cx="1463" cy="-569" rx="31.6951" ry="18"/>
<text text-anchor="middle" x="1463" y="-565.3" font-family="Helvetica,sans-Serif" font-size="14.00" fill="#ffffff">blanc</text>
</g>
<!-- candidate&#45;&gt;blanc -->
<g id="edge1" class="edge">
<title>candidate&#45;&gt;blanc</title>
<path fill="none" stroke="#ffffff" stroke-dasharray="5,2" d="M871.1093,-768.8283C995.5935,-726.8011 1316.7265,-618.3834 1425.9759,-581.4997"/>
<polygon fill="#ffffff" stroke="#ffffff" points="1435.5758,-578.2587 1427.5406,-585.7211 1430.8385,-579.8581 1426.1012,-581.4575 1426.1012,-581.4575 1426.1012,-581.4575 1430.8385,-579.8581 1424.6617,-577.1939 1435.5758,-578.2587 1435.5758,-578.2587"/>
<text text-anchor="middle" x="1334.5" y="-638.9" font-family="Courier,monospace" font-size="12.00" fill="#ffffff">link</text>
</g>
<!-- candide -->
<g id="node3" class="node">
<title>candide</title>
<ellipse fill="#667474" stroke="#ffffff" cx="328" cy="-569" rx="41.6928" ry="18"/>
<text text-anchor="middle" x="328" y="-565.3" font-family="Helvetica,sans-Serif" font-size="14.00" fill="#ffffff">candide</text>
</g>
<!-- candidate&#45;&gt;candide -->
<g id="edge2" class="edge">
<title>candidate&#45;&gt;candide</title>
<path fill="none" stroke="#ffffff" stroke-dasharray="5,2" d="M769.1376,-774.7455C707.636,-760.6347 602.8952,-733.2112 519,-694 457.1785,-665.1057 392.1076,-618.527 356.1293,-591.1272"/>
<polygon fill="#ffffff" stroke="#ffffff" points="348.0538,-584.9262 358.7259,-587.4475 352.0195,-587.9715 355.9852,-591.0167 355.9852,-591.0167 355.9852,-591.0167 352.0195,-587.9715 353.2445,-594.5858 348.0538,-584.9262 348.0538,-584.9262"/>
<text text-anchor="middle" x="534.5" y="-638.9" font-family="Courier,monospace" font-size="12.00" fill="#ffffff">link</text>
</g>
<!-- candidatus -->
<g id="node4" class="node">
<title>candidatus</title>
<ellipse fill="#667474" stroke="#ffffff" cx="478" cy="-569" rx="53.0913" ry="18"/>
<text text-anchor="middle" x="478" y="-565.3" font-family="Helvetica,sans-Serif" font-size="14.00" fill="#ffffff">candidatus</text>
</g>
<!-- candidate&#45;&gt;candidatus -->
<g id="edge3" class="edge">
<title>candidate&#45;&gt;candidatus</title>
<path fill="none" stroke="#ffffff" stroke-dasharray="5,2" d="M776.1587,-757.41C706.5813,-713.4432 574.1626,-629.7663 511.923,-590.4363"/>
<polygon fill="#ffffff" stroke="#ffffff" points="503.2651,-584.9653 514.1226,-586.5032 507.4919,-587.6363 511.7187,-590.3073 511.7187,-590.3073 511.7187,-590.3073 507.4919,-587.6363 509.3148,-594.1114 503.2651,-584.9653 503.2651,-584.9653"/>
<text text-anchor="middle" x="690.5" y="-638.9" font-family="Courier,monospace" font-size="12.00" fill="#ffffff">etyl</text>
</g>
<!-- candidare -->
<g id="node13" class="node">
<title>candidare</title>
<ellipse fill="#667474" stroke="#ffffff" cx="731" cy="-569" rx="49.2915" ry="18"/>
<text text-anchor="middle" x="731" y="-565.3" font-family="Helvetica,sans-Serif" font-size="14.00" fill="#ffffff">candidare</text>
</g>
<!-- candidate&#45;&gt;candidare -->
<g id="edge27" class="edge">
<title>candidate&#45;&gt;candidare</title>
<path fill="none" stroke="#ffffff" stroke-dasharray="5,2" d="M800.69,-736.8335C782.7118,-693.5368 757.1185,-631.9009 742.4722,-596.6283"/>
<polygon fill="#ffffff" stroke="#ffffff" points="738.4727,-586.9964 746.4636,-594.5061 740.3902,-591.6141 742.3076,-596.2319 742.3076,-596.2319 742.3076,-596.2319 740.3902,-591.6141 738.1517,-597.9576 738.4727,-586.9964 738.4727,-586.9964"/>
<text text-anchor="middle" x="808.5" y="-638.9" font-family="Courier,monospace" font-size="12.00" fill="#ffffff">mention</text>
</g>
<!-- candidus -->
<g id="node15" class="node">
<title>candidus</title>
<ellipse fill="#667474" stroke="#ffffff" cx="911" cy="-569" rx="46.2923" ry="18"/>
<text text-anchor="middle" x="911" y="-565.3" font-family="Helvetica,sans-Serif" font-size="14.00" fill="#ffffff">candidus</text>
</g>
<!-- candidate&#45;&gt;candidus -->
<g id="edge28" class="edge">
<title>candidate&#45;&gt;candidus</title>
<path fill="none" stroke="#ffffff" stroke-dasharray="5,2" d="M841.31,-736.8335C859.2882,-693.5368 884.8815,-631.9009 899.5278,-596.6283"/>
<polygon fill="#ffffff" stroke="#ffffff" points="903.5273,-586.9964 903.8483,-597.9576 901.6098,-591.6141 899.6924,-596.2319 899.6924,-596.2319 899.6924,-596.2319 901.6098,-591.6141 895.5364,-594.5061 903.5273,-586.9964 903.5273,-586.9964"/>
<text text-anchor="middle" x="916.5" y="-638.9" font-family="Courier,monospace" font-size="12.00" fill="#ffffff">mention</text>
</g>
<!-- candidÄtus -->
<g id="node29" class="node">
<title>candidÄtus</title>
<ellipse fill="#667474" stroke="#ffffff" cx="1766" cy="-642" rx="53.0913" ry="18"/>
<text text-anchor="middle" x="1766" y="-638.3" font-family="Helvetica,sans-Serif" font-size="14.00" fill="#ffffff">candidÄtus</text>
</g>
<!-- candidate&#45;&gt;candidÄtus -->
<g id="edge26" class="edge">
<title>candidate&#45;&gt;candidÄtus</title>
<path fill="none" stroke="#ffffff" stroke-dasharray="5,2" d="M873.7475,-784.1254C1039.7587,-778.4242 1549.4735,-756.1637 1701,-694 1716.3171,-687.7162 1730.9423,-676.6427 1742.4274,-666.3249"/>
<polygon fill="#ffffff" stroke="#ffffff" points="1749.8469,-659.3706 1745.6282,-669.4925 1746.1988,-662.7899 1742.5508,-666.2093 1742.5508,-666.2093 1742.5508,-666.2093 1746.1988,-662.7899 1739.4734,-662.926 1749.8469,-659.3706 1749.8469,-659.3706"/>
<text text-anchor="middle" x="1702.5" y="-705.4" font-family="Courier,monospace" font-size="12.00" fill="#ffffff">mention</text>
</g>
<!-- bianco -->
<g id="node5" class="node">
<title>bianco</title>
<ellipse fill="#667474" stroke="#ffffff" cx="1559" cy="-351" rx="36.2938" ry="18"/>
<text text-anchor="middle" x="1559" y="-347.3" font-family="Helvetica,sans-Serif" font-size="14.00" fill="#ffffff">bianco</text>
</g>
<!-- blanc&#45;&gt;bianco -->
<g id="edge4" class="edge">
<title>blanc&#45;&gt;bianco</title>
<path fill="none" stroke="#ffffff" stroke-dasharray="5,2" d="M1480.0101,-553.5293C1490.8542,-542.8224 1504.4299,-527.7179 1513,-512 1536.4817,-468.9337 1548.9933,-412.6926 1554.7945,-379.3552"/>
<polygon fill="#ffffff" stroke="#ffffff" points="1556.4476,-369.3818 1559.2517,-379.9831 1555.63,-374.3145 1554.8123,-379.2472 1554.8123,-379.2472 1554.8123,-379.2472 1555.63,-374.3145 1550.3729,-378.5114 1556.4476,-369.3818 1556.4476,-369.3818"/>
<text text-anchor="middle" x="1557.5" y="-456.9" font-family="Courier,monospace" font-size="12.00" fill="#ffffff">lien</text>
</g>
<!-- [[blank]] -->
<g id="node6" class="node">
<title>[[blank]]</title>
<ellipse fill="#667474" stroke="#ffffff" cx="1463" cy="-351" rx="41.6928" ry="18"/>
<text text-anchor="middle" x="1463" y="-347.3" font-family="Helvetica,sans-Serif" font-size="14.00" fill="#ffffff">[[blank]]</text>
</g>
<!-- blanc&#45;&gt;[[blank]] -->
<g id="edge5" class="edge">
<title>blanc&#45;&gt;[[blank]]</title>
<path fill="none" stroke="#ffffff" stroke-dasharray="5,2" d="M1463,-550.7884C1463,-512.704 1463,-424.4255 1463,-379.0455"/>
<polygon fill="#ffffff" stroke="#ffffff" points="1463,-369.0064 1467.5001,-379.0064 1463,-374.0064 1463.0001,-379.0064 1463.0001,-379.0064 1463.0001,-379.0064 1463,-374.0064 1458.5001,-379.0065 1463,-369.0064 1463,-369.0064"/>
<text text-anchor="middle" x="1486" y="-456.9" font-family="Courier,monospace" font-size="12.00" fill="#ffffff">recons</text>
</g>
<!-- albus -->
<g id="node7" class="node">
<title>albus</title>
<ellipse fill="#667474" stroke="#ffffff" cx="1372" cy="-351" rx="31.6951" ry="18"/>
<text text-anchor="middle" x="1372" y="-347.3" font-family="Helvetica,sans-Serif" font-size="14.00" fill="#ffffff">albus</text>
</g>
<!-- blanc&#45;&gt;albus -->
<g id="edge6" class="edge">
<title>blanc&#45;&gt;albus</title>
<path fill="none" stroke="#ffffff" stroke-dasharray="5,2" d="M1451.2714,-552.0824C1443.9431,-541.0188 1434.666,-526.0606 1428,-512 1406.608,-466.8778 1389.0867,-411.2911 1379.6275,-378.6386"/>
<polygon fill="#ffffff" stroke="#ffffff" points="1376.8449,-368.8853 1383.9158,-377.267 1378.2167,-373.6934 1379.5885,-378.5016 1379.5885,-378.5016 1379.5885,-378.5016 1378.2167,-373.6934 1375.2612,-379.7362 1376.8449,-368.8853 1376.8449,-368.8853"/>
<text text-anchor="middle" x="1443.5" y="-456.9" font-family="Courier,monospace" font-size="12.00" fill="#ffffff">link</text>
</g>
<!-- branco -->
<g id="node8" class="node">
<title>branco</title>
<ellipse fill="#667474" stroke="#ffffff" cx="1651" cy="-351" rx="37.8943" ry="18"/>
<text text-anchor="middle" x="1651" y="-347.3" font-family="Helvetica,sans-Serif" font-size="14.00" fill="#ffffff">branco</text>
</g>
<!-- blanc&#45;&gt;branco -->
<g id="edge7" class="edge">
<title>blanc&#45;&gt;branco</title>
<path fill="none" stroke="#ffffff" stroke-dasharray="5,2" d="M1491.5857,-560.7268C1516.8622,-552.1409 1553.3027,-536.488 1577,-512 1613.9322,-473.8355 1634.706,-413.9252 1644.3189,-378.9555"/>
<polygon fill="#ffffff" stroke="#ffffff" points="1646.9495,-368.9552 1648.7574,-379.771 1645.6775,-373.7907 1644.4055,-378.6262 1644.4055,-378.6262 1644.4055,-378.6262 1645.6775,-373.7907 1640.0535,-377.4814 1646.9495,-368.9552 1646.9495,-368.9552"/>
<text text-anchor="middle" x="1639.5" y="-456.9" font-family="Courier,monospace" font-size="12.00" fill="#ffffff">lien</text>
</g>
<!-- clair -->
<g id="node9" class="node">
<title>clair</title>
<ellipse fill="#667474" stroke="#ffffff" cx="1195" cy="-351" rx="27" ry="18"/>
<text text-anchor="middle" x="1195" y="-347.3" font-family="Helvetica,sans-Serif" font-size="14.00" fill="#ffffff">clair</text>
</g>
<!-- blanc&#45;&gt;clair -->
<g id="edge8" class="edge">
<title>blanc&#45;&gt;clair</title>
<path fill="none" stroke="#ffffff" stroke-dasharray="5,2" d="M1432.6246,-563.401C1384.0569,-553.9286 1291.8501,-533.6479 1267,-512 1226.6549,-476.8537 1207.8407,-414.6698 1199.9622,-378.7379"/>
<polygon fill="#ffffff" stroke="#ffffff" points="1197.9386,-368.9158 1204.364,-377.802 1198.9476,-373.813 1199.9566,-378.7101 1199.9566,-378.7101 1199.9566,-378.7101 1198.9476,-373.813 1195.5491,-379.6182 1197.9386,-368.9158 1197.9386,-368.9158"/>
<text text-anchor="middle" x="1282.5" y="-456.9" font-family="Courier,monospace" font-size="12.00" fill="#ffffff">link</text>
</g>
<!-- blancus -->
<g id="node10" class="node">
<title>blancus</title>
<ellipse fill="#667474" stroke="#ffffff" cx="1281" cy="-351" rx="40.8928" ry="18"/>
<text text-anchor="middle" x="1281" y="-347.3" font-family="Helvetica,sans-Serif" font-size="14.00" fill="#ffffff">blancus</text>
</g>
<!-- blanc&#45;&gt;blancus -->
<g id="edge9" class="edge">
<title>blanc&#45;&gt;blancus</title>
<path fill="none" stroke="#ffffff" stroke-dasharray="5,2" d="M1434.1685,-561.25C1408.2627,-552.9469 1370.7471,-537.4114 1347,-512 1311.3913,-473.8958 1293.7942,-413.9645 1286.1098,-378.9746"/>
<polygon fill="#ffffff" stroke="#ffffff" points="1284.0342,-368.9683 1290.4715,-377.8459 1285.0498,-373.864 1286.0653,-378.7598 1286.0653,-378.7598 1286.0653,-378.7598 1285.0498,-373.864 1281.6591,-379.6738 1284.0342,-368.9683 1284.0342,-368.9683"/>
<text text-anchor="middle" x="1370" y="-456.9" font-family="Courier,monospace" font-size="12.00" fill="#ffffff">recons</text>
</g>
<!-- planch -->
<g id="node30" class="node">
<title>planch</title>
<ellipse fill="#667474" stroke="#ffffff" cx="1749" cy="-460" rx="36.2938" ry="18"/>
<text text-anchor="middle" x="1749" y="-456.3" font-family="Helvetica,sans-Serif" font-size="14.00" fill="#ffffff">planch</text>
</g>
<!-- blanc&#45;&gt;planch -->
<g id="edge29" class="edge">
<title>blanc&#45;&gt;planch</title>
<path fill="none" stroke="#ffffff" stroke-dasharray="5,2" d="M1493.784,-564.2751C1550.0489,-555.2128 1666.8478,-534.3006 1701,-512 1712.0908,-504.758 1722.3533,-494.393 1730.5181,-484.82"/>
<polygon fill="#ffffff" stroke="#ffffff" points="1736.8553,-477.0509 1734.0215,-487.6443 1733.6949,-480.9254 1730.5344,-484.7999 1730.5344,-484.7999 1730.5344,-484.7999 1733.6949,-480.9254 1727.0474,-481.9555 1736.8553,-477.0509 1736.8553,-477.0509"/>
<text text-anchor="middle" x="1709.5" y="-523.4" font-family="Courier,monospace" font-size="12.00" fill="#ffffff">mention</text>
</g>
<!-- *bÊ°leyÇµ&#45; -->
<g id="node31" class="node">
<title>*bÊ°leyÇµ&#45;</title>
<ellipse fill="#667474" stroke="#ffffff" cx="58" cy="-242" rx="41.6928" ry="18"/>
<text text-anchor="middle" x="58" y="-238.3" font-family="Helvetica,sans-Serif" font-size="14.00" fill="#ffffff">*bÊ°leyÇµ&#45;</text>
</g>
<!-- blanc&#45;&gt;*bÊ°leyÇµ&#45; -->
<g id="edge30" class="edge">
<title>blanc&#45;&gt;*bÊ°leyÇµ&#45;</title>
<path fill="none" stroke="#ffffff" stroke-dasharray="5,2" d="M1431.0574,-567.8547C1243.2063,-561.0737 289.6185,-526.0081 263,-512 160.0657,-457.8304 93.8845,-326.3808 69.0574,-269.2574"/>
<polygon fill="#ffffff" stroke="#ffffff" points="65.0336,-259.8048 73.0908,-267.2434 66.992,-264.4053 68.9503,-269.0059 68.9503,-269.0059 68.9503,-269.0059 66.992,-264.4053 64.8098,-270.7684 65.0336,-259.8048 65.0336,-259.8048"/>
<text text-anchor="middle" x="186.5" y="-414.4" font-family="Courier,monospace" font-size="12.00" fill="#ffffff">derived</text>
</g>
<!-- *blankaz -->
<g id="node33" class="node">
<title>*blankaz</title>
<ellipse fill="#667474" stroke="#ffffff" cx="1995" cy="-460" rx="44.393" ry="18"/>
<text text-anchor="middle" x="1995" y="-456.3" font-family="Helvetica,sans-Serif" font-size="14.00" fill="#ffffff">*blankaz</text>
</g>
<!-- blanc&#45;&gt;*blankaz -->
<g id="edge32" class="edge">
<title>blanc&#45;&gt;*blankaz</title>
<path fill="none" stroke="#ffffff" stroke-dasharray="5,2" d="M1494.899,-567.742C1588.2688,-563.6617 1859.4198,-548.8618 1939,-512 1952.5265,-505.7345 1964.9669,-494.9518 1974.669,-484.8241"/>
<polygon fill="#ffffff" stroke="#ffffff" points="1981.5271,-477.2927 1978.1215,-487.7164 1978.1607,-480.9897 1974.7942,-484.6866 1974.7942,-484.6866 1974.7942,-484.6866 1978.1607,-480.9897 1971.467,-481.6568 1981.5271,-477.2927 1981.5271,-477.2927"/>
<text text-anchor="middle" x="1936.5" y="-523.4" font-family="Courier,monospace" font-size="12.00" fill="#ffffff">inherit</text>
</g>
<!-- blanch -->
<g id="node37" class="node">
<title>blanch</title>
<ellipse fill="#667474" stroke="#ffffff" cx="2114" cy="-460" rx="36.2938" ry="18"/>
<text text-anchor="middle" x="2114" y="-456.3" font-family="Helvetica,sans-Serif" font-size="14.00" fill="#ffffff">blanch</text>
</g>
<!-- blanc&#45;&gt;blanch -->
<g id="edge36" class="edge">
<title>blanc&#45;&gt;blanch</title>
<path fill="none" stroke="#ffffff" stroke-dasharray="5,2" d="M1495.0032,-568.242C1574.9677,-566.0171 1789.8002,-558.0012 1967,-533 2011.5379,-526.7161 2026.9039,-534.2398 2066,-512 2077.6802,-505.3557 2088.1417,-494.8969 2096.2937,-485.0958"/>
<polygon fill="#ffffff" stroke="#ffffff" points="2102.5742,-477.1159 2099.9257,-487.7571 2099.4819,-481.0449 2096.3895,-484.974 2096.3895,-484.974 2096.3895,-484.974 2099.4819,-481.0449 2092.8534,-482.1909 2102.5742,-477.1159 2102.5742,-477.1159"/>
<text text-anchor="middle" x="2074.5" y="-523.4" font-family="Courier,monospace" font-size="12.00" fill="#ffffff">mention</text>
</g>
<!-- candid -->
<g id="node11" class="node">
<title>candid</title>
<ellipse fill="#667474" stroke="#ffffff" cx="254" cy="-351" rx="36.2938" ry="18"/>
<text text-anchor="middle" x="254" y="-347.3" font-family="Helvetica,sans-Serif" font-size="14.00" fill="#ffffff">candid</text>
</g>
<!-- candide&#45;&gt;candid -->
<g id="edge10" class="edge">
<title>candide&#45;&gt;candid</title>
<path fill="none" stroke="#ffffff" stroke-dasharray="5,2" d="M313.8243,-552.0655C305.4393,-541.2345 295.2662,-526.5342 289,-512 269.9737,-467.8694 260.846,-412.3195 256.819,-379.3461"/>
<polygon fill="#ffffff" stroke="#ffffff" points="255.6419,-369.0785 261.2517,-378.5008 256.2114,-374.0459 256.7809,-379.0134 256.7809,-379.0134 256.7809,-379.0134 256.2114,-374.0459 252.3102,-379.5259 255.6419,-369.0785 255.6419,-369.0785"/>
<text text-anchor="middle" x="304.5" y="-456.9" font-family="Courier,monospace" font-size="12.00" fill="#ffffff">lien</text>
</g>
<!-- candidus + &#45;Ätus -->
<g id="node19" class="node">
<title>candidus + &#45;Ätus</title>
<ellipse fill="#667474" stroke="#ffffff" cx="536" cy="-351" rx="75.2868" ry="18"/>
<text text-anchor="middle" x="536" y="-347.3" font-family="Helvetica,sans-Serif" font-size="14.00" fill="#ffffff">candidus + &#45;Ätus</text>
</g>
<!-- candidatus&#45;&gt;candidus + &#45;Ätus -->
<g id="edge16" class="edge">
<title>candidatus&#45;&gt;candidus + &#45;Ätus</title>
<path fill="none" stroke="#ffffff" stroke-dasharray="5,2" d="M482.8453,-550.7884C492.9992,-512.6237 516.5639,-424.0528 528.6146,-378.7589"/>
<polygon fill="#ffffff" stroke="#ffffff" points="531.2093,-369.0064 532.9868,-379.8273 529.9237,-373.8384 528.6381,-378.6703 528.6381,-378.6703 528.6381,-378.6703 529.9237,-373.8384 524.2894,-377.5132 531.2093,-369.0064 531.2093,-369.0064"/>
<text text-anchor="middle" x="536" y="-456.9" font-family="Courier,monospace" font-size="12.00" fill="#ffffff">suffix</text>
</g>
<!-- Ätus -->
<g id="node20" class="node">
<title>Ätus</title>
<ellipse fill="#667474" stroke="#ffffff" cx="336" cy="-351" rx="27.0966" ry="18"/>
<text text-anchor="middle" x="336" y="-347.3" font-family="Helvetica,sans-Serif" font-size="14.00" fill="#ffffff">Ätus</text>
</g>
<!-- candidatus&#45;&gt;Ätus -->
<g id="edge17" class="edge">
<title>candidatus&#45;&gt;Ätus</title>
<path fill="none" stroke="#ffffff" stroke-dasharray="5,2" d="M440.6569,-556.1524C419.3439,-546.9953 393.8034,-532.6186 378,-512 347.9517,-472.7962 339.3063,-414.134 336.8779,-379.4986"/>
<polygon fill="#ffffff" stroke="#ffffff" points="336.2887,-369.1527 341.3501,-378.8806 336.5731,-374.1446 336.8574,-379.1365 336.8574,-379.1365 336.8574,-379.1365 336.5731,-374.1446 332.3647,-379.3924 336.2887,-369.1527 336.2887,-369.1527"/>
<text text-anchor="middle" x="404.5" y="-456.9" font-family="Courier,monospace" font-size="12.00" fill="#ffffff">&#45;suffix</text>
</g>
<!-- &#45;atus -->
<g id="node21" class="node">
<title>&#45;atus</title>
<ellipse fill="#667474" stroke="#ffffff" cx="412" cy="-351" rx="30.5947" ry="18"/>
<text text-anchor="middle" x="412" y="-347.3" font-family="Helvetica,sans-Serif" font-size="14.00" fill="#ffffff">&#45;atus</text>
</g>
<!-- candidatus&#45;&gt;&#45;atus -->
<g id="edge18" class="edge">
<title>candidatus&#45;&gt;&#45;atus</title>
<path fill="none" stroke="#ffffff" stroke-dasharray="5,2" d="M471.4213,-551.121C467.3813,-539.9346 462.195,-525.1923 458,-512 443.2789,-465.7057 428.1758,-411.2469 419.4622,-379.0091"/>
<polygon fill="#ffffff" stroke="#ffffff" points="416.7618,-368.972 423.7054,-377.4596 418.0609,-373.8004 419.3599,-378.6287 419.3599,-378.6287 419.3599,-378.6287 418.0609,-373.8004 415.0144,-379.7978 416.7618,-368.972 416.7618,-368.972"/>
<text text-anchor="middle" x="473.5" y="-456.9" font-family="Courier,monospace" font-size="12.00" fill="#ffffff">link</text>
</g>
<!-- *bhleg&#45; -->
<g id="node32" class="node">
<title>*bhleg&#45;</title>
<ellipse fill="#667474" stroke="#ffffff" cx="156" cy="-242" rx="38.1938" ry="18"/>
<text text-anchor="middle" x="156" y="-238.3" font-family="Helvetica,sans-Serif" font-size="14.00" fill="#ffffff">*bhleg&#45;</text>
</g>
<!-- bianco&#45;&gt;*bhleg&#45; -->
<g id="edge31" class="edge">
<title>bianco&#45;&gt;*bhleg&#45;</title>
<path fill="none" stroke="#ffffff" stroke-dasharray="5,2" d="M1538.0108,-335.9713C1530.7521,-331.5839 1522.3392,-327.3422 1514,-325 1374.0413,-285.691 339.0723,-352.5269 206,-294 193.1546,-288.3504 181.9753,-277.6849 173.4644,-267.4764"/>
<polygon fill="#ffffff" stroke="#ffffff" points="167.2301,-259.4919 176.9313,-264.6044 170.3073,-263.4329 173.3844,-267.3739 173.3844,-267.3739 173.3844,-267.3739 170.3073,-263.4329 169.8376,-270.1433 167.2301,-259.4919 167.2301,-259.4919"/>
<text text-anchor="middle" x="1433.5" y="-305.4" font-family="Courier,monospace" font-size="12.00" fill="#ffffff">derived</text>
</g>
<!-- blank -->
<g id="node34" class="node">
<title>blank</title>
<ellipse fill="#667474" stroke="#ffffff" cx="1745" cy="-242" rx="31.6951" ry="18"/>
<text text-anchor="middle" x="1745" y="-238.3" font-family="Helvetica,sans-Serif" font-size="14.00" fill="#ffffff">blank</text>
</g>
<!-- bianco&#45;&gt;blank -->
<g id="edge33" class="edge">
<title>bianco&#45;&gt;blank</title>
<path fill="none" stroke="#ffffff" stroke-dasharray="5,2" d="M1581.875,-336.5643C1588.8252,-332.5144 1596.5876,-328.3163 1604,-325 1633.8921,-311.6263 1642.742,-311.7637 1674,-302 1685.9464,-298.2684 1690.5194,-300.8411 1701,-294 1711.5699,-287.1006 1720.9745,-276.9151 1728.3482,-267.383"/>
<polygon fill="#ffffff" stroke="#ffffff" points="1734.2835,-259.2735 1732.0087,-270.0009 1731.3305,-263.3083 1728.3774,-267.3431 1728.3774,-267.3431 1728.3774,-267.3431 1731.3305,-263.3083 1724.7461,-264.6854 1734.2835,-259.2735 1734.2835,-259.2735"/>
<text text-anchor="middle" x="1700.5" y="-305.4" font-family="Courier,monospace" font-size="12.00" fill="#ffffff">cognate</text>
</g>
<!-- *blancus -->
<g id="node35" class="node">
<title>*blancus</title>
<ellipse fill="#667474" stroke="#ffffff" cx="1845" cy="-242" rx="44.393" ry="18"/>
<text text-anchor="middle" x="1845" y="-238.3" font-family="Helvetica,sans-Serif" font-size="14.00" fill="#ffffff">*blancus</text>
</g>
<!-- bianco&#45;&gt;*blancus -->
<g id="edge34" class="edge">
<title>bianco&#45;&gt;*blancus</title>
<path fill="none" stroke="#ffffff" stroke-dasharray="5,2" d="M1580.0721,-336.2507C1587.3362,-331.882 1595.7315,-327.5806 1604,-325 1683.5827,-300.1622 1717.3862,-336.6824 1789,-294 1801.4099,-286.6036 1813.3945,-276.0912 1823.0702,-266.4518"/>
<polygon fill="#ffffff" stroke="#ffffff" points="1830.2991,-258.9846 1826.5768,-269.2995 1826.8213,-262.5771 1823.3436,-266.1695 1823.3436,-266.1695 1823.3436,-266.1695 1826.8213,-262.5771 1820.1104,-263.0395 1830.2991,-258.9846 1830.2991,-258.9846"/>
<text text-anchor="middle" x="1798.5" y="-305.4" font-family="Courier,monospace" font-size="12.00" fill="#ffffff">inherit</text>
</g>
<!-- blankr -->
<g id="node36" class="node">
<title>blankr</title>
<ellipse fill="#667474" stroke="#ffffff" cx="1947" cy="-242" rx="34.394" ry="18"/>
<text text-anchor="middle" x="1947" y="-238.3" font-family="Helvetica,sans-Serif" font-size="14.00" fill="#ffffff">blankr</text>
</g>
<!-- bianco&#45;&gt;blankr -->
<g id="edge35" class="edge">
<title>bianco&#45;&gt;blankr</title>
<path fill="none" stroke="#ffffff" stroke-dasharray="5,2" d="M1580.0013,-336.0141C1587.2608,-331.6296 1595.6712,-327.3787 1604,-325 1636.9239,-315.5972 1883.3235,-333.7097 1912,-315 1927.3531,-304.983 1936.147,-286.2237 1941.0801,-270.2306"/>
<polygon fill="#ffffff" stroke="#ffffff" points="1943.7944,-260.24 1945.5151,-271.07 1942.4834,-265.0651 1941.1725,-269.8902 1941.1725,-269.8902 1941.1725,-269.8902 1942.4834,-265.0651 1936.8299,-268.7103 1943.7944,-260.24 1943.7944,-260.24"/>
<text text-anchor="middle" x="1950.5" y="-305.4" font-family="Courier,monospace" font-size="12.00" fill="#ffffff">cognate</text>
</g>
<!-- elf -->
<g id="node22" class="node">
<title>elf</title>
<ellipse fill="#667474" stroke="#ffffff" cx="1215" cy="-169" rx="27" ry="18"/>
<text text-anchor="middle" x="1215" y="-165.3" font-family="Helvetica,sans-Serif" font-size="14.00" fill="#ffffff">elf</text>
</g>
<!-- albus&#45;&gt;elf -->
<g id="edge19" class="edge">
<title>albus&#45;&gt;elf</title>
<path fill="none" stroke="#ffffff" stroke-dasharray="5,2" d="M1350.9847,-337.0624C1344.6475,-333.0265 1337.6159,-328.7112 1331,-325 1303.7835,-309.7328 1289.4368,-316.678 1268,-294 1242.0121,-266.5074 1227.7781,-224.3558 1220.7746,-196.7316"/>
<polygon fill="#ffffff" stroke="#ffffff" points="1218.4351,-186.9166 1225.1312,-195.6006 1219.5945,-191.7803 1220.7538,-196.6441 1220.7538,-196.6441 1220.7538,-196.6441 1219.5945,-191.7803 1216.3765,-197.6875 1218.4351,-186.9166 1218.4351,-186.9166"/>
<text text-anchor="middle" x="1283.5" y="-238.9" font-family="Courier,monospace" font-size="12.00" fill="#ffffff">link</text>
</g>
<!-- elfe -->
<g id="node23" class="node">
<title>elfe</title>
<ellipse fill="#667474" stroke="#ffffff" cx="1287" cy="-169" rx="27" ry="18"/>
<text text-anchor="middle" x="1287" y="-165.3" font-family="Helvetica,sans-Serif" font-size="14.00" fill="#ffffff">elfe</text>
</g>
<!-- albus&#45;&gt;elfe -->
<g id="edge20" class="edge">
<title>albus&#45;&gt;elfe</title>
<path fill="none" stroke="#ffffff" stroke-dasharray="5,2" d="M1360.4894,-333.976C1353.2481,-322.8699 1343.986,-307.9044 1337,-294 1320.6033,-261.3653 1305.5948,-221.9991 1296.3887,-196.2775"/>
<polygon fill="#ffffff" stroke="#ffffff" points="1293.0396,-186.8034 1300.6152,-194.7318 1294.706,-191.5175 1296.3725,-196.2316 1296.3725,-196.2316 1296.3725,-196.2316 1294.706,-191.5175 1292.1298,-197.7315 1293.0396,-186.8034 1293.0396,-186.8034"/>
<text text-anchor="middle" x="1352.5" y="-238.9" font-family="Courier,monospace" font-size="12.00" fill="#ffffff">link</text>
</g>
<!-- á¼€Î»Ï†ÏŒÏ‚ -->
<g id="node24" class="node">
<title>á¼€Î»Ï†ÏŒÏ‚</title>
<ellipse fill="#667474" stroke="#ffffff" cx="1372" cy="-169" rx="40.0939" ry="18"/>
<text text-anchor="middle" x="1372" y="-165.3" font-family="Helvetica,sans-Serif" font-size="14.00" fill="#ffffff">á¼€Î»Ï†ÏŒÏ‚</text>
</g>
<!-- albus&#45;&gt;á¼€Î»Ï†ÏŒÏ‚ -->
<g id="edge21" class="edge">
<title>albus&#45;&gt;á¼€Î»Ï†ÏŒÏ‚</title>
<path fill="none" stroke="#ffffff" stroke-dasharray="5,2" d="M1372,-332.8838C1372,-301.1323 1372,-235.2171 1372,-197.3704"/>
<polygon fill="#ffffff" stroke="#ffffff" points="1372,-187.043 1376.5001,-197.0429 1372,-192.043 1372.0001,-197.043 1372.0001,-197.043 1372.0001,-197.043 1372,-192.043 1367.5001,-197.043 1372,-187.043 1372,-187.043"/>
<text text-anchor="middle" x="1387.5" y="-238.9" font-family="Courier,monospace" font-size="12.00" fill="#ffffff">link</text>
</g>
<!-- Alpes -->
<g id="node25" class="node">
<title>Alpes</title>
<ellipse fill="#667474" stroke="#ffffff" cx="1463" cy="-169" rx="32.4942" ry="18"/>
<text text-anchor="middle" x="1463" y="-165.3" font-family="Helvetica,sans-Serif" font-size="14.00" fill="#ffffff">Alpes</text>
</g>
<!-- albus&#45;&gt;Alpes -->
<g id="edge22" class="edge">
<title>albus&#45;&gt;Alpes</title>
<path fill="none" stroke="#ffffff" stroke-dasharray="5,2" d="M1383.1589,-334.1261C1390.3456,-322.9552 1399.6784,-307.8621 1407,-294 1424.3538,-261.1438 1441.3864,-221.8265 1452.0245,-196.1767"/>
<polygon fill="#ffffff" stroke="#ffffff" points="1455.9087,-186.7317 1456.2671,-197.6917 1454.007,-191.356 1452.1052,-195.9802 1452.1052,-195.9802 1452.1052,-195.9802 1454.007,-191.356 1447.9434,-194.2687 1455.9087,-186.7317 1455.9087,-186.7317"/>
<text text-anchor="middle" x="1458.5" y="-238.9" font-family="Courier,monospace" font-size="12.00" fill="#ffffff">link</text>
</g>
<!-- alpus -->
<g id="node26" class="node">
<title>alpus</title>
<ellipse fill="#667474" stroke="#ffffff" cx="1545" cy="-169" rx="31.6951" ry="18"/>
<text text-anchor="middle" x="1545" y="-165.3" font-family="Helvetica,sans-Serif" font-size="14.00" fill="#ffffff">alpus</text>
</g>
<!-- albus&#45;&gt;alpus -->
<g id="edge23" class="edge">
<title>albus&#45;&gt;alpus</title>
<path fill="none" stroke="#ffffff" stroke-dasharray="5,2" d="M1392.4279,-336.9528C1398.6085,-332.9138 1405.4861,-328.6243 1412,-325 1440.3194,-309.2431 1454.4859,-316.3016 1478,-294 1506.799,-266.686 1525.8955,-224.2061 1536.0894,-196.4907"/>
<polygon fill="#ffffff" stroke="#ffffff" points="1539.4437,-187.0032 1540.353,-197.9314 1537.777,-191.7173 1536.1103,-196.4313 1536.1103,-196.4313 1536.1103,-196.4313 1537.777,-191.7173 1531.8677,-194.9313 1539.4437,-187.0032 1539.4437,-187.0032"/>
<text text-anchor="middle" x="1542.5" y="-238.9" font-family="Courier,monospace" font-size="12.00" fill="#ffffff">link</text>
</g>
<!-- albho -->
<g id="node27" class="node">
<title>albho</title>
<ellipse fill="#667474" stroke="#ffffff" cx="1627" cy="-169" rx="32.4942" ry="18"/>
<text text-anchor="middle" x="1627" y="-165.3" font-family="Helvetica,sans-Serif" font-size="14.00" fill="#ffffff">albho</text>
</g>
<!-- albus&#45;&gt;albho -->
<g id="edge24" class="edge">
<title>albus&#45;&gt;albho</title>
<path fill="none" stroke="#ffffff" stroke-dasharray="5,2" d="M1391.1307,-336.4989C1397.4935,-332.2525 1404.7993,-327.9606 1412,-325 1443.4807,-312.0565 1534.8525,-314.5324 1562,-294 1593.7961,-269.9518 1611.4524,-225.8579 1620.0853,-196.9904"/>
<polygon fill="#ffffff" stroke="#ffffff" points="1622.867,-187.1092 1624.4887,-197.9545 1621.5121,-191.9221 1620.1571,-196.735 1620.1571,-196.735 1620.1571,-196.735 1621.5121,-191.9221 1615.8255,-195.5155 1622.867,-187.1092 1622.867,-187.1092"/>
<text text-anchor="middle" x="1628.5" y="-238.9" font-family="Courier,monospace" font-size="12.00" fill="#ffffff">link</text>
</g>
<!-- alphos -->
<g id="node28" class="node">
<title>alphos</title>
<ellipse fill="#667474" stroke="#ffffff" cx="1134" cy="-169" rx="36.2938" ry="18"/>
<text text-anchor="middle" x="1134" y="-165.3" font-family="Helvetica,sans-Serif" font-size="14.00" fill="#ffffff">alphos</text>
</g>
<!-- albus&#45;&gt;alphos -->
<g id="edge25" class="edge">
<title>albus&#45;&gt;alphos</title>
<path fill="none" stroke="#ffffff" stroke-dasharray="5,2" d="M1352.8251,-336.6247C1346.2082,-332.2809 1338.554,-327.8998 1331,-325 1271.5036,-302.1612 1239.8119,-334.9736 1191,-294 1161.3884,-269.1435 1146.4235,-225.6498 1139.4291,-197.0856"/>
<polygon fill="#ffffff" stroke="#ffffff" points="1137.2005,-187.2996 1143.8087,-196.0507 1138.3108,-192.1748 1139.4211,-197.05 1139.4211,-197.05 1139.4211,-197.05 1138.3108,-192.1748 1135.0334,-198.0492 1137.2005,-187.2996 1137.2005,-187.2996"/>
<text text-anchor="middle" x="1206.5" y="-238.9" font-family="Courier,monospace" font-size="12.00" fill="#ffffff">link</text>
</g>
<!-- *alÎ²os -->
<g id="node44" class="node">
<title>*alÎ²os</title>
<ellipse fill="#667474" stroke="#ffffff" cx="2040" cy="-242" rx="35.194" ry="18"/>
<text text-anchor="middle" x="2040" y="-238.3" font-family="Helvetica,sans-Serif" font-size="14.00" fill="#ffffff">*alÎ²os</text>
</g>
<!-- albus&#45;&gt;*alÎ²os -->
<g id="edge43" class="edge">
<title>albus&#45;&gt;*alÎ²os</title>
<path fill="none" stroke="#ffffff" stroke-dasharray="5,2" d="M1390.4425,-335.9817C1396.8804,-331.5951 1404.4043,-327.3511 1412,-325 1456.2742,-311.2958 1784.0241,-326.1882 1829,-315 1841.5374,-311.8812 1842.5173,-305.3311 1855,-302 1884.6796,-294.0799 1965.2984,-307.2751 1993,-294 2005.1742,-288.1659 2015.6232,-277.6231 2023.5561,-267.5481"/>
<polygon fill="#ffffff" stroke="#ffffff" points="2029.6105,-259.3088 2027.3153,-270.0318 2026.6498,-263.338 2023.689,-267.3672 2023.689,-267.3672 2023.689,-267.3672 2026.6498,-263.338 2020.0628,-264.7025 2029.6105,-259.3088 2029.6105,-259.3088"/>
<text text-anchor="middle" x="1881.5" y="-305.4" font-family="Courier,monospace" font-size="12.00" fill="#ffffff">inherit</text>
</g>
<!-- candidato -->
<g id="node12" class="node">
<title>candidato</title>
<ellipse fill="#667474" stroke="#ffffff" cx="678" cy="-351" rx="48.9926" ry="18"/>
<text text-anchor="middle" x="678" y="-347.3" font-family="Helvetica,sans-Serif" font-size="14.00" fill="#ffffff">candidato</text>
</g>
<!-- candidare&#45;&gt;candidato -->
<g id="edge11" class="edge">
<title>candidare&#45;&gt;candidato</title>
<path fill="none" stroke="#ffffff" stroke-dasharray="5,2" d="M726.5724,-550.7884C717.2938,-512.6237 695.7605,-424.0528 684.7487,-378.7589"/>
<polygon fill="#ffffff" stroke="#ffffff" points="682.3777,-369.0064 689.1128,-377.6603 683.5589,-373.8649 684.7402,-378.7234 684.7402,-378.7234 684.7402,-378.7234 683.5589,-373.8649 680.3675,-379.7865 682.3777,-369.0064 682.3777,-369.0064"/>
<text text-anchor="middle" x="731.5" y="-456.9" font-family="Courier,monospace" font-size="12.00" fill="#ffffff">link</text>
</g>
<!-- candeÅ -->
<g id="node14" class="node">
<title>candeÅ</title>
<ellipse fill="#667474" stroke="#ffffff" cx="1038" cy="-351" rx="39.7935" ry="18"/>
<text text-anchor="middle" x="1038" y="-347.3" font-family="Helvetica,sans-Serif" font-size="14.00" fill="#ffffff">candeÅ</text>
</g>
<!-- candidus&#45;&gt;candeÅ -->
<g id="edge12" class="edge">
<title>candidus&#45;&gt;candeÅ</title>
<path fill="none" stroke="#ffffff" stroke-dasharray="5,2" d="M928.0945,-552.0448C938.4383,-541.2061 951.4327,-526.5048 961,-512 990.0655,-467.9341 1014.5486,-411.2111 1027.6748,-378.1963"/>
<polygon fill="#ffffff" stroke="#ffffff" points="1031.3764,-368.7517 1031.917,-379.7043 1029.5518,-373.407 1027.7273,-378.0622 1027.7273,-378.0622 1027.7273,-378.0622 1029.5518,-373.407 1023.5376,-376.4201 1031.3764,-368.7517 1031.3764,-368.7517"/>
<text text-anchor="middle" x="1028.5" y="-456.9" font-family="Courier,monospace" font-size="12.00" fill="#ffffff">suffix&#45;</text>
</g>
<!-- idus -->
<g id="node16" class="node">
<title>idus</title>
<ellipse fill="#667474" stroke="#ffffff" cx="1123" cy="-351" rx="27" ry="18"/>
<text text-anchor="middle" x="1123" y="-347.3" font-family="Helvetica,sans-Serif" font-size="14.00" fill="#ffffff">idus</text>
</g>
<!-- candidus&#45;&gt;idus -->
<g id="edge13" class="edge">
<title>candidus&#45;&gt;idus</title>
<path fill="none" stroke="#ffffff" stroke-dasharray="5,2" d="M953.6644,-562.1321C986.303,-554.8364 1030.4222,-540.2726 1059,-512 1096.0123,-475.3829 1112.2323,-414.6777 1118.8562,-379.199"/>
<polygon fill="#ffffff" stroke="#ffffff" points="1120.6162,-369.0529 1123.3408,-379.6749 1119.7616,-373.9793 1118.907,-378.9058 1118.907,-378.9058 1118.907,-378.9058 1119.7616,-373.9793 1114.4732,-378.1366 1120.6162,-369.0529 1120.6162,-369.0529"/>
<text text-anchor="middle" x="1130.5" y="-456.9" font-family="Courier,monospace" font-size="12.00" fill="#ffffff">&#45;suffix</text>
</g>
<!-- candeo -->
<g id="node17" class="node">
<title>candeo</title>
<ellipse fill="#667474" stroke="#ffffff" cx="784" cy="-351" rx="39.7935" ry="18"/>
<text text-anchor="middle" x="784" y="-347.3" font-family="Helvetica,sans-Serif" font-size="14.00" fill="#ffffff">candeo</text>
</g>
<!-- candidus&#45;&gt;candeo -->
<g id="edge14" class="edge">
<title>candidus&#45;&gt;candeo</title>
<path fill="none" stroke="#ffffff" stroke-dasharray="5,2" d="M899.9774,-551.3711C893.0125,-540.1532 883.8731,-525.2872 876,-512 848.0688,-464.8614 816.612,-409.238 798.6635,-377.2478"/>
<polygon fill="#ffffff" stroke="#ffffff" points="793.7595,-368.496 802.5736,-375.0201 796.2037,-372.8579 798.6479,-377.2198 798.6479,-377.2198 798.6479,-377.2198 796.2037,-372.8579 794.7221,-379.4196 793.7595,-368.496 793.7595,-368.496"/>
<text text-anchor="middle" x="891.5" y="-456.9" font-family="Courier,monospace" font-size="12.00" fill="#ffffff">link</text>
</g>
<!-- candeÅ + &#45;idus -->
<g id="node18" class="node">
<title>candeÅ + &#45;idus</title>
<ellipse fill="#667474" stroke="#ffffff" cx="911" cy="-351" rx="68.7879" ry="18"/>
<text text-anchor="middle" x="911" y="-347.3" font-family="Helvetica,sans-Serif" font-size="14.00" fill="#ffffff">candeÅ + &#45;idus</text>
</g>
<!-- candidus&#45;&gt;candeÅ + &#45;idus -->
<g id="edge15" class="edge">
<title>candidus&#45;&gt;candeÅ + &#45;idus</title>
<path fill="none" stroke="#ffffff" stroke-dasharray="5,2" d="M911,-550.7884C911,-512.704 911,-424.4255 911,-379.0455"/>
<polygon fill="#ffffff" stroke="#ffffff" points="911,-369.0064 915.5001,-379.0064 911,-374.0064 911.0001,-379.0064 911.0001,-379.0064 911.0001,-379.0064 911,-374.0064 906.5001,-379.0065 911,-369.0064 911,-369.0064"/>
<text text-anchor="middle" x="934" y="-456.9" font-family="Courier,monospace" font-size="12.00" fill="#ffffff">suffix</text>
</g>
<!-- ğ’€ ğ’‰ºğ’€¸ -->
<g id="node41" class="node">
<title>ğ’€ ğ’‰ºğ’€¸</title>
<ellipse fill="#667474" stroke="#ffffff" cx="1266" cy="-60" rx="48.9926" ry="18"/>
<text text-anchor="middle" x="1266" y="-56.3" font-family="Helvetica,sans-Serif" font-size="14.00" fill="#ffffff">ğ’€ ğ’‰ºğ’€¸</text>
</g>
<!-- á¼€Î»Ï†ÏŒÏ‚&#45;&gt;ğ’€ ğ’‰ºğ’€¸ -->
<g id="edge40" class="edge">
<title>á¼€Î»Ï†ÏŒÏ‚&#45;&gt;ğ’€ ğ’‰ºğ’€¸</title>
<path fill="none" stroke="#ffffff" stroke-dasharray="5,2" d="M1345.3852,-155.3141C1335.1952,-149.3086 1323.894,-141.6498 1315,-133 1301.045,-119.4282 1288.8334,-101.2619 1280.0915,-86.4469"/>
<polygon fill="#ffffff" stroke="#ffffff" points="1275.1122,-77.7267 1283.9787,-84.1793 1277.5915,-82.0687 1280.0709,-86.4107 1280.0709,-86.4107 1280.0709,-86.4107 1277.5915,-82.0687 1276.163,-88.6421 1275.1122,-77.7267 1275.1122,-77.7267"/>
<text text-anchor="middle" x="1341.5" y="-123.4" font-family="Courier,monospace" font-size="12.00" fill="#ffffff">cognate</text>
</g>
<!-- ğŒ€ğŒ‹ğŒšğŒ– -->
<g id="node42" class="node">
<title>ğŒ€ğŒ‹ğŒšğŒ–</title>
<ellipse fill="#667474" stroke="#ffffff" cx="1372" cy="-60" rx="33.2948" ry="18"/>
<text text-anchor="middle" x="1372" y="-56.3" font-family="Helvetica,sans-Serif" font-size="14.00" fill="#ffffff">ğŒ€ğŒ‹ğŒšğŒ–</text>
</g>
<!-- á¼€Î»Ï†ÏŒÏ‚&#45;&gt;ğŒ€ğŒ‹ğŒšğŒ– -->
<g id="edge41" class="edge">
<title>á¼€Î»Ï†ÏŒÏ‚&#45;&gt;ğŒ€ğŒ‹ğŒšğŒ–</title>
<path fill="none" stroke="#ffffff" stroke-dasharray="5,2" d="M1372,-150.5096C1372,-133.4952 1372,-108.0055 1372,-88.4076"/>
<polygon fill="#ffffff" stroke="#ffffff" points="1372,-78.2173 1376.5001,-88.2172 1372,-83.2173 1372.0001,-88.2173 1372.0001,-88.2173 1372.0001,-88.2173 1372,-83.2173 1367.5001,-88.2173 1372,-78.2173 1372,-78.2173"/>
<text text-anchor="middle" x="1398.5" y="-123.4" font-family="Courier,monospace" font-size="12.00" fill="#ffffff">cognate</text>
</g>
<!-- elbid -->
<g id="node43" class="node">
<title>elbid</title>
<ellipse fill="#667474" stroke="#ffffff" cx="1458" cy="-60" rx="29.4969" ry="18"/>
<text text-anchor="middle" x="1458" y="-56.3" font-family="Helvetica,sans-Serif" font-size="14.00" fill="#ffffff">elbid</text>
</g>
<!-- á¼€Î»Ï†ÏŒÏ‚&#45;&gt;elbid -->
<g id="edge42" class="edge">
<title>á¼€Î»Ï†ÏŒÏ‚&#45;&gt;elbid</title>
<path fill="none" stroke="#ffffff" stroke-dasharray="5,2" d="M1400.1992,-155.9026C1410.3605,-150.0637 1421.2254,-142.3661 1429,-133 1439.7235,-120.0812 1446.84,-102.7042 1451.3387,-88.1451"/>
<polygon fill="#ffffff" stroke="#ffffff" points="1454.1658,-78.1459 1455.7753,-88.9931 1452.8054,-82.9573 1451.445,-87.7687 1451.445,-87.7687 1451.445,-87.7687 1452.8054,-82.9573 1447.1148,-86.5443 1454.1658,-78.1459 1454.1658,-78.1459"/>
<text text-anchor="middle" x="1463.5" y="-123.4" font-family="Courier,monospace" font-size="12.00" fill="#ffffff">cognate</text>
</g>
<!-- planche -->
<g id="node39" class="node">
<title>planche</title>
<ellipse fill="#667474" stroke="#ffffff" cx="1836" cy="-351" rx="41.6928" ry="18"/>
<text text-anchor="middle" x="1836" y="-347.3" font-family="Helvetica,sans-Serif" font-size="14.00" fill="#ffffff">planche</text>
</g>
<!-- planch&#45;&gt;planche -->
<g id="edge38" class="edge">
<title>planch&#45;&gt;planche</title>
<path fill="none" stroke="#ffffff" stroke-dasharray="5,2" d="M1774.6573,-446.9521C1784.4859,-440.9896 1795.1994,-433.1924 1803,-424 1814.187,-410.817 1822.2908,-393.2236 1827.6678,-378.6117"/>
<polygon fill="#ffffff" stroke="#ffffff" points="1830.9591,-369.063 1831.9547,-379.9836 1829.3297,-373.7901 1827.7004,-378.5171 1827.7004,-378.5171 1827.7004,-378.5171 1829.3297,-373.7901 1823.446,-377.0507 1830.9591,-369.063 1830.9591,-369.063"/>
<text text-anchor="middle" x="1837.5" y="-414.4" font-family="Courier,monospace" font-size="12.00" fill="#ffffff">derived</text>
</g>
<!-- plank -->
<g id="node40" class="node">
<title>plank</title>
<polygon fill="#006699" stroke="#ffffff" points="1770,-369 1716,-369 1716,-333 1770,-333 1770,-369"/>
<text text-anchor="middle" x="1743" y="-347.3" font-family="Helvetica,sans-Serif" font-size="14.00" fill="#ffffff">plank</text>
</g>
<!-- planch&#45;&gt;plank -->
<g id="edge39" class="edge">
<title>planch&#45;&gt;plank</title>
<path fill="none" stroke="#ffffff" stroke-dasharray="5,2" d="M1748.0092,-442.0009C1747.0669,-424.8816 1745.635,-398.8698 1744.5432,-379.0345"/>
<polygon fill="#ffffff" stroke="#ffffff" points="1743.9922,-369.0259 1749.0352,-378.7634 1744.2671,-374.0183 1744.542,-379.0108 1744.542,-379.0108 1744.542,-379.0108 1744.2671,-374.0183 1740.0488,-379.2581 1743.9922,-369.0259 1743.9922,-369.0259"/>
<text text-anchor="middle" x="1772.5" y="-414.4" font-family="Courier,monospace" font-size="12.00" fill="#ffffff">mention</text>
</g>
<!-- blanco -->
<g id="node38" class="node">
<title>blanco</title>
<ellipse fill="#667474" stroke="#ffffff" cx="2114" cy="-351" rx="36.2938" ry="18"/>
<text text-anchor="middle" x="2114" y="-347.3" font-family="Helvetica,sans-Serif" font-size="14.00" fill="#ffffff">blanco</text>
</g>
<!-- blanch&#45;&gt;blanco -->
<g id="edge37" class="edge">
<title>blanch&#45;&gt;blanco</title>
<path fill="none" stroke="#ffffff" stroke-dasharray="5,2" d="M2114,-441.5096C2114,-424.4952 2114,-399.0055 2114,-379.4076"/>
<polygon fill="#ffffff" stroke="#ffffff" points="2114,-369.2173 2118.5001,-379.2172 2114,-374.2173 2114.0001,-379.2173 2114.0001,-379.2173 2114.0001,-379.2173 2114,-374.2173 2109.5001,-379.2173 2114,-369.2173 2114,-369.2173"/>
<text text-anchor="middle" x="2140.5" y="-414.4" font-family="Courier,monospace" font-size="12.00" fill="#ffffff">mention</text>
</g>
</g>
</svg>
