<svg width="616" height="358pt" viewBox="0 0 462 358.09" xmlns="http://www.w3.org/2000/svg"><g class="graph"><path fill="#333" stroke="transparent" d="M0 358.095V0h462v358.095H0z"/><text text-anchor="middle" x="227" y="-9.2" font-family="Times,serif" font-size="16" fill="#fff" transform="translate(4 354.095)">Buch</text><g class="node" transform="translate(4 354.095)"><circle fill="#069" stroke="#fff" cx="225" cy="-315.547" r="30.589"/><circle fill="none" stroke="#fff" cx="225" cy="-315.547" r="34.595"/><text text-anchor="middle" x="225" y="-311.847" font-family="Helvetica,sans-Serif" font-size="14" fill="#fff">Buch</text></g><g class="node" transform="translate(4 354.095)"><ellipse fill="#667474" stroke="#fff" cx="27" cy="-214" rx="27" ry="18"/><text text-anchor="middle" x="27" y="-210.3" font-family="Helvetica,sans-Serif" font-size="14" fill="#fff">būh</text></g><g class="edge"><path fill="none" stroke="#fff" stroke-dasharray="5,2" d="M194.538 43.586C159.945 49.99 106.414 63.685 68 91.095c-8.63 6.158-16.139 14.926-22.095 23.348"/><path fill="#fff" stroke="#fff" d="M40.278 122.969l9.264-5.867-6.51 1.694 2.754-4.173h0l-2.754 4.173-1.002-6.652-1.752 10.825h0z"/><text text-anchor="middle" x="90.5" y="-253.4" font-family="Courier,monospace" font-size="12" fill="#fff" transform="translate(4 354.095)">inherit</text></g><g class="node" transform="translate(4 354.095)"><ellipse fill="#667474" stroke="#fff" cx="103" cy="-214" rx="30.595" ry="18"/><text text-anchor="middle" x="103" y="-210.3" font-family="Helvetica,sans-Serif" font-size="14" fill="#fff">buoh</text></g><g class="edge"><path fill="none" stroke="#fff" stroke-dasharray="5,2" d="M196.548 50.997C176.66 59.865 151.71 73.355 134 91.095c-6.245 6.255-11.462 14.255-15.592 21.968"/><path fill="#fff" stroke="#fff" d="M113.912 122.194l8.455-6.984-6.246 2.498 2.208-4.486h0l-2.208 4.486-1.829-6.474-.38 10.96h0z"/><text text-anchor="middle" x="156.5" y="-253.4" font-family="Courier,monospace" font-size="12" fill="#fff" transform="translate(4 354.095)">inherit</text></g><g class="node" transform="translate(4 354.095)"><ellipse fill="#667474" stroke="#fff" cx="186" cy="-214" rx="34.394" ry="18"/><text text-anchor="middle" x="186" y="-210.3" font-family="Helvetica,sans-Serif" font-size="14" fill="#fff">buoch</text></g><g class="edge"><path fill="none" stroke="#fff" stroke-dasharray="5,2" d="M206.734 65.117c-5.45 7.896-10.608 16.88-13.734 25.978-2.217 6.453-3.34 13.663-3.838 20.524"/><path fill="#fff" stroke="#fff" d="M188.829 121.957l4.82-9.85-4.66 4.852.162-4.997h0l-.161 4.997-4.337-5.142 4.176 10.14h0z"/><text text-anchor="middle" x="215.5" y="-253.4" font-family="Courier,monospace" font-size="12" fill="#fff" transform="translate(4 354.095)">inherit</text></g><g class="node"><path fill="#069" stroke="#fff" d="M296 122.095h-54v36h54v-36z"/><text text-anchor="middle" x="265" y="-210.3" font-family="Helvetica,sans-Serif" font-size="14" fill="#fff" transform="translate(4 354.095)">book</text></g><g class="edge"><path fill="none" stroke="#fff" stroke-dasharray="5,2" d="M241.766 70.957l16.258 41.274"/><path fill="#fff" stroke="#fff" d="M261.82 121.866l.521-10.953-2.354 6.301-1.832-4.652h0l1.832 4.652-6.02-3.003 7.853 7.655h0z"/><text text-anchor="middle" x="276.5" y="-253.4" font-family="Courier,monospace" font-size="12" fill="#fff" transform="translate(4 354.095)">cognate</text></g><g class="node" transform="translate(4 354.095)"><ellipse fill="#667474" stroke="#fff" cx="346" cy="-214" rx="35.995" ry="18"/><text text-anchor="middle" x="346" y="-210.3" font-family="Helvetica,sans-Serif" font-size="14" fill="#fff">Buche</text></g><g class="edge"><path fill="none" stroke="#fff" stroke-dasharray="5,2" d="M259.507 54.848c16.203 9.432 35.929 22.2 51.493 36.247 7.668 6.92 15.015 15.452 21.224 23.447"/><path fill="#fff" stroke="#fff" d="M338.248 122.588l-2.39-10.702-.606 6.7-2.997-4.003h0l2.997 4.003-6.6-1.306 9.596 5.308h0z"/><text text-anchor="middle" x="334.5" y="-253.4" font-family="Courier,monospace" font-size="12" fill="#fff" transform="translate(4 354.095)">link</text></g><g class="node" transform="translate(4 354.095)"><ellipse fill="#667474" stroke="#fff" cx="427" cy="-214" rx="27" ry="18"/><text text-anchor="middle" x="427" y="-210.3" font-family="Helvetica,sans-Serif" font-size="14" fill="#fff">בוך</text></g><g class="edge"><path fill="none" stroke="#fff" stroke-dasharray="5,2" d="M261.906 49.835C288.483 59.448 326.51 74.34 358 91.095c16.139 8.587 33.154 19.864 46.694 29.435"/><path fill="#fff" stroke="#fff" d="M413.046 126.527l-5.498-9.488 1.436 6.572-4.061-2.917h0l4.061 2.917-6.686.738 10.748 2.178h0z"/><text text-anchor="middle" x="400.5" y="-253.4" font-family="Courier,monospace" font-size="12" fill="#fff" transform="translate(4 354.095)">cognate</text></g><g class="node" transform="translate(4 354.095)"><ellipse fill="#667474" stroke="#fff" cx="103" cy="-129" rx="32.494" ry="18"/><text text-anchor="middle" x="103" y="-125.3" font-family="Helvetica,sans-Serif" font-size="14" fill="#fff">*bōks</text></g><g class="edge"><path fill="none" stroke="#fff" stroke-dasharray="5,2" d="M107 158.121v38.811"/><path fill="#fff" stroke="#fff" d="M107 207.095l4.5-10-4.5 5v-5h0v5l-4.5-5 4.5 10h0z"/><text text-anchor="middle" x="129.5" y="-168.4" font-family="Courier,monospace" font-size="12" fill="#fff" transform="translate(4 354.095)">inherit</text></g><g class="node" transform="translate(4 354.095)"><ellipse fill="#667474" stroke="#fff" cx="265" cy="-129" rx="29.795" ry="18"/><text text-anchor="middle" x="265" y="-125.3" font-family="Helvetica,sans-Serif" font-size="14" fill="#fff">boek</text></g><g class="edge"><path fill="none" stroke="#fff" stroke-dasharray="5,2" d="M269 158.121v38.811"/><path fill="#fff" stroke="#fff" d="M269 207.095l4.5-10-4.5 5v-5h0v5l-4.5-5 4.5 10h0z"/><text text-anchor="middle" x="291.5" y="-168.4" font-family="Courier,monospace" font-size="12" fill="#fff" transform="translate(4 354.095)">cognate</text></g><g class="node" transform="translate(4 354.095)"><ellipse fill="#667474" stroke="#fff" cx="227" cy="-44" rx="27" ry="18"/><text text-anchor="middle" x="227" y="-40.3" font-family="Helvetica,sans-Serif" font-size="14" fill="#fff">bog</text></g><g class="edge"><path fill="none" stroke="#fff" stroke-dasharray="5,2" d="M249.285 239.056c-6.769 5.945-13.572 13.49-17.285 22.039-2.824 6.502-3.916 13.962-4.104 21.067"/><path fill="#fff" stroke="#fff" d="M228.17 292.165l4.225-10.12-4.361 5.123-.138-4.998h0l.138 4.998-4.636-4.875 4.773 9.873h0z"/><text text-anchor="middle" x="254.5" y="-83.4" font-family="Courier,monospace" font-size="12" fill="#fff" transform="translate(4 354.095)">cognate</text></g><g class="node" transform="translate(4 354.095)"><ellipse fill="#667474" stroke="#fff" cx="303" cy="-44" rx="30.595" ry="18"/><text text-anchor="middle" x="303" y="-40.3" font-family="Helvetica,sans-Serif" font-size="14" fill="#fff">Book</text></g><g class="edge"><path fill="none" stroke="#fff" stroke-dasharray="5,2" d="M276.874 242.707l18.174 40.653"/><path fill="#fff" stroke="#fff" d="M299.137 292.505l.026-10.965-2.067 6.4-2.04-4.564h0l2.04 4.565-6.15-2.728 8.19 7.293h0z"/><text text-anchor="middle" x="313.5" y="-83.4" font-family="Courier,monospace" font-size="12" fill="#fff" transform="translate(4 354.095)">cognate</text></g></g></svg>