<svg width="2900" height="1184" viewBox="0 0 2175 888.49" xmlns="http://www.w3.org/2000/svg"><g class="graph"><path fill="#333" stroke="transparent" d="M0 888.491V0h2175v888.491H0z"/><text text-anchor="middle" x="1083.5" y="-9.2" font-family="Times,serif" font-size="16" fill="#fff" transform="translate(4 884.491)">candidate</text><g class="cluster"><path fill="#333" stroke="#000" d="M214 741.491V12h1487v729.491H214z"/><text text-anchor="middle" x="953.5" y="-855.691" font-family="Times,serif" font-size="16" fill="#fff" transform="translate(4 884.491)">unknown origin</text></g><g class="cluster"><path fill="#333" stroke="#000" d="M1709 268.491v-78h122v78h-122z"/><text text-anchor="middle" x="1766" y="-677.2" font-family="Times,serif" font-size="16" fill="#fff" transform="translate(4 884.491)">Latin</text></g><g class="cluster"><path fill="#333" stroke="#000" d="M1709 450.491v-78h230v78h-230z"/><text text-anchor="middle" x="1820" y="-495.2" font-family="Times,serif" font-size="16" fill="#fff" transform="translate(4 884.491)">Old High German (ca. 750-1050)</text></g><g class="cluster"><path fill="#333" stroke="#000" d="M12 668.491v-78h194v78H12z"/><text text-anchor="middle" x="105" y="-277.2" font-family="Times,serif" font-size="16" fill="#fff" transform="translate(4 884.491)">Proto-Indo-European</text></g><g class="cluster"><path fill="#333" stroke="#000" d="M1947 450.491v-78h119v78h-119z"/><text text-anchor="middle" x="2002.5" y="-495.2" font-family="Times,serif" font-size="16" fill="#fff" transform="translate(4 884.491)">Proto-Germanic</text></g><g class="cluster"><path fill="#333" stroke="#000" d="M1709 668.491v-78h80v78h-80z"/><text text-anchor="middle" x="1745" y="-277.2" font-family="Times,serif" font-size="16" fill="#fff" transform="translate(4 884.491)">German</text></g><g class="cluster"><path fill="#333" stroke="#000" d="M1797 668.491v-78h104v78h-104z"/><text text-anchor="middle" x="1845" y="-277.2" font-family="Times,serif" font-size="16" fill="#fff" transform="translate(4 884.491)">VL.</text></g><g class="cluster"><path fill="#333" stroke="#000" d="M1909 668.491v-78h84v78h-84z"/><text text-anchor="middle" x="1947" y="-277.2" font-family="Times,serif" font-size="16" fill="#fff" transform="translate(4 884.491)">Old Norse</text></g><g class="cluster"><path fill="#333" stroke="#000" d="M2074 450.491v-78h88v78h-88z"/><text text-anchor="middle" x="2114" y="-495.2" font-family="Times,serif" font-size="16" fill="#fff" transform="translate(4 884.491)">Ladin</text></g><g class="cluster"><path fill="#333" stroke="#000" d="M2074 559.491v-78h88v78h-88z"/><text text-anchor="middle" x="2114" y="-386.2" font-family="Times,serif" font-size="16" fill="#fff" transform="translate(4 884.491)">Spanish</text></g><g class="cluster"><path fill="#333" stroke="#000" d="M1790 559.491v-78h218v78h-218z"/><text text-anchor="middle" x="1895" y="-386.2" font-family="Times,serif" font-size="16" fill="#fff" transform="translate(4 884.491)">Middle French (ca. 1400-1600)</text></g><g class="cluster"><path fill="#333" stroke="#000" d="M1712 559.491v-78h70v78h-70z"/><text text-anchor="middle" x="1743" y="-386.2" font-family="Times,serif" font-size="16" fill="#fff" transform="translate(4 884.491)">English</text></g><g class="cluster"><path fill="#333" stroke="#000" d="M1213 850.491v-78h114v78h-114z"/><text text-anchor="middle" x="1266" y="-95.2" font-family="Times,serif" font-size="16" fill="#fff" transform="translate(4 884.491)">Hittite</text></g><g class="cluster"><path fill="#333" stroke="#000" d="M1335 850.491v-78h82v78h-82z"/><text text-anchor="middle" x="1372" y="-95.2" font-family="Times,serif" font-size="16" fill="#fff" transform="translate(4 884.491)">Umbrian</text></g><g class="cluster"><path fill="#333" stroke="#000" d="M1425 850.491v-78h107v78h-107z"/><text text-anchor="middle" x="1474.5" y="-95.2" font-family="Times,serif" font-size="16" fill="#fff" transform="translate(4 884.491)">Middle Welsh</text></g><g class="cluster"><path fill="#333" stroke="#000" d="M2001 668.491v-78h86v78h-86z"/><text text-anchor="middle" x="2040" y="-277.2" font-family="Times,serif" font-size="16" fill="#fff" transform="translate(4 884.491)">itc-pro</text></g><g class="node" transform="translate(4 884.491)"><circle fill="#069" stroke="#fff" cx="821" cy="-785.746" r="48.974"/><circle fill="none" stroke="#fff" cx="821" cy="-785.746" r="52.992"/><text text-anchor="middle" x="821" y="-782.046" font-family="Helvetica,sans-Serif" font-size="14" fill="#fff">candidate</text></g><g class="node" transform="translate(4 884.491)"><ellipse fill="#667474" stroke="#fff" cx="1463" cy="-569" rx="31.695" ry="18"/><text text-anchor="middle" x="1463" y="-565.3" font-family="Helvetica,sans-Serif" font-size="14" fill="#fff">blanc</text></g><g class="edge"><path fill="none" stroke="#fff" stroke-dasharray="5,2" d="M875.11 115.663l554.865 187.328"/><path fill="#fff" stroke="#fff" d="M1439.576 306.232l-8.035-7.462 3.298 5.863-4.738-1.6h0l4.737 1.6-6.176 2.664 10.914-1.065h0z"/><text text-anchor="middle" x="1334.5" y="-638.9" font-family="Courier,monospace" font-size="12" fill="#fff" transform="translate(4 884.491)">link</text></g><g class="node" transform="translate(4 884.491)"><ellipse fill="#667474" stroke="#fff" cx="328" cy="-569" rx="41.693" ry="18"/><text text-anchor="middle" x="328" y="-565.3" font-family="Helvetica,sans-Serif" font-size="14" fill="#fff">candide</text></g><g class="edge"><path fill="none" stroke="#fff" stroke-dasharray="5,2" d="M773.138 109.746c-61.502 14.11-166.243 41.533-250.138 80.745-61.822 28.894-126.892 75.473-162.87 102.873"/><path fill="#fff" stroke="#fff" d="M352.054 299.565l10.672-2.521-6.707-.524 3.966-3.046h0l-3.966 3.046 1.226-6.615-5.191 9.66h0z"/><text text-anchor="middle" x="534.5" y="-638.9" font-family="Courier,monospace" font-size="12" fill="#fff" transform="translate(4 884.491)">link</text></g><g class="node" transform="translate(4 884.491)"><ellipse fill="#667474" stroke="#fff" cx="478" cy="-569" rx="53.091" ry="18"/><text text-anchor="middle" x="478" y="-565.3" font-family="Helvetica,sans-Serif" font-size="14" fill="#fff">candidatus</text></g><g class="edge"><path fill="none" stroke="#fff" stroke-dasharray="5,2" d="M780.159 127.081L515.923 294.055"/><path fill="#fff" stroke="#fff" d="M507.265 299.526l10.858-1.538-6.631-1.133 4.227-2.671h0l-4.227 2.67 1.823-6.474-6.05 9.146h0z"/><text text-anchor="middle" x="690.5" y="-638.9" font-family="Courier,monospace" font-size="12" fill="#fff" transform="translate(4 884.491)">etyl</text></g><g class="node" transform="translate(4 884.491)"><ellipse fill="#667474" stroke="#fff" cx="731" cy="-569" rx="49.291" ry="18"/><text text-anchor="middle" x="731" y="-565.3" font-family="Helvetica,sans-Serif" font-size="14" fill="#fff">candidare</text></g><g class="edge"><path fill="none" stroke="#fff" stroke-dasharray="5,2" d="M804.69 147.658l-58.218 140.205"/><path fill="#fff" stroke="#fff" d="M742.473 297.495l7.99-7.51-6.073 2.892 1.918-4.618h0l-1.918 4.618-2.238-6.344.32 10.962h0z"/><text text-anchor="middle" x="808.5" y="-638.9" font-family="Courier,monospace" font-size="12" fill="#fff" transform="translate(4 884.491)">mention</text></g><g class="node" transform="translate(4 884.491)"><ellipse fill="#667474" stroke="#fff" cx="911" cy="-569" rx="46.292" ry="18"/><text text-anchor="middle" x="911" y="-565.3" font-family="Helvetica,sans-Serif" font-size="14" fill="#fff">candidus</text></g><g class="edge"><path fill="none" stroke="#fff" stroke-dasharray="5,2" d="M845.31 147.658l58.218 140.205"/><path fill="#fff" stroke="#fff" d="M907.527 297.495l.321-10.962-2.238 6.344-1.918-4.618h0l1.918 4.618-6.074-2.892 7.991 7.51h0z"/><text text-anchor="middle" x="916.5" y="-638.9" font-family="Courier,monospace" font-size="12" fill="#fff" transform="translate(4 884.491)">mention</text></g><g class="node" transform="translate(4 884.491)"><ellipse fill="#667474" stroke="#fff" cx="1766" cy="-642" rx="53.091" ry="18"/><text text-anchor="middle" x="1766" y="-638.3" font-family="Helvetica,sans-Serif" font-size="14" fill="#fff">candidÄtus</text></g><g class="edge"><path fill="none" stroke="#fff" stroke-dasharray="5,2" d="M877.747 100.366c166.012 5.7 675.727 27.961 827.253 90.125 15.317 6.284 29.942 17.357 41.427 27.675"/><path fill="#fff" stroke="#fff" d="M1753.847 225.121l-4.219-10.122.57 6.702-3.647-3.42h0l3.648 3.42-6.726-.136 10.374 3.555h0z"/><text text-anchor="middle" x="1702.5" y="-705.4" font-family="Courier,monospace" font-size="12" fill="#fff" transform="translate(4 884.491)">mention</text></g><g class="node" transform="translate(4 884.491)"><ellipse fill="#667474" stroke="#fff" cx="1559" cy="-351" rx="36.294" ry="18"/><text text-anchor="middle" x="1559" y="-347.3" font-family="Helvetica,sans-Serif" font-size="14" fill="#fff">bianco</text></g><g class="edge"><path fill="none" stroke="#fff" stroke-dasharray="5,2" d="M1484.01 330.961c10.844 10.708 24.42 25.812 32.99 41.53 23.482 43.066 35.993 99.307 41.794 132.645"/><path fill="#fff" stroke="#fff" d="M1560.448 515.109l2.804-10.601-3.622 5.668-.818-4.932h0l.818 4.933-5.257-4.197 6.075 9.13h0z"/><text text-anchor="middle" x="1557.5" y="-456.9" font-family="Courier,monospace" font-size="12" fill="#fff" transform="translate(4 884.491)">lien</text></g><g class="node" transform="translate(4 884.491)"><ellipse fill="#667474" stroke="#fff" cx="1463" cy="-351" rx="41.693" ry="18"/><text text-anchor="middle" x="1463" y="-347.3" font-family="Helvetica,sans-Serif" font-size="14" fill="#fff">[[blank]]</text></g><g class="edge"><path fill="none" stroke="#fff" stroke-dasharray="5,2" d="M1467 333.703v171.743"/><path fill="#fff" stroke="#fff" d="M1467 515.485l4.5-10-4.5 5v-5h0v5l-4.5-5 4.5 10h0z"/><text text-anchor="middle" x="1486" y="-456.9" font-family="Courier,monospace" font-size="12" fill="#fff" transform="translate(4 884.491)">recons</text></g><g class="node" transform="translate(4 884.491)"><ellipse fill="#667474" stroke="#fff" cx="1372" cy="-351" rx="31.695" ry="18"/><text text-anchor="middle" x="1372" y="-347.3" font-family="Helvetica,sans-Serif" font-size="14" fill="#fff">albus</text></g><g class="edge"><path fill="none" stroke="#fff" stroke-dasharray="5,2" d="M1455.271 332.409c-7.328 11.063-16.605 26.021-23.271 40.082-21.392 45.122-38.913 100.709-48.372 133.361"/><path fill="#fff" stroke="#fff" d="M1380.845 515.606l7.07-8.382-5.698 3.574 1.371-4.809h0l-1.371 4.809-2.956-6.043 1.584 10.85h0z"/><text text-anchor="middle" x="1443.5" y="-456.9" font-family="Courier,monospace" font-size="12" fill="#fff" transform="translate(4 884.491)">link</text></g><g class="node" transform="translate(4 884.491)"><ellipse fill="#667474" stroke="#fff" cx="1651" cy="-351" rx="37.894" ry="18"/><text text-anchor="middle" x="1651" y="-347.3" font-family="Helvetica,sans-Serif" font-size="14" fill="#fff">branco</text></g><g class="edge"><path fill="none" stroke="#fff" stroke-dasharray="5,2" d="M1495.586 323.764c25.276 8.586 61.717 24.239 85.414 48.727 36.932 38.164 57.706 98.075 67.319 133.045"/><path fill="#fff" stroke="#fff" d="M1650.95 515.536l1.807-10.816-3.08 5.98-1.271-4.835h0l1.272 4.835-5.625-3.69 6.896 8.526h0z"/><text text-anchor="middle" x="1639.5" y="-456.9" font-family="Courier,monospace" font-size="12" fill="#fff" transform="translate(4 884.491)">lien</text></g><g class="node" transform="translate(4 884.491)"><ellipse fill="#667474" stroke="#fff" cx="1195" cy="-351" rx="27" ry="18"/><text text-anchor="middle" x="1195" y="-347.3" font-family="Helvetica,sans-Serif" font-size="14" fill="#fff">clair</text></g><g class="edge"><path fill="none" stroke="#fff" stroke-dasharray="5,2" d="M1436.625 321.09c-48.568 9.472-140.775 29.753-165.625 51.401-40.345 35.146-59.16 97.33-67.038 133.262"/><path fill="#fff" stroke="#fff" d="M1201.939 515.575l6.425-8.886-5.416 3.989 1.009-4.897h0l-1.01 4.897-3.398-5.805 2.39 10.702h0z"/><text text-anchor="middle" x="1282.5" y="-456.9" font-family="Courier,monospace" font-size="12" fill="#fff" transform="translate(4 884.491)">link</text></g><g class="node" transform="translate(4 884.491)"><ellipse fill="#667474" stroke="#fff" cx="1281" cy="-351" rx="40.893" ry="18"/><text text-anchor="middle" x="1281" y="-347.3" font-family="Helvetica,sans-Serif" font-size="14" fill="#fff">blancus</text></g><g class="edge"><path fill="none" stroke="#fff" stroke-dasharray="5,2" d="M1438.168 323.241c-25.905 8.303-63.42 23.839-87.168 49.25-35.609 38.104-53.206 98.036-60.89 133.025"/><path fill="#fff" stroke="#fff" d="M1288.034 515.523l6.438-8.878-5.422 3.982 1.015-4.896h0l-1.015 4.896-3.39-5.81 2.374 10.706h0z"/><text text-anchor="middle" x="1370" y="-456.9" font-family="Courier,monospace" font-size="12" fill="#fff" transform="translate(4 884.491)">recons</text></g><g class="node" transform="translate(4 884.491)"><ellipse fill="#667474" stroke="#fff" cx="1749" cy="-460" rx="36.294" ry="18"/><text text-anchor="middle" x="1749" y="-456.3" font-family="Helvetica,sans-Serif" font-size="14" fill="#fff">planch</text></g><g class="edge"><path fill="none" stroke="#fff" stroke-dasharray="5,2" d="M1497.784 320.216c56.265 9.062 173.064 29.974 207.216 52.275 11.09 7.242 21.353 17.607 29.518 27.18"/><path fill="#fff" stroke="#fff" d="M1740.855 407.441l-2.833-10.594-.327 6.719-3.16-3.875h0l3.16 3.875-6.648-1.03 9.808 4.904h0z"/><text text-anchor="middle" x="1709.5" y="-523.4" font-family="Courier,monospace" font-size="12" fill="#fff" transform="translate(4 884.491)">mention</text></g><g class="node" transform="translate(4 884.491)"><ellipse fill="#667474" stroke="#fff" cx="58" cy="-242" rx="41.693" ry="18"/><text text-anchor="middle" x="58" y="-238.3" font-family="Helvetica,sans-Serif" font-size="14" fill="#fff">*bÊ°leyÇµ-</text></g><g class="edge"><path fill="none" stroke="#fff" stroke-dasharray="5,2" d="M1435.057 316.636C1247.207 323.417 293.62 358.483 267 372.491c-102.934 54.17-169.115 185.62-193.943 242.743"/><path fill="#fff" stroke="#fff" d="M69.034 624.686l8.057-7.438-6.099 2.838 1.958-4.6h0l-1.958 4.6-2.182-6.363.224 10.963h0z"/><text text-anchor="middle" x="186.5" y="-414.4" font-family="Courier,monospace" font-size="12" fill="#fff" transform="translate(4 884.491)">derived</text></g><g class="node" transform="translate(4 884.491)"><ellipse fill="#667474" stroke="#fff" cx="1995" cy="-460" rx="44.393" ry="18"/><text text-anchor="middle" x="1995" y="-456.3" font-family="Helvetica,sans-Serif" font-size="14" fill="#fff">*blankaz</text></g><g class="edge"><path fill="none" stroke="#fff" stroke-dasharray="5,2" d="M1498.899 316.749c93.37 4.08 364.52 18.88 444.101 55.742 13.526 6.265 25.967 17.048 35.669 27.176"/><path fill="#fff" stroke="#fff" d="M1985.527 407.198l-3.406-10.423.04 6.726-3.367-3.697h0l3.367 3.697-6.694-.667 10.06 4.364h0z"/><text text-anchor="middle" x="1936.5" y="-523.4" font-family="Courier,monospace" font-size="12" fill="#fff" transform="translate(4 884.491)">inherit</text></g><g class="node" transform="translate(4 884.491)"><ellipse fill="#667474" stroke="#fff" cx="2114" cy="-460" rx="36.294" ry="18"/><text text-anchor="middle" x="2114" y="-456.3" font-family="Helvetica,sans-Serif" font-size="14" fill="#fff">blanch</text></g><g class="edge"><path fill="none" stroke="#fff" stroke-dasharray="5,2" d="M1499.003 316.249c79.965 2.225 294.797 10.24 471.997 35.242 44.538 6.284 59.904-1.24 99 21 11.68 6.644 22.142 17.103 30.294 26.904"/><path fill="#fff" stroke="#fff" d="M2106.574 407.375l-2.648-10.641-.444 6.712-3.092-3.929h0l3.092 3.93-6.629-1.147 9.721 5.075h0z"/><text text-anchor="middle" x="2074.5" y="-523.4" font-family="Courier,monospace" font-size="12" fill="#fff" transform="translate(4 884.491)">mention</text></g><g class="node" transform="translate(4 884.491)"><ellipse fill="#667474" stroke="#fff" cx="254" cy="-351" rx="36.294" ry="18"/><text text-anchor="middle" x="254" y="-347.3" font-family="Helvetica,sans-Serif" font-size="14" fill="#fff">candid</text></g><g class="edge"><path fill="none" stroke="#fff" stroke-dasharray="5,2" d="M317.824 332.425c-8.384 10.832-18.558 25.532-24.824 40.066-19.026 44.13-28.154 99.68-32.181 132.654"/><path fill="#fff" stroke="#fff" d="M259.642 515.412l5.61-9.422-5.04 4.455.569-4.967h0l-.57 4.967-3.9-5.48 3.33 10.447h0z"/><text text-anchor="middle" x="304.5" y="-456.9" font-family="Courier,monospace" font-size="12" fill="#fff" transform="translate(4 884.491)">lien</text></g><g class="node" transform="translate(4 884.491)"><ellipse fill="#667474" stroke="#fff" cx="536" cy="-351" rx="75.287" ry="18"/><text text-anchor="middle" x="536" y="-347.3" font-family="Helvetica,sans-Serif" font-size="14" fill="#fff">candidus + -Ätus</text></g><g class="edge"><path fill="none" stroke="#fff" stroke-dasharray="5,2" d="M486.845 333.703l45.77 172.03"/><path fill="#fff" stroke="#fff" d="M535.21 515.485l1.777-10.821-3.063 5.989-1.286-4.832h0l1.286 4.832-5.635-3.675 6.92 8.507h0z"/><text text-anchor="middle" x="536" y="-456.9" font-family="Courier,monospace" font-size="12" fill="#fff" transform="translate(4 884.491)">suffix</text></g><g class="node" transform="translate(4 884.491)"><ellipse fill="#667474" stroke="#fff" cx="336" cy="-351" rx="27.097" ry="18"/><text text-anchor="middle" x="336" y="-347.3" font-family="Helvetica,sans-Serif" font-size="14" fill="#fff">Ätus</text></g><g class="edge"><path fill="none" stroke="#fff" stroke-dasharray="5,2" d="M444.657 328.339c-21.313 9.157-46.854 23.532-62.657 44.152-30.048 39.204-38.694 97.866-41.122 132.501"/><path fill="#fff" stroke="#fff" d="M340.289 515.338l5.061-9.728-4.777 4.736.284-4.992h0l-.284 4.992-4.208-5.247 3.924 10.24h0z"/><text text-anchor="middle" x="404.5" y="-456.9" font-family="Courier,monospace" font-size="12" fill="#fff" transform="translate(4 884.491)">-suffix</text></g><g class="node" transform="translate(4 884.491)"><ellipse fill="#667474" stroke="#fff" cx="412" cy="-351" rx="30.595" ry="18"/><text text-anchor="middle" x="412" y="-347.3" font-family="Helvetica,sans-Serif" font-size="14" fill="#fff">-atus</text></g><g class="edge"><path fill="none" stroke="#fff" stroke-dasharray="5,2" d="M475.421 333.37c-4.04 11.186-9.226 25.929-13.421 39.121-14.721 46.294-29.824 100.753-38.538 132.99"/><path fill="#fff" stroke="#fff" d="M420.762 515.519l6.943-8.488-5.644 3.66 1.299-4.829h0l-1.3 4.829-3.046-5.998 1.748 10.826h0z"/><text text-anchor="middle" x="473.5" y="-456.9" font-family="Courier,monospace" font-size="12" fill="#fff" transform="translate(4 884.491)">link</text></g><g class="node" transform="translate(4 884.491)"><ellipse fill="#667474" stroke="#fff" cx="156" cy="-242" rx="38.194" ry="18"/><text text-anchor="middle" x="156" y="-238.3" font-family="Helvetica,sans-Serif" font-size="14" fill="#fff">*bhleg-</text></g><g class="edge"><path fill="none" stroke="#fff" stroke-dasharray="5,2" d="M1542.01 548.52c-7.258 4.387-15.67 8.629-24.01 10.971-139.959 39.309-1174.928-27.527-1308 31-12.845 5.65-24.025 16.315-32.536 26.524"/><path fill="#fff" stroke="#fff" d="M171.23 624.999l9.701-5.112-6.624 1.171 3.077-3.94h0l-3.077 3.94-.47-6.71-2.607 10.651h0z"/><text text-anchor="middle" x="1433.5" y="-305.4" font-family="Courier,monospace" font-size="12" fill="#fff" transform="translate(4 884.491)">derived</text></g><g class="node" transform="translate(4 884.491)"><ellipse fill="#667474" stroke="#fff" cx="1745" cy="-242" rx="31.695" ry="18"/><text text-anchor="middle" x="1745" y="-238.3" font-family="Helvetica,sans-Serif" font-size="14" fill="#fff">blank</text></g><g class="edge"><path fill="none" stroke="#fff" stroke-dasharray="5,2" d="M1585.875 547.927c6.95 4.05 14.713 8.248 22.125 11.564 29.892 13.374 38.742 13.236 70 23 11.946 3.732 16.52 1.159 27 8 10.57 6.9 19.975 17.085 27.348 26.617"/><path fill="#fff" stroke="#fff" d="M1738.284 625.217l-2.276-10.726-.678 6.693-2.954-4.035h0l2.954 4.035-6.585-1.377 9.537 5.411h0z"/><text text-anchor="middle" x="1700.5" y="-305.4" font-family="Courier,monospace" font-size="12" fill="#fff" transform="translate(4 884.491)">cognate</text></g><g class="node" transform="translate(4 884.491)"><ellipse fill="#667474" stroke="#fff" cx="1845" cy="-242" rx="44.393" ry="18"/><text text-anchor="middle" x="1845" y="-238.3" font-family="Helvetica,sans-Serif" font-size="14" fill="#fff">*blancus</text></g><g class="edge"><path fill="none" stroke="#fff" stroke-dasharray="5,2" d="M1584.072 548.241c7.264 4.368 15.66 8.67 23.928 11.25 79.583 24.838 113.386-11.682 185 31 12.41 7.396 24.395 17.909 34.07 27.548"/><path fill="#fff" stroke="#fff" d="M1834.3 625.506l-3.723-10.315.244 6.723-3.477-3.593h0l3.477 3.593-6.71-.462 10.188 4.054h0z"/><text text-anchor="middle" x="1798.5" y="-305.4" font-family="Courier,monospace" font-size="12" fill="#fff" transform="translate(4 884.491)">inherit</text></g><g class="node" transform="translate(4 884.491)"><ellipse fill="#667474" stroke="#fff" cx="1947" cy="-242" rx="34.394" ry="18"/><text text-anchor="middle" x="1947" y="-238.3" font-family="Helvetica,sans-Serif" font-size="14" fill="#fff">blankr</text></g><g class="edge"><path fill="none" stroke="#fff" stroke-dasharray="5,2" d="M1584.001 548.477c7.26 4.384 15.67 8.635 23.999 11.014 32.924 9.403 279.323-8.71 308 10 15.353 10.017 24.147 28.776 29.08 44.77"/><path fill="#fff" stroke="#fff" d="M1947.794 624.251l1.721-10.83-3.032 6.005-1.31-4.825h0l1.31 4.825-5.653-3.645 6.964 8.47h0z"/><text text-anchor="middle" x="1950.5" y="-305.4" font-family="Courier,monospace" font-size="12" fill="#fff" transform="translate(4 884.491)">cognate</text></g><g class="node" transform="translate(4 884.491)"><ellipse fill="#667474" stroke="#fff" cx="1215" cy="-169" rx="27" ry="18"/><text text-anchor="middle" x="1215" y="-165.3" font-family="Helvetica,sans-Serif" font-size="14" fill="#fff">elf</text></g><g class="edge"><path fill="none" stroke="#fff" stroke-dasharray="5,2" d="M1354.985 547.429c-6.337 4.036-13.37 8.35-19.985 12.062-27.216 15.267-41.563 8.322-63 31-25.988 27.493-40.222 69.644-47.225 97.268"/><path fill="#fff" stroke="#fff" d="M1222.435 697.574l6.696-8.684-5.537 3.82 1.16-4.863h0l-1.16 4.864-3.217-5.907 2.058 10.77h0z"/><text text-anchor="middle" x="1283.5" y="-238.9" font-family="Courier,monospace" font-size="12" fill="#fff" transform="translate(4 884.491)">link</text></g><g class="node" transform="translate(4 884.491)"><ellipse fill="#667474" stroke="#fff" cx="1287" cy="-169" rx="27" ry="18"/><text text-anchor="middle" x="1287" y="-165.3" font-family="Helvetica,sans-Serif" font-size="14" fill="#fff">elfe</text></g><g class="edge"><path fill="none" stroke="#fff" stroke-dasharray="5,2" d="M1364.49 550.515c-7.242 11.106-16.504 26.072-23.49 39.976-16.397 32.635-31.405 72-40.611 97.722"/><path fill="#fff" stroke="#fff" d="M1297.04 697.688l7.575-7.929-5.909 3.214 1.667-4.714h0l-1.667 4.714-2.576-6.214.91 10.929h0z"/><text text-anchor="middle" x="1352.5" y="-238.9" font-family="Courier,monospace" font-size="12" fill="#fff" transform="translate(4 884.491)">link</text></g><g class="node" transform="translate(4 884.491)"><ellipse fill="#667474" stroke="#fff" cx="1372" cy="-169" rx="40.094" ry="18"/><text text-anchor="middle" x="1372" y="-165.3" font-family="Helvetica,sans-Serif" font-size="14" fill="#fff">á¼€Î»Ï†ÏŒÏ‚</text></g><g class="edge"><path fill="none" stroke="#fff" stroke-dasharray="5,2" d="M1376 551.607v135.514"/><path fill="#fff" stroke="#fff" d="M1376 697.448l4.5-10-4.5 5v-5h0v5l-4.5-5 4.5 10h0z"/><text text-anchor="middle" x="1387.5" y="-238.9" font-family="Courier,monospace" font-size="12" fill="#fff" transform="translate(4 884.491)">link</text></g><g class="node" transform="translate(4 884.491)"><ellipse fill="#667474" stroke="#fff" cx="1463" cy="-169" rx="32.494" ry="18"/><text text-anchor="middle" x="1463" y="-165.3" font-family="Helvetica,sans-Serif" font-size="14" fill="#fff">Alpes</text></g><g class="edge"><path fill="none" stroke="#fff" stroke-dasharray="5,2" d="M1387.159 550.365c7.187 11.17 16.52 26.264 23.841 40.126 17.354 32.856 34.386 72.173 45.024 97.823"/><path fill="#fff" stroke="#fff" d="M1459.909 697.759l.358-10.96-2.26 6.336-1.902-4.624h0l1.902 4.624-6.064-2.913 7.966 7.537h0z"/><text text-anchor="middle" x="1458.5" y="-238.9" font-family="Courier,monospace" font-size="12" fill="#fff" transform="translate(4 884.491)">link</text></g><g class="node" transform="translate(4 884.491)"><ellipse fill="#667474" stroke="#fff" cx="1545" cy="-169" rx="31.695" ry="18"/><text text-anchor="middle" x="1545" y="-165.3" font-family="Helvetica,sans-Serif" font-size="14" fill="#fff">alpus</text></g><g class="edge"><path fill="none" stroke="#fff" stroke-dasharray="5,2" d="M1396.428 547.538c6.18 4.04 13.058 8.329 19.572 11.953 28.32 15.757 42.486 8.698 66 31 28.799 27.314 47.896 69.794 58.09 97.51"/><path fill="#fff" stroke="#fff" d="M1543.444 697.488l.909-10.928-2.576 6.214-1.667-4.714h0l1.667 4.714-5.91-3.214 7.577 7.928h0z"/><text text-anchor="middle" x="1542.5" y="-238.9" font-family="Courier,monospace" font-size="12" fill="#fff" transform="translate(4 884.491)">link</text></g><g class="node" transform="translate(4 884.491)"><ellipse fill="#667474" stroke="#fff" cx="1627" cy="-169" rx="32.494" ry="18"/><text text-anchor="middle" x="1627" y="-165.3" font-family="Helvetica,sans-Serif" font-size="14" fill="#fff">albho</text></g><g class="edge"><path fill="none" stroke="#fff" stroke-dasharray="5,2" d="M1395.13 547.992c6.363 4.247 13.67 8.538 20.87 11.499 31.48 12.943 122.852 10.468 150 31 31.796 24.048 49.452 68.142 58.085 97.01"/><path fill="#fff" stroke="#fff" d="M1626.867 697.381l1.622-10.844-2.977 6.032-1.355-4.813h0l1.355 4.813-5.687-3.594 7.042 8.407h0z"/><text text-anchor="middle" x="1628.5" y="-238.9" font-family="Courier,monospace" font-size="12" fill="#fff" transform="translate(4 884.491)">link</text></g><g class="node" transform="translate(4 884.491)"><ellipse fill="#667474" stroke="#fff" cx="1134" cy="-169" rx="36.294" ry="18"/><text text-anchor="middle" x="1134" y="-165.3" font-family="Helvetica,sans-Serif" font-size="14" fill="#fff">alphos</text></g><g class="edge"><path fill="none" stroke="#fff" stroke-dasharray="5,2" d="M1356.825 547.866c-6.617 4.344-14.271 8.725-21.825 11.625-59.496 22.839-91.188-9.974-140 31-29.612 24.856-44.576 68.35-51.57 96.914"/><path fill="#fff" stroke="#fff" d="M1141.2 697.191l6.609-8.75-5.498 3.875 1.11-4.875h0l-1.11 4.875-3.278-5.874 2.168 10.75h0z"/><text text-anchor="middle" x="1206.5" y="-238.9" font-family="Courier,monospace" font-size="12" fill="#fff" transform="translate(4 884.491)">link</text></g><g class="node" transform="translate(4 884.491)"><ellipse fill="#667474" stroke="#fff" cx="2040" cy="-242" rx="35.194" ry="18"/><text text-anchor="middle" x="2040" y="-238.3" font-family="Helvetica,sans-Serif" font-size="14" fill="#fff">*alÎ²os</text></g><g class="edge"><path fill="none" stroke="#fff" stroke-dasharray="5,2" d="M1394.443 548.509c6.437 4.387 13.961 8.63 21.557 10.982 44.274 13.704 372.024-1.188 417 10 12.537 3.119 13.517 9.669 26 13 29.68 7.92 110.298-5.275 138 8 12.174 5.834 22.623 16.377 30.556 26.452"/><path fill="#fff" stroke="#fff" d="M2033.61 625.182l-2.295-10.723-.665 6.694-2.961-4.03h0l2.96 4.03-6.586-1.364 9.547 5.393h0z"/><text text-anchor="middle" x="1881.5" y="-305.4" font-family="Courier,monospace" font-size="12" fill="#fff" transform="translate(4 884.491)">inherit</text></g><g class="node" transform="translate(4 884.491)"><ellipse fill="#667474" stroke="#fff" cx="678" cy="-351" rx="48.993" ry="18"/><text text-anchor="middle" x="678" y="-347.3" font-family="Helvetica,sans-Serif" font-size="14" fill="#fff">candidato</text></g><g class="edge"><path fill="none" stroke="#fff" stroke-dasharray="5,2" d="M730.572 333.703l-41.823 172.03"/><path fill="#fff" stroke="#fff" d="M686.378 515.485l6.735-8.654-5.554 3.795 1.181-4.858h0l-1.181 4.858-3.192-5.921 2.01 10.78h0z"/><text text-anchor="middle" x="731.5" y="-456.9" font-family="Courier,monospace" font-size="12" fill="#fff" transform="translate(4 884.491)">link</text></g><g class="node" transform="translate(4 884.491)"><ellipse fill="#667474" stroke="#fff" cx="1038" cy="-351" rx="39.794" ry="18"/><text text-anchor="middle" x="1038" y="-347.3" font-family="Helvetica,sans-Serif" font-size="14" fill="#fff">candeÅ</text></g><g class="edge"><path fill="none" stroke="#fff" stroke-dasharray="5,2" d="M932.095 332.446c10.343 10.839 23.338 25.54 32.905 40.045 29.066 44.066 53.549 100.789 66.675 133.804"/><path fill="#fff" stroke="#fff" d="M1035.376 515.739l.541-10.952-2.365 6.297-1.825-4.655h0l1.825 4.655-6.014-3.013 7.838 7.668h0z"/><text text-anchor="middle" x="1028.5" y="-456.9" font-family="Courier,monospace" font-size="12" fill="#fff" transform="translate(4 884.491)">suffix-</text></g><g class="node" transform="translate(4 884.491)"><ellipse fill="#667474" stroke="#fff" cx="1123" cy="-351" rx="27" ry="18"/><text text-anchor="middle" x="1123" y="-347.3" font-family="Helvetica,sans-Serif" font-size="14" fill="#fff">idus</text></g><g class="edge"><path fill="none" stroke="#fff" stroke-dasharray="5,2" d="M957.664 322.359c32.639 7.296 76.758 21.86 105.336 50.132 37.012 36.617 53.232 97.322 59.856 132.801"/><path fill="#fff" stroke="#fff" d="M1124.616 515.438l2.725-10.622-3.58 5.696-.854-4.927h0l.855 4.927-5.289-4.158 6.143 9.084h0z"/><text text-anchor="middle" x="1130.5" y="-456.9" font-family="Courier,monospace" font-size="12" fill="#fff" transform="translate(4 884.491)">-suffix</text></g><g class="node" transform="translate(4 884.491)"><ellipse fill="#667474" stroke="#fff" cx="784" cy="-351" rx="39.794" ry="18"/><text text-anchor="middle" x="784" y="-347.3" font-family="Helvetica,sans-Serif" font-size="14" fill="#fff">candeo</text></g><g class="edge"><path fill="none" stroke="#fff" stroke-dasharray="5,2" d="M903.977 333.12c-6.964 11.218-16.104 26.084-23.977 39.371-27.931 47.139-59.388 102.762-77.337 134.752"/><path fill="#fff" stroke="#fff" d="M797.76 515.995l8.814-6.524-6.37 2.162 2.444-4.362h0l-2.444 4.362-1.482-6.562-.962 10.924h0z"/><text text-anchor="middle" x="891.5" y="-456.9" font-family="Courier,monospace" font-size="12" fill="#fff" transform="translate(4 884.491)">link</text></g><g class="node" transform="translate(4 884.491)"><ellipse fill="#667474" stroke="#fff" cx="911" cy="-351" rx="68.788" ry="18"/><text text-anchor="middle" x="911" y="-347.3" font-family="Helvetica,sans-Serif" font-size="14" fill="#fff">candeÅ + -idus</text></g><g class="edge"><path fill="none" stroke="#fff" stroke-dasharray="5,2" d="M915 333.703v171.743"/><path fill="#fff" stroke="#fff" d="M915 515.485l4.5-10-4.5 5v-5h0v5l-4.5-5 4.5 10h0z"/><text text-anchor="middle" x="934" y="-456.9" font-family="Courier,monospace" font-size="12" fill="#fff" transform="translate(4 884.491)">suffix</text></g><g class="node" transform="translate(4 884.491)"><ellipse fill="#667474" stroke="#fff" cx="1266" cy="-60" rx="48.993" ry="18"/><text text-anchor="middle" x="1266" y="-56.3" font-family="Helvetica,sans-Serif" font-size="14" fill="#fff">ğ’€ ğ’‰ºğ’€¸</text></g><g class="edge"><path fill="none" stroke="#fff" stroke-dasharray="5,2" d="M1349.385 729.177c-10.19 6.005-21.491 13.664-30.385 22.314-13.955 13.572-26.167 31.738-34.909 46.553"/><path fill="#fff" stroke="#fff" d="M1279.112 806.764l8.867-6.452-6.388 2.11 2.48-4.342h0l-2.48 4.342-1.428-6.573-1.05 10.915h0z"/><text text-anchor="middle" x="1341.5" y="-123.4" font-family="Courier,monospace" font-size="12" fill="#fff" transform="translate(4 884.491)">cognate</text></g><g class="node" transform="translate(4 884.491)"><ellipse fill="#667474" stroke="#fff" cx="1372" cy="-60" rx="33.295" ry="18"/><text text-anchor="middle" x="1372" y="-56.3" font-family="Helvetica,sans-Serif" font-size="14" fill="#fff">ğŒ€ğŒ‹ğŒšğŒ–</text></g><g class="edge"><path fill="none" stroke="#fff" stroke-dasharray="5,2" d="M1376 733.981v62.102"/><path fill="#fff" stroke="#fff" d="M1376 806.274l4.5-10-4.5 5v-5h0v5l-4.5-5 4.5 10h0z"/><text text-anchor="middle" x="1398.5" y="-123.4" font-family="Courier,monospace" font-size="12" fill="#fff" transform="translate(4 884.491)">cognate</text></g><g class="node" transform="translate(4 884.491)"><ellipse fill="#667474" stroke="#fff" cx="1458" cy="-60" rx="29.497" ry="18"/><text text-anchor="middle" x="1458" y="-56.3" font-family="Helvetica,sans-Serif" font-size="14" fill="#fff">elbid</text></g><g class="edge"><path fill="none" stroke="#fff" stroke-dasharray="5,2" d="M1404.2 728.588c10.16 5.84 21.025 13.537 28.8 22.903 10.724 12.919 17.84 30.296 22.339 44.855"/><path fill="#fff" stroke="#fff" d="M1458.166 806.345l1.61-10.847-2.97 6.036-1.361-4.812h0l1.36 4.812-5.69-3.587 7.05 8.398h0z"/><text text-anchor="middle" x="1463.5" y="-123.4" font-family="Courier,monospace" font-size="12" fill="#fff" transform="translate(4 884.491)">cognate</text></g><g class="node" transform="translate(4 884.491)"><ellipse fill="#667474" stroke="#fff" cx="1836" cy="-351" rx="41.693" ry="18"/><text text-anchor="middle" x="1836" y="-347.3" font-family="Helvetica,sans-Serif" font-size="14" fill="#fff">planche</text></g><g class="edge"><path fill="none" stroke="#fff" stroke-dasharray="5,2" d="M1778.657 437.539c9.829 5.962 20.542 13.76 28.343 22.952 11.187 13.183 19.29 30.776 24.668 45.388"/><path fill="#fff" stroke="#fff" d="M1834.96 515.428l.995-10.92-2.625 6.193-1.63-4.727h0l1.63 4.727-5.884-3.26 7.513 7.987h0z"/><text text-anchor="middle" x="1837.5" y="-414.4" font-family="Courier,monospace" font-size="12" fill="#fff" transform="translate(4 884.491)">derived</text></g><g class="node"><path fill="#069" stroke="#fff" d="M1774 515.491h-54v36h54v-36z"/><text text-anchor="middle" x="1743" y="-347.3" font-family="Helvetica,sans-Serif" font-size="14" fill="#fff" transform="translate(4 884.491)">plank</text></g><g class="edge"><path fill="none" stroke="#fff" stroke-dasharray="5,2" d="M1752.01 442.491l-3.467 62.966"/><path fill="#fff" stroke="#fff" d="M1747.992 515.465l5.043-9.737-4.768 4.745.275-4.993h0l-.275 4.993-4.218-5.24 3.943 10.232h0z"/><text text-anchor="middle" x="1772.5" y="-414.4" font-family="Courier,monospace" font-size="12" fill="#fff" transform="translate(4 884.491)">mention</text></g><g class="node" transform="translate(4 884.491)"><ellipse fill="#667474" stroke="#fff" cx="2114" cy="-351" rx="36.294" ry="18"/><text text-anchor="middle" x="2114" y="-347.3" font-family="Helvetica,sans-Serif" font-size="14" fill="#fff">blanco</text></g><g class="edge"><path fill="none" stroke="#fff" stroke-dasharray="5,2" d="M2118 442.981v62.102"/><path fill="#fff" stroke="#fff" d="M2118 515.274l4.5-10-4.5 5v-5h0v5l-4.5-5 4.5 10h0z"/><text text-anchor="middle" x="2140.5" y="-414.4" font-family="Courier,monospace" font-size="12" fill="#fff" transform="translate(4 884.491)">mention</text></g></g></svg>