<svg width="128" height="704" viewBox="0 0 95.55 528.09" xmlns="http://www.w3.org/2000/svg"><g class="graph"><path fill="#333" stroke="transparent" d="M0 528.095V0h95.547v528.095H0z"/><text text-anchor="middle" x="43.774" y="-9.2" font-family="Times,serif" font-size="16" fill="#fff" transform="translate(4 524.095)">Buch</text><g class="node" transform="translate(4 524.095)"><circle fill="#069" stroke="#fff" cx="34.547" cy="-485.547" r="30.589"/><circle fill="none" stroke="#fff" cx="34.547" cy="-485.547" r="34.595"/><text text-anchor="middle" x="34.547" y="-481.847" font-family="Helvetica,sans-Serif" font-size="14" fill="#fff">Buch</text></g><g class="node"><path fill="#069" stroke="#fff" d="M65.547 122.095h-54v36h54v-36z"/><text text-anchor="middle" x="34.547" y="-380.3" font-family="Helvetica,sans-Serif" font-size="14" fill="#fff" transform="translate(4 524.095)">book</text></g><g class="edge"><path fill="none" stroke="#fff" stroke-dasharray="5,2" d="M38.547 73.21v38.349"/><path fill="#fff" stroke="#fff" d="M38.547 121.825l4.5-10-4.5 5v-5h0v5l-4.5-5 4.5 10h0z"/><text text-anchor="middle" x="61.047" y="-423.4" font-family="Courier,monospace" font-size="12" fill="#fff" transform="translate(4 524.095)">cognate</text></g><g class="node" transform="translate(4 524.095)"><ellipse fill="#667474" stroke="#fff" cx="34.547" cy="-299" rx="29.795" ry="18"/><text text-anchor="middle" x="34.547" y="-295.3" font-family="Helvetica,sans-Serif" font-size="14" fill="#fff">boek</text></g><g class="edge"><path fill="none" stroke="#fff" stroke-dasharray="5,2" d="M38.547 158.121v38.811"/><path fill="#fff" stroke="#fff" d="M38.547 207.095l4.5-10-4.5 5v-5h0v5l-4.5-5 4.5 10h0z"/><text text-anchor="middle" x="61.047" y="-338.4" font-family="Courier,monospace" font-size="12" fill="#fff" transform="translate(4 524.095)">cognate</text></g><g class="node" transform="translate(4 524.095)"><ellipse fill="#667474" stroke="#fff" cx="34.547" cy="-214" rx="27" ry="18"/><text text-anchor="middle" x="34.547" y="-210.3" font-family="Helvetica,sans-Serif" font-size="14" fill="#fff">bog</text></g><g class="edge"><path fill="none" stroke="#fff" stroke-dasharray="5,2" d="M38.547 243.121v38.811"/><path fill="#fff" stroke="#fff" d="M38.547 292.095l4.5-10-4.5 5v-5h0v5l-4.5-5 4.5 10h0z"/><text text-anchor="middle" x="61.047" y="-253.4" font-family="Courier,monospace" font-size="12" fill="#fff" transform="translate(4 524.095)">cognate</text></g><g class="node" transform="translate(4 524.095)"><ellipse fill="#667474" stroke="#fff" cx="34.547" cy="-129" rx="27" ry="18"/><text text-anchor="middle" x="34.547" y="-125.3" font-family="Helvetica,sans-Serif" font-size="14" fill="#fff">boc</text></g><g class="edge"><path fill="none" stroke="#fff" stroke-dasharray="5,2" d="M38.547 328.121v38.811"/><path fill="#fff" stroke="#fff" d="M38.547 377.095l4.5-10-4.5 5v-5h0v5l-4.5-5 4.5 10h0z"/><text text-anchor="middle" x="61.047" y="-168.4" font-family="Courier,monospace" font-size="12" fill="#fff" transform="translate(4 524.095)">inherit</text></g><g class="node"><path fill="#069" stroke="#fff" d="M65.547 462.095h-54v36h54v-36z"/><text text-anchor="middle" x="34.547" y="-40.3" font-family="Helvetica,sans-Serif" font-size="14" fill="#fff" transform="translate(4 524.095)">beech</text></g><g class="edge"><path fill="none" stroke="#fff" stroke-dasharray="5,2" d="M38.547 413.121v38.811"/><path fill="#fff" stroke="#fff" d="M38.547 462.095l4.5-10-4.5 5v-5h0v5l-4.5-5 4.5 10h0z"/><text text-anchor="middle" x="61.047" y="-83.4" font-family="Courier,monospace" font-size="12" fill="#fff" transform="translate(4 524.095)">mention</text></g></g></svg>