<?xml version="1.0" encoding="UTF-8" standalone="no"?>
<!DOCTYPE svg PUBLIC "-//W3C//DTD SVG 1.1//EN"
 "http://www.w3.org/Graphics/SVG/1.1/DTD/svg11.dtd">
<!-- Generated by graphviz version 2.40.1 (20161225.0304)
 -->
<!-- Title: %3 Pages: 1 -->
<svg width="462pt" height="358pt"
 viewBox="0.00 0.00 462.00 358.09" xmlns="http://www.w3.org/2000/svg" xmlns:xlink="http://www.w3.org/1999/xlink">
<g id="graph0" class="graph" transform="scale(1 1) rotate(0) translate(4 354.0946)">
<title>%3</title>
<polygon fill="#333333" stroke="transparent" points="-4,4 -4,-354.0946 458,-354.0946 458,4 -4,4"/>
<text text-anchor="middle" x="227" y="-9.2" font-family="Times,serif" font-size="16.00" fill="#ffffff">Buch</text>
<!-- Buch -->
<g id="node1" class="node">
<title>Buch</title>
<ellipse fill="#006699" stroke="#ffffff" cx="225" cy="-315.5473" rx="30.5892" ry="30.5892"/>
<ellipse fill="none" stroke="#ffffff" cx="225" cy="-315.5473" rx="34.5946" ry="34.5946"/>
<text text-anchor="middle" x="225" y="-311.8473" font-family="Helvetica,sans-Serif" font-size="14.00" fill="#ffffff">Buch</text>
</g>
<!-- būh -->
<g id="node2" class="node">
<title>būh</title>
<ellipse fill="#667474" stroke="#ffffff" cx="27" cy="-214" rx="27" ry="18"/>
<text text-anchor="middle" x="27" y="-210.3" font-family="Helvetica,sans-Serif" font-size="14.00" fill="#ffffff">būh</text>
</g>
<!-- Buch&#45;&gt;būh -->
<g id="edge1" class="edge">
<title>Buch&#45;&gt;būh</title>
<path fill="none" stroke="#ffffff" stroke-dasharray="5,2" d="M190.538,-310.5088C155.945,-304.1055 102.4143,-290.4104 64,-263 55.3702,-256.8422 47.8614,-248.0737 41.905,-239.6522"/>
<polygon fill="#ffffff" stroke="#ffffff" points="36.2779,-231.1257 45.542,-236.9933 39.032,-235.2989 41.7861,-239.472 41.7861,-239.472 41.7861,-239.472 39.032,-235.2989 38.0303,-241.9507 36.2779,-231.1257 36.2779,-231.1257"/>
<text text-anchor="middle" x="90.5" y="-253.4" font-family="Courier,monospace" font-size="12.00" fill="#ffffff">inherit</text>
</g>
<!-- buoh -->
<g id="node3" class="node">
<title>buoh</title>
<ellipse fill="#667474" stroke="#ffffff" cx="103" cy="-214" rx="30.5947" ry="18"/>
<text text-anchor="middle" x="103" y="-210.3" font-family="Helvetica,sans-Serif" font-size="14.00" fill="#ffffff">buoh</text>
</g>
<!-- Buch&#45;&gt;buoh -->
<g id="edge2" class="edge">
<title>Buch&#45;&gt;buoh</title>
<path fill="none" stroke="#ffffff" stroke-dasharray="5,2" d="M192.5478,-303.0981C172.6611,-294.2302 147.7113,-280.7399 130,-263 123.7551,-256.745 118.5383,-248.7454 114.4077,-241.0318"/>
<polygon fill="#ffffff" stroke="#ffffff" points="109.912,-231.9013 118.3666,-238.8849 112.1207,-236.387 114.3294,-240.8728 114.3294,-240.8728 114.3294,-240.8728 112.1207,-236.387 110.2923,-242.8606 109.912,-231.9013 109.912,-231.9013"/>
<text text-anchor="middle" x="156.5" y="-253.4" font-family="Courier,monospace" font-size="12.00" fill="#ffffff">inherit</text>
</g>
<!-- buoch -->
<g id="node4" class="node">
<title>buoch</title>
<ellipse fill="#667474" stroke="#ffffff" cx="186" cy="-214" rx="34.394" ry="18"/>
<text text-anchor="middle" x="186" y="-210.3" font-family="Helvetica,sans-Serif" font-size="14.00" fill="#ffffff">buoch</text>
</g>
<!-- Buch&#45;&gt;buoch -->
<g id="edge3" class="edge">
<title>Buch&#45;&gt;buoch</title>
<path fill="none" stroke="#ffffff" stroke-dasharray="5,2" d="M202.734,-288.9777C197.2847,-281.0822 192.1258,-272.0989 189,-263 186.783,-256.5466 185.6593,-249.337 185.1619,-242.4755"/>
<polygon fill="#ffffff" stroke="#ffffff" points="184.8286,-232.1384 189.6486,-241.9881 184.9898,-237.1358 185.151,-242.1332 185.151,-242.1332 185.151,-242.1332 184.9898,-237.1358 180.6533,-242.2782 184.8286,-232.1384 184.8286,-232.1384"/>
<text text-anchor="middle" x="215.5" y="-253.4" font-family="Courier,monospace" font-size="12.00" fill="#ffffff">inherit</text>
</g>
<!-- book -->
<g id="node6" class="node">
<title>book</title>
<polygon fill="#006699" stroke="#ffffff" points="292,-232 238,-232 238,-196 292,-196 292,-232"/>
<text text-anchor="middle" x="265" y="-210.3" font-family="Helvetica,sans-Serif" font-size="14.00" fill="#ffffff">book</text>
</g>
<!-- Buch&#45;&gt;book -->
<g id="edge5" class="edge">
<title>Buch&#45;&gt;book</title>
<path fill="none" stroke="#ffffff" stroke-dasharray="5,2" d="M237.7662,-283.1379C242.9981,-269.8558 248.9933,-254.636 254.0244,-241.8636"/>
<polygon fill="#ffffff" stroke="#ffffff" points="257.8196,-232.2288 258.3414,-243.1823 255.9871,-236.8809 254.1545,-241.533 254.1545,-241.533 254.1545,-241.533 255.9871,-236.8809 249.9677,-239.8837 257.8196,-232.2288 257.8196,-232.2288"/>
<text text-anchor="middle" x="276.5" y="-253.4" font-family="Courier,monospace" font-size="12.00" fill="#ffffff">cognate</text>
</g>
<!-- Buche -->
<g id="node10" class="node">
<title>Buche</title>
<ellipse fill="#667474" stroke="#ffffff" cx="346" cy="-214" rx="35.9954" ry="18"/>
<text text-anchor="middle" x="346" y="-210.3" font-family="Helvetica,sans-Serif" font-size="14.00" fill="#ffffff">Buche</text>
</g>
<!-- Buch&#45;&gt;Buche -->
<g id="edge9" class="edge">
<title>Buch&#45;&gt;Buche</title>
<path fill="none" stroke="#ffffff" stroke-dasharray="5,2" d="M255.507,-299.247C271.7104,-289.8153 291.4356,-277.0477 307,-263 314.6677,-256.0795 322.0152,-247.5475 328.2243,-239.5531"/>
<polygon fill="#ffffff" stroke="#ffffff" points="334.2484,-231.5067 331.8575,-242.2088 331.2518,-235.5092 328.2552,-239.5118 328.2552,-239.5118 328.2552,-239.5118 331.2518,-235.5092 324.6529,-236.8148 334.2484,-231.5067 334.2484,-231.5067"/>
<text text-anchor="middle" x="334.5" y="-253.4" font-family="Courier,monospace" font-size="12.00" fill="#ffffff">link</text>
</g>
<!-- בוך -->
<g id="node11" class="node">
<title>בוך</title>
<ellipse fill="#667474" stroke="#ffffff" cx="427" cy="-214" rx="27" ry="18"/>
<text text-anchor="middle" x="427" y="-210.3" font-family="Helvetica,sans-Serif" font-size="14.00" fill="#ffffff">בוך</text>
</g>
<!-- Buch&#45;&gt;בוך -->
<g id="edge10" class="edge">
<title>Buch&#45;&gt;בוך</title>
<path fill="none" stroke="#ffffff" stroke-dasharray="5,2" d="M257.9055,-304.2603C284.4833,-294.6469 322.5108,-279.7551 354,-263 370.1386,-254.4128 387.1543,-243.1358 400.6941,-233.5652"/>
<polygon fill="#ffffff" stroke="#ffffff" points="409.0456,-227.5678 403.5479,-237.056 404.9843,-230.4843 400.923,-233.4009 400.923,-233.4009 400.923,-233.4009 404.9843,-230.4843 398.2982,-229.7457 409.0456,-227.5678 409.0456,-227.5678"/>
<text text-anchor="middle" x="400.5" y="-253.4" font-family="Courier,monospace" font-size="12.00" fill="#ffffff">cognate</text>
</g>
<!-- *bōks -->
<g id="node5" class="node">
<title>*bōks</title>
<ellipse fill="#667474" stroke="#ffffff" cx="103" cy="-129" rx="32.4942" ry="18"/>
<text text-anchor="middle" x="103" y="-125.3" font-family="Helvetica,sans-Serif" font-size="14.00" fill="#ffffff">*bōks</text>
</g>
<!-- buoh&#45;&gt;*bōks -->
<g id="edge4" class="edge">
<title>buoh&#45;&gt;*bōks</title>
<path fill="none" stroke="#ffffff" stroke-dasharray="5,2" d="M103,-195.9737C103,-184.7043 103,-169.9524 103,-157.1627"/>
<polygon fill="#ffffff" stroke="#ffffff" points="103,-147.0003 107.5001,-157.0003 103,-152.0003 103.0001,-157.0003 103.0001,-157.0003 103.0001,-157.0003 103,-152.0003 98.5001,-157.0004 103,-147.0003 103,-147.0003"/>
<text text-anchor="middle" x="129.5" y="-168.4" font-family="Courier,monospace" font-size="12.00" fill="#ffffff">inherit</text>
</g>
<!-- boek -->
<g id="node7" class="node">
<title>boek</title>
<ellipse fill="#667474" stroke="#ffffff" cx="265" cy="-129" rx="29.795" ry="18"/>
<text text-anchor="middle" x="265" y="-125.3" font-family="Helvetica,sans-Serif" font-size="14.00" fill="#ffffff">boek</text>
</g>
<!-- book&#45;&gt;boek -->
<g id="edge6" class="edge">
<title>book&#45;&gt;boek</title>
<path fill="none" stroke="#ffffff" stroke-dasharray="5,2" d="M265,-195.9737C265,-184.7043 265,-169.9524 265,-157.1627"/>
<polygon fill="#ffffff" stroke="#ffffff" points="265,-147.0003 269.5001,-157.0003 265,-152.0003 265.0001,-157.0003 265.0001,-157.0003 265.0001,-157.0003 265,-152.0003 260.5001,-157.0004 265,-147.0003 265,-147.0003"/>
<text text-anchor="middle" x="291.5" y="-168.4" font-family="Courier,monospace" font-size="12.00" fill="#ffffff">cognate</text>
</g>
<!-- bog -->
<g id="node8" class="node">
<title>bog</title>
<ellipse fill="#667474" stroke="#ffffff" cx="227" cy="-44" rx="27" ry="18"/>
<text text-anchor="middle" x="227" y="-40.3" font-family="Helvetica,sans-Serif" font-size="14.00" fill="#ffffff">bog</text>
</g>
<!-- boek&#45;&gt;bog -->
<g id="edge7" class="edge">
<title>boek&#45;&gt;bog</title>
<path fill="none" stroke="#ffffff" stroke-dasharray="5,2" d="M245.2851,-115.0388C238.516,-109.0938 231.7133,-101.5493 228,-93 225.1759,-86.498 224.0841,-79.0384 223.8961,-71.9331"/>
<polygon fill="#ffffff" stroke="#ffffff" points="224.1709,-61.9293 228.3945,-72.0491 224.0336,-66.9274 223.8962,-71.9255 223.8962,-71.9255 223.8962,-71.9255 224.0336,-66.9274 219.3979,-71.8019 224.1709,-61.9293 224.1709,-61.9293"/>
<text text-anchor="middle" x="254.5" y="-83.4" font-family="Courier,monospace" font-size="12.00" fill="#ffffff">cognate</text>
</g>
<!-- Book -->
<g id="node9" class="node">
<title>Book</title>
<ellipse fill="#667474" stroke="#ffffff" cx="303" cy="-44" rx="30.5947" ry="18"/>
<text text-anchor="middle" x="303" y="-40.3" font-family="Helvetica,sans-Serif" font-size="14.00" fill="#ffffff">Book</text>
</g>
<!-- boek&#45;&gt;Book -->
<g id="edge8" class="edge">
<title>boek&#45;&gt;Book</title>
<path fill="none" stroke="#ffffff" stroke-dasharray="5,2" d="M272.8736,-111.3879C278.1216,-99.6491 285.1181,-83.9989 291.0477,-70.7355"/>
<polygon fill="#ffffff" stroke="#ffffff" points="295.1365,-61.5895 295.1633,-72.5554 293.0958,-66.1541 291.0551,-70.7187 291.0551,-70.7187 291.0551,-70.7187 293.0958,-66.1541 286.9469,-68.8821 295.1365,-61.5895 295.1365,-61.5895"/>
<text text-anchor="middle" x="313.5" y="-83.4" font-family="Courier,monospace" font-size="12.00" fill="#ffffff">cognate</text>
</g>
</g>
</svg>
