<?xml version="1.0" encoding="UTF-8" standalone="no"?>
<!DOCTYPE svg PUBLIC "-//W3C//DTD SVG 1.1//EN"
 "http://www.w3.org/Graphics/SVG/1.1/DTD/svg11.dtd">
<!-- Generated by graphviz version 2.40.1 (20161225.0304)
 -->
<!-- Title: %3 Pages: 1 -->
<svg width="96pt" height="528pt"
 viewBox="0.00 0.00 95.55 528.09" xmlns="http://www.w3.org/2000/svg" xmlns:xlink="http://www.w3.org/1999/xlink">
<g id="graph0" class="graph" transform="scale(1 1) rotate(0) translate(4 524.0946)">
<title>%3</title>
<polygon fill="#333333" stroke="transparent" points="-4,4 -4,-524.0946 91.5473,-524.0946 91.5473,4 -4,4"/>
<text text-anchor="middle" x="43.7736" y="-9.2" font-family="Times,serif" font-size="16.00" fill="#ffffff">Buch</text>
<!-- Buch -->
<g id="node1" class="node">
<title>Buch</title>
<ellipse fill="#006699" stroke="#ffffff" cx="34.5473" cy="-485.5473" rx="30.5892" ry="30.5892"/>
<ellipse fill="none" stroke="#ffffff" cx="34.5473" cy="-485.5473" rx="34.5946" ry="34.5946"/>
<text text-anchor="middle" x="34.5473" y="-481.8473" font-family="Helvetica,sans-Serif" font-size="14.00" fill="#ffffff">Buch</text>
</g>
<!-- book -->
<g id="node2" class="node">
<title>book</title>
<polygon fill="#006699" stroke="#ffffff" points="61.5473,-402 7.5473,-402 7.5473,-366 61.5473,-366 61.5473,-402"/>
<text text-anchor="middle" x="34.5473" y="-380.3" font-family="Helvetica,sans-Serif" font-size="14.00" fill="#ffffff">book</text>
</g>
<!-- Buch&#45;&gt;book -->
<g id="edge1" class="edge">
<title>Buch&#45;&gt;book</title>
<path fill="none" stroke="#ffffff" stroke-dasharray="5,2" d="M34.5473,-450.8845C34.5473,-438.3914 34.5473,-424.4465 34.5473,-412.5362"/>
<polygon fill="#ffffff" stroke="#ffffff" points="34.5473,-402.2701 39.0474,-412.27 34.5473,-407.2701 34.5474,-412.2701 34.5474,-412.2701 34.5474,-412.2701 34.5473,-407.2701 30.0474,-412.2701 34.5473,-402.2701 34.5473,-402.2701"/>
<text text-anchor="middle" x="61.0473" y="-423.4" font-family="Courier,monospace" font-size="12.00" fill="#ffffff">cognate</text>
</g>
<!-- boek -->
<g id="node3" class="node">
<title>boek</title>
<ellipse fill="#667474" stroke="#ffffff" cx="34.5473" cy="-299" rx="29.795" ry="18"/>
<text text-anchor="middle" x="34.5473" y="-295.3" font-family="Helvetica,sans-Serif" font-size="14.00" fill="#ffffff">boek</text>
</g>
<!-- book&#45;&gt;boek -->
<g id="edge2" class="edge">
<title>book&#45;&gt;boek</title>
<path fill="none" stroke="#ffffff" stroke-dasharray="5,2" d="M34.5473,-365.9737C34.5473,-354.7043 34.5473,-339.9524 34.5473,-327.1627"/>
<polygon fill="#ffffff" stroke="#ffffff" points="34.5473,-317.0003 39.0474,-327.0003 34.5473,-322.0003 34.5474,-327.0003 34.5474,-327.0003 34.5474,-327.0003 34.5473,-322.0003 30.0474,-327.0004 34.5473,-317.0003 34.5473,-317.0003"/>
<text text-anchor="middle" x="61.0473" y="-338.4" font-family="Courier,monospace" font-size="12.00" fill="#ffffff">cognate</text>
</g>
<!-- bog -->
<g id="node4" class="node">
<title>bog</title>
<ellipse fill="#667474" stroke="#ffffff" cx="34.5473" cy="-214" rx="27" ry="18"/>
<text text-anchor="middle" x="34.5473" y="-210.3" font-family="Helvetica,sans-Serif" font-size="14.00" fill="#ffffff">bog</text>
</g>
<!-- boek&#45;&gt;bog -->
<g id="edge3" class="edge">
<title>boek&#45;&gt;bog</title>
<path fill="none" stroke="#ffffff" stroke-dasharray="5,2" d="M34.5473,-280.9737C34.5473,-269.7043 34.5473,-254.9524 34.5473,-242.1627"/>
<polygon fill="#ffffff" stroke="#ffffff" points="34.5473,-232.0003 39.0474,-242.0003 34.5473,-237.0003 34.5474,-242.0003 34.5474,-242.0003 34.5474,-242.0003 34.5473,-237.0003 30.0474,-242.0004 34.5473,-232.0003 34.5473,-232.0003"/>
<text text-anchor="middle" x="61.0473" y="-253.4" font-family="Courier,monospace" font-size="12.00" fill="#ffffff">cognate</text>
</g>
<!-- boc -->
<g id="node5" class="node">
<title>boc</title>
<ellipse fill="#667474" stroke="#ffffff" cx="34.5473" cy="-129" rx="27" ry="18"/>
<text text-anchor="middle" x="34.5473" y="-125.3" font-family="Helvetica,sans-Serif" font-size="14.00" fill="#ffffff">boc</text>
</g>
<!-- bog&#45;&gt;boc -->
<g id="edge4" class="edge">
<title>bog&#45;&gt;boc</title>
<path fill="none" stroke="#ffffff" stroke-dasharray="5,2" d="M34.5473,-195.9737C34.5473,-184.7043 34.5473,-169.9524 34.5473,-157.1627"/>
<polygon fill="#ffffff" stroke="#ffffff" points="34.5473,-147.0003 39.0474,-157.0003 34.5473,-152.0003 34.5474,-157.0003 34.5474,-157.0003 34.5474,-157.0003 34.5473,-152.0003 30.0474,-157.0004 34.5473,-147.0003 34.5473,-147.0003"/>
<text text-anchor="middle" x="61.0473" y="-168.4" font-family="Courier,monospace" font-size="12.00" fill="#ffffff">inherit</text>
</g>
<!-- beech -->
<g id="node6" class="node">
<title>beech</title>
<polygon fill="#006699" stroke="#ffffff" points="61.5473,-62 7.5473,-62 7.5473,-26 61.5473,-26 61.5473,-62"/>
<text text-anchor="middle" x="34.5473" y="-40.3" font-family="Helvetica,sans-Serif" font-size="14.00" fill="#ffffff">beech</text>
</g>
<!-- boc&#45;&gt;beech -->
<g id="edge5" class="edge">
<title>boc&#45;&gt;beech</title>
<path fill="none" stroke="#ffffff" stroke-dasharray="5,2" d="M34.5473,-110.9737C34.5473,-99.7043 34.5473,-84.9524 34.5473,-72.1627"/>
<polygon fill="#ffffff" stroke="#ffffff" points="34.5473,-62.0003 39.0474,-72.0003 34.5473,-67.0003 34.5474,-72.0003 34.5474,-72.0003 34.5474,-72.0003 34.5473,-67.0003 30.0474,-72.0004 34.5473,-62.0003 34.5473,-62.0003"/>
<text text-anchor="middle" x="61.0473" y="-83.4" font-family="Courier,monospace" font-size="12.00" fill="#ffffff">mention</text>
</g>
</g>
</svg>
